<svg xmlns="http://www.w3.org/2000/svg" xmlns:xlink="http://www.w3.org/1999/xlink" contentStyleType="text/css" data-diagram-type="DESCRIPTION" height="685px" preserveAspectRatio="none" style="width:2065px;height:685px;background:#FFFFFF;" version="1.1" viewBox="0 0 2065 685" width="2065px" zoomAndPan="magnify"><defs/><g><!--cluster Energizer--><g class="cluster" data-entity="Energizer" data-source-line="15" data-uid="ent0008" id="cluster_Energizer"><path d="M8.5,121 L73.2998,121 A3.75,3.75 0 0 1 75.7998,123.5 L82.7998,145.6211 L1449.5,145.6211 A2.5,2.5 0 0 1 1452,148.1211 L1452,675.5 A2.5,2.5 0 0 1 1449.5,678 L8.5,678 A2.5,2.5 0 0 1 6,675.5 L6,123.5 A2.5,2.5 0 0 1 8.5,121" fill="#FFFFE0" style="stroke:#000000;stroke-width:1.5;"/><line style="stroke:#000000;stroke-width:1.5;" x1="6" x2="82.7998" y1="145.6211" y2="145.6211"/><text fill="#000000" font-family="sans-serif" font-size="14" font-weight="bold" lengthAdjust="spacing" textLength="63.7998" x="10" y="138.1074">Energizer</text></g><!--cluster Green Split Flow--><g class="cluster" data-entity="Green Split Flow" data-source-line="17" data-uid="ent0009" id="cluster_Green Split Flow"><path d="M32.5,166 L143.9551,166 A3.75,3.75 0 0 1 146.4551,168.5 L153.4551,190.6211 L475.5,190.6211 A2.5,2.5 0 0 1 478,193.1211 L478,651.5 A2.5,2.5 0 0 1 475.5,654 L32.5,654 A2.5,2.5 0 0 1 30,651.5 L30,168.5 A2.5,2.5 0 0 1 32.5,166" fill="none" style="stroke:#000000;stroke-width:1.5;"/><line style="stroke:#000000;stroke-width:1.5;" x1="30" x2="153.4551" y1="190.6211" y2="190.6211"/><text fill="#000000" font-family="sans-serif" font-size="14" font-weight="bold" lengthAdjust="spacing" textLength="110.4551" x="34" y="183.1074">Green Split Flow</text></g><!--cluster Red Split Flow--><g class="cluster" data-entity="Red Split Flow" data-source-line="27" data-uid="ent0018" id="cluster_Red Split Flow"><path d="M504.5,166 L601.9414,166 A3.75,3.75 0 0 1 604.4414,168.5 L611.4414,190.6211 L951.5,190.6211 A2.5,2.5 0 0 1 954,193.1211 L954,651.5 A2.5,2.5 0 0 1 951.5,654 L504.5,654 A2.5,2.5 0 0 1 502,651.5 L502,168.5 A2.5,2.5 0 0 1 504.5,166" fill="none" style="stroke:#000000;stroke-width:1.5;"/><line style="stroke:#000000;stroke-width:1.5;" x1="502" x2="611.4414" y1="190.6211" y2="190.6211"/><text fill="#000000" font-family="sans-serif" font-size="14" font-weight="bold" lengthAdjust="spacing" textLength="96.4414" x="506" y="183.1074">Red Split Flow</text></g><!--cluster Blue Split Flow--><g class="cluster" data-entity="Blue Split Flow" data-source-line="38" data-uid="ent0027" id="cluster_Blue Split Flow"><path d="M980.5,166 L1081.8311,166 A3.75,3.75 0 0 1 1084.3311,168.5 L1091.3311,190.6211 L1425.5,190.6211 A2.5,2.5 0 0 1 1428,193.1211 L1428,651.5 A2.5,2.5 0 0 1 1425.5,654 L980.5,654 A2.5,2.5 0 0 1 978,651.5 L978,168.5 A2.5,2.5 0 0 1 980.5,166" fill="none" style="stroke:#000000;stroke-width:1.5;"/><line style="stroke:#000000;stroke-width:1.5;" x1="978" x2="1091.3311" y1="190.6211" y2="190.6211"/><text fill="#000000" font-family="sans-serif" font-size="14" font-weight="bold" lengthAdjust="spacing" textLength="100.3311" x="982" y="183.1074">Blue Split Flow</text></g><!--cluster Crusher--><g class="cluster" data-entity="Crusher" data-source-line="50" data-uid="ent0036" id="cluster_Crusher"><path d="M1478.5,166 L1533.1826,166 A3.75,3.75 0 0 1 1535.6826,168.5 L1542.6826,190.6211 L2055.5,190.6211 A2.5,2.5 0 0 1 2058,193.1211 L2058,265.5 A2.5,2.5 0 0 1 2055.5,268 L1478.5,268 A2.5,2.5 0 0 1 1476,265.5 L1476,168.5 A2.5,2.5 0 0 1 1478.5,166" fill="#FFFFE0" style="stroke:#000000;stroke-width:1.5;"/><line style="stroke:#000000;stroke-width:1.5;" x1="1476" x2="1542.6826" y1="190.6211" y2="190.6211"/><text fill="#000000" font-family="sans-serif" font-size="14" font-weight="bold" lengthAdjust="spacing" textLength="53.6826" x="1480" y="183.1074">Crusher</text></g><!--entity SG--><g class="entity" data-entity="SG" data-source-line="18" data-uid="ent0010" id="entity_SG"><rect fill="#ADD8E6" height="48.6211" rx="2.5" ry="2.5" style="stroke:#181818;stroke-width:0.5;" width="110.0342" x="344" y="203"/><rect fill="#ADD8E6" height="10" style="stroke:#181818;stroke-width:0.5;" width="15" x="434.0342" y="208"/><rect fill="#ADD8E6" height="2" style="stroke:#181818;stroke-width:0.5;" width="4" x="432.0342" y="210"/><rect fill="#ADD8E6" height="2" style="stroke:#181818;stroke-width:0.5;" width="4" x="432.0342" y="214"/><text fill="#000000" font-family="sans-serif" font-size="14" lengthAdjust="spacing" textLength="70.0342" x="359" y="238.1074">Split Green</text></g><!--entity SM--><g class="entity" data-entity="SM" data-source-line="19" data-uid="ent0011" id="entity_SM"><rect fill="#ADD8E6" height="48.6211" rx="2.5" ry="2.5" style="stroke:#181818;stroke-width:0.5;" width="125.6064" x="191" y="461"/><rect fill="#ADD8E6" height="10" style="stroke:#181818;stroke-width:0.5;" width="15" x="296.6064" y="466"/><rect fill="#ADD8E6" height="2" style="stroke:#181818;stroke-width:0.5;" width="4" x="294.6064" y="468"/><rect fill="#ADD8E6" height="2" style="stroke:#181818;stroke-width:0.5;" width="4" x="294.6064" y="472"/><text fill="#000000" font-family="sans-serif" font-size="14" lengthAdjust="spacing" textLength="85.6064" x="206" y="496.1074">Split Magenta</text></g><!--entity MC--><g class="entity" data-entity="MC" data-source-line="20" data-uid="ent0012" id="entity_MC"><rect fill="#F1F1F1" height="48.6211" rx="2.5" ry="2.5" style="stroke:#181818;stroke-width:0.5;" width="141.9307" x="46" y="333"/><rect fill="#F1F1F1" height="10" style="stroke:#181818;stroke-width:0.5;" width="15" x="167.9307" y="338"/><rect fill="#F1F1F1" height="2" style="stroke:#181818;stroke-width:0.5;" width="4" x="165.9307" y="340"/><rect fill="#F1F1F1" height="2" style="stroke:#181818;stroke-width:0.5;" width="4" x="165.9307" y="344"/><text fill="#000000" font-family="sans-serif" font-size="14" lengthAdjust="spacing" textLength="101.9307" x="61" y="368.1074">Magenta Crystal</text></g><!--entity W1--><g class="entity" data-entity="W1" data-source-line="21" data-uid="ent0013" id="entity_W1"><rect fill="#F1F1F1" height="48.6211" rx="2.5" ry="2.5" style="stroke:#181818;stroke-width:0.5;" width="77.3379" x="223.5" y="333"/><rect fill="#F1F1F1" height="10" style="stroke:#181818;stroke-width:0.5;" width="15" x="280.8379" y="338"/><rect fill="#F1F1F1" height="2" style="stroke:#181818;stroke-width:0.5;" width="4" x="278.8379" y="340"/><rect fill="#F1F1F1" height="2" style="stroke:#181818;stroke-width:0.5;" width="4" x="278.8379" y="344"/><text fill="#000000" font-family="sans-serif" font-size="14" lengthAdjust="spacing" textLength="37.3379" x="238.5" y="368.1074">Water</text></g><!--entity RC1--><g class="entity" data-entity="RC1" data-source-line="22" data-uid="ent0014" id="entity_RC1"><rect fill="#90EE90" height="48.6211" rx="2.5" ry="2.5" style="stroke:#181818;stroke-width:0.5;" width="113.1309" x="48.5" y="589"/><rect fill="#90EE90" height="10" style="stroke:#181818;stroke-width:0.5;" width="15" x="141.6309" y="594"/><rect fill="#90EE90" height="2" style="stroke:#181818;stroke-width:0.5;" width="4" x="139.6309" y="596"/><rect fill="#90EE90" height="2" style="stroke:#181818;stroke-width:0.5;" width="4" x="139.6309" y="600"/><text fill="#000000" font-family="sans-serif" font-size="14" lengthAdjust="spacing" textLength="73.1309" x="63.5" y="624.1074">Red Crystal</text></g><!--entity GC1--><g class="entity" data-entity="GC1" data-source-line="23" data-uid="ent0015" id="entity_GC1"><rect fill="#90EE90" height="48.6211" rx="2.5" ry="2.5" style="stroke:#181818;stroke-width:0.5;" width="126.3584" x="336" y="333"/><rect fill="#90EE90" height="10" style="stroke:#181818;stroke-width:0.5;" width="15" x="442.3584" y="338"/><rect fill="#90EE90" height="2" style="stroke:#181818;stroke-width:0.5;" width="4" x="440.3584" y="340"/><rect fill="#90EE90" height="2" style="stroke:#181818;stroke-width:0.5;" width="4" x="440.3584" y="344"/><text fill="#000000" font-family="sans-serif" font-size="14" lengthAdjust="spacing" textLength="86.3584" x="351" y="368.1074">Green Crystal</text></g><!--entity BC1--><g class="entity" data-entity="BC1" data-source-line="24" data-uid="ent0016" id="entity_BC1"><rect fill="#90EE90" height="48.6211" rx="2.5" ry="2.5" style="stroke:#181818;stroke-width:0.5;" width="115.4688" x="196.5" y="589"/><rect fill="#90EE90" height="10" style="stroke:#181818;stroke-width:0.5;" width="15" x="291.9688" y="594"/><rect fill="#90EE90" height="2" style="stroke:#181818;stroke-width:0.5;" width="4" x="289.9688" y="596"/><rect fill="#90EE90" height="2" style="stroke:#181818;stroke-width:0.5;" width="4" x="289.9688" y="600"/><text fill="#000000" font-family="sans-serif" font-size="14" lengthAdjust="spacing" textLength="75.4688" x="211.5" y="624.1074">Blue Crystal</text></g><!--entity ST1--><g class="entity" data-entity="ST1" data-source-line="25" data-uid="ent0017" id="entity_ST1"><rect fill="#90EE90" height="48.6211" rx="2.5" ry="2.5" style="stroke:#181818;stroke-width:0.5;" width="107.71" x="347" y="589"/><rect fill="#90EE90" height="10" style="stroke:#181818;stroke-width:0.5;" width="15" x="434.71" y="594"/><rect fill="#90EE90" height="2" style="stroke:#181818;stroke-width:0.5;" width="4" x="432.71" y="596"/><rect fill="#90EE90" height="2" style="stroke:#181818;stroke-width:0.5;" width="4" x="432.71" y="600"/><text fill="#000000" font-family="sans-serif" font-size="14" lengthAdjust="spacing" textLength="67.71" x="362" y="624.1074">Steam 165</text></g><!--entity SR--><g class="entity" data-entity="SR" data-source-line="28" data-uid="ent0019" id="entity_SR"><rect fill="#ADD8E6" height="48.6211" rx="2.5" ry="2.5" style="stroke:#181818;stroke-width:0.5;" width="96.8066" x="695.5" y="203"/><rect fill="#ADD8E6" height="10" style="stroke:#181818;stroke-width:0.5;" width="15" x="772.3066" y="208"/><rect fill="#ADD8E6" height="2" style="stroke:#181818;stroke-width:0.5;" width="4" x="770.3066" y="210"/><rect fill="#ADD8E6" height="2" style="stroke:#181818;stroke-width:0.5;" width="4" x="770.3066" y="214"/><text fill="#000000" font-family="sans-serif" font-size="14" lengthAdjust="spacing" textLength="56.8066" x="710.5" y="238.1074">Split Red</text></g><!--entity SC--><g class="entity" data-entity="SC" data-source-line="29" data-uid="ent0020" id="entity_SC"><rect fill="#ADD8E6" height="48.6211" rx="2.5" ry="2.5" style="stroke:#181818;stroke-width:0.5;" width="103.8066" x="685" y="461"/><rect fill="#ADD8E6" height="10" style="stroke:#181818;stroke-width:0.5;" width="15" x="768.8066" y="466"/><rect fill="#ADD8E6" height="2" style="stroke:#181818;stroke-width:0.5;" width="4" x="766.8066" y="468"/><rect fill="#ADD8E6" height="2" style="stroke:#181818;stroke-width:0.5;" width="4" x="766.8066" y="472"/><text fill="#000000" font-family="sans-serif" font-size="14" lengthAdjust="spacing" textLength="63.8066" x="700" y="496.1074">Split Cyan</text></g><!--entity CC--><g class="entity" data-entity="CC" data-source-line="30" data-uid="ent0021" id="entity_CC"><rect fill="#F1F1F1" height="48.6211" rx="2.5" ry="2.5" style="stroke:#181818;stroke-width:0.5;" width="120.1309" x="550" y="333"/><rect fill="#F1F1F1" height="10" style="stroke:#181818;stroke-width:0.5;" width="15" x="650.1309" y="338"/><rect fill="#F1F1F1" height="2" style="stroke:#181818;stroke-width:0.5;" width="4" x="648.1309" y="340"/><rect fill="#F1F1F1" height="2" style="stroke:#181818;stroke-width:0.5;" width="4" x="648.1309" y="344"/><text fill="#000000" font-family="sans-serif" font-size="14" lengthAdjust="spacing" textLength="80.1309" x="565" y="368.1074">Cyan Crystal</text></g><!--entity W2--><g class="entity" data-entity="W2" data-source-line="31" data-uid="ent0022" id="entity_W2"><rect fill="#F1F1F1" height="48.6211" rx="2.5" ry="2.5" style="stroke:#181818;stroke-width:0.5;" width="77.3379" x="705.5" y="333"/><rect fill="#F1F1F1" height="10" style="stroke:#181818;stroke-width:0.5;" width="15" x="762.8379" y="338"/><rect fill="#F1F1F1" height="2" style="stroke:#181818;stroke-width:0.5;" width="4" x="760.8379" y="340"/><rect fill="#F1F1F1" height="2" style="stroke:#181818;stroke-width:0.5;" width="4" x="760.8379" y="344"/><text fill="#000000" font-family="sans-serif" font-size="14" lengthAdjust="spacing" textLength="37.3379" x="720.5" y="368.1074">Water</text></g><!--entity RC2--><g class="entity" data-entity="RC2" data-source-line="32" data-uid="ent0023" id="entity_RC2"><rect fill="#90EE90" height="48.6211" rx="2.5" ry="2.5" style="stroke:#181818;stroke-width:0.5;" width="113.1309" x="817.5" y="333"/><rect fill="#90EE90" height="10" style="stroke:#181818;stroke-width:0.5;" width="15" x="910.6309" y="338"/><rect fill="#90EE90" height="2" style="stroke:#181818;stroke-width:0.5;" width="4" x="908.6309" y="340"/><rect fill="#90EE90" height="2" style="stroke:#181818;stroke-width:0.5;" width="4" x="908.6309" y="344"/><text fill="#000000" font-family="sans-serif" font-size="14" lengthAdjust="spacing" textLength="73.1309" x="832.5" y="368.1074">Red Crystal</text></g><!--entity GC2--><g class="entity" data-entity="GC2" data-source-line="33" data-uid="ent0024" id="entity_GC2"><rect fill="#90EE90" height="48.6211" rx="2.5" ry="2.5" style="stroke:#181818;stroke-width:0.5;" width="126.3584" x="518" y="589"/><rect fill="#90EE90" height="10" style="stroke:#181818;stroke-width:0.5;" width="15" x="624.3584" y="594"/><rect fill="#90EE90" height="2" style="stroke:#181818;stroke-width:0.5;" width="4" x="622.3584" y="596"/><rect fill="#90EE90" height="2" style="stroke:#181818;stroke-width:0.5;" width="4" x="622.3584" y="600"/><text fill="#000000" font-family="sans-serif" font-size="14" lengthAdjust="spacing" textLength="86.3584" x="533" y="624.1074">Green Crystal</text></g><!--entity BC2--><g class="entity" data-entity="BC2" data-source-line="34" data-uid="ent0025" id="entity_BC2"><rect fill="#90EE90" height="48.6211" rx="2.5" ry="2.5" style="stroke:#181818;stroke-width:0.5;" width="115.4688" x="679.5" y="589"/><rect fill="#90EE90" height="10" style="stroke:#181818;stroke-width:0.5;" width="15" x="774.9688" y="594"/><rect fill="#90EE90" height="2" style="stroke:#181818;stroke-width:0.5;" width="4" x="772.9688" y="596"/><rect fill="#90EE90" height="2" style="stroke:#181818;stroke-width:0.5;" width="4" x="772.9688" y="600"/><text fill="#000000" font-family="sans-serif" font-size="14" lengthAdjust="spacing" textLength="75.4688" x="694.5" y="624.1074">Blue Crystal</text></g><!--entity ST2--><g class="entity" data-entity="ST2" data-source-line="35" data-uid="ent0026" id="entity_ST2"><rect fill="#90EE90" height="48.6211" rx="2.5" ry="2.5" style="stroke:#181818;stroke-width:0.5;" width="107.71" x="830" y="589"/><rect fill="#90EE90" height="10" style="stroke:#181818;stroke-width:0.5;" width="15" x="917.71" y="594"/><rect fill="#90EE90" height="2" style="stroke:#181818;stroke-width:0.5;" width="4" x="915.71" y="596"/><rect fill="#90EE90" height="2" style="stroke:#181818;stroke-width:0.5;" width="4" x="915.71" y="600"/><text fill="#000000" font-family="sans-serif" font-size="14" lengthAdjust="spacing" textLength="67.71" x="845" y="624.1074">Steam 165</text></g><!--entity SB--><g class="entity" data-entity="SB" data-source-line="39" data-uid="ent0028" id="entity_SB"><rect fill="#ADD8E6" height="48.6211" rx="2.5" ry="2.5" style="stroke:#181818;stroke-width:0.5;" width="99.1445" x="1009.5" y="203"/><rect fill="#ADD8E6" height="10" style="stroke:#181818;stroke-width:0.5;" width="15" x="1088.6445" y="208"/><rect fill="#ADD8E6" height="2" style="stroke:#181818;stroke-width:0.5;" width="4" x="1086.6445" y="210"/><rect fill="#ADD8E6" height="2" style="stroke:#181818;stroke-width:0.5;" width="4" x="1086.6445" y="214"/><text fill="#000000" font-family="sans-serif" font-size="14" lengthAdjust="spacing" textLength="59.1445" x="1024.5" y="238.1074">Split Blue</text></g><!--entity SY--><g class="entity" data-entity="SY" data-source-line="40" data-uid="ent0029" id="entity_SY"><rect fill="#ADD8E6" height="48.6211" rx="2.5" ry="2.5" style="stroke:#181818;stroke-width:0.5;" width="112.3652" x="1141" y="461"/><rect fill="#ADD8E6" height="10" style="stroke:#181818;stroke-width:0.5;" width="15" x="1233.3652" y="466"/><rect fill="#ADD8E6" height="2" style="stroke:#181818;stroke-width:0.5;" width="4" x="1231.3652" y="468"/><rect fill="#ADD8E6" height="2" style="stroke:#181818;stroke-width:0.5;" width="4" x="1231.3652" y="472"/><text fill="#000000" font-family="sans-serif" font-size="14" lengthAdjust="spacing" textLength="72.3652" x="1156" y="496.1074">Split Yellow</text></g><!--entity YC--><g class="entity" data-entity="YC" data-source-line="41" data-uid="ent0030" id="entity_YC"><rect fill="#F1F1F1" height="48.6211" rx="2.5" ry="2.5" style="stroke:#181818;stroke-width:0.5;" width="128.6895" x="994.5" y="333"/><rect fill="#F1F1F1" height="10" style="stroke:#181818;stroke-width:0.5;" width="15" x="1103.1895" y="338"/><rect fill="#F1F1F1" height="2" style="stroke:#181818;stroke-width:0.5;" width="4" x="1101.1895" y="340"/><rect fill="#F1F1F1" height="2" style="stroke:#181818;stroke-width:0.5;" width="4" x="1101.1895" y="344"/><text fill="#000000" font-family="sans-serif" font-size="14" lengthAdjust="spacing" textLength="88.6895" x="1009.5" y="368.1074">Yellow Crystal</text></g><!--entity W3--><g class="entity" data-entity="W3" data-source-line="42" data-uid="ent0031" id="entity_W3"><rect fill="#F1F1F1" height="48.6211" rx="2.5" ry="2.5" style="stroke:#181818;stroke-width:0.5;" width="77.3379" x="1158.5" y="333"/><rect fill="#F1F1F1" height="10" style="stroke:#181818;stroke-width:0.5;" width="15" x="1215.8379" y="338"/><rect fill="#F1F1F1" height="2" style="stroke:#181818;stroke-width:0.5;" width="4" x="1213.8379" y="340"/><rect fill="#F1F1F1" height="2" style="stroke:#181818;stroke-width:0.5;" width="4" x="1213.8379" y="344"/><text fill="#000000" font-family="sans-serif" font-size="14" lengthAdjust="spacing" textLength="37.3379" x="1173.5" y="368.1074">Water</text></g><!--entity RC3--><g class="entity" data-entity="RC3" data-source-line="43" data-uid="ent0032" id="entity_RC3"><rect fill="#90EE90" height="48.6211" rx="2.5" ry="2.5" style="stroke:#181818;stroke-width:0.5;" width="113.1309" x="994.5" y="589"/><rect fill="#90EE90" height="10" style="stroke:#181818;stroke-width:0.5;" width="15" x="1087.6309" y="594"/><rect fill="#90EE90" height="2" style="stroke:#181818;stroke-width:0.5;" width="4" x="1085.6309" y="596"/><rect fill="#90EE90" height="2" style="stroke:#181818;stroke-width:0.5;" width="4" x="1085.6309" y="600"/><text fill="#000000" font-family="sans-serif" font-size="14" lengthAdjust="spacing" textLength="73.1309" x="1009.5" y="624.1074">Red Crystal</text></g><!--entity GC3--><g class="entity" data-entity="GC3" data-source-line="44" data-uid="ent0033" id="entity_GC3"><rect fill="#90EE90" height="48.6211" rx="2.5" ry="2.5" style="stroke:#181818;stroke-width:0.5;" width="126.3584" x="1143" y="589"/><rect fill="#90EE90" height="10" style="stroke:#181818;stroke-width:0.5;" width="15" x="1249.3584" y="594"/><rect fill="#90EE90" height="2" style="stroke:#181818;stroke-width:0.5;" width="4" x="1247.3584" y="596"/><rect fill="#90EE90" height="2" style="stroke:#181818;stroke-width:0.5;" width="4" x="1247.3584" y="600"/><text fill="#000000" font-family="sans-serif" font-size="14" lengthAdjust="spacing" textLength="86.3584" x="1158" y="624.1074">Green Crystal</text></g><!--entity BC3--><g class="entity" data-entity="BC3" data-source-line="45" data-uid="ent0034" id="entity_BC3"><rect fill="#90EE90" height="48.6211" rx="2.5" ry="2.5" style="stroke:#181818;stroke-width:0.5;" width="115.4688" x="1270.5" y="333"/><rect fill="#90EE90" height="10" style="stroke:#181818;stroke-width:0.5;" width="15" x="1365.9688" y="338"/><rect fill="#90EE90" height="2" style="stroke:#181818;stroke-width:0.5;" width="4" x="1363.9688" y="340"/><rect fill="#90EE90" height="2" style="stroke:#181818;stroke-width:0.5;" width="4" x="1363.9688" y="344"/><text fill="#000000" font-family="sans-serif" font-size="14" lengthAdjust="spacing" textLength="75.4688" x="1285.5" y="368.1074">Blue Crystal</text></g><!--entity ST3--><g class="entity" data-entity="ST3" data-source-line="46" data-uid="ent0035" id="entity_ST3"><rect fill="#90EE90" height="48.6211" rx="2.5" ry="2.5" style="stroke:#181818;stroke-width:0.5;" width="107.71" x="1304" y="589"/><rect fill="#90EE90" height="10" style="stroke:#181818;stroke-width:0.5;" width="15" x="1391.71" y="594"/><rect fill="#90EE90" height="2" style="stroke:#181818;stroke-width:0.5;" width="4" x="1389.71" y="596"/><rect fill="#90EE90" height="2" style="stroke:#181818;stroke-width:0.5;" width="4" x="1389.71" y="600"/><text fill="#000000" font-family="sans-serif" font-size="14" lengthAdjust="spacing" textLength="67.71" x="1319" y="624.1074">Steam 165</text></g><!--entity CrR--><g class="entity" data-entity="CrR" data-source-line="51" data-uid="ent0037" id="entity_CrR"><rect fill="#ADD8E6" height="48.6211" rx="2.5" ry="2.5" style="stroke:#181818;stroke-width:0.5;" width="154.3652" x="1492" y="203"/><rect fill="#ADD8E6" height="10" style="stroke:#181818;stroke-width:0.5;" width="15" x="1626.3652" y="208"/><rect fill="#ADD8E6" height="2" style="stroke:#181818;stroke-width:0.5;" width="4" x="1624.3652" y="210"/><rect fill="#ADD8E6" height="2" style="stroke:#181818;stroke-width:0.5;" width="4" x="1624.3652" y="214"/><text fill="#000000" font-family="sans-serif" font-size="14" lengthAdjust="spacing" textLength="114.3652" x="1507" y="238.1074">Crush Red Crystal</text></g><!--entity CrG--><g class="entity" data-entity="CrG" data-source-line="52" data-uid="ent0038" id="entity_CrG"><rect fill="#ADD8E6" height="48.6211" rx="2.5" ry="2.5" style="stroke:#181818;stroke-width:0.5;" width="167.5928" x="1681" y="203"/><rect fill="#ADD8E6" height="10" style="stroke:#181818;stroke-width:0.5;" width="15" x="1828.5928" y="208"/><rect fill="#ADD8E6" height="2" style="stroke:#181818;stroke-width:0.5;" width="4" x="1826.5928" y="210"/><rect fill="#ADD8E6" height="2" style="stroke:#181818;stroke-width:0.5;" width="4" x="1826.5928" y="214"/><text fill="#000000" font-family="sans-serif" font-size="14" lengthAdjust="spacing" textLength="127.5928" x="1696" y="238.1074">Crush Green Crystal</text></g><!--entity CrB--><g class="entity" data-entity="CrB" data-source-line="53" data-uid="ent0039" id="entity_CrB"><rect fill="#ADD8E6" height="48.6211" rx="2.5" ry="2.5" style="stroke:#181818;stroke-width:0.5;" width="156.7031" x="1884.5" y="203"/><rect fill="#ADD8E6" height="10" style="stroke:#181818;stroke-width:0.5;" width="15" x="2021.2031" y="208"/><rect fill="#ADD8E6" height="2" style="stroke:#181818;stroke-width:0.5;" width="4" x="2019.2031" y="210"/><rect fill="#ADD8E6" height="2" style="stroke:#181818;stroke-width:0.5;" width="4" x="2019.2031" y="214"/><text fill="#000000" font-family="sans-serif" font-size="14" lengthAdjust="spacing" textLength="116.7031" x="1899.5" y="238.1074">Crush Blue Crystal</text></g><!--entity C--><g class="entity" data-entity="C" data-source-line="6" data-uid="ent0002" id="entity_C"><rect fill="#FFB6C1" height="48.6211" rx="2.5" ry="2.5" style="stroke:#181818;stroke-width:0.5;" width="83.5586" x="621" y="7"/><rect fill="#FFB6C1" height="10" style="stroke:#181818;stroke-width:0.5;" width="15" x="684.5586" y="12"/><rect fill="#FFB6C1" height="2" style="stroke:#181818;stroke-width:0.5;" width="4" x="682.5586" y="14"/><rect fill="#FFB6C1" height="2" style="stroke:#181818;stroke-width:0.5;" width="4" x="682.5586" y="18"/><text fill="#000000" font-family="sans-serif" font-size="14" lengthAdjust="spacing" textLength="43.5586" x="636" y="42.1074">Crystal</text></g><!--entity I--><g class="entity" data-entity="I" data-source-line="7" data-uid="ent0003" id="entity_I"><rect fill="#FFB6C1" height="48.6211" rx="2.5" ry="2.5" style="stroke:#181818;stroke-width:0.5;" width="58.6758" x="780.5" y="7"/><rect fill="#FFB6C1" height="10" style="stroke:#181818;stroke-width:0.5;" width="15" x="819.1758" y="12"/><rect fill="#FFB6C1" height="2" style="stroke:#181818;stroke-width:0.5;" width="4" x="817.1758" y="14"/><rect fill="#FFB6C1" height="2" style="stroke:#181818;stroke-width:0.5;" width="4" x="817.1758" y="18"/><text fill="#000000" font-family="sans-serif" font-size="14" lengthAdjust="spacing" textLength="18.6758" x="795.5" y="42.1074">Ice</text></g><!--entity RC--><g class="entity" data-entity="RC" data-source-line="10" data-uid="ent0004" id="entity_RC"><rect fill="#90EE90" height="48.6211" rx="2.5" ry="2.5" style="stroke:#181818;stroke-width:0.5;" width="113.1309" x="1512.5" y="7"/><rect fill="#90EE90" height="10" style="stroke:#181818;stroke-width:0.5;" width="15" x="1605.6309" y="12"/><rect fill="#90EE90" height="2" style="stroke:#181818;stroke-width:0.5;" width="4" x="1603.6309" y="14"/><rect fill="#90EE90" height="2" style="stroke:#181818;stroke-width:0.5;" width="4" x="1603.6309" y="18"/><text fill="#000000" font-family="sans-serif" font-size="14" lengthAdjust="spacing" textLength="73.1309" x="1527.5" y="42.1074">Red Crystal</text></g><!--entity GC--><g class="entity" data-entity="GC" data-source-line="11" data-uid="ent0005" id="entity_GC"><rect fill="#90EE90" height="48.6211" rx="2.5" ry="2.5" style="stroke:#181818;stroke-width:0.5;" width="126.3584" x="1702" y="7"/><rect fill="#90EE90" height="10" style="stroke:#181818;stroke-width:0.5;" width="15" x="1808.3584" y="12"/><rect fill="#90EE90" height="2" style="stroke:#181818;stroke-width:0.5;" width="4" x="1806.3584" y="14"/><rect fill="#90EE90" height="2" style="stroke:#181818;stroke-width:0.5;" width="4" x="1806.3584" y="18"/><text fill="#000000" font-family="sans-serif" font-size="14" lengthAdjust="spacing" textLength="86.3584" x="1717" y="42.1074">Green Crystal</text></g><!--entity BC--><g class="entity" data-entity="BC" data-source-line="12" data-uid="ent0006" id="entity_BC"><rect fill="#90EE90" height="48.6211" rx="2.5" ry="2.5" style="stroke:#181818;stroke-width:0.5;" width="115.4688" x="1905.5" y="7"/><rect fill="#90EE90" height="10" style="stroke:#181818;stroke-width:0.5;" width="15" x="2000.9688" y="12"/><rect fill="#90EE90" height="2" style="stroke:#181818;stroke-width:0.5;" width="4" x="1998.9688" y="14"/><rect fill="#90EE90" height="2" style="stroke:#181818;stroke-width:0.5;" width="4" x="1998.9688" y="18"/><text fill="#000000" font-family="sans-serif" font-size="14" lengthAdjust="spacing" textLength="75.4688" x="1920.5" y="42.1074">Blue Crystal</text></g><!--entity CCr--><g class="entity" data-entity="CCr" data-source-line="13" data-uid="ent0007" id="entity_CCr"><rect fill="#90EE90" height="48.6211" rx="2.5" ry="2.5" style="stroke:#181818;stroke-width:0.5;" width="140.3652" x="1695" y="333"/><rect fill="#90EE90" height="10" style="stroke:#181818;stroke-width:0.5;" width="15" x="1815.3652" y="338"/><rect fill="#90EE90" height="2" style="stroke:#181818;stroke-width:0.5;" width="4" x="1813.3652" y="340"/><rect fill="#90EE90" height="2" style="stroke:#181818;stroke-width:0.5;" width="4" x="1813.3652" y="344"/><text fill="#000000" font-family="sans-serif" font-size="14" lengthAdjust="spacing" textLength="100.3652" x="1710" y="368.1074">Crushed Crystal</text></g><!--link C to SG--><g class="link" data-entity-1="C" data-entity-2="SG" data-source-line="56" data-uid="lnk40" id="link_C_SG"><path d="M620.89,48.47 C586.91,62.52 538.85,85.06 502,113 C467.44,139.21 438.7708,173.2809 419.8608,198.0509" fill="none" id="C-to-SG" style="stroke:#181818;stroke-width:1;"/><polygon fill="#181818" points="416.22,202.82,424.8607,198.0936,419.254,198.8458,418.5019,193.2391,416.22,202.82" style="stroke:#181818;stroke-width:1;"/><text fill="#000000" font-family="sans-serif" font-size="13" lengthAdjust="spacing" textLength="7.23" x="544" y="101.0283">4</text></g><!--link I to SG--><g class="link" data-entity-1="I" data-entity-2="SG" data-source-line="57" data-uid="lnk41" id="link_I_SG"><path d="M780.31,49.1 C743.52,69.53 684.29,101.91 673,105 C636.3,115.03 536.41,96.79 502,113 C461.32,132.17 432.6307,170.3962 415.6807,197.6262" fill="none" id="I-to-SG" style="stroke:#181818;stroke-width:1;"/><polygon fill="#181818" points="412.51,202.72,420.662,197.1932,415.1523,198.4752,413.8703,192.9655,412.51,202.72" style="stroke:#181818;stroke-width:1;"/><text fill="#000000" font-family="sans-serif" font-size="13" lengthAdjust="spacing" textLength="7.23" x="710" y="101.0283">1</text></g><!--link SG to GC1--><g class="link" data-entity-1="SG" data-entity-2="GC1" data-source-line="58" data-uid="lnk42" id="link_SG_GC1"><path d="M399,252.28 C399,275.27 399,303.9 399,326.85" fill="none" id="SG-to-GC1" style="stroke:#181818;stroke-width:1;"/><polygon fill="#181818" points="399,332.85,403,323.85,399,327.85,395,323.85,399,332.85" style="stroke:#181818;stroke-width:1;"/><text fill="#000000" font-family="sans-serif" font-size="13" lengthAdjust="spacing" textLength="7.23" x="400" y="299.0283">4</text></g><!--link SG to MC--><g class="link" data-entity-1="SG" data-entity-2="MC" data-source-line="59" data-uid="lnk43" id="link_SG_MC"><path d="M346.95,252.13 C296.34,275.1 225.3537,307.3205 174.6937,330.3105" fill="none" id="SG-to-MC" style="stroke:#181818;stroke-width:1;"/><polygon fill="#181818" points="169.23,332.79,179.0786,332.7132,173.7831,330.7238,175.7726,325.4283,169.23,332.79" style="stroke:#181818;stroke-width:1;"/><text fill="#000000" font-family="sans-serif" font-size="13" lengthAdjust="spacing" textLength="7.23" x="276" y="299.0283">4</text></g><!--link SG to W1--><g class="link" data-entity-1="SG" data-entity-2="W1" data-source-line="60" data-uid="lnk44" id="link_SG_W1"><path d="M373.55,252.28 C348.95,275.27 316.2539,305.8035 291.6939,328.7535" fill="none" id="SG-to-W1" style="stroke:#181818;stroke-width:1;"/><polygon fill="#181818" points="287.31,332.85,296.6169,329.6278,290.9632,329.4362,291.1548,323.7826,287.31,332.85" style="stroke:#181818;stroke-width:1;"/><text fill="#000000" font-family="sans-serif" font-size="13" lengthAdjust="spacing" textLength="14.46" x="340" y="299.0283">20</text></g><!--link MC to SM--><g class="link" data-entity-1="MC" data-entity-2="SM" data-source-line="61" data-uid="lnk45" id="link_MC_SM"><path d="M142.77,382.2 C167.26,404.73 199.4732,434.359 223.9332,456.849" fill="none" id="MC-to-SM" style="stroke:#181818;stroke-width:1;"/><polygon fill="#181818" points="228.35,460.91,224.4322,451.8739,224.6694,457.5258,219.0175,457.7629,228.35,460.91" style="stroke:#181818;stroke-width:1;"/><text fill="#000000" font-family="sans-serif" font-size="13" lengthAdjust="spacing" textLength="7.23" x="195" y="427.0283">1</text></g><!--link W1 to SM--><g class="link" data-entity-1="W1" data-entity-2="SM" data-source-line="62" data-uid="lnk46" id="link_W1_SM"><path d="M260.5,382.2 C259.06,404.73 257.3107,432.4321 255.8807,454.9221" fill="none" id="W1-to-SM" style="stroke:#181818;stroke-width:1;"/><polygon fill="#181818" points="255.5,460.91,260.063,452.182,255.8173,455.9201,252.0792,451.6743,255.5,460.91" style="stroke:#181818;stroke-width:1;"/><text fill="#000000" font-family="sans-serif" font-size="13" lengthAdjust="spacing" textLength="7.23" x="260" y="427.0283">5</text></g><!--link SM to BC1--><g class="link" data-entity-1="SM" data-entity-2="BC1" data-source-line="63" data-uid="lnk47" id="link_SM_BC1"><path d="M254,510.2 C254,532.73 254,560.42 254,582.91" fill="none" id="SM-to-BC1" style="stroke:#181818;stroke-width:1;"/><polygon fill="#181818" points="254,588.91,258,579.91,254,583.91,250,579.91,254,588.91" style="stroke:#181818;stroke-width:1;"/><text fill="#000000" font-family="sans-serif" font-size="13" lengthAdjust="spacing" textLength="7.23" x="255" y="555.0283">1</text></g><!--link SM to RC1--><g class="link" data-entity-1="SM" data-entity-2="RC1" data-source-line="64" data-uid="lnk48" id="link_SM_RC1"><path d="M225.97,510.2 C199.34,532.73 164.0818,562.5461 137.4818,585.0361" fill="none" id="SM-to-RC1" style="stroke:#181818;stroke-width:1;"/><polygon fill="#181818" points="132.9,588.91,142.3553,586.1537,136.7182,585.6818,137.1901,580.0446,132.9,588.91" style="stroke:#181818;stroke-width:1;"/><text fill="#000000" font-family="sans-serif" font-size="13" lengthAdjust="spacing" textLength="7.23" x="190" y="555.0283">1</text></g><!--link SM to ST1--><g class="link" data-entity-1="SM" data-entity-2="ST1" data-source-line="65" data-uid="lnk49" id="link_SM_ST1"><path d="M281.65,510.2 C307.93,532.73 342.6743,562.5154 368.9143,585.0054" fill="none" id="SM-to-ST1" style="stroke:#181818;stroke-width:1;"/><polygon fill="#181818" points="373.47,588.91,369.2396,580.016,369.6736,585.6562,364.0334,586.0902,373.47,588.91" style="stroke:#181818;stroke-width:1;"/><text fill="#000000" font-family="sans-serif" font-size="13" lengthAdjust="spacing" textLength="14.46" x="338" y="555.0283">20</text></g><!--link C to SR--><g class="link" data-entity-1="C" data-entity-2="SR" data-source-line="67" data-uid="lnk50" id="link_C_SR"><path d="M660.02,56.2 C659.01,70.62 659.16,89.24 664,105 C675.57,142.66 698.8814,174.9537 718.3414,198.0237" fill="none" id="C-to-SR" style="stroke:#181818;stroke-width:1;"/><polygon fill="#181818" points="722.21,202.61,719.4646,193.1515,718.9862,198.7881,713.3496,198.3097,722.21,202.61" style="stroke:#181818;stroke-width:1;"/><text fill="#000000" font-family="sans-serif" font-size="13" lengthAdjust="spacing" textLength="7.23" x="665" y="101.0283">4</text></g><!--link I to SR--><g class="link" data-entity-1="I" data-entity-2="SR" data-source-line="68" data-uid="lnk51" id="link_I_SR"><path d="M801.91,56.29 C789.21,93.62 766.6612,159.8693 753.9912,197.1393" fill="none" id="I-to-SR" style="stroke:#181818;stroke-width:1;"/><polygon fill="#181818" points="752.06,202.82,758.7439,195.5864,753.6693,198.0861,751.1696,193.0115,752.06,202.82" style="stroke:#181818;stroke-width:1;"/><text fill="#000000" font-family="sans-serif" font-size="13" lengthAdjust="spacing" textLength="7.23" x="791" y="101.0283">1</text></g><!--link SR to RC2--><g class="link" data-entity-1="SR" data-entity-2="RC2" data-source-line="69" data-uid="lnk52" id="link_SR_RC2"><path d="M768.15,252.28 C791.5,275.27 822.4054,305.6896 845.7054,328.6396" fill="none" id="SR-to-RC2" style="stroke:#181818;stroke-width:1;"/><polygon fill="#181818" points="849.98,332.85,846.375,323.6846,846.4178,329.3413,840.7611,329.3841,849.98,332.85" style="stroke:#181818;stroke-width:1;"/><text fill="#000000" font-family="sans-serif" font-size="13" lengthAdjust="spacing" textLength="7.23" x="817" y="299.0283">4</text></g><!--link SR to CC--><g class="link" data-entity-1="SR" data-entity-2="CC" data-source-line="70" data-uid="lnk53" id="link_SR_CC"><path d="M719.11,252.28 C695.04,275.27 663.1182,305.7551 639.0982,328.7051" fill="none" id="SR-to-CC" style="stroke:#181818;stroke-width:1;"/><polygon fill="#181818" points="634.76,332.85,644.0305,329.5247,638.3751,329.3959,638.504,323.7405,634.76,332.85" style="stroke:#181818;stroke-width:1;"/><text fill="#000000" font-family="sans-serif" font-size="13" lengthAdjust="spacing" textLength="7.23" x="686" y="299.0283">4</text></g><!--link SR to W2--><g class="link" data-entity-1="SR" data-entity-2="W2" data-source-line="71" data-uid="lnk54" id="link_SR_W2"><path d="M744,252.28 C744,275.27 744,303.9 744,326.85" fill="none" id="SR-to-W2" style="stroke:#181818;stroke-width:1;"/><polygon fill="#181818" points="744,332.85,748,323.85,744,327.85,740,323.85,744,332.85" style="stroke:#181818;stroke-width:1;"/><text fill="#000000" font-family="sans-serif" font-size="13" lengthAdjust="spacing" textLength="14.46" x="745" y="299.0283">20</text></g><!--link CC to SC--><g class="link" data-entity-1="CC" data-entity-2="SC" data-source-line="72" data-uid="lnk55" id="link_CC_SC"><path d="M633.89,382.2 C656.59,404.73 686.2905,434.1943 708.9605,456.6843" fill="none" id="CC-to-SC" style="stroke:#181818;stroke-width:1;"/><polygon fill="#181818" points="713.22,460.91,709.6479,451.7318,709.6704,457.3886,704.0136,457.4111,713.22,460.91" style="stroke:#181818;stroke-width:1;"/><text fill="#000000" font-family="sans-serif" font-size="13" lengthAdjust="spacing" textLength="7.23" x="682" y="427.0283">1</text></g><!--link W2 to SC--><g class="link" data-entity-1="W2" data-entity-2="SC" data-source-line="73" data-uid="lnk56" id="link_W2_SC"><path d="M742.68,382.2 C741.43,404.73 739.893,432.4292 738.643,454.9192" fill="none" id="W2-to-SC" style="stroke:#181818;stroke-width:1;"/><polygon fill="#181818" points="738.31,460.91,742.8033,452.1458,738.5875,455.9177,734.8156,451.7019,738.31,460.91" style="stroke:#181818;stroke-width:1;"/><text fill="#000000" font-family="sans-serif" font-size="13" lengthAdjust="spacing" textLength="7.23" x="741" y="427.0283">5</text></g><!--link SC to BC2--><g class="link" data-entity-1="SC" data-entity-2="BC2" data-source-line="74" data-uid="lnk57" id="link_SC_BC2"><path d="M737,510.2 C737,532.73 737,560.42 737,582.91" fill="none" id="SC-to-BC2" style="stroke:#181818;stroke-width:1;"/><polygon fill="#181818" points="737,588.91,741,579.91,737,583.91,733,579.91,737,588.91" style="stroke:#181818;stroke-width:1;"/><text fill="#000000" font-family="sans-serif" font-size="13" lengthAdjust="spacing" textLength="7.23" x="738" y="555.0283">1</text></g><!--link SC to GC2--><g class="link" data-entity-1="SC" data-entity-2="GC2" data-source-line="75" data-uid="lnk58" id="link_SC_GC2"><path d="M707.66,510.2 C679.77,532.73 642.728,562.6504 614.878,585.1404" fill="none" id="SC-to-GC2" style="stroke:#181818;stroke-width:1;"/><polygon fill="#181818" points="610.21,588.91,619.7251,586.3676,614.1,585.7687,614.6989,580.1436,610.21,588.91" style="stroke:#181818;stroke-width:1;"/><text fill="#000000" font-family="sans-serif" font-size="13" lengthAdjust="spacing" textLength="7.23" x="669" y="555.0283">1</text></g><!--link SC to ST2--><g class="link" data-entity-1="SC" data-entity-2="ST2" data-source-line="76" data-uid="lnk59" id="link_SC_ST2"><path d="M764.65,510.2 C790.93,532.73 825.6743,562.5154 851.9143,585.0054" fill="none" id="SC-to-ST2" style="stroke:#181818;stroke-width:1;"/><polygon fill="#181818" points="856.47,588.91,852.2396,580.016,852.6736,585.6562,847.0334,586.0902,856.47,588.91" style="stroke:#181818;stroke-width:1;"/><text fill="#000000" font-family="sans-serif" font-size="13" lengthAdjust="spacing" textLength="14.46" x="820" y="555.0283">20</text></g><!--link C to SB--><g class="link" data-entity-1="C" data-entity-2="SB" data-source-line="78" data-uid="lnk60" id="link_C_SB"><path d="M688.62,56.16 C708.81,73.18 738.54,94.85 769,105 C808.04,118 916.66,95.71 954,113 C995.16,132.07 1024.5153,170.3602 1041.8953,197.6302" fill="none" id="C-to-SB" style="stroke:#181818;stroke-width:1;"/><polygon fill="#181818" points="1045.12,202.69,1043.6561,192.9505,1042.4327,198.4735,1036.9097,197.2502,1045.12,202.69" style="stroke:#181818;stroke-width:1;"/><text fill="#000000" font-family="sans-serif" font-size="13" lengthAdjust="spacing" textLength="7.23" x="770" y="101.0283">4</text></g><!--link I to SB--><g class="link" data-entity-1="I" data-entity-2="SB" data-source-line="79" data-uid="lnk61" id="link_I_SB"><path d="M839.52,45.61 C869.86,59.84 917.66,84.38 954,113 C988.17,139.9 1017.3907,173.5257 1037.0007,198.0257" fill="none" id="I-to-SB" style="stroke:#181818;stroke-width:1;"/><polygon fill="#181818" points="1040.75,202.71,1038.2488,193.184,1037.6256,198.8064,1032.0031,198.1831,1040.75,202.71" style="stroke:#181818;stroke-width:1;"/><text fill="#000000" font-family="sans-serif" font-size="13" lengthAdjust="spacing" textLength="7.23" x="944" y="101.0283">1</text></g><!--link SB to BC3--><g class="link" data-entity-1="SB" data-entity-2="BC3" data-source-line="80" data-uid="lnk62" id="link_SB_BC3"><path d="M1108.65,252.13 C1156.93,275.1 1224.4318,307.2226 1272.7618,330.2126" fill="none" id="SB-to-BC3" style="stroke:#181818;stroke-width:1;"/><polygon fill="#181818" points="1278.18,332.79,1271.7709,325.3118,1273.6648,330.6422,1268.3344,332.5361,1278.18,332.79" style="stroke:#181818;stroke-width:1;"/><text fill="#000000" font-family="sans-serif" font-size="13" lengthAdjust="spacing" textLength="7.23" x="1210" y="299.0283">4</text></g><!--link SB to YC--><g class="link" data-entity-1="SB" data-entity-2="YC" data-source-line="81" data-uid="lnk63" id="link_SB_YC"><path d="M1059,252.28 C1059,275.27 1059,303.9 1059,326.85" fill="none" id="SB-to-YC" style="stroke:#181818;stroke-width:1;"/><polygon fill="#181818" points="1059,332.85,1063,323.85,1059,327.85,1055,323.85,1059,332.85" style="stroke:#181818;stroke-width:1;"/><text fill="#000000" font-family="sans-serif" font-size="13" lengthAdjust="spacing" textLength="7.23" x="1060" y="299.0283">4</text></g><!--link SB to W3--><g class="link" data-entity-1="SB" data-entity-2="W3" data-source-line="82" data-uid="lnk64" id="link_SB_W3"><path d="M1084.63,252.28 C1109.42,275.27 1142.3612,305.8195 1167.1012,328.7695" fill="none" id="SB-to-W3" style="stroke:#181818;stroke-width:1;"/><polygon fill="#181818" points="1171.5,332.85,1167.6222,323.7967,1167.8343,329.4496,1162.1815,329.6617,1171.5,332.85" style="stroke:#181818;stroke-width:1;"/><text fill="#000000" font-family="sans-serif" font-size="13" lengthAdjust="spacing" textLength="14.46" x="1137" y="299.0283">20</text></g><!--link YC to SY--><g class="link" data-entity-1="YC" data-entity-2="SY" data-source-line="83" data-uid="lnk65" id="link_YC_SY"><path d="M1084.96,382.2 C1109.63,404.73 1142.0992,434.3742 1166.7292,456.8642" fill="none" id="YC-to-SY" style="stroke:#181818;stroke-width:1;"/><polygon fill="#181818" points="1171.16,460.91,1167.2111,451.8875,1167.4677,457.5385,1161.8167,457.7952,1171.16,460.91" style="stroke:#181818;stroke-width:1;"/><text fill="#000000" font-family="sans-serif" font-size="13" lengthAdjust="spacing" textLength="7.23" x="1137" y="427.0283">1</text></g><!--link W3 to SY--><g class="link" data-entity-1="W3" data-entity-2="SY" data-source-line="84" data-uid="lnk66" id="link_W3_SY"><path d="M1197,382.2 C1197,404.73 1197,432.42 1197,454.91" fill="none" id="W3-to-SY" style="stroke:#181818;stroke-width:1;"/><polygon fill="#181818" points="1197,460.91,1201,451.91,1197,455.91,1193,451.91,1197,460.91" style="stroke:#181818;stroke-width:1;"/><text fill="#000000" font-family="sans-serif" font-size="13" lengthAdjust="spacing" textLength="7.23" x="1198" y="427.0283">5</text></g><!--link SY to GC3--><g class="link" data-entity-1="SY" data-entity-2="GC3" data-source-line="85" data-uid="lnk67" id="link_SY_GC3"><path d="M1198.69,510.2 C1200.3,532.73 1202.2842,560.4351 1203.8842,582.9251" fill="none" id="SY-to-GC3" style="stroke:#181818;stroke-width:1;"/><polygon fill="#181818" points="1204.31,588.91,1207.6612,579.6488,1203.9552,583.9226,1199.6814,580.2165,1204.31,588.91" style="stroke:#181818;stroke-width:1;"/><text fill="#000000" font-family="sans-serif" font-size="13" lengthAdjust="spacing" textLength="7.23" x="1203" y="555.0283">1</text></g><!--link SY to RC3--><g class="link" data-entity-1="SY" data-entity-2="RC3" data-source-line="86" data-uid="lnk68" id="link_SY_RC3"><path d="M1169.54,510.2 C1143.44,532.73 1108.9423,562.4999 1082.8823,584.9899" fill="none" id="SY-to-RC3" style="stroke:#181818;stroke-width:1;"/><polygon fill="#181818" points="1078.34,588.91,1087.7669,586.0581,1082.1253,585.6433,1082.5401,580.0016,1078.34,588.91" style="stroke:#181818;stroke-width:1;"/><text fill="#000000" font-family="sans-serif" font-size="13" lengthAdjust="spacing" textLength="7.23" x="1133" y="555.0283">1</text></g><!--link SY to ST3--><g class="link" data-entity-1="SY" data-entity-2="ST3" data-source-line="87" data-uid="lnk69" id="link_SY_ST3"><path d="M1227.28,510.2 C1256.07,532.73 1294.3848,562.7224 1323.1248,585.2124" fill="none" id="SY-to-ST3" style="stroke:#181818;stroke-width:1;"/><polygon fill="#181818" points="1327.85,588.91,1323.2273,580.2134,1323.9123,585.8286,1318.2971,586.5137,1327.85,588.91" style="stroke:#181818;stroke-width:1;"/><text fill="#000000" font-family="sans-serif" font-size="13" lengthAdjust="spacing" textLength="14.46" x="1288" y="555.0283">20</text></g><!--link BC to CrB--><g class="link" data-entity-1="BC" data-entity-2="CrB" data-source-line="89" data-uid="lnk70" id="link_BC_CrB"><path d="M1963,56.29 C1963,93.62 1963,159.55 1963,196.82" fill="none" id="BC-to-CrB" style="stroke:#181818;stroke-width:1;"/><polygon fill="#181818" points="1963,202.82,1967,193.82,1963,197.82,1959,193.82,1963,202.82" style="stroke:#181818;stroke-width:1;"/><text fill="#000000" font-family="sans-serif" font-size="13" lengthAdjust="spacing" textLength="7.23" x="1964" y="101.0283">3</text></g><!--link CrB to CCr--><g class="link" data-entity-1="CrB" data-entity-2="CCr" data-source-line="90" data-uid="lnk71" id="link_CrB_CCr"><path d="M1926.22,252.28 C1890.66,275.27 1842.1188,306.6426 1806.6188,329.5926" fill="none" id="CrB-to-CCr" style="stroke:#181818;stroke-width:1;"/><polygon fill="#181818" points="1801.58,332.85,1811.3098,331.323,1805.779,330.1355,1806.9665,324.6047,1801.58,332.85" style="stroke:#181818;stroke-width:1;"/><text fill="#000000" font-family="sans-serif" font-size="13" lengthAdjust="spacing" textLength="45.519" x="1876" y="299.0283">1 (50%)</text></g><!--link RC to CrR--><g class="link" data-entity-1="RC" data-entity-2="CrR" data-source-line="92" data-uid="lnk72" id="link_RC_CrR"><path d="M1569,56.29 C1569,93.62 1569,159.55 1569,196.82" fill="none" id="RC-to-CrR" style="stroke:#181818;stroke-width:1;"/><polygon fill="#181818" points="1569,202.82,1573,193.82,1569,197.82,1565,193.82,1569,202.82" style="stroke:#181818;stroke-width:1;"/><text fill="#000000" font-family="sans-serif" font-size="13" lengthAdjust="spacing" textLength="7.23" x="1570" y="101.0283">3</text></g><!--link CrR to CCr--><g class="link" data-entity-1="CrR" data-entity-2="CCr" data-source-line="93" data-uid="lnk73" id="link_CrR_CCr"><path d="M1605.41,252.28 C1640.61,275.27 1688.6265,306.6191 1723.7665,329.5691" fill="none" id="CrR-to-CCr" style="stroke:#181818;stroke-width:1;"/><polygon fill="#181818" points="1728.79,332.85,1723.442,324.5797,1724.6037,330.1159,1719.0675,331.2777,1728.79,332.85" style="stroke:#181818;stroke-width:1;"/><text fill="#000000" font-family="sans-serif" font-size="13" lengthAdjust="spacing" textLength="45.519" x="1679" y="299.0283">1 (50%)</text></g><!--link GC to CrG--><g class="link" data-entity-1="GC" data-entity-2="CrG" data-source-line="95" data-uid="lnk74" id="link_GC_CrG"><path d="M1765,56.29 C1765,93.62 1765,159.55 1765,196.82" fill="none" id="GC-to-CrG" style="stroke:#181818;stroke-width:1;"/><polygon fill="#181818" points="1765,202.82,1769,193.82,1765,197.82,1761,193.82,1765,202.82" style="stroke:#181818;stroke-width:1;"/><text fill="#000000" font-family="sans-serif" font-size="13" lengthAdjust="spacing" textLength="7.23" x="1766" y="101.0283">3</text></g><!--link CrG to CCr--><g class="link" data-entity-1="CrG" data-entity-2="CCr" data-source-line="96" data-uid="lnk75" id="link_CrG_CCr"><path d="M1765,252.28 C1765,275.27 1765,303.9 1765,326.85" fill="none" id="CrG-to-CCr" style="stroke:#181818;stroke-width:1;"/><polygon fill="#181818" points="1765,332.85,1769,323.85,1765,327.85,1761,323.85,1765,332.85" style="stroke:#181818;stroke-width:1;"/><text fill="#000000" font-family="sans-serif" font-size="13" lengthAdjust="spacing" textLength="45.519" x="1766" y="299.0283">1 (50%)</text></g><!--SRC=[XLEnRjim4Dtv5KIA0kqG82BZ3Xaow9087hJG0GH1wA3Oh2L4SGnQGU4M-VUIFAhIoKGqqO_ltUdTCwzfTvg_whvvsvrOuy2lLdV3xsrhjfrch09pFlLrzvFN9mxyIzVkc_xO7bvOjTvgVxkUtjeAfNTyMgM6ihtH-i2gp1r4aSqKQVUkYI2T2S2ydvhPPm0C4R5ZlNsfzve_7BJPjt_qG9zrrxtzvdz7nHLQsXoxjkUFbhooR8NGK_u3comqUBRs1ZgtzOU-Ha5E184Y9dDWLL7tsdXK9B6qakMuaiMyPefDh-jNdlnOeT4dId-CIJWxqHmiWRKgaWASwv0H4DRTp_uaCh-8pI-MvnUByulFvwVqD03VAvg0Ox0yZKHG-bU5V4buP8Y_aiOWOp78vHZaOWpoynZax1byZ3k1AtQnCxXwV6uN37qMgBhq32QBw2wCWo4HMrl0hw_ltGhUyLks7a72xE6GMmh71PZ351ME4pSi3sroNsbl_wCLiuT3gU-J351Hw3R7TneCgQaXXL8LAWLQG0WmHON0DX3Q01eI8xA681WIs1R2d0IwfqmCfLD3AKhJq4YY1OGbJ54XiKqPsfHeI8x86Yg30ubjop0dWUvHeQ4KMxd_yevBvauCmZWz_xQw-VgTCJMeL52fc2eRL5bGPJ4L-mS0]--></g></svg>