<svg xmlns="http://www.w3.org/2000/svg" xmlns:xlink="http://www.w3.org/1999/xlink" contentStyleType="text/css" data-diagram-type="DESCRIPTION" height="1076px" preserveAspectRatio="none" style="width:1752px;height:1076px;background:#FFFFFF;" version="1.1" viewBox="0 0 1752 1076" width="1752px" zoomAndPan="magnify"><defs/><g><!--cluster Energizer--><g class="cluster" data-entity="Energizer" data-source-line="14" data-uid="ent0008" id="cluster_Energizer"><path d="M126.25,121 L191.0498,121 A3.75,3.75 0 0 1 193.5498,123.5 L200.5498,145.6211 L1173.25,145.6211 A2.5,2.5 0 0 1 1175.75,148.1211 L1175.75,673.5 A2.5,2.5 0 0 1 1173.25,676 L126.25,676 A2.5,2.5 0 0 1 123.75,673.5 L123.75,123.5 A2.5,2.5 0 0 1 126.25,121" fill="#FFFFE0" style="stroke:#000000;stroke-width:1.5;"/><line style="stroke:#000000;stroke-width:1.5;" x1="123.75" x2="200.5498" y1="145.6211" y2="145.6211"/><text fill="#000000" font-family="sans-serif" font-size="14" font-weight="bold" lengthAdjust="spacing" textLength="63.7998" x="127.75" y="138.1074">Energizer</text></g><!--cluster Green Split Flow--><g class="cluster" data-entity="Green Split Flow" data-source-line="15" data-uid="ent0009" id="cluster_Green Split Flow"><path d="M150.25,166 L261.7051,166 A3.75,3.75 0 0 1 264.2051,168.5 L271.2051,190.6211 L480.25,190.6211 A2.5,2.5 0 0 1 482.75,193.1211 L482.75,649.5 A2.5,2.5 0 0 1 480.25,652 L150.25,652 A2.5,2.5 0 0 1 147.75,649.5 L147.75,168.5 A2.5,2.5 0 0 1 150.25,166" fill="none" style="stroke:#000000;stroke-width:1.5;"/><line style="stroke:#000000;stroke-width:1.5;" x1="147.75" x2="271.2051" y1="190.6211" y2="190.6211"/><text fill="#000000" font-family="sans-serif" font-size="14" font-weight="bold" lengthAdjust="spacing" textLength="110.4551" x="151.75" y="183.1074">Green Split Flow</text></g><!--cluster Red Split Flow--><g class="cluster" data-entity="Red Split Flow" data-source-line="23" data-uid="ent0016" id="cluster_Red Split Flow"><path d="M509.25,166 L606.6914,166 A3.75,3.75 0 0 1 609.1914,168.5 L616.1914,190.6211 L813.25,190.6211 A2.5,2.5 0 0 1 815.75,193.1211 L815.75,649.5 A2.5,2.5 0 0 1 813.25,652 L509.25,652 A2.5,2.5 0 0 1 506.75,649.5 L506.75,168.5 A2.5,2.5 0 0 1 509.25,166" fill="none" style="stroke:#000000;stroke-width:1.5;"/><line style="stroke:#000000;stroke-width:1.5;" x1="506.75" x2="616.1914" y1="190.6211" y2="190.6211"/><text fill="#000000" font-family="sans-serif" font-size="14" font-weight="bold" lengthAdjust="spacing" textLength="96.4414" x="510.75" y="183.1074">Red Split Flow</text></g><!--cluster Blue Split Flow--><g class="cluster" data-entity="Blue Split Flow" data-source-line="32" data-uid="ent0023" id="cluster_Blue Split Flow"><path d="M842.25,166 L943.5811,166 A3.75,3.75 0 0 1 946.0811,168.5 L953.0811,190.6211 L1149.25,190.6211 A2.5,2.5 0 0 1 1151.75,193.1211 L1151.75,649.5 A2.5,2.5 0 0 1 1149.25,652 L842.25,652 A2.5,2.5 0 0 1 839.75,649.5 L839.75,168.5 A2.5,2.5 0 0 1 842.25,166" fill="none" style="stroke:#000000;stroke-width:1.5;"/><line style="stroke:#000000;stroke-width:1.5;" x1="839.75" x2="953.0811" y1="190.6211" y2="190.6211"/><text fill="#000000" font-family="sans-serif" font-size="14" font-weight="bold" lengthAdjust="spacing" textLength="100.3311" x="843.75" y="183.1074">Blue Split Flow</text></g><!--cluster Crusher--><g class="cluster" data-entity="Crusher" data-source-line="42" data-uid="ent0030" id="cluster_Crusher"><path d="M446.25,855 L500.9326,855 A3.75,3.75 0 0 1 503.4326,857.5 L510.4326,879.6211 L1023.25,879.6211 A2.5,2.5 0 0 1 1025.75,882.1211 L1025.75,954.5 A2.5,2.5 0 0 1 1023.25,957 L446.25,957 A2.5,2.5 0 0 1 443.75,954.5 L443.75,857.5 A2.5,2.5 0 0 1 446.25,855" fill="#FFFFE0" style="stroke:#000000;stroke-width:1.5;"/><line style="stroke:#000000;stroke-width:1.5;" x1="443.75" x2="510.4326" y1="879.6211" y2="879.6211"/><text fill="#000000" font-family="sans-serif" font-size="14" font-weight="bold" lengthAdjust="spacing" textLength="53.6826" x="447.75" y="872.1074">Crusher</text></g><!--entity SG--><g class="entity" data-entity="SG" data-source-line="16" data-uid="ent0010" id="entity_SG"><rect fill="#ADD8E6" height="48.6211" rx="2.5" ry="2.5" style="stroke:#181818;stroke-width:0.5;" width="110.0342" x="352.75" y="203"/><rect fill="#ADD8E6" height="10" style="stroke:#181818;stroke-width:0.5;" width="15" x="442.7842" y="208"/><rect fill="#ADD8E6" height="2" style="stroke:#181818;stroke-width:0.5;" width="4" x="440.7842" y="210"/><rect fill="#ADD8E6" height="2" style="stroke:#181818;stroke-width:0.5;" width="4" x="440.7842" y="214"/><text fill="#000000" font-family="sans-serif" font-size="14" lengthAdjust="spacing" textLength="70.0342" x="367.75" y="238.1074">Split Green</text></g><!--entity SM--><g class="entity" data-entity="SM" data-source-line="17" data-uid="ent0011" id="entity_SM"><rect fill="#ADD8E6" height="48.6211" rx="2.5" ry="2.5" style="stroke:#181818;stroke-width:0.5;" width="125.6064" x="336.75" y="459"/><rect fill="#ADD8E6" height="10" style="stroke:#181818;stroke-width:0.5;" width="15" x="442.3564" y="464"/><rect fill="#ADD8E6" height="2" style="stroke:#181818;stroke-width:0.5;" width="4" x="440.3564" y="466"/><rect fill="#ADD8E6" height="2" style="stroke:#181818;stroke-width:0.5;" width="4" x="440.3564" y="470"/><text fill="#000000" font-family="sans-serif" font-size="14" lengthAdjust="spacing" textLength="85.6064" x="351.75" y="494.1074">Split Magenta</text></g><!--entity MC--><g class="entity" data-entity="MC" data-source-line="18" data-uid="ent0012" id="entity_MC"><rect fill="#F1F1F1" height="48.6211" rx="2.5" ry="2.5" style="stroke:#181818;stroke-width:0.5;" width="141.9307" x="324.75" y="331"/><rect fill="#F1F1F1" height="10" style="stroke:#181818;stroke-width:0.5;" width="15" x="446.6807" y="336"/><rect fill="#F1F1F1" height="2" style="stroke:#181818;stroke-width:0.5;" width="4" x="444.6807" y="338"/><rect fill="#F1F1F1" height="2" style="stroke:#181818;stroke-width:0.5;" width="4" x="444.6807" y="342"/><text fill="#000000" font-family="sans-serif" font-size="14" lengthAdjust="spacing" textLength="101.9307" x="339.75" y="366.1074">Magenta Crystal</text></g><!--entity RC1--><g class="entity" data-entity="RC1" data-source-line="19" data-uid="ent0013" id="entity_RC1"><rect fill="#F1F1F1" height="48.6211" rx="2.5" ry="2.5" style="stroke:#181818;stroke-width:0.5;" width="113.1309" x="351.25" y="587"/><rect fill="#F1F1F1" height="10" style="stroke:#181818;stroke-width:0.5;" width="15" x="444.3809" y="592"/><rect fill="#F1F1F1" height="2" style="stroke:#181818;stroke-width:0.5;" width="4" x="442.3809" y="594"/><rect fill="#F1F1F1" height="2" style="stroke:#181818;stroke-width:0.5;" width="4" x="442.3809" y="598"/><text fill="#000000" font-family="sans-serif" font-size="14" lengthAdjust="spacing" textLength="73.1309" x="366.25" y="622.1074">Red Crystal</text></g><!--entity GC1--><g class="entity" data-entity="GC1" data-source-line="20" data-uid="ent0014" id="entity_GC1"><rect fill="#F1F1F1" height="48.6211" rx="2.5" ry="2.5" style="stroke:#181818;stroke-width:0.5;" width="126.3584" x="163.75" y="331"/><rect fill="#F1F1F1" height="10" style="stroke:#181818;stroke-width:0.5;" width="15" x="270.1084" y="336"/><rect fill="#F1F1F1" height="2" style="stroke:#181818;stroke-width:0.5;" width="4" x="268.1084" y="338"/><rect fill="#F1F1F1" height="2" style="stroke:#181818;stroke-width:0.5;" width="4" x="268.1084" y="342"/><text fill="#000000" font-family="sans-serif" font-size="14" lengthAdjust="spacing" textLength="86.3584" x="178.75" y="366.1074">Green Crystal</text></g><!--entity BC1--><g class="entity" data-entity="BC1" data-source-line="21" data-uid="ent0015" id="entity_BC1"><rect fill="#F1F1F1" height="48.6211" rx="2.5" ry="2.5" style="stroke:#181818;stroke-width:0.5;" width="115.4688" x="183.25" y="587"/><rect fill="#F1F1F1" height="10" style="stroke:#181818;stroke-width:0.5;" width="15" x="278.7188" y="592"/><rect fill="#F1F1F1" height="2" style="stroke:#181818;stroke-width:0.5;" width="4" x="276.7188" y="594"/><rect fill="#F1F1F1" height="2" style="stroke:#181818;stroke-width:0.5;" width="4" x="276.7188" y="598"/><text fill="#000000" font-family="sans-serif" font-size="14" lengthAdjust="spacing" textLength="75.4688" x="198.25" y="622.1074">Blue Crystal</text></g><!--entity SR--><g class="entity" data-entity="SR" data-source-line="24" data-uid="ent0017" id="entity_SR"><rect fill="#ADD8E6" height="48.6211" rx="2.5" ry="2.5" style="stroke:#181818;stroke-width:0.5;" width="96.8066" x="694.25" y="203"/><rect fill="#ADD8E6" height="10" style="stroke:#181818;stroke-width:0.5;" width="15" x="771.0566" y="208"/><rect fill="#ADD8E6" height="2" style="stroke:#181818;stroke-width:0.5;" width="4" x="769.0566" y="210"/><rect fill="#ADD8E6" height="2" style="stroke:#181818;stroke-width:0.5;" width="4" x="769.0566" y="214"/><text fill="#000000" font-family="sans-serif" font-size="14" lengthAdjust="spacing" textLength="56.8066" x="709.25" y="238.1074">Split Red</text></g><!--entity SC--><g class="entity" data-entity="SC" data-source-line="25" data-uid="ent0018" id="entity_SC"><rect fill="#ADD8E6" height="48.6211" rx="2.5" ry="2.5" style="stroke:#181818;stroke-width:0.5;" width="103.8066" x="600.75" y="459"/><rect fill="#ADD8E6" height="10" style="stroke:#181818;stroke-width:0.5;" width="15" x="684.5566" y="464"/><rect fill="#ADD8E6" height="2" style="stroke:#181818;stroke-width:0.5;" width="4" x="682.5566" y="466"/><rect fill="#ADD8E6" height="2" style="stroke:#181818;stroke-width:0.5;" width="4" x="682.5566" y="470"/><text fill="#000000" font-family="sans-serif" font-size="14" lengthAdjust="spacing" textLength="63.8066" x="615.75" y="494.1074">Split Cyan</text></g><!--entity CC--><g class="entity" data-entity="CC" data-source-line="26" data-uid="ent0019" id="entity_CC"><rect fill="#F1F1F1" height="48.6211" rx="2.5" ry="2.5" style="stroke:#181818;stroke-width:0.5;" width="120.1309" x="530.75" y="331"/><rect fill="#F1F1F1" height="10" style="stroke:#181818;stroke-width:0.5;" width="15" x="630.8809" y="336"/><rect fill="#F1F1F1" height="2" style="stroke:#181818;stroke-width:0.5;" width="4" x="628.8809" y="338"/><rect fill="#F1F1F1" height="2" style="stroke:#181818;stroke-width:0.5;" width="4" x="628.8809" y="342"/><text fill="#000000" font-family="sans-serif" font-size="14" lengthAdjust="spacing" textLength="80.1309" x="545.75" y="366.1074">Cyan Crystal</text></g><!--entity RC2--><g class="entity" data-entity="RC2" data-source-line="27" data-uid="ent0020" id="entity_RC2"><rect fill="#F1F1F1" height="48.6211" rx="2.5" ry="2.5" style="stroke:#181818;stroke-width:0.5;" width="113.1309" x="686.25" y="331"/><rect fill="#F1F1F1" height="10" style="stroke:#181818;stroke-width:0.5;" width="15" x="779.3809" y="336"/><rect fill="#F1F1F1" height="2" style="stroke:#181818;stroke-width:0.5;" width="4" x="777.3809" y="338"/><rect fill="#F1F1F1" height="2" style="stroke:#181818;stroke-width:0.5;" width="4" x="777.3809" y="342"/><text fill="#000000" font-family="sans-serif" font-size="14" lengthAdjust="spacing" textLength="73.1309" x="701.25" y="366.1074">Red Crystal</text></g><!--entity GC2--><g class="entity" data-entity="GC2" data-source-line="28" data-uid="ent0021" id="entity_GC2"><rect fill="#F1F1F1" height="48.6211" rx="2.5" ry="2.5" style="stroke:#181818;stroke-width:0.5;" width="126.3584" x="673.75" y="587"/><rect fill="#F1F1F1" height="10" style="stroke:#181818;stroke-width:0.5;" width="15" x="780.1084" y="592"/><rect fill="#F1F1F1" height="2" style="stroke:#181818;stroke-width:0.5;" width="4" x="778.1084" y="594"/><rect fill="#F1F1F1" height="2" style="stroke:#181818;stroke-width:0.5;" width="4" x="778.1084" y="598"/><text fill="#000000" font-family="sans-serif" font-size="14" lengthAdjust="spacing" textLength="86.3584" x="688.75" y="622.1074">Green Crystal</text></g><!--entity BC2--><g class="entity" data-entity="BC2" data-source-line="29" data-uid="ent0022" id="entity_BC2"><rect fill="#F1F1F1" height="48.6211" rx="2.5" ry="2.5" style="stroke:#181818;stroke-width:0.5;" width="115.4688" x="523.25" y="587"/><rect fill="#F1F1F1" height="10" style="stroke:#181818;stroke-width:0.5;" width="15" x="618.7188" y="592"/><rect fill="#F1F1F1" height="2" style="stroke:#181818;stroke-width:0.5;" width="4" x="616.7188" y="594"/><rect fill="#F1F1F1" height="2" style="stroke:#181818;stroke-width:0.5;" width="4" x="616.7188" y="598"/><text fill="#000000" font-family="sans-serif" font-size="14" lengthAdjust="spacing" textLength="75.4688" x="538.25" y="622.1074">Blue Crystal</text></g><!--entity SB--><g class="entity" data-entity="SB" data-source-line="33" data-uid="ent0024" id="entity_SB"><rect fill="#ADD8E6" height="48.6211" rx="2.5" ry="2.5" style="stroke:#181818;stroke-width:0.5;" width="99.1445" x="915.25" y="203"/><rect fill="#ADD8E6" height="10" style="stroke:#181818;stroke-width:0.5;" width="15" x="994.3945" y="208"/><rect fill="#ADD8E6" height="2" style="stroke:#181818;stroke-width:0.5;" width="4" x="992.3945" y="210"/><rect fill="#ADD8E6" height="2" style="stroke:#181818;stroke-width:0.5;" width="4" x="992.3945" y="214"/><text fill="#000000" font-family="sans-serif" font-size="14" lengthAdjust="spacing" textLength="59.1445" x="930.25" y="238.1074">Split Blue</text></g><!--entity SY--><g class="entity" data-entity="SY" data-source-line="34" data-uid="ent0025" id="entity_SY"><rect fill="#ADD8E6" height="48.6211" rx="2.5" ry="2.5" style="stroke:#181818;stroke-width:0.5;" width="112.3652" x="1015.75" y="459"/><rect fill="#ADD8E6" height="10" style="stroke:#181818;stroke-width:0.5;" width="15" x="1108.1152" y="464"/><rect fill="#ADD8E6" height="2" style="stroke:#181818;stroke-width:0.5;" width="4" x="1106.1152" y="466"/><rect fill="#ADD8E6" height="2" style="stroke:#181818;stroke-width:0.5;" width="4" x="1106.1152" y="470"/><text fill="#000000" font-family="sans-serif" font-size="14" lengthAdjust="spacing" textLength="72.3652" x="1030.75" y="494.1074">Split Yellow</text></g><!--entity YC--><g class="entity" data-entity="YC" data-source-line="35" data-uid="ent0026" id="entity_YC"><rect fill="#F1F1F1" height="48.6211" rx="2.5" ry="2.5" style="stroke:#181818;stroke-width:0.5;" width="128.6895" x="1006.25" y="331"/><rect fill="#F1F1F1" height="10" style="stroke:#181818;stroke-width:0.5;" width="15" x="1114.9395" y="336"/><rect fill="#F1F1F1" height="2" style="stroke:#181818;stroke-width:0.5;" width="4" x="1112.9395" y="338"/><rect fill="#F1F1F1" height="2" style="stroke:#181818;stroke-width:0.5;" width="4" x="1112.9395" y="342"/><text fill="#000000" font-family="sans-serif" font-size="14" lengthAdjust="spacing" textLength="88.6895" x="1021.25" y="366.1074">Yellow Crystal</text></g><!--entity RC3--><g class="entity" data-entity="RC3" data-source-line="36" data-uid="ent0027" id="entity_RC3"><rect fill="#F1F1F1" height="48.6211" rx="2.5" ry="2.5" style="stroke:#181818;stroke-width:0.5;" width="113.1309" x="1017.25" y="587"/><rect fill="#F1F1F1" height="10" style="stroke:#181818;stroke-width:0.5;" width="15" x="1110.3809" y="592"/><rect fill="#F1F1F1" height="2" style="stroke:#181818;stroke-width:0.5;" width="4" x="1108.3809" y="594"/><rect fill="#F1F1F1" height="2" style="stroke:#181818;stroke-width:0.5;" width="4" x="1108.3809" y="598"/><text fill="#000000" font-family="sans-serif" font-size="14" lengthAdjust="spacing" textLength="73.1309" x="1032.25" y="622.1074">Red Crystal</text></g><!--entity GC3--><g class="entity" data-entity="GC3" data-source-line="37" data-uid="ent0028" id="entity_GC3"><rect fill="#F1F1F1" height="48.6211" rx="2.5" ry="2.5" style="stroke:#181818;stroke-width:0.5;" width="126.3584" x="855.75" y="587"/><rect fill="#F1F1F1" height="10" style="stroke:#181818;stroke-width:0.5;" width="15" x="962.1084" y="592"/><rect fill="#F1F1F1" height="2" style="stroke:#181818;stroke-width:0.5;" width="4" x="960.1084" y="594"/><rect fill="#F1F1F1" height="2" style="stroke:#181818;stroke-width:0.5;" width="4" x="960.1084" y="598"/><text fill="#000000" font-family="sans-serif" font-size="14" lengthAdjust="spacing" textLength="86.3584" x="870.75" y="622.1074">Green Crystal</text></g><!--entity BC3--><g class="entity" data-entity="BC3" data-source-line="38" data-uid="ent0029" id="entity_BC3"><rect fill="#F1F1F1" height="48.6211" rx="2.5" ry="2.5" style="stroke:#181818;stroke-width:0.5;" width="115.4688" x="856.25" y="331"/><rect fill="#F1F1F1" height="10" style="stroke:#181818;stroke-width:0.5;" width="15" x="951.7188" y="336"/><rect fill="#F1F1F1" height="2" style="stroke:#181818;stroke-width:0.5;" width="4" x="949.7188" y="338"/><rect fill="#F1F1F1" height="2" style="stroke:#181818;stroke-width:0.5;" width="4" x="949.7188" y="342"/><text fill="#000000" font-family="sans-serif" font-size="14" lengthAdjust="spacing" textLength="75.4688" x="871.25" y="366.1074">Blue Crystal</text></g><!--entity CrR--><g class="entity" data-entity="CrR" data-source-line="43" data-uid="ent0031" id="entity_CrR"><rect fill="#ADD8E6" height="48.6211" rx="2.5" ry="2.5" style="stroke:#181818;stroke-width:0.5;" width="154.3652" x="855.75" y="892"/><rect fill="#ADD8E6" height="10" style="stroke:#181818;stroke-width:0.5;" width="15" x="990.1152" y="897"/><rect fill="#ADD8E6" height="2" style="stroke:#181818;stroke-width:0.5;" width="4" x="988.1152" y="899"/><rect fill="#ADD8E6" height="2" style="stroke:#181818;stroke-width:0.5;" width="4" x="988.1152" y="903"/><text fill="#000000" font-family="sans-serif" font-size="14" lengthAdjust="spacing" textLength="114.3652" x="870.75" y="927.1074">Crush Red Crystal</text></g><!--entity CrG--><g class="entity" data-entity="CrG" data-source-line="44" data-uid="ent0032" id="entity_CrG"><rect fill="#ADD8E6" height="48.6211" rx="2.5" ry="2.5" style="stroke:#181818;stroke-width:0.5;" width="167.5928" x="652.75" y="892"/><rect fill="#ADD8E6" height="10" style="stroke:#181818;stroke-width:0.5;" width="15" x="800.3428" y="897"/><rect fill="#ADD8E6" height="2" style="stroke:#181818;stroke-width:0.5;" width="4" x="798.3428" y="899"/><rect fill="#ADD8E6" height="2" style="stroke:#181818;stroke-width:0.5;" width="4" x="798.3428" y="903"/><text fill="#000000" font-family="sans-serif" font-size="14" lengthAdjust="spacing" textLength="127.5928" x="667.75" y="927.1074">Crush Green Crystal</text></g><!--entity CrB--><g class="entity" data-entity="CrB" data-source-line="45" data-uid="ent0033" id="entity_CrB"><rect fill="#ADD8E6" height="48.6211" rx="2.5" ry="2.5" style="stroke:#181818;stroke-width:0.5;" width="156.7031" x="460.25" y="892"/><rect fill="#ADD8E6" height="10" style="stroke:#181818;stroke-width:0.5;" width="15" x="596.9531" y="897"/><rect fill="#ADD8E6" height="2" style="stroke:#181818;stroke-width:0.5;" width="4" x="594.9531" y="899"/><rect fill="#ADD8E6" height="2" style="stroke:#181818;stroke-width:0.5;" width="4" x="594.9531" y="903"/><text fill="#000000" font-family="sans-serif" font-size="14" lengthAdjust="spacing" textLength="116.7031" x="475.25" y="927.1074">Crush Blue Crystal</text></g><!--entity C--><g class="entity" data-entity="C" data-source-line="6" data-uid="ent0002" id="entity_C"><rect fill="#FFB6C1" height="48.6211" rx="2.5" ry="2.5" style="stroke:#181818;stroke-width:0.5;" width="83.5586" x="700.75" y="7"/><rect fill="#FFB6C1" height="10" style="stroke:#181818;stroke-width:0.5;" width="15" x="764.3086" y="12"/><rect fill="#FFB6C1" height="2" style="stroke:#181818;stroke-width:0.5;" width="4" x="762.3086" y="14"/><rect fill="#FFB6C1" height="2" style="stroke:#181818;stroke-width:0.5;" width="4" x="762.3086" y="18"/><text fill="#000000" font-family="sans-serif" font-size="14" lengthAdjust="spacing" textLength="43.5586" x="715.75" y="42.1074">Crystal</text></g><!--entity RC--><g class="entity" data-entity="RC" data-source-line="8" data-uid="ent0003" id="entity_RC"><rect fill="#90EE90" height="48.6211" rx="2.5" ry="2.5" style="stroke:#181818;stroke-width:0.5;" width="113.1309" x="905.25" y="741"/><rect fill="#90EE90" height="10" style="stroke:#181818;stroke-width:0.5;" width="15" x="998.3809" y="746"/><rect fill="#90EE90" height="2" style="stroke:#181818;stroke-width:0.5;" width="4" x="996.3809" y="748"/><rect fill="#90EE90" height="2" style="stroke:#181818;stroke-width:0.5;" width="4" x="996.3809" y="752"/><text fill="#000000" font-family="sans-serif" font-size="14" lengthAdjust="spacing" textLength="73.1309" x="920.25" y="776.1074">Red Crystal</text></g><!--entity GC--><g class="entity" data-entity="GC" data-source-line="9" data-uid="ent0004" id="entity_GC"><rect fill="#90EE90" height="48.6211" rx="2.5" ry="2.5" style="stroke:#181818;stroke-width:0.5;" width="126.3584" x="673.75" y="741"/><rect fill="#90EE90" height="10" style="stroke:#181818;stroke-width:0.5;" width="15" x="780.1084" y="746"/><rect fill="#90EE90" height="2" style="stroke:#181818;stroke-width:0.5;" width="4" x="778.1084" y="748"/><rect fill="#90EE90" height="2" style="stroke:#181818;stroke-width:0.5;" width="4" x="778.1084" y="752"/><text fill="#000000" font-family="sans-serif" font-size="14" lengthAdjust="spacing" textLength="86.3584" x="688.75" y="776.1074">Green Crystal</text></g><!--entity BC--><g class="entity" data-entity="BC" data-source-line="10" data-uid="ent0005" id="entity_BC"><rect fill="#90EE90" height="48.6211" rx="2.5" ry="2.5" style="stroke:#181818;stroke-width:0.5;" width="115.4688" x="274.25" y="741"/><rect fill="#90EE90" height="10" style="stroke:#181818;stroke-width:0.5;" width="15" x="369.7188" y="746"/><rect fill="#90EE90" height="2" style="stroke:#181818;stroke-width:0.5;" width="4" x="367.7188" y="748"/><rect fill="#90EE90" height="2" style="stroke:#181818;stroke-width:0.5;" width="4" x="367.7188" y="752"/><text fill="#000000" font-family="sans-serif" font-size="14" lengthAdjust="spacing" textLength="75.4688" x="289.25" y="776.1074">Blue Crystal</text></g><!--entity CCr--><g class="entity" data-entity="CCr" data-source-line="11" data-uid="ent0006" id="entity_CCr"><rect fill="#90EE90" height="48.6211" rx="2.5" ry="2.5" style="stroke:#181818;stroke-width:0.5;" width="140.3652" x="666.75" y="1022"/><rect fill="#90EE90" height="10" style="stroke:#181818;stroke-width:0.5;" width="15" x="787.1152" y="1027"/><rect fill="#90EE90" height="2" style="stroke:#181818;stroke-width:0.5;" width="4" x="785.1152" y="1029"/><rect fill="#90EE90" height="2" style="stroke:#181818;stroke-width:0.5;" width="4" x="785.1152" y="1033"/><text fill="#000000" font-family="sans-serif" font-size="14" lengthAdjust="spacing" textLength="100.3652" x="681.75" y="1057.1074">Crushed Crystal</text></g><!--entity PA--><g class="entity" data-entity="PA" data-source-line="12" data-uid="ent0007" id="entity_PA"><rect fill="#90EE90" height="48.6211" rx="2.5" ry="2.5" style="stroke:#181818;stroke-width:0.5;" width="86.6826" x="1455.25" y="741"/><rect fill="#90EE90" height="10" style="stroke:#181818;stroke-width:0.5;" width="15" x="1521.9326" y="746"/><rect fill="#90EE90" height="2" style="stroke:#181818;stroke-width:0.5;" width="4" x="1519.9326" y="748"/><rect fill="#90EE90" height="2" style="stroke:#181818;stroke-width:0.5;" width="4" x="1519.9326" y="752"/><text fill="#000000" font-family="sans-serif" font-size="14" lengthAdjust="spacing" textLength="46.6826" x="1470.25" y="776.1074">Plasma</text></g><!--link SG to PA--><g class="link" data-entity-1="SG" data-entity-2="PA" data-source-line="48" data-uid="lnk34" id="link_SG_PA"><path d="M462.9,243.51 C477.09,246.85 492.4,249.98 506.75,252 C790.92,291.98 866.72,248.63 1151.75,282 C1324.25,302.2 1535.75,180.82 1535.75,354.5 C1535.75,354.5 1535.75,354.5 1535.75,612.5 C1535.75,659.08 1521.229,705.8454 1510.269,735.3554" fill="none" id="SG-to-PA" style="stroke:#181818;stroke-width:1;stroke-dasharray:7,7;"/><polygon fill="#181818" points="1508.18,740.98,1515.0632,733.9357,1509.9208,736.2928,1507.5637,731.1504,1508.18,740.98" style="stroke:#181818;stroke-width:1;"/><text fill="#000000" font-family="sans-serif" font-size="13" lengthAdjust="spacing" textLength="21.6899" x="1536.75" y="489.0283">100</text></g><!--link SM to PA--><g class="link" data-entity-1="SM" data-entity-2="PA" data-source-line="49" data-uid="lnk35" id="link_SM_PA"><path d="M462.8,500.21 C477.16,503.27 492.42,506.11 506.75,508 C577.87,517.4 1089.08,503.08 1151.75,538 C1220.45,576.28 1188.79,636.86 1251.75,684 C1313.3,730.09 1396.5065,749.535 1449.1665,758.025" fill="none" id="SM-to-PA" style="stroke:#181818;stroke-width:1;stroke-dasharray:7,7;"/><polygon fill="#181818" points="1455.09,758.98,1446.8414,753.5985,1450.1537,758.1842,1445.5681,761.4965,1455.09,758.98" style="stroke:#181818;stroke-width:1;"/><text fill="#000000" font-family="sans-serif" font-size="13" lengthAdjust="spacing" textLength="21.6899" x="1252.75" y="617.0283">100</text></g><!--link SR to PA--><g class="link" data-entity-1="SR" data-entity-2="PA" data-source-line="50" data-uid="lnk36" id="link_SR_PA"><path d="M791.73,242.35 C806.99,246.12 823.96,249.78 839.75,252 C919.26,263.17 1488.87,248.3 1561.75,282 C1601.57,300.42 1628.75,310.63 1628.75,354.5 C1628.75,354.5 1628.75,354.5 1628.75,612.5 C1628.75,668.75 1581.6429,711.2934 1543.4129,737.4334" fill="none" id="SR-to-PA" style="stroke:#181818;stroke-width:1;stroke-dasharray:7,7;"/><polygon fill="#181818" points="1538.46,740.82,1548.1471,739.0421,1542.5874,737.9979,1543.6316,732.4382,1538.46,740.82" style="stroke:#181818;stroke-width:1;"/><text fill="#000000" font-family="sans-serif" font-size="13" lengthAdjust="spacing" textLength="21.6899" x="1629.75" y="489.0283">100</text></g><!--link SC to PA--><g class="link" data-entity-1="SC" data-entity-2="PA" data-source-line="51" data-uid="lnk37" id="link_SC_PA"><path d="M705.06,491.76 C742.52,496.79 794.17,503.38 839.75,508 C926.01,516.74 1151.76,498.13 1228.75,538 C1303.58,576.76 1284.59,630.55 1349.75,684 C1381.8,710.29 1418.281,729.5501 1449.501,743.7901" fill="none" id="SC-to-PA" style="stroke:#181818;stroke-width:1;stroke-dasharray:7,7;"/><polygon fill="#181818" points="1454.96,746.28,1448.4315,738.9058,1450.4109,744.2051,1445.1116,746.1844,1454.96,746.28" style="stroke:#181818;stroke-width:1;"/><text fill="#000000" font-family="sans-serif" font-size="13" lengthAdjust="spacing" textLength="21.6899" x="1350.75" y="617.0283">100</text></g><!--link SB to PA--><g class="link" data-entity-1="SB" data-entity-2="PA" data-source-line="52" data-uid="lnk38" id="link_SB_PA"><path d="M1014.34,230.26 C1162.88,235.81 1597.5,254.27 1654.75,282 C1694.23,301.13 1721.75,310.63 1721.75,354.5 C1721.75,354.5 1721.75,354.5 1721.75,612.5 C1721.75,698.48 1612.9907,737.8344 1548.0907,754.0644" fill="none" id="SB-to-PA" style="stroke:#181818;stroke-width:1;stroke-dasharray:7,7;"/><polygon fill="#181818" points="1542.27,755.52,1551.9715,757.217,1547.1206,754.307,1550.0307,749.456,1542.27,755.52" style="stroke:#181818;stroke-width:1;"/><text fill="#000000" font-family="sans-serif" font-size="13" lengthAdjust="spacing" textLength="21.6899" x="1722.75" y="489.0283">100</text></g><!--link SY to PA--><g class="link" data-entity-1="SY" data-entity-2="PA" data-source-line="53" data-uid="lnk39" id="link_SY_PA"><path d="M1127.98,485.7 C1181.52,489.21 1262.49,500.92 1321.75,538 C1404.24,589.62 1461.052,688.6658 1484.732,735.4858" fill="none" id="SY-to-PA" style="stroke:#181818;stroke-width:1;stroke-dasharray:7,7;"/><polygon fill="#181818" points="1487.44,740.84,1486.9475,731.0035,1485.1834,736.3782,1479.8086,734.6141,1487.44,740.84" style="stroke:#181818;stroke-width:1;"/><text fill="#000000" font-family="sans-serif" font-size="13" lengthAdjust="spacing" textLength="21.6899" x="1455.75" y="617.0283">100</text></g><!--link C to SG--><g class="link" data-entity-1="C" data-entity-2="SG" data-source-line="55" data-uid="lnk40" id="link_C_SG"><path d="M700.55,39.95 C650.89,50.21 567.49,72.23 506.75,113 C470.92,137.04 443.5207,172.2763 426.1707,197.8263" fill="none" id="C-to-SG" style="stroke:#181818;stroke-width:1;"/><polygon fill="#181818" points="422.8,202.79,431.1652,197.5915,425.6089,198.6536,424.5469,193.0973,422.8,202.79" style="stroke:#181818;stroke-width:1;"/><text fill="#000000" font-family="sans-serif" font-size="13" lengthAdjust="spacing" textLength="7.23" x="555.75" y="101.0283">1</text></g><!--link SG to GC1--><g class="link" data-entity-1="SG" data-entity-2="GC1" data-source-line="56" data-uid="lnk41" id="link_SG_GC1"><path d="M373.7,252.2 C341.34,274.73 297.8745,304.9922 265.5645,327.4822" fill="none" id="SG-to-GC1" style="stroke:#181818;stroke-width:1;"/><polygon fill="#181818" points="260.64,330.91,270.3119,329.0513,264.7437,328.0535,265.7415,322.4854,260.64,330.91" style="stroke:#181818;stroke-width:1;"/><text fill="#000000" font-family="sans-serif" font-size="13" lengthAdjust="spacing" textLength="7.23" x="329.75" y="297.0283">1</text></g><!--link SG to MC--><g class="link" data-entity-1="SG" data-entity-2="MC" data-source-line="57" data-uid="lnk42" id="link_SG_MC"><path d="M405.49,252.2 C403.34,274.73 400.711,302.4472 398.561,324.9372" fill="none" id="SG-to-MC" style="stroke:#181818;stroke-width:1;"/><polygon fill="#181818" points="397.99,330.91,402.8283,322.3315,398.4658,325.9327,394.8646,321.5702,397.99,330.91" style="stroke:#181818;stroke-width:1;"/><text fill="#000000" font-family="sans-serif" font-size="13" lengthAdjust="spacing" textLength="7.23" x="403.75" y="297.0283">1</text></g><!--link C to SR--><g class="link" data-entity-1="C" data-entity-2="SR" data-source-line="59" data-uid="lnk43" id="link_C_SR"><path d="M742.75,56.29 C742.75,93.62 742.75,159.55 742.75,196.82" fill="none" id="C-to-SR" style="stroke:#181818;stroke-width:1;"/><polygon fill="#181818" points="742.75,202.82,746.75,193.82,742.75,197.82,738.75,193.82,742.75,202.82" style="stroke:#181818;stroke-width:1;"/><text fill="#000000" font-family="sans-serif" font-size="13" lengthAdjust="spacing" textLength="7.23" x="743.75" y="101.0283">1</text></g><!--link SR to RC2--><g class="link" data-entity-1="SR" data-entity-2="RC2" data-source-line="60" data-uid="lnk44" id="link_SR_RC2"><path d="M742.75,252.2 C742.75,274.73 742.75,302.42 742.75,324.91" fill="none" id="SR-to-RC2" style="stroke:#181818;stroke-width:1;"/><polygon fill="#181818" points="742.75,330.91,746.75,321.91,742.75,325.91,738.75,321.91,742.75,330.91" style="stroke:#181818;stroke-width:1;"/><text fill="#000000" font-family="sans-serif" font-size="13" lengthAdjust="spacing" textLength="7.23" x="743.75" y="297.0283">1</text></g><!--link SR to CC--><g class="link" data-entity-1="SR" data-entity-2="CC" data-source-line="61" data-uid="lnk45" id="link_SR_CC"><path d="M714.16,252.2 C686.98,274.73 650.9592,304.5908 623.8292,327.0808" fill="none" id="SR-to-CC" style="stroke:#181818;stroke-width:1;"/><polygon fill="#181818" points="619.21,330.91,628.6916,328.2457,623.0594,327.719,623.586,322.0867,619.21,330.91" style="stroke:#181818;stroke-width:1;"/><text fill="#000000" font-family="sans-serif" font-size="13" lengthAdjust="spacing" textLength="7.23" x="677.75" y="297.0283">1</text></g><!--link C to SB--><g class="link" data-entity-1="C" data-entity-2="SB" data-source-line="63" data-uid="lnk46" id="link_C_SB"><path d="M769.97,56.29 C812.69,93.62 890.482,161.6019 933.132,198.8719" fill="none" id="C-to-SB" style="stroke:#181818;stroke-width:1;"/><polygon fill="#181818" points="937.65,202.82,933.505,193.8858,933.885,199.5299,928.2409,199.9099,937.65,202.82" style="stroke:#181818;stroke-width:1;"/><text fill="#000000" font-family="sans-serif" font-size="13" lengthAdjust="spacing" textLength="7.23" x="822.75" y="101.0283">1</text></g><!--link SB to BC3--><g class="link" data-entity-1="SB" data-entity-2="BC3" data-source-line="64" data-uid="lnk47" id="link_SB_BC3"><path d="M955.15,252.2 C946.04,274.73 934.6505,302.8581 925.5505,325.3481" fill="none" id="SB-to-BC3" style="stroke:#181818;stroke-width:1;"/><polygon fill="#181818" points="923.3,330.91,930.3837,324.0674,925.1754,326.275,922.9678,321.0667,923.3,330.91" style="stroke:#181818;stroke-width:1;"/><text fill="#000000" font-family="sans-serif" font-size="13" lengthAdjust="spacing" textLength="7.23" x="943.75" y="297.0283">1</text></g><!--link SB to YC--><g class="link" data-entity-1="SB" data-entity-2="YC" data-source-line="65" data-uid="lnk48" id="link_SB_YC"><path d="M984.68,252.2 C1003.64,274.73 1028.1174,303.8286 1047.0374,326.3186" fill="none" id="SB-to-YC" style="stroke:#181818;stroke-width:1;"/><polygon fill="#181818" points="1050.9,330.91,1048.1671,321.4479,1047.6812,327.0839,1042.0453,326.598,1050.9,330.91" style="stroke:#181818;stroke-width:1;"/><text fill="#000000" font-family="sans-serif" font-size="13" lengthAdjust="spacing" textLength="7.23" x="1025.75" y="297.0283">1</text></g><!--link YC to SY--><g class="link" data-entity-1="YC" data-entity-2="SY" data-source-line="67" data-uid="lnk49" id="link_YC_SY"><path d="M1070.93,380.2 C1071.11,402.73 1071.332,430.4202 1071.512,452.9102" fill="none" id="YC-to-SY" style="stroke:#181818;stroke-width:1;"/><polygon fill="#181818" points="1071.56,458.91,1075.4878,449.8783,1071.52,453.9102,1067.4881,449.9423,1071.56,458.91" style="stroke:#181818;stroke-width:1;"/><text fill="#000000" font-family="sans-serif" font-size="13" lengthAdjust="spacing" textLength="7.23" x="1072.75" y="425.0283">1</text></g><!--link SY to RC3--><g class="link" data-entity-1="SY" data-entity-2="RC3" data-source-line="68" data-uid="lnk50" id="link_SY_RC3"><path d="M1072.12,508.2 C1072.48,530.73 1072.9266,558.4207 1073.2766,580.9107" fill="none" id="SY-to-RC3" style="stroke:#181818;stroke-width:1;"/><polygon fill="#181818" points="1073.37,586.91,1077.2295,577.8488,1073.2922,581.9106,1069.2304,577.9733,1073.37,586.91" style="stroke:#181818;stroke-width:1;"/><text fill="#000000" font-family="sans-serif" font-size="13" lengthAdjust="spacing" textLength="7.23" x="1074.75" y="553.0283">1</text></g><!--link SY to GC3--><g class="link" data-entity-1="SY" data-entity-2="GC3" data-source-line="69" data-uid="lnk51" id="link_SY_GC3"><path d="M1042.97,508.2 C1015.61,530.73 979.3416,560.6058 952.0316,583.0958" fill="none" id="SY-to-GC3" style="stroke:#181818;stroke-width:1;"/><polygon fill="#181818" points="947.4,586.91,956.8902,584.2765,951.2597,583.7315,951.8047,578.101,947.4,586.91" style="stroke:#181818;stroke-width:1;"/><text fill="#000000" font-family="sans-serif" font-size="13" lengthAdjust="spacing" textLength="7.23" x="1005.75" y="553.0283">1</text></g><!--link CC to SC--><g class="link" data-entity-1="CC" data-entity-2="SC" data-source-line="71" data-uid="lnk52" id="link_CC_SC"><path d="M602.41,380.2 C613.49,402.73 627.4203,431.0368 638.4903,453.5268" fill="none" id="CC-to-SC" style="stroke:#181818;stroke-width:1;"/><polygon fill="#181818" points="641.14,458.91,640.7542,449.0687,638.9319,454.424,633.5766,452.6017,641.14,458.91" style="stroke:#181818;stroke-width:1;"/><text fill="#000000" font-family="sans-serif" font-size="13" lengthAdjust="spacing" textLength="7.23" x="626.75" y="425.0283">1</text></g><!--link SC to GC2--><g class="link" data-entity-1="SC" data-entity-2="GC2" data-source-line="72" data-uid="lnk53" id="link_SC_GC2"><path d="M668.55,508.2 C683.56,530.73 702.6908,559.4284 717.6908,581.9184" fill="none" id="SC-to-GC2" style="stroke:#181818;stroke-width:1;"/><polygon fill="#181818" points="721.02,586.91,719.3539,577.2031,718.2456,582.7503,712.6984,581.6421,721.02,586.91" style="stroke:#181818;stroke-width:1;"/><text fill="#000000" font-family="sans-serif" font-size="13" lengthAdjust="spacing" textLength="7.23" x="701.75" y="553.0283">1</text></g><!--link SC to BC2--><g class="link" data-entity-1="SC" data-entity-2="BC2" data-source-line="73" data-uid="lnk54" id="link_SC_BC2"><path d="M639.2,508.2 C626.33,530.73 610.0566,559.2104 597.2066,581.7004" fill="none" id="SC-to-BC2" style="stroke:#181818;stroke-width:1;"/><polygon fill="#181818" points="594.23,586.91,602.1679,581.08,596.7105,582.5687,595.2218,577.1112,594.23,586.91" style="stroke:#181818;stroke-width:1;"/><text fill="#000000" font-family="sans-serif" font-size="13" lengthAdjust="spacing" textLength="7.23" x="622.75" y="553.0283">1</text></g><!--link MC to SM--><g class="link" data-entity-1="MC" data-entity-2="SM" data-source-line="75" data-uid="lnk55" id="link_MC_SM"><path d="M396.5,380.2 C397.21,402.73 398.088,430.4231 398.808,452.9131" fill="none" id="MC-to-SM" style="stroke:#181818;stroke-width:1;"/><polygon fill="#181818" points="399,458.91,402.71,449.7866,398.84,453.9126,394.7141,450.0426,399,458.91" style="stroke:#181818;stroke-width:1;"/><text fill="#000000" font-family="sans-serif" font-size="13" lengthAdjust="spacing" textLength="7.23" x="399.75" y="425.0283">1</text></g><!--link SM to BC1--><g class="link" data-entity-1="SM" data-entity-2="BC1" data-source-line="76" data-uid="lnk56" id="link_SM_BC1"><path d="M369.84,508.2 C341.41,530.73 303.6025,560.6935 275.2225,583.1835" fill="none" id="SM-to-BC1" style="stroke:#181818;stroke-width:1;"/><polygon fill="#181818" points="270.52,586.91,280.058,584.4552,274.4387,583.8046,275.0894,578.1853,270.52,586.91" style="stroke:#181818;stroke-width:1;"/><text fill="#000000" font-family="sans-serif" font-size="13" lengthAdjust="spacing" textLength="7.23" x="331.75" y="553.0283">1</text></g><!--link SM to RC1--><g class="link" data-entity-1="SM" data-entity-2="RC1" data-source-line="77" data-uid="lnk57" id="link_SM_RC1"><path d="M401.25,508.2 C402.68,530.73 404.4393,558.4321 405.8693,580.9221" fill="none" id="SM-to-RC1" style="stroke:#181818;stroke-width:1;"/><polygon fill="#181818" points="406.25,586.91,409.6708,577.6743,405.9327,581.9201,401.687,578.182,406.25,586.91" style="stroke:#181818;stroke-width:1;"/><text fill="#000000" font-family="sans-serif" font-size="13" lengthAdjust="spacing" textLength="7.23" x="405.75" y="553.0283">1</text></g><!--link RC1 to RC--><g class="link" data-entity-1="RC1" data-entity-2="RC" data-source-line="79" data-uid="lnk58" id="link_RC1_RC"><path d="M431.79,636.34 C450.49,653.15 478.01,674.33 506.75,684 C541.82,695.81 804.18,681.77 839.75,692 C874.08,701.88 903.8142,720.2819 927.3442,737.4619" fill="none" id="RC1-to-RC" style="stroke:#181818;stroke-width:1;"/><polygon fill="#181818" points="932.19,741,927.28,732.4623,928.1518,738.0516,922.5625,738.9234,932.19,741" style="stroke:#181818;stroke-width:1;"/><text fill="#000000" font-family="sans-serif" font-size="13" lengthAdjust="spacing" textLength="7.23" x="883.75" y="707.0283">1</text></g><!--link RC2 to RC--><g class="link" data-entity-1="RC2" data-entity-2="RC" data-source-line="80" data-uid="lnk59" id="link_RC2_RC"><path d="M799.4,371.65 C812.57,374.78 826.59,377.79 839.75,380 C1119.17,427.04 1303.89,340.01 1442.75,587 C1463.87,624.58 1470.6,651.1 1442.75,684 C1388.93,747.57 1139.7182,760.8343 1024.4682,763.6343" fill="none" id="RC2-to-RC" style="stroke:#181818;stroke-width:1;"/><polygon fill="#181818" points="1018.47,763.78,1027.5645,767.5602,1023.4685,763.6586,1027.3702,759.5626,1018.47,763.78" style="stroke:#181818;stroke-width:1;"/><text fill="#000000" font-family="sans-serif" font-size="13" lengthAdjust="spacing" textLength="7.23" x="1423.75" y="553.0283">1</text></g><!--link RC3 to RC--><g class="link" data-entity-1="RC3" data-entity-2="RC" data-source-line="81" data-uid="lnk60" id="link_RC3_RC"><path d="M1056.25,636.25 C1035.21,664.81 1003.6697,707.61 982.6797,736.09" fill="none" id="RC3-to-RC" style="stroke:#181818;stroke-width:1;"/><polygon fill="#181818" points="979.12,740.92,987.6795,736.0482,982.0864,736.895,981.2396,731.3019,979.12,740.92" style="stroke:#181818;stroke-width:1;"/><text fill="#000000" font-family="sans-serif" font-size="13" lengthAdjust="spacing" textLength="7.23" x="1015.75" y="707.0283">1</text></g><!--link GC1 to GC--><g class="link" data-entity-1="GC1" data-entity-2="GC" data-source-line="83" data-uid="lnk61" id="link_GC1_GC"><path d="M163.46,366.84 C136.43,374.42 106.78,387.49 87.75,410 C6,506.69 55.39,621.93 165.75,684 C251.7,732.34 537.5097,753.6088 667.4397,761.0088" fill="none" id="GC1-to-GC" style="stroke:#181818;stroke-width:1;"/><polygon fill="#181818" points="673.43,761.35,664.672,756.8447,668.4381,761.0657,664.2171,764.8318,673.43,761.35" style="stroke:#181818;stroke-width:1;"/><text fill="#000000" font-family="sans-serif" font-size="13" lengthAdjust="spacing" textLength="7.23" x="54.75" y="553.0283">1</text></g><!--link GC2 to GC--><g class="link" data-entity-1="GC2" data-entity-2="GC" data-source-line="84" data-uid="lnk62" id="link_GC2_GC"><path d="M736.75,636.25 C736.75,664.81 736.75,706.44 736.75,734.92" fill="none" id="GC2-to-GC" style="stroke:#181818;stroke-width:1;"/><polygon fill="#181818" points="736.75,740.92,740.75,731.92,736.75,735.92,732.75,731.92,736.75,740.92" style="stroke:#181818;stroke-width:1;"/><text fill="#000000" font-family="sans-serif" font-size="13" lengthAdjust="spacing" textLength="7.23" x="737.75" y="707.0283">1</text></g><!--link GC3 to GC--><g class="link" data-entity-1="GC3" data-entity-2="GC" data-source-line="85" data-uid="lnk63" id="link_GC3_GC"><path d="M890.31,636.25 C856.12,664.81 803.6957,708.5945 769.5857,737.0745" fill="none" id="GC3-to-GC" style="stroke:#181818;stroke-width:1;"/><polygon fill="#181818" points="764.98,740.92,774.4522,738.2222,768.8181,737.7154,769.3249,732.0813,764.98,740.92" style="stroke:#181818;stroke-width:1;"/><text fill="#000000" font-family="sans-serif" font-size="13" lengthAdjust="spacing" textLength="7.23" x="823.75" y="707.0283">1</text></g><!--link BC1 to BC--><g class="link" data-entity-1="BC1" data-entity-2="BC" data-source-line="87" data-uid="lnk64" id="link_BC1_BC"><path d="M254.97,636.25 C272.06,664.81 297.4981,707.292 314.5481,735.772" fill="none" id="BC1-to-BC" style="stroke:#181818;stroke-width:1;"/><polygon fill="#181818" points="317.63,740.92,316.4391,731.1434,315.0617,736.63,309.5751,735.2526,317.63,740.92" style="stroke:#181818;stroke-width:1;"/><text fill="#000000" font-family="sans-serif" font-size="13" lengthAdjust="spacing" textLength="7.23" x="300.75" y="707.0283">1</text></g><!--link BC2 to BC--><g class="link" data-entity-1="BC2" data-entity-2="BC" data-source-line="88" data-uid="lnk65" id="link_BC2_BC"><path d="M550.62,636.18 C531.62,650.68 506.3,669.23 482.75,684 C449.4,704.91 415.4751,723.034 385.3351,738.264" fill="none" id="BC2-to-BC" style="stroke:#181818;stroke-width:1;"/><polygon fill="#181818" points="379.98,740.97,389.8167,740.4811,384.4426,738.715,386.2087,733.3409,379.98,740.97" style="stroke:#181818;stroke-width:1;"/><text fill="#000000" font-family="sans-serif" font-size="13" lengthAdjust="spacing" textLength="7.23" x="468.75" y="707.0283">1</text></g><!--link BC3 to BC--><g class="link" data-entity-1="BC3" data-entity-2="BC" data-source-line="89" data-uid="lnk66" id="link_BC3_BC"><path d="M856.06,372.26 C842.9,375.32 828.91,378.14 815.75,380 C778.96,385.19 174.35,384.07 147.75,410 C60.55,495.01 77.53,584.5 147.75,684 C176.8,725.16 225.8382,744.1411 268.1282,754.0511" fill="none" id="BC3-to-BC" style="stroke:#181818;stroke-width:1;"/><polygon fill="#181818" points="273.97,755.42,266.12,749.4721,269.1019,754.2792,264.2948,757.2611,273.97,755.42" style="stroke:#181818;stroke-width:1;"/><text fill="#000000" font-family="sans-serif" font-size="13" lengthAdjust="spacing" textLength="7.23" x="91.75" y="553.0283">1</text></g><!--link BC to CrB--><g class="link" data-entity-1="BC" data-entity-2="CrB" data-source-line="91" data-uid="lnk67" id="link_BC_CrB"><path d="M364.55,790.11 C403.19,817.93 462.1599,860.3755 500.8899,888.2455" fill="none" id="BC-to-CrB" style="stroke:#181818;stroke-width:1;"/><polygon fill="#181818" points="505.76,891.75,500.7912,883.2464,501.7016,888.8296,496.1184,889.74,505.76,891.75" style="stroke:#181818;stroke-width:1;"/><text fill="#000000" font-family="sans-serif" font-size="13" lengthAdjust="spacing" textLength="7.23" x="430.75" y="835.0283">1</text></g><!--link CrB to CCr--><g class="link" data-entity-1="CrB" data-entity-2="CCr" data-source-line="92" data-uid="lnk68" id="link_CrB_CCr"><path d="M575.52,941.28 C611.09,964.27 659.6312,995.6426 695.1312,1018.5926" fill="none" id="CrB-to-CCr" style="stroke:#181818;stroke-width:1;"/><polygon fill="#181818" points="700.17,1021.85,694.7835,1013.6047,695.971,1019.1355,690.4402,1020.323,700.17,1021.85" style="stroke:#181818;stroke-width:1;"/><text fill="#000000" font-family="sans-serif" font-size="13" lengthAdjust="spacing" textLength="7.23" x="650.75" y="988.0283">1</text></g><!--link RC to CrR--><g class="link" data-entity-1="RC" data-entity-2="CrR" data-source-line="94" data-uid="lnk69" id="link_RC_CrR"><path d="M957.15,790.11 C951.75,817.85 943.9962,857.7205 938.5662,885.6205" fill="none" id="RC-to-CrR" style="stroke:#181818;stroke-width:1;"/><polygon fill="#181818" points="937.42,891.51,943.0657,883.4399,938.3752,886.6021,935.213,881.9116,937.42,891.51" style="stroke:#181818;stroke-width:1;"/><text fill="#000000" font-family="sans-serif" font-size="13" lengthAdjust="spacing" textLength="7.23" x="951.75" y="835.0283">1</text></g><!--link CrR to CCr--><g class="link" data-entity-1="CrR" data-entity-2="CCr" data-source-line="95" data-uid="lnk70" id="link_CrR_CCr"><path d="M896.34,941.28 C861.14,964.27 813.1235,995.6191 777.9835,1018.5691" fill="none" id="CrR-to-CCr" style="stroke:#181818;stroke-width:1;"/><polygon fill="#181818" points="772.96,1021.85,782.6825,1020.2777,777.1463,1019.1159,778.308,1013.5797,772.96,1021.85" style="stroke:#181818;stroke-width:1;"/><text fill="#000000" font-family="sans-serif" font-size="13" lengthAdjust="spacing" textLength="7.23" x="847.75" y="988.0283">1</text></g><!--link GC to CrG--><g class="link" data-entity-1="GC" data-entity-2="CrG" data-source-line="97" data-uid="lnk71" id="link_GC_CrG"><path d="M736.75,790.11 C736.75,817.85 736.75,857.61 736.75,885.51" fill="none" id="GC-to-CrG" style="stroke:#181818;stroke-width:1;"/><polygon fill="#181818" points="736.75,891.51,740.75,882.51,736.75,886.51,732.75,882.51,736.75,891.51" style="stroke:#181818;stroke-width:1;"/><text fill="#000000" font-family="sans-serif" font-size="13" lengthAdjust="spacing" textLength="7.23" x="737.75" y="835.0283">1</text></g><!--link CrG to CCr--><g class="link" data-entity-1="CrG" data-entity-2="CCr" data-source-line="98" data-uid="lnk72" id="link_CrG_CCr"><path d="M736.75,941.28 C736.75,964.27 736.75,992.9 736.75,1015.85" fill="none" id="CrG-to-CCr" style="stroke:#181818;stroke-width:1;"/><polygon fill="#181818" points="736.75,1021.85,740.75,1012.85,736.75,1016.85,732.75,1012.85,736.75,1021.85" style="stroke:#181818;stroke-width:1;"/><text fill="#000000" font-family="sans-serif" font-size="13" lengthAdjust="spacing" textLength="7.23" x="737.75" y="988.0283">1</text></g><!--SRC=[RP8nJyCm48Lt_meBPYhIR0n8-0IU8Y5tYYg6q9ecgYcL4uGAuhzZ-ox5TZqbxxvdtylb-c6h-RkU-e_jo7eltWPjvlVDO3T6CxO6UngdphpmRkJ0hysmwwVZSDWxfFIMnrZDV6UrFh2rz8_48JE7C9ywCOZC0FPpxBCs03OrFPjkVEy2Utv843jsctstq_pneErk-DRpoPCsvkEB_vmDLnXsTJJ3n9ySkt9mZJAWSFrAqlbN5tp6ZJj_cB3_gaaCX9Bu3PGcLvN7LHLdLB7V_-3-hc9i1p2JAeI6KqUV10drzMpQfRZBSjnbCUwInNc3eHZO4yma2edRyCkGjmb7aZHjYwdhSkgwcBfseN__DmWtyM9_S4DvtWjiEdHqNJO7Amk-YpHWaucuM6uJ5ul5lL_uErxTtZAtULb1vGN82o8lj5c10R-vkVThxmk-gPTkBMFPG52pLo5JGRbDYIMaLe5C1EKc7ikMh2rvMuGjNLl7Kf9aG6OykmAYorWAagmXSuEq8Lh5Kf5a_WKBGVllIcGTIoR9BL5BSfzb7Kico2rG2tAVPHrBft6K5gVddpXQEoSbheYhbCkPI-8ovUmF]--></g></svg>