<svg xmlns="http://www.w3.org/2000/svg" xmlns:xlink="http://www.w3.org/1999/xlink" contentStyleType="text/css" data-diagram-type="DESCRIPTION" height="562px" preserveAspectRatio="none" style="width:855px;height:562px;background:#FFFFFF;" version="1.1" viewBox="0 0 855 562" width="855px" zoomAndPan="magnify"><defs/><g><!--cluster Energizer--><g class="cluster" data-entity="Energizer" data-source-line="18" data-uid="ent0012" id="cluster_Energizer"><path d="M197.59,231 L262.3898,231 A3.75,3.75 0 0 1 264.8898,233.5 L271.8898,255.6211 L742.59,255.6211 A2.5,2.5 0 0 1 745.09,258.1211 L745.09,330.5 A2.5,2.5 0 0 1 742.59,333 L197.59,333 A2.5,2.5 0 0 1 195.09,330.5 L195.09,233.5 A2.5,2.5 0 0 1 197.59,231" fill="#FFFFE0" style="stroke:#000000;stroke-width:1.5;"/><line style="stroke:#000000;stroke-width:1.5;" x1="195.09" x2="271.8898" y1="255.6211" y2="255.6211"/><text fill="#000000" font-family="sans-serif" font-size="14" font-weight="bold" lengthAdjust="spacing" textLength="63.7998" x="199.09" y="248.1074">Energizer</text></g><!--entity NR--><g class="entity" data-entity="NR" data-source-line="19" data-uid="ent0013" id="entity_NR"><rect fill="#ADD8E6" height="48.6211" rx="2.5" ry="2.5" style="stroke:#181818;stroke-width:0.5;" width="103.0273" x="211.59" y="268"/><rect fill="#ADD8E6" height="10" style="stroke:#181818;stroke-width:0.5;" width="15" x="294.6173" y="273"/><rect fill="#ADD8E6" height="2" style="stroke:#181818;stroke-width:0.5;" width="4" x="292.6173" y="275"/><rect fill="#ADD8E6" height="2" style="stroke:#181818;stroke-width:0.5;" width="4" x="292.6173" y="279"/><text fill="#000000" font-family="sans-serif" font-size="14" lengthAdjust="spacing" textLength="63.0273" x="226.59" y="303.1074">Neutralize</text></g><!--entity NG--><g class="entity" data-entity="NG" data-source-line="20" data-uid="ent0014" id="entity_NG"><rect fill="#ADD8E6" height="48.6211" rx="2.5" ry="2.5" style="stroke:#181818;stroke-width:0.5;" width="103.0273" x="349.59" y="268"/><rect fill="#ADD8E6" height="10" style="stroke:#181818;stroke-width:0.5;" width="15" x="432.6173" y="273"/><rect fill="#ADD8E6" height="2" style="stroke:#181818;stroke-width:0.5;" width="4" x="430.6173" y="275"/><rect fill="#ADD8E6" height="2" style="stroke:#181818;stroke-width:0.5;" width="4" x="430.6173" y="279"/><text fill="#000000" font-family="sans-serif" font-size="14" lengthAdjust="spacing" textLength="63.0273" x="364.59" y="303.1074">Neutralize</text></g><!--entity NB--><g class="entity" data-entity="NB" data-source-line="21" data-uid="ent0015" id="entity_NB"><rect fill="#ADD8E6" height="48.6211" rx="2.5" ry="2.5" style="stroke:#181818;stroke-width:0.5;" width="103.0273" x="487.59" y="268"/><rect fill="#ADD8E6" height="10" style="stroke:#181818;stroke-width:0.5;" width="15" x="570.6173" y="273"/><rect fill="#ADD8E6" height="2" style="stroke:#181818;stroke-width:0.5;" width="4" x="568.6173" y="275"/><rect fill="#ADD8E6" height="2" style="stroke:#181818;stroke-width:0.5;" width="4" x="568.6173" y="279"/><text fill="#000000" font-family="sans-serif" font-size="14" lengthAdjust="spacing" textLength="63.0273" x="502.59" y="303.1074">Neutralize</text></g><!--entity NC--><g class="entity" data-entity="NC" data-source-line="22" data-uid="ent0016" id="entity_NC"><rect fill="#ADD8E6" height="48.6211" rx="2.5" ry="2.5" style="stroke:#181818;stroke-width:0.5;" width="103.0273" x="625.59" y="268"/><rect fill="#ADD8E6" height="10" style="stroke:#181818;stroke-width:0.5;" width="15" x="708.6173" y="273"/><rect fill="#ADD8E6" height="2" style="stroke:#181818;stroke-width:0.5;" width="4" x="706.6173" y="275"/><rect fill="#ADD8E6" height="2" style="stroke:#181818;stroke-width:0.5;" width="4" x="706.6173" y="279"/><text fill="#000000" font-family="sans-serif" font-size="14" lengthAdjust="spacing" textLength="63.0273" x="640.59" y="303.1074">Neutralize</text></g><!--entity RC--><g class="entity" data-entity="RC" data-source-line="6" data-uid="ent0002" id="entity_RC"><rect fill="#FFB6C1" height="48.6211" rx="2.5" ry="2.5" style="stroke:#181818;stroke-width:0.5;" width="113.1309" x="86.59" y="117"/><rect fill="#FFB6C1" height="10" style="stroke:#181818;stroke-width:0.5;" width="15" x="179.7209" y="122"/><rect fill="#FFB6C1" height="2" style="stroke:#181818;stroke-width:0.5;" width="4" x="177.7209" y="124"/><rect fill="#FFB6C1" height="2" style="stroke:#181818;stroke-width:0.5;" width="4" x="177.7209" y="128"/><text fill="#000000" font-family="sans-serif" font-size="14" lengthAdjust="spacing" textLength="73.1309" x="101.59" y="152.1074">Red Crystal</text></g><!--entity GC--><g class="entity" data-entity="GC" data-source-line="7" data-uid="ent0003" id="entity_GC"><rect fill="#FFB6C1" height="48.6211" rx="2.5" ry="2.5" style="stroke:#181818;stroke-width:0.5;" width="126.3584" x="235.09" y="117"/><rect fill="#FFB6C1" height="10" style="stroke:#181818;stroke-width:0.5;" width="15" x="341.4484" y="122"/><rect fill="#FFB6C1" height="2" style="stroke:#181818;stroke-width:0.5;" width="4" x="339.4484" y="124"/><rect fill="#FFB6C1" height="2" style="stroke:#181818;stroke-width:0.5;" width="4" x="339.4484" y="128"/><text fill="#000000" font-family="sans-serif" font-size="14" lengthAdjust="spacing" textLength="86.3584" x="250.09" y="152.1074">Green Crystal</text></g><!--entity BC--><g class="entity" data-entity="BC" data-source-line="8" data-uid="ent0004" id="entity_BC"><rect fill="#FFB6C1" height="48.6211" rx="2.5" ry="2.5" style="stroke:#181818;stroke-width:0.5;" width="115.4688" x="554.59" y="117"/><rect fill="#FFB6C1" height="10" style="stroke:#181818;stroke-width:0.5;" width="15" x="650.0588" y="122"/><rect fill="#FFB6C1" height="2" style="stroke:#181818;stroke-width:0.5;" width="4" x="648.0588" y="124"/><rect fill="#FFB6C1" height="2" style="stroke:#181818;stroke-width:0.5;" width="4" x="648.0588" y="128"/><text fill="#000000" font-family="sans-serif" font-size="14" lengthAdjust="spacing" textLength="75.4688" x="569.59" y="152.1074">Blue Crystal</text></g><!--entity C--><g class="entity" data-entity="C" data-source-line="9" data-uid="ent0005" id="entity_C"><rect fill="#FFB6C1" height="48.6211" rx="2.5" ry="2.5" style="stroke:#181818;stroke-width:0.5;" width="83.5586" x="705.09" y="117"/><rect fill="#FFB6C1" height="10" style="stroke:#181818;stroke-width:0.5;" width="15" x="768.6486" y="122"/><rect fill="#FFB6C1" height="2" style="stroke:#181818;stroke-width:0.5;" width="4" x="766.6486" y="124"/><rect fill="#FFB6C1" height="2" style="stroke:#181818;stroke-width:0.5;" width="4" x="766.6486" y="128"/><text fill="#000000" font-family="sans-serif" font-size="14" lengthAdjust="spacing" textLength="43.5586" x="720.09" y="152.1074">Crystal</text></g><!--entity W--><g class="entity" data-entity="W" data-source-line="10" data-uid="ent0006" id="entity_W"><rect fill="#FFB6C1" height="48.6211" rx="2.5" ry="2.5" style="stroke:#181818;stroke-width:0.5;" width="77.3379" x="431.59" y="7"/><rect fill="#FFB6C1" height="10" style="stroke:#181818;stroke-width:0.5;" width="15" x="488.9279" y="12"/><rect fill="#FFB6C1" height="2" style="stroke:#181818;stroke-width:0.5;" width="4" x="486.9279" y="14"/><rect fill="#FFB6C1" height="2" style="stroke:#181818;stroke-width:0.5;" width="4" x="486.9279" y="18"/><text fill="#000000" font-family="sans-serif" font-size="14" lengthAdjust="spacing" textLength="37.3379" x="446.59" y="42.1074">Water</text></g><!--entity FE--><g class="entity" data-entity="FE" data-source-line="12" data-uid="ent0007" id="entity_FE"><rect fill="#90EE90" height="48.6211" rx="2.5" ry="2.5" style="stroke:#181818;stroke-width:0.5;" width="91.3516" x="472.59" y="398"/><rect fill="#90EE90" height="10" style="stroke:#181818;stroke-width:0.5;" width="15" x="543.9416" y="403"/><rect fill="#90EE90" height="2" style="stroke:#181818;stroke-width:0.5;" width="4" x="541.9416" y="405"/><rect fill="#90EE90" height="2" style="stroke:#181818;stroke-width:0.5;" width="4" x="541.9416" y="409"/><text fill="#000000" font-family="sans-serif" font-size="14" lengthAdjust="spacing" textLength="51.3516" x="487.59" y="433.1074">Iron Ore</text></g><!--entity CU--><g class="entity" data-entity="CU" data-source-line="13" data-uid="ent0008" id="entity_CU"><rect fill="#90EE90" height="48.6211" rx="2.5" ry="2.5" style="stroke:#181818;stroke-width:0.5;" width="113.1445" x="38.59" y="398"/><rect fill="#90EE90" height="10" style="stroke:#181818;stroke-width:0.5;" width="15" x="131.7345" y="403"/><rect fill="#90EE90" height="2" style="stroke:#181818;stroke-width:0.5;" width="4" x="129.7345" y="405"/><rect fill="#90EE90" height="2" style="stroke:#181818;stroke-width:0.5;" width="4" x="129.7345" y="409"/><text fill="#000000" font-family="sans-serif" font-size="14" lengthAdjust="spacing" textLength="73.1445" x="53.59" y="433.1074">Copper Ore</text></g><!--entity S--><g class="entity" data-entity="S" data-source-line="14" data-uid="ent0009" id="entity_S"><rect fill="#90EE90" height="48.6211" rx="2.5" ry="2.5" style="stroke:#181818;stroke-width:0.5;" width="76.5859" x="273.59" y="398"/><rect fill="#90EE90" height="10" style="stroke:#181818;stroke-width:0.5;" width="15" x="330.1759" y="403"/><rect fill="#90EE90" height="2" style="stroke:#181818;stroke-width:0.5;" width="4" x="328.1759" y="405"/><rect fill="#90EE90" height="2" style="stroke:#181818;stroke-width:0.5;" width="4" x="328.1759" y="409"/><text fill="#000000" font-family="sans-serif" font-size="14" lengthAdjust="spacing" textLength="36.5859" x="288.59" y="433.1074">Stone</text></g><!--entity Ca--><g class="entity" data-entity="Ca" data-source-line="15" data-uid="ent0010" id="entity_Ca"><rect fill="#90EE90" height="48.6211" rx="2.5" ry="2.5" style="stroke:#181818;stroke-width:0.5;" width="68.793" x="685.59" y="398"/><rect fill="#90EE90" height="10" style="stroke:#181818;stroke-width:0.5;" width="15" x="734.383" y="403"/><rect fill="#90EE90" height="2" style="stroke:#181818;stroke-width:0.5;" width="4" x="732.383" y="405"/><rect fill="#90EE90" height="2" style="stroke:#181818;stroke-width:0.5;" width="4" x="732.383" y="409"/><text fill="#000000" font-family="sans-serif" font-size="14" lengthAdjust="spacing" textLength="28.793" x="700.59" y="433.1074">Coal</text></g><!--entity PA--><g class="entity" data-entity="PA" data-source-line="16" data-uid="ent0011" id="entity_PA"><rect fill="#90EE90" height="48.6211" rx="2.5" ry="2.5" style="stroke:#181818;stroke-width:0.5;" width="107.71" x="473.09" y="508"/><rect fill="#90EE90" height="10" style="stroke:#181818;stroke-width:0.5;" width="15" x="560.8" y="513"/><rect fill="#90EE90" height="2" style="stroke:#181818;stroke-width:0.5;" width="4" x="558.8" y="515"/><rect fill="#90EE90" height="2" style="stroke:#181818;stroke-width:0.5;" width="4" x="558.8" y="519"/><text fill="#000000" font-family="sans-serif" font-size="14" lengthAdjust="spacing" textLength="67.71" x="488.09" y="543.1074">Steam 165</text></g><!--link RC to NR--><g class="link" data-entity-1="RC" data-entity-2="NR" data-source-line="25" data-uid="lnk17" id="link_RC_NR"><path d="M162.1,166.11 C184.44,193.85 217.5365,234.9371 240.0065,262.8371" fill="none" id="RC-to-NR" style="stroke:#181818;stroke-width:1;"/><polygon fill="#181818" points="243.77,267.51,241.2401,257.9916,240.6338,263.6159,235.0095,263.0096,243.77,267.51" style="stroke:#181818;stroke-width:1;"/><text fill="#000000" font-family="sans-serif" font-size="13" lengthAdjust="spacing" textLength="7.23" x="201.09" y="211.0283">1</text></g><!--link GC to NG--><g class="link" data-entity-1="GC" data-entity-2="NG" data-source-line="26" data-uid="lnk18" id="link_GC_NG"><path d="M314.41,166.11 C333.58,193.85 361.809,234.6739 381.089,262.5739" fill="none" id="GC-to-NG" style="stroke:#181818;stroke-width:1;"/><polygon fill="#181818" points="384.5,267.51,382.6742,257.8319,381.6575,263.3966,376.0927,262.3799,384.5,267.51" style="stroke:#181818;stroke-width:1;"/><text fill="#000000" font-family="sans-serif" font-size="13" lengthAdjust="spacing" textLength="7.23" x="348.09" y="211.0283">1</text></g><!--link BC to NB--><g class="link" data-entity-1="BC" data-entity-2="NB" data-source-line="27" data-uid="lnk19" id="link_BC_NB"><path d="M600.52,166.11 C586.93,193.85 567.1499,234.222 553.4799,262.122" fill="none" id="BC-to-NB" style="stroke:#181818;stroke-width:1;"/><polygon fill="#181818" points="550.84,267.51,558.3919,261.1879,553.0399,263.02,551.2079,257.668,550.84,267.51" style="stroke:#181818;stroke-width:1;"/><text fill="#000000" font-family="sans-serif" font-size="13" lengthAdjust="spacing" textLength="7.23" x="585.09" y="211.0283">1</text></g><!--link C to NC--><g class="link" data-entity-1="C" data-entity-2="NC" data-source-line="28" data-uid="lnk20" id="link_C_NC"><path d="M736,166.11 C722.97,193.85 704.0217,234.1796 690.9117,262.0796" fill="none" id="C-to-NC" style="stroke:#181818;stroke-width:1;"/><polygon fill="#181818" points="688.36,267.51,695.8078,261.0656,690.4864,262.9847,688.5673,257.6633,688.36,267.51" style="stroke:#181818;stroke-width:1;"/><text fill="#000000" font-family="sans-serif" font-size="13" lengthAdjust="spacing" textLength="7.23" x="721.09" y="211.0283">1</text></g><!--link NR to CU--><g class="link" data-entity-1="NR" data-entity-2="CU" data-source-line="30" data-uid="lnk21" id="link_NR_CU"><path d="M230.35,317.01 C216.87,326.79 201.15,338.33 187.09,349 C166.03,364.98 147.3224,379.6908 129.4024,393.9708" fill="none" id="NR-to-CU" style="stroke:#181818;stroke-width:1;"/><polygon fill="#181818" points="124.71,397.71,134.2414,395.2294,128.6203,394.594,129.2557,388.9729,124.71,397.71" style="stroke:#181818;stroke-width:1;"/><text fill="#000000" font-family="sans-serif" font-size="13" lengthAdjust="spacing" textLength="7.23" x="188.09" y="364.0283">2</text></g><!--link NG to S--><g class="link" data-entity-1="NG" data-entity-2="S" data-source-line="31" data-uid="lnk22" id="link_NG_S"><path d="M384.56,317.28 C368.57,340.27 347.9156,369.974 331.9556,392.924" fill="none" id="NG-to-S" style="stroke:#181818;stroke-width:1;"/><polygon fill="#181818" points="328.53,397.85,336.9524,392.7448,331.3847,393.745,330.3845,388.1773,328.53,397.85" style="stroke:#181818;stroke-width:1;"/><text fill="#000000" font-family="sans-serif" font-size="13" lengthAdjust="spacing" textLength="7.23" x="363.09" y="364.0283">2</text></g><!--link NB to FE--><g class="link" data-entity-1="NB" data-entity-2="FE" data-source-line="32" data-uid="lnk23" id="link_NB_FE"><path d="M535.19,317.28 C531.42,340.27 526.7001,368.9789 522.9401,391.9289" fill="none" id="NB-to-FE" style="stroke:#181818;stroke-width:1;"/><polygon fill="#181818" points="521.97,397.85,527.3725,389.6151,522.7784,392.9158,519.4777,388.3217,521.97,397.85" style="stroke:#181818;stroke-width:1;"/><text fill="#000000" font-family="sans-serif" font-size="13" lengthAdjust="spacing" textLength="7.23" x="531.09" y="364.0283">2</text></g><!--link NC to Ca--><g class="link" data-entity-1="NC" data-entity-2="Ca" data-source-line="33" data-uid="lnk24" id="link_NC_Ca"><path d="M685.08,317.28 C692.8,340.27 702.5293,369.2124 710.2393,392.1624" fill="none" id="NC-to-Ca" style="stroke:#181818;stroke-width:1;"/><polygon fill="#181818" points="712.15,397.85,713.0756,388.0447,710.5577,393.1103,705.4921,390.5924,712.15,397.85" style="stroke:#181818;stroke-width:1;"/><text fill="#000000" font-family="sans-serif" font-size="13" lengthAdjust="spacing" textLength="7.23" x="702.09" y="364.0283">6</text></g><!--link NR to PA--><g class="link" data-entity-1="NR" data-entity-2="PA" data-source-line="35" data-uid="lnk25" id="link_NR_PA"><path d="M249.85,317.14 C233.58,349.72 211.44,408.7 240.09,447 C268.01,484.33 391.9616,509.8636 467.0816,522.3836" fill="none" id="NR-to-PA" style="stroke:#181818;stroke-width:1;stroke-dasharray:7,7;"/><polygon fill="#181818" points="473,523.37,464.7801,517.9448,468.068,522.548,463.4649,525.836,473,523.37" style="stroke:#181818;stroke-width:1;"/><text fill="#000000" font-family="sans-serif" font-size="13" lengthAdjust="spacing" textLength="14.46" x="241.09" y="428.0283">20</text></g><!--link NG to PA--><g class="link" data-entity-1="NG" data-entity-2="PA" data-source-line="36" data-uid="lnk26" id="link_NG_PA"><path d="M402.85,317.12 C406.06,348.63 414.98,405.29 439.09,447 C452.98,471.02 471.0431,488.8067 489.9131,504.1367" fill="none" id="NG-to-PA" style="stroke:#181818;stroke-width:1;stroke-dasharray:7,7;"/><polygon fill="#181818" points="494.57,507.92,490.1068,499.1405,490.6892,504.7673,485.0624,505.3497,494.57,507.92" style="stroke:#181818;stroke-width:1;"/><text fill="#000000" font-family="sans-serif" font-size="13" lengthAdjust="spacing" textLength="14.46" x="440.09" y="428.0283">20</text></g><!--link NB to PA--><g class="link" data-entity-1="NB" data-entity-2="PA" data-source-line="37" data-uid="lnk27" id="link_NB_PA"><path d="M553.85,317.24 C570.74,347.46 594.46,401.25 581.09,447 C574.5,469.56 563.5103,487.0735 551.1303,503.0835" fill="none" id="NB-to-PA" style="stroke:#181818;stroke-width:1;stroke-dasharray:7,7;"/><polygon fill="#181818" points="547.46,507.83,556.1297,503.1572,550.5186,503.8746,549.8011,498.2634,547.46,507.83" style="stroke:#181818;stroke-width:1;"/><text fill="#000000" font-family="sans-serif" font-size="13" lengthAdjust="spacing" textLength="14.46" x="585.09" y="428.0283">20</text></g><!--link NC to PA--><g class="link" data-entity-1="NC" data-entity-2="PA" data-source-line="38" data-uid="lnk28" id="link_NC_PA"><path d="M710.16,317.26 C748.8,347.96 803.65,402.72 772.09,447 C728.86,507.63 645.1093,524.6924 587.0693,529.5224" fill="none" id="NC-to-PA" style="stroke:#181818;stroke-width:1;stroke-dasharray:7,7;"/><polygon fill="#181818" points="581.09,530.02,590.3907,533.2598,586.0728,529.6053,589.7273,525.2874,581.09,530.02" style="stroke:#181818;stroke-width:1;"/><text fill="#000000" font-family="sans-serif" font-size="13" lengthAdjust="spacing" textLength="14.46" x="782.09" y="428.0283">60</text></g><!--link W to NR--><g class="link" data-entity-1="W" data-entity-2="NR" data-source-line="40" data-uid="lnk29" id="link_W_NR"><path d="M431.33,34.47 C338.33,40.09 106.8,59.68 60.09,117 C6,183.38 129.3118,242.4673 205.8318,271.5673" fill="none" id="W-to-NR" style="stroke:#181818;stroke-width:1;stroke-dasharray:7,7;"/><polygon fill="#181818" points="211.44,273.7,204.4496,266.7621,206.7665,271.9227,201.6059,274.2397,211.44,273.7" style="stroke:#181818;stroke-width:1;"/><text fill="#000000" font-family="sans-serif" font-size="13" lengthAdjust="spacing" textLength="7.23" x="61.09" y="147.0283">5</text></g><!--link W to NG--><g class="link" data-entity-1="W" data-entity-2="NG" data-source-line="41" data-uid="lnk30" id="link_W_NG"><path d="M463.72,56.4 C450.58,105.74 422.1141,212.5621 408.9841,261.8621" fill="none" id="W-to-NG" style="stroke:#181818;stroke-width:1;stroke-dasharray:7,7;"/><polygon fill="#181818" points="407.44,267.66,413.6215,259.9926,408.7268,262.8284,405.891,257.9337,407.44,267.66" style="stroke:#181818;stroke-width:1;"/><text fill="#000000" font-family="sans-serif" font-size="13" lengthAdjust="spacing" textLength="7.23" x="449.09" y="147.0283">5</text></g><!--link W to NB--><g class="link" data-entity-1="W" data-entity-2="NB" data-source-line="42" data-uid="lnk31" id="link_W_NB"><path d="M476.46,56.4 C489.6,105.74 518.0659,212.5621 531.1959,261.8621" fill="none" id="W-to-NB" style="stroke:#181818;stroke-width:1;stroke-dasharray:7,7;"/><polygon fill="#181818" points="532.74,267.66,534.289,257.9337,531.4532,262.8284,526.5585,259.9926,532.74,267.66" style="stroke:#181818;stroke-width:1;"/><text fill="#000000" font-family="sans-serif" font-size="13" lengthAdjust="spacing" textLength="7.23" x="507.09" y="147.0283">5</text></g><!--link W to NC--><g class="link" data-entity-1="W" data-entity-2="NC" data-source-line="43" data-uid="lnk32" id="link_W_NC"><path d="M508.8,36.33 C589.31,45.18 770.4,69.98 807.09,117 C848.57,170.17 774.0305,230.7599 722.0505,264.5499" fill="none" id="W-to-NC" style="stroke:#181818;stroke-width:1;stroke-dasharray:7,7;"/><polygon fill="#181818" points="717.02,267.82,726.7459,266.2685,721.2121,265.0949,722.3857,259.5611,717.02,267.82" style="stroke:#181818;stroke-width:1;"/><text fill="#000000" font-family="sans-serif" font-size="13" lengthAdjust="spacing" textLength="14.46" x="819.09" y="147.0283">15</text></g><!--SRC=[VP51QuCm68Rltwy8x5nf1thmK5X25tRfXZ8yo0wPVjFGL2LQHZVstvT4Muo5tdpoV6_oyLhB4iaHXxejUwWjV4bKb-z2wa8XG9vWIPW-zuDG7qJq967aGScg7ZhP723d6h7n1hW_GDK9FKzzFrU-oSI0sfrdytF8NtJRa5UDpZtl9bdPJSnzRTUXlchsxkjqQ9lHfClSPGcnJA0uaaqKEllsv5deH74G5P9TWxgIF-RbKPzHgVQR_4A-nzEWXJBENR1FfebFKyojvNSjlMlPtFu1c5-rMctjYp7P09-8Ew8JKKSJC0TW0XPDTJ5v11Emb8v07PZI7OqvqrXC8fSBWc1hEp9sRPC-qmMp6KThW6najt1u9UuHzSXj7Fu3]--></g></svg>