<svg xmlns="http://www.w3.org/2000/svg" xmlns:xlink="http://www.w3.org/1999/xlink" contentStyleType="text/css" data-diagram-type="DESCRIPTION" height="562px" preserveAspectRatio="none" style="width:904px;height:562px;background:#FFFFFF;" version="1.1" viewBox="0 0 904 562" width="904px" zoomAndPan="magnify"><defs/><g><!--cluster Energizer--><g class="cluster" data-entity="Energizer" data-source-line="18" data-uid="ent0012" id="cluster_Energizer"><path d="M223.31,231 L288.1098,231 A3.75,3.75 0 0 1 290.6098,233.5 L297.6098,255.6211 L768.31,255.6211 A2.5,2.5 0 0 1 770.81,258.1211 L770.81,330.5 A2.5,2.5 0 0 1 768.31,333 L223.31,333 A2.5,2.5 0 0 1 220.81,330.5 L220.81,233.5 A2.5,2.5 0 0 1 223.31,231" fill="#FFFFE0" style="stroke:#000000;stroke-width:1.5;"/><line style="stroke:#000000;stroke-width:1.5;" x1="220.81" x2="297.6098" y1="255.6211" y2="255.6211"/><text fill="#000000" font-family="sans-serif" font-size="14" font-weight="bold" lengthAdjust="spacing" textLength="63.7998" x="224.81" y="248.1074">Energizer</text></g><!--entity NR--><g class="entity" data-entity="NR" data-source-line="19" data-uid="ent0013" id="entity_NR"><rect fill="#ADD8E6" height="48.6211" rx="2.5" ry="2.5" style="stroke:#181818;stroke-width:0.5;" width="103.0273" x="237.31" y="268"/><rect fill="#ADD8E6" height="10" style="stroke:#181818;stroke-width:0.5;" width="15" x="320.3373" y="273"/><rect fill="#ADD8E6" height="2" style="stroke:#181818;stroke-width:0.5;" width="4" x="318.3373" y="275"/><rect fill="#ADD8E6" height="2" style="stroke:#181818;stroke-width:0.5;" width="4" x="318.3373" y="279"/><text fill="#000000" font-family="sans-serif" font-size="14" lengthAdjust="spacing" textLength="63.0273" x="252.31" y="303.1074">Neutralize</text></g><!--entity NG--><g class="entity" data-entity="NG" data-source-line="20" data-uid="ent0014" id="entity_NG"><rect fill="#ADD8E6" height="48.6211" rx="2.5" ry="2.5" style="stroke:#181818;stroke-width:0.5;" width="103.0273" x="375.31" y="268"/><rect fill="#ADD8E6" height="10" style="stroke:#181818;stroke-width:0.5;" width="15" x="458.3373" y="273"/><rect fill="#ADD8E6" height="2" style="stroke:#181818;stroke-width:0.5;" width="4" x="456.3373" y="275"/><rect fill="#ADD8E6" height="2" style="stroke:#181818;stroke-width:0.5;" width="4" x="456.3373" y="279"/><text fill="#000000" font-family="sans-serif" font-size="14" lengthAdjust="spacing" textLength="63.0273" x="390.31" y="303.1074">Neutralize</text></g><!--entity NB--><g class="entity" data-entity="NB" data-source-line="21" data-uid="ent0015" id="entity_NB"><rect fill="#ADD8E6" height="48.6211" rx="2.5" ry="2.5" style="stroke:#181818;stroke-width:0.5;" width="103.0273" x="513.31" y="268"/><rect fill="#ADD8E6" height="10" style="stroke:#181818;stroke-width:0.5;" width="15" x="596.3373" y="273"/><rect fill="#ADD8E6" height="2" style="stroke:#181818;stroke-width:0.5;" width="4" x="594.3373" y="275"/><rect fill="#ADD8E6" height="2" style="stroke:#181818;stroke-width:0.5;" width="4" x="594.3373" y="279"/><text fill="#000000" font-family="sans-serif" font-size="14" lengthAdjust="spacing" textLength="63.0273" x="528.31" y="303.1074">Neutralize</text></g><!--entity NC--><g class="entity" data-entity="NC" data-source-line="22" data-uid="ent0016" id="entity_NC"><rect fill="#ADD8E6" height="48.6211" rx="2.5" ry="2.5" style="stroke:#181818;stroke-width:0.5;" width="103.0273" x="651.31" y="268"/><rect fill="#ADD8E6" height="10" style="stroke:#181818;stroke-width:0.5;" width="15" x="734.3373" y="273"/><rect fill="#ADD8E6" height="2" style="stroke:#181818;stroke-width:0.5;" width="4" x="732.3373" y="275"/><rect fill="#ADD8E6" height="2" style="stroke:#181818;stroke-width:0.5;" width="4" x="732.3373" y="279"/><text fill="#000000" font-family="sans-serif" font-size="14" lengthAdjust="spacing" textLength="63.0273" x="666.31" y="303.1074">Neutralize</text></g><!--entity RC--><g class="entity" data-entity="RC" data-source-line="6" data-uid="ent0002" id="entity_RC"><rect fill="#FFB6C1" height="48.6211" rx="2.5" ry="2.5" style="stroke:#181818;stroke-width:0.5;" width="113.1309" x="105.31" y="117"/><rect fill="#FFB6C1" height="10" style="stroke:#181818;stroke-width:0.5;" width="15" x="198.4409" y="122"/><rect fill="#FFB6C1" height="2" style="stroke:#181818;stroke-width:0.5;" width="4" x="196.4409" y="124"/><rect fill="#FFB6C1" height="2" style="stroke:#181818;stroke-width:0.5;" width="4" x="196.4409" y="128"/><text fill="#000000" font-family="sans-serif" font-size="14" lengthAdjust="spacing" textLength="73.1309" x="120.31" y="152.1074">Red Crystal</text></g><!--entity GC--><g class="entity" data-entity="GC" data-source-line="7" data-uid="ent0003" id="entity_GC"><rect fill="#FFB6C1" height="48.6211" rx="2.5" ry="2.5" style="stroke:#181818;stroke-width:0.5;" width="126.3584" x="253.81" y="117"/><rect fill="#FFB6C1" height="10" style="stroke:#181818;stroke-width:0.5;" width="15" x="360.1684" y="122"/><rect fill="#FFB6C1" height="2" style="stroke:#181818;stroke-width:0.5;" width="4" x="358.1684" y="124"/><rect fill="#FFB6C1" height="2" style="stroke:#181818;stroke-width:0.5;" width="4" x="358.1684" y="128"/><text fill="#000000" font-family="sans-serif" font-size="14" lengthAdjust="spacing" textLength="86.3584" x="268.81" y="152.1074">Green Crystal</text></g><!--entity BC--><g class="entity" data-entity="BC" data-source-line="8" data-uid="ent0004" id="entity_BC"><rect fill="#FFB6C1" height="48.6211" rx="2.5" ry="2.5" style="stroke:#181818;stroke-width:0.5;" width="115.4688" x="601.31" y="117"/><rect fill="#FFB6C1" height="10" style="stroke:#181818;stroke-width:0.5;" width="15" x="696.7788" y="122"/><rect fill="#FFB6C1" height="2" style="stroke:#181818;stroke-width:0.5;" width="4" x="694.7788" y="124"/><rect fill="#FFB6C1" height="2" style="stroke:#181818;stroke-width:0.5;" width="4" x="694.7788" y="128"/><text fill="#000000" font-family="sans-serif" font-size="14" lengthAdjust="spacing" textLength="75.4688" x="616.31" y="152.1074">Blue Crystal</text></g><!--entity C--><g class="entity" data-entity="C" data-source-line="9" data-uid="ent0005" id="entity_C"><rect fill="#FFB6C1" height="48.6211" rx="2.5" ry="2.5" style="stroke:#181818;stroke-width:0.5;" width="83.5586" x="751.81" y="117"/><rect fill="#FFB6C1" height="10" style="stroke:#181818;stroke-width:0.5;" width="15" x="815.3686" y="122"/><rect fill="#FFB6C1" height="2" style="stroke:#181818;stroke-width:0.5;" width="4" x="813.3686" y="124"/><rect fill="#FFB6C1" height="2" style="stroke:#181818;stroke-width:0.5;" width="4" x="813.3686" y="128"/><text fill="#000000" font-family="sans-serif" font-size="14" lengthAdjust="spacing" textLength="43.5586" x="766.81" y="152.1074">Crystal</text></g><!--entity W--><g class="entity" data-entity="W" data-source-line="10" data-uid="ent0006" id="entity_W"><rect fill="#FFB6C1" height="48.6211" rx="2.5" ry="2.5" style="stroke:#181818;stroke-width:0.5;" width="77.3379" x="457.31" y="7"/><rect fill="#FFB6C1" height="10" style="stroke:#181818;stroke-width:0.5;" width="15" x="514.6479" y="12"/><rect fill="#FFB6C1" height="2" style="stroke:#181818;stroke-width:0.5;" width="4" x="512.6479" y="14"/><rect fill="#FFB6C1" height="2" style="stroke:#181818;stroke-width:0.5;" width="4" x="512.6479" y="18"/><text fill="#000000" font-family="sans-serif" font-size="14" lengthAdjust="spacing" textLength="37.3379" x="472.31" y="42.1074">Water</text></g><!--entity FE--><g class="entity" data-entity="FE" data-source-line="12" data-uid="ent0007" id="entity_FE"><rect fill="#90EE90" height="48.6211" rx="2.5" ry="2.5" style="stroke:#181818;stroke-width:0.5;" width="91.3516" x="502.31" y="398"/><rect fill="#90EE90" height="10" style="stroke:#181818;stroke-width:0.5;" width="15" x="573.6616" y="403"/><rect fill="#90EE90" height="2" style="stroke:#181818;stroke-width:0.5;" width="4" x="571.6616" y="405"/><rect fill="#90EE90" height="2" style="stroke:#181818;stroke-width:0.5;" width="4" x="571.6616" y="409"/><text fill="#000000" font-family="sans-serif" font-size="14" lengthAdjust="spacing" textLength="51.3516" x="517.31" y="433.1074">Iron Ore</text></g><!--entity CU--><g class="entity" data-entity="CU" data-source-line="13" data-uid="ent0008" id="entity_CU"><rect fill="#90EE90" height="48.6211" rx="2.5" ry="2.5" style="stroke:#181818;stroke-width:0.5;" width="113.1445" x="54.31" y="398"/><rect fill="#90EE90" height="10" style="stroke:#181818;stroke-width:0.5;" width="15" x="147.4545" y="403"/><rect fill="#90EE90" height="2" style="stroke:#181818;stroke-width:0.5;" width="4" x="145.4545" y="405"/><rect fill="#90EE90" height="2" style="stroke:#181818;stroke-width:0.5;" width="4" x="145.4545" y="409"/><text fill="#000000" font-family="sans-serif" font-size="14" lengthAdjust="spacing" textLength="73.1445" x="69.31" y="433.1074">Copper Ore</text></g><!--entity S--><g class="entity" data-entity="S" data-source-line="14" data-uid="ent0009" id="entity_S"><rect fill="#90EE90" height="48.6211" rx="2.5" ry="2.5" style="stroke:#181818;stroke-width:0.5;" width="76.5859" x="296.31" y="398"/><rect fill="#90EE90" height="10" style="stroke:#181818;stroke-width:0.5;" width="15" x="352.8959" y="403"/><rect fill="#90EE90" height="2" style="stroke:#181818;stroke-width:0.5;" width="4" x="350.8959" y="405"/><rect fill="#90EE90" height="2" style="stroke:#181818;stroke-width:0.5;" width="4" x="350.8959" y="409"/><text fill="#000000" font-family="sans-serif" font-size="14" lengthAdjust="spacing" textLength="36.5859" x="311.31" y="433.1074">Stone</text></g><!--entity Ca--><g class="entity" data-entity="Ca" data-source-line="15" data-uid="ent0010" id="entity_Ca"><rect fill="#90EE90" height="48.6211" rx="2.5" ry="2.5" style="stroke:#181818;stroke-width:0.5;" width="68.793" x="722.31" y="398"/><rect fill="#90EE90" height="10" style="stroke:#181818;stroke-width:0.5;" width="15" x="771.103" y="403"/><rect fill="#90EE90" height="2" style="stroke:#181818;stroke-width:0.5;" width="4" x="769.103" y="405"/><rect fill="#90EE90" height="2" style="stroke:#181818;stroke-width:0.5;" width="4" x="769.103" y="409"/><text fill="#000000" font-family="sans-serif" font-size="14" lengthAdjust="spacing" textLength="28.793" x="737.31" y="433.1074">Coal</text></g><!--entity PA--><g class="entity" data-entity="PA" data-source-line="16" data-uid="ent0011" id="entity_PA"><rect fill="#90EE90" height="48.6211" rx="2.5" ry="2.5" style="stroke:#181818;stroke-width:0.5;" width="86.6826" x="510.31" y="508"/><rect fill="#90EE90" height="10" style="stroke:#181818;stroke-width:0.5;" width="15" x="576.9926" y="513"/><rect fill="#90EE90" height="2" style="stroke:#181818;stroke-width:0.5;" width="4" x="574.9926" y="515"/><rect fill="#90EE90" height="2" style="stroke:#181818;stroke-width:0.5;" width="4" x="574.9926" y="519"/><text fill="#000000" font-family="sans-serif" font-size="14" lengthAdjust="spacing" textLength="46.6826" x="525.31" y="543.1074">Plasma</text></g><!--link RC to NR--><g class="link" data-entity-1="RC" data-entity-2="NR" data-source-line="27" data-uid="lnk17" id="link_RC_NR"><path d="M181.93,166.11 C205.57,193.85 240.6879,235.0436 264.4679,262.9436" fill="none" id="RC-to-NR" style="stroke:#181818;stroke-width:1;"/><polygon fill="#181818" points="268.36,267.51,265.5662,258.0657,265.1166,263.7047,259.4777,263.2551,268.36,267.51" style="stroke:#181818;stroke-width:1;"/><text fill="#000000" font-family="sans-serif" font-size="13" lengthAdjust="spacing" textLength="7.23" x="222.81" y="211.0283">1</text></g><!--link GC to NG--><g class="link" data-entity-1="GC" data-entity-2="NG" data-source-line="28" data-uid="lnk18" id="link_GC_NG"><path d="M334.24,166.11 C354.72,193.85 384.9361,234.7831 405.5361,262.6831" fill="none" id="GC-to-NG" style="stroke:#181818;stroke-width:1;"/><polygon fill="#181818" points="409.1,267.51,406.972,257.8938,406.1301,263.4876,400.5362,262.6457,409.1,267.51" style="stroke:#181818;stroke-width:1;"/><text fill="#000000" font-family="sans-serif" font-size="13" lengthAdjust="spacing" textLength="7.23" x="369.81" y="211.0283">1</text></g><!--link BC to NB--><g class="link" data-entity-1="BC" data-entity-2="NB" data-source-line="29" data-uid="lnk19" id="link_BC_NB"><path d="M643.92,166.11 C626.42,193.85 600.7512,234.5353 583.1512,262.4353" fill="none" id="BC-to-NB" style="stroke:#181818;stroke-width:1;"/><polygon fill="#181818" points="579.95,267.51,588.1349,262.0322,582.6177,263.2811,581.3687,257.7639,579.95,267.51" style="stroke:#181818;stroke-width:1;"/><text fill="#000000" font-family="sans-serif" font-size="13" lengthAdjust="spacing" textLength="7.23" x="623.81" y="211.0283">1</text></g><!--link C to NC--><g class="link" data-entity-1="C" data-entity-2="NC" data-source-line="30" data-uid="lnk20" id="link_C_NC"><path d="M779.39,166.11 C762.45,193.85 737.6274,234.4895 720.5874,262.3895" fill="none" id="C-to-NC" style="stroke:#181818;stroke-width:1;"/><polygon fill="#181818" points="717.46,267.51,725.5647,261.9141,720.0661,263.2429,718.7374,257.7443,717.46,267.51" style="stroke:#181818;stroke-width:1;"/><text fill="#000000" font-family="sans-serif" font-size="13" lengthAdjust="spacing" textLength="7.23" x="759.81" y="211.0283">1</text></g><!--link NR to CU--><g class="link" data-entity-1="NR" data-entity-2="CU" data-source-line="32" data-uid="lnk21" id="link_NR_CU"><path d="M250.62,317.06 C235.52,326.65 218.14,338.05 202.81,349 C180.97,364.6 161.8482,379.6083 143.9382,394.1483" fill="none" id="NR-to-CU" style="stroke:#181818;stroke-width:1;"/><polygon fill="#181818" points="139.28,397.93,148.7884,395.3629,143.1618,394.7786,143.7462,389.152,139.28,397.93" style="stroke:#181818;stroke-width:1;"/><text fill="#000000" font-family="sans-serif" font-size="13" lengthAdjust="spacing" textLength="7.23" x="203.81" y="364.0283">1</text></g><!--link NG to S--><g class="link" data-entity-1="NG" data-entity-2="S" data-source-line="33" data-uid="lnk22" id="link_NG_S"><path d="M409.72,317.28 C393.2,340.27 371.8011,370.0274 355.3111,392.9774" fill="none" id="NG-to-S" style="stroke:#181818;stroke-width:1;"/><polygon fill="#181818" points="351.81,397.85,360.31,392.8751,354.7276,393.7895,353.8132,388.207,351.81,397.85" style="stroke:#181818;stroke-width:1;"/><text fill="#000000" font-family="sans-serif" font-size="13" lengthAdjust="spacing" textLength="7.23" x="387.81" y="364.0283">1</text></g><!--link NB to FE--><g class="link" data-entity-1="NB" data-entity-2="FE" data-source-line="34" data-uid="lnk23" id="link_NB_FE"><path d="M561.65,317.28 C558.6,340.27 554.7904,368.9523 551.7404,391.9023" fill="none" id="NB-to-FE" style="stroke:#181818;stroke-width:1;"/><polygon fill="#181818" points="550.95,397.85,556.1008,389.4554,551.6087,392.8936,548.1705,388.4015,550.95,397.85" style="stroke:#181818;stroke-width:1;"/><text fill="#000000" font-family="sans-serif" font-size="13" lengthAdjust="spacing" textLength="7.23" x="558.81" y="364.0283">1</text></g><!--link NC to Ca--><g class="link" data-entity-1="NC" data-entity-2="Ca" data-source-line="35" data-uid="lnk24" id="link_NC_Ca"><path d="M712.84,317.28 C722.54,340.27 734.8182,369.3716 744.4982,392.3216" fill="none" id="NC-to-Ca" style="stroke:#181818;stroke-width:1;"/><polygon fill="#181818" points="746.83,397.85,747.0179,388.0029,744.8868,393.243,739.6467,391.112,746.83,397.85" style="stroke:#181818;stroke-width:1;"/><text fill="#000000" font-family="sans-serif" font-size="13" lengthAdjust="spacing" textLength="7.23" x="733.81" y="364.0283">3</text></g><!--link NR to PA--><g class="link" data-entity-1="NR" data-entity-2="PA" data-source-line="37" data-uid="lnk25" id="link_NR_PA"><path d="M273.17,317.06 C253.78,349.53 226.64,408.4 255.81,447 C286.53,487.65 429.1253,513.5372 504.2153,524.7072" fill="none" id="NR-to-PA" style="stroke:#181818;stroke-width:1;stroke-dasharray:7,7;"/><polygon fill="#181818" points="510.15,525.59,501.8365,520.3093,505.2044,524.8543,500.6594,528.2222,510.15,525.59" style="stroke:#181818;stroke-width:1;"/><text fill="#000000" font-family="sans-serif" font-size="13" lengthAdjust="spacing" textLength="21.6899" x="256.81" y="428.0283">100</text></g><!--link NG to PA--><g class="link" data-entity-1="NG" data-entity-2="PA" data-source-line="38" data-uid="lnk26" id="link_NG_PA"><path d="M427.87,317.18 C430.21,348.77 437.72,405.52 461.81,447 C475.97,471.38 494.7152,489.1305 514.4252,504.3005" fill="none" id="NG-to-PA" style="stroke:#181818;stroke-width:1;stroke-dasharray:7,7;"/><polygon fill="#181818" points="519.18,507.96,514.4876,499.3008,515.2177,504.9104,509.6082,505.6405,519.18,507.96" style="stroke:#181818;stroke-width:1;"/><text fill="#000000" font-family="sans-serif" font-size="13" lengthAdjust="spacing" textLength="21.6899" x="462.81" y="428.0283">100</text></g><!--link NB to PA--><g class="link" data-entity-1="NB" data-entity-2="PA" data-source-line="39" data-uid="lnk27" id="link_NB_PA"><path d="M580.78,317.19 C599.08,347.37 624.84,401.11 610.81,447 C603.88,469.68 592.3896,487.1264 579.3796,503.0264" fill="none" id="NB-to-PA" style="stroke:#181818;stroke-width:1;stroke-dasharray:7,7;"/><polygon fill="#181818" points="575.58,507.67,584.3751,503.2376,578.7463,503.8003,578.1836,498.1715,575.58,507.67" style="stroke:#181818;stroke-width:1;"/><text fill="#000000" font-family="sans-serif" font-size="13" lengthAdjust="spacing" textLength="21.6899" x="615.81" y="428.0283">100</text></g><!--link NC to PA--><g class="link" data-entity-1="NC" data-entity-2="PA" data-source-line="40" data-uid="lnk28" id="link_NC_PA"><path d="M739.36,317.12 C781.67,347.45 841.61,401.58 808.81,447 C760.35,514.11 662.4938,528.5073 603.3638,531.1973" fill="none" id="NC-to-PA" style="stroke:#181818;stroke-width:1;stroke-dasharray:7,7;"/><polygon fill="#181818" points="597.37,531.47,606.5425,535.0569,602.3648,531.2428,606.1789,527.0651,597.37,531.47" style="stroke:#181818;stroke-width:1;"/><text fill="#000000" font-family="sans-serif" font-size="13" lengthAdjust="spacing" textLength="21.6899" x="818.81" y="428.0283">100</text></g><!--link W to NR--><g class="link" data-entity-1="W" data-entity-2="NR" data-source-line="42" data-uid="lnk29" id="link_W_NR"><path d="M457.22,34.04 C360.98,38.77 114.48,56.65 64.81,117 C6,188.46 148.2275,247.0942 231.2975,274.2742" fill="none" id="W-to-NR" style="stroke:#181818;stroke-width:1;stroke-dasharray:7,7;"/><polygon fill="#181818" points="237,276.14,229.6901,269.5396,232.2479,274.5851,227.2023,277.1429,237,276.14" style="stroke:#181818;stroke-width:1;"/><text fill="#000000" font-family="sans-serif" font-size="13" lengthAdjust="spacing" textLength="21.6899" x="65.81" y="147.0283">100</text></g><!--link W to NG--><g class="link" data-entity-1="W" data-entity-2="NG" data-source-line="43" data-uid="lnk30" id="link_W_NG"><path d="M489.44,56.4 C476.3,105.74 447.8341,212.5621 434.7041,261.8621" fill="none" id="W-to-NG" style="stroke:#181818;stroke-width:1;stroke-dasharray:7,7;"/><polygon fill="#181818" points="433.16,267.66,439.3415,259.9926,434.4468,262.8284,431.611,257.9337,433.16,267.66" style="stroke:#181818;stroke-width:1;"/><text fill="#000000" font-family="sans-serif" font-size="13" lengthAdjust="spacing" textLength="21.6899" x="474.81" y="147.0283">100</text></g><!--link W to NB--><g class="link" data-entity-1="W" data-entity-2="NB" data-source-line="44" data-uid="lnk31" id="link_W_NB"><path d="M502.18,56.4 C515.32,105.74 543.7859,212.5621 556.9159,261.8621" fill="none" id="W-to-NB" style="stroke:#181818;stroke-width:1;stroke-dasharray:7,7;"/><polygon fill="#181818" points="558.46,267.66,560.009,257.9337,557.1732,262.8284,552.2785,259.9926,558.46,267.66" style="stroke:#181818;stroke-width:1;"/><text fill="#000000" font-family="sans-serif" font-size="13" lengthAdjust="spacing" textLength="21.6899" x="532.81" y="147.0283">100</text></g><!--link W to NC--><g class="link" data-entity-1="W" data-entity-2="NC" data-source-line="45" data-uid="lnk32" id="link_W_NC"><path d="M534.33,35.7 C618.46,43.58 814.23,66.99 853.81,117 C897.88,172.68 813.7787,231.985 754.6387,265.005" fill="none" id="W-to-NC" style="stroke:#181818;stroke-width:1;stroke-dasharray:7,7;"/><polygon fill="#181818" points="749.4,267.93,759.2081,267.035,753.7656,265.4925,755.3081,260.05,749.4,267.93" style="stroke:#181818;stroke-width:1;"/><text fill="#000000" font-family="sans-serif" font-size="13" lengthAdjust="spacing" textLength="21.6899" x="865.81" y="147.0283">100</text></g><!--SRC=[VP6nQiCm48PtFOMWSqnAjmo1IgIYInfiYWVJGNMkjeXY6rcXfANltfDa5qk5UDBtVtVISMxL4UWPRDiVHz8w-52WvtEjJAs1a2g78-NcEbgftwWSQSxfdLPDQmVLdKWb340N5OYuWEaBH9x5VgbYKqeBnkVbCYVLi-ax-cB0kwVT91it2TxN3mEOFyrVOrtOlWkcIFlc8MGi3bgEP-dLuJ5IP93rIJP0TnsOHdtXiq5VGUl-atwJQWyNQwH6vo_OvrF5EsxblnKtBRjf-TB-4FpmJwrMM_VcXjuJCP7mn2PYdYRW7WWsECJDESG6HqK0vW5txYdquS8szC7tPLcsTLj2krwxrYHWQS2JW9GX24DZCBD8c2NC0_y2]--></g></svg>