<svg xmlns="http://www.w3.org/2000/svg" xmlns:xlink="http://www.w3.org/1999/xlink" contentStyleType="text/css" data-diagram-type="DESCRIPTION" height="317px" preserveAspectRatio="none" style="width:1181px;height:317px;background:#FFFFFF;" version="1.1" viewBox="0 0 1181 317" width="1181px" zoomAndPan="magnify"><defs/><g><!--entity RC--><g class="entity" data-entity="RC" data-source-line="6" data-uid="ent0002" id="entity_RC"><rect fill="#FFB6C1" height="48.6211" rx="2.5" ry="2.5" style="stroke:#181818;stroke-width:0.5;" width="113.1309" x="7" y="7"/><rect fill="#FFB6C1" height="10" style="stroke:#181818;stroke-width:0.5;" width="15" x="100.1309" y="12"/><rect fill="#FFB6C1" height="2" style="stroke:#181818;stroke-width:0.5;" width="4" x="98.1309" y="14"/><rect fill="#FFB6C1" height="2" style="stroke:#181818;stroke-width:0.5;" width="4" x="98.1309" y="18"/><text fill="#000000" font-family="sans-serif" font-size="14" lengthAdjust="spacing" textLength="73.1309" x="22" y="42.1074">Red Crystal</text></g><!--entity GC--><g class="entity" data-entity="GC" data-source-line="7" data-uid="ent0003" id="entity_GC"><rect fill="#FFB6C1" height="48.6211" rx="2.5" ry="2.5" style="stroke:#181818;stroke-width:0.5;" width="126.3584" x="377.5" y="7"/><rect fill="#FFB6C1" height="10" style="stroke:#181818;stroke-width:0.5;" width="15" x="483.8584" y="12"/><rect fill="#FFB6C1" height="2" style="stroke:#181818;stroke-width:0.5;" width="4" x="481.8584" y="14"/><rect fill="#FFB6C1" height="2" style="stroke:#181818;stroke-width:0.5;" width="4" x="481.8584" y="18"/><text fill="#000000" font-family="sans-serif" font-size="14" lengthAdjust="spacing" textLength="86.3584" x="392.5" y="42.1074">Green Crystal</text></g><!--entity BC--><g class="entity" data-entity="BC" data-source-line="8" data-uid="ent0004" id="entity_BC"><rect fill="#FFB6C1" height="48.6211" rx="2.5" ry="2.5" style="stroke:#181818;stroke-width:0.5;" width="115.4688" x="653" y="7"/><rect fill="#FFB6C1" height="10" style="stroke:#181818;stroke-width:0.5;" width="15" x="748.4688" y="12"/><rect fill="#FFB6C1" height="2" style="stroke:#181818;stroke-width:0.5;" width="4" x="746.4688" y="14"/><rect fill="#FFB6C1" height="2" style="stroke:#181818;stroke-width:0.5;" width="4" x="746.4688" y="18"/><text fill="#000000" font-family="sans-serif" font-size="14" lengthAdjust="spacing" textLength="75.4688" x="668" y="42.1074">Blue Crystal</text></g><!--entity C--><g class="entity" data-entity="C" data-source-line="9" data-uid="ent0005" id="entity_C"><rect fill="#FFB6C1" height="48.6211" rx="2.5" ry="2.5" style="stroke:#181818;stroke-width:0.5;" width="83.5586" x="978.5" y="7"/><rect fill="#FFB6C1" height="10" style="stroke:#181818;stroke-width:0.5;" width="15" x="1042.0586" y="12"/><rect fill="#FFB6C1" height="2" style="stroke:#181818;stroke-width:0.5;" width="4" x="1040.0586" y="14"/><rect fill="#FFB6C1" height="2" style="stroke:#181818;stroke-width:0.5;" width="4" x="1040.0586" y="18"/><text fill="#000000" font-family="sans-serif" font-size="14" lengthAdjust="spacing" textLength="43.5586" x="993.5" y="42.1074">Crystal</text></g><!--entity W1--><g class="entity" data-entity="W1" data-source-line="10" data-uid="ent0006" id="entity_W1"><rect fill="#FFB6C1" height="48.6211" rx="2.5" ry="2.5" style="stroke:#181818;stroke-width:0.5;" width="77.3379" x="155" y="7"/><rect fill="#FFB6C1" height="10" style="stroke:#181818;stroke-width:0.5;" width="15" x="212.3379" y="12"/><rect fill="#FFB6C1" height="2" style="stroke:#181818;stroke-width:0.5;" width="4" x="210.3379" y="14"/><rect fill="#FFB6C1" height="2" style="stroke:#181818;stroke-width:0.5;" width="4" x="210.3379" y="18"/><text fill="#000000" font-family="sans-serif" font-size="14" lengthAdjust="spacing" textLength="37.3379" x="170" y="42.1074">Water</text></g><!--entity W2--><g class="entity" data-entity="W2" data-source-line="11" data-uid="ent0007" id="entity_W2"><rect fill="#FFB6C1" height="48.6211" rx="2.5" ry="2.5" style="stroke:#181818;stroke-width:0.5;" width="77.3379" x="539" y="7"/><rect fill="#FFB6C1" height="10" style="stroke:#181818;stroke-width:0.5;" width="15" x="596.3379" y="12"/><rect fill="#FFB6C1" height="2" style="stroke:#181818;stroke-width:0.5;" width="4" x="594.3379" y="14"/><rect fill="#FFB6C1" height="2" style="stroke:#181818;stroke-width:0.5;" width="4" x="594.3379" y="18"/><text fill="#000000" font-family="sans-serif" font-size="14" lengthAdjust="spacing" textLength="37.3379" x="554" y="42.1074">Water</text></g><!--entity W3--><g class="entity" data-entity="W3" data-source-line="12" data-uid="ent0008" id="entity_W3"><rect fill="#FFB6C1" height="48.6211" rx="2.5" ry="2.5" style="stroke:#181818;stroke-width:0.5;" width="77.3379" x="803" y="7"/><rect fill="#FFB6C1" height="10" style="stroke:#181818;stroke-width:0.5;" width="15" x="860.3379" y="12"/><rect fill="#FFB6C1" height="2" style="stroke:#181818;stroke-width:0.5;" width="4" x="858.3379" y="14"/><rect fill="#FFB6C1" height="2" style="stroke:#181818;stroke-width:0.5;" width="4" x="858.3379" y="18"/><text fill="#000000" font-family="sans-serif" font-size="14" lengthAdjust="spacing" textLength="37.3379" x="818" y="42.1074">Water</text></g><!--entity W4--><g class="entity" data-entity="W4" data-source-line="13" data-uid="ent0009" id="entity_W4"><rect fill="#FFB6C1" height="48.6211" rx="2.5" ry="2.5" style="stroke:#181818;stroke-width:0.5;" width="77.3379" x="1098" y="7"/><rect fill="#FFB6C1" height="10" style="stroke:#181818;stroke-width:0.5;" width="15" x="1155.3379" y="12"/><rect fill="#FFB6C1" height="2" style="stroke:#181818;stroke-width:0.5;" width="4" x="1153.3379" y="14"/><rect fill="#FFB6C1" height="2" style="stroke:#181818;stroke-width:0.5;" width="4" x="1153.3379" y="18"/><text fill="#000000" font-family="sans-serif" font-size="14" lengthAdjust="spacing" textLength="37.3379" x="1113" y="42.1074">Water</text></g><!--entity FE--><g class="entity" data-entity="FE" data-source-line="15" data-uid="ent0010" id="entity_FE"><rect fill="#90EE90" height="48.6211" rx="2.5" ry="2.5" style="stroke:#181818;stroke-width:0.5;" width="91.3516" x="655" y="263"/><rect fill="#90EE90" height="10" style="stroke:#181818;stroke-width:0.5;" width="15" x="726.3516" y="268"/><rect fill="#90EE90" height="2" style="stroke:#181818;stroke-width:0.5;" width="4" x="724.3516" y="270"/><rect fill="#90EE90" height="2" style="stroke:#181818;stroke-width:0.5;" width="4" x="724.3516" y="274"/><text fill="#000000" font-family="sans-serif" font-size="14" lengthAdjust="spacing" textLength="51.3516" x="670" y="298.1074">Iron Ore</text></g><!--entity CU--><g class="entity" data-entity="CU" data-source-line="16" data-uid="ent0011" id="entity_CU"><rect fill="#90EE90" height="48.6211" rx="2.5" ry="2.5" style="stroke:#181818;stroke-width:0.5;" width="113.1445" x="40" y="263"/><rect fill="#90EE90" height="10" style="stroke:#181818;stroke-width:0.5;" width="15" x="133.1445" y="268"/><rect fill="#90EE90" height="2" style="stroke:#181818;stroke-width:0.5;" width="4" x="131.1445" y="270"/><rect fill="#90EE90" height="2" style="stroke:#181818;stroke-width:0.5;" width="4" x="131.1445" y="274"/><text fill="#000000" font-family="sans-serif" font-size="14" lengthAdjust="spacing" textLength="73.1445" x="55" y="298.1074">Copper Ore</text></g><!--entity S--><g class="entity" data-entity="S" data-source-line="17" data-uid="ent0012" id="entity_S"><rect fill="#90EE90" height="48.6211" rx="2.5" ry="2.5" style="stroke:#181818;stroke-width:0.5;" width="76.5859" x="332" y="263"/><rect fill="#90EE90" height="10" style="stroke:#181818;stroke-width:0.5;" width="15" x="388.5859" y="268"/><rect fill="#90EE90" height="2" style="stroke:#181818;stroke-width:0.5;" width="4" x="386.5859" y="270"/><rect fill="#90EE90" height="2" style="stroke:#181818;stroke-width:0.5;" width="4" x="386.5859" y="274"/><text fill="#000000" font-family="sans-serif" font-size="14" lengthAdjust="spacing" textLength="36.5859" x="347" y="298.1074">Stone</text></g><!--entity Ca--><g class="entity" data-entity="Ca" data-source-line="18" data-uid="ent0013" id="entity_Ca"><rect fill="#90EE90" height="48.6211" rx="2.5" ry="2.5" style="stroke:#181818;stroke-width:0.5;" width="68.793" x="925" y="263"/><rect fill="#90EE90" height="10" style="stroke:#181818;stroke-width:0.5;" width="15" x="973.793" y="268"/><rect fill="#90EE90" height="2" style="stroke:#181818;stroke-width:0.5;" width="4" x="971.793" y="270"/><rect fill="#90EE90" height="2" style="stroke:#181818;stroke-width:0.5;" width="4" x="971.793" y="274"/><text fill="#000000" font-family="sans-serif" font-size="14" lengthAdjust="spacing" textLength="28.793" x="940" y="298.1074">Coal</text></g><!--entity PA1--><g class="entity" data-entity="PA1" data-source-line="19" data-uid="ent0014" id="entity_PA1"><rect fill="#90EE90" height="48.6211" rx="2.5" ry="2.5" style="stroke:#181818;stroke-width:0.5;" width="107.71" x="188.5" y="263"/><rect fill="#90EE90" height="10" style="stroke:#181818;stroke-width:0.5;" width="15" x="276.21" y="268"/><rect fill="#90EE90" height="2" style="stroke:#181818;stroke-width:0.5;" width="4" x="274.21" y="270"/><rect fill="#90EE90" height="2" style="stroke:#181818;stroke-width:0.5;" width="4" x="274.21" y="274"/><text fill="#000000" font-family="sans-serif" font-size="14" lengthAdjust="spacing" textLength="67.71" x="203.5" y="298.1074">Steam 165</text></g><!--entity PA2--><g class="entity" data-entity="PA2" data-source-line="20" data-uid="ent0015" id="entity_PA2"><rect fill="#90EE90" height="48.6211" rx="2.5" ry="2.5" style="stroke:#181818;stroke-width:0.5;" width="107.71" x="444.5" y="263"/><rect fill="#90EE90" height="10" style="stroke:#181818;stroke-width:0.5;" width="15" x="532.21" y="268"/><rect fill="#90EE90" height="2" style="stroke:#181818;stroke-width:0.5;" width="4" x="530.21" y="270"/><rect fill="#90EE90" height="2" style="stroke:#181818;stroke-width:0.5;" width="4" x="530.21" y="274"/><text fill="#000000" font-family="sans-serif" font-size="14" lengthAdjust="spacing" textLength="67.71" x="459.5" y="298.1074">Steam 165</text></g><!--entity PA3--><g class="entity" data-entity="PA3" data-source-line="21" data-uid="ent0016" id="entity_PA3"><rect fill="#90EE90" height="48.6211" rx="2.5" ry="2.5" style="stroke:#181818;stroke-width:0.5;" width="107.71" x="781.5" y="263"/><rect fill="#90EE90" height="10" style="stroke:#181818;stroke-width:0.5;" width="15" x="869.21" y="268"/><rect fill="#90EE90" height="2" style="stroke:#181818;stroke-width:0.5;" width="4" x="867.21" y="270"/><rect fill="#90EE90" height="2" style="stroke:#181818;stroke-width:0.5;" width="4" x="867.21" y="274"/><text fill="#000000" font-family="sans-serif" font-size="14" lengthAdjust="spacing" textLength="67.71" x="796.5" y="298.1074">Steam 165</text></g><!--entity PA4--><g class="entity" data-entity="PA4" data-source-line="22" data-uid="ent0017" id="entity_PA4"><rect fill="#90EE90" height="48.6211" rx="2.5" ry="2.5" style="stroke:#181818;stroke-width:0.5;" width="107.71" x="1029.5" y="263"/><rect fill="#90EE90" height="10" style="stroke:#181818;stroke-width:0.5;" width="15" x="1117.21" y="268"/><rect fill="#90EE90" height="2" style="stroke:#181818;stroke-width:0.5;" width="4" x="1115.21" y="270"/><rect fill="#90EE90" height="2" style="stroke:#181818;stroke-width:0.5;" width="4" x="1115.21" y="274"/><text fill="#000000" font-family="sans-serif" font-size="14" lengthAdjust="spacing" textLength="67.71" x="1044.5" y="298.1074">Steam 165</text></g><!--entity NR--><g class="entity" data-entity="NR" data-source-line="24" data-uid="ent0018" id="entity_NR"><rect fill="#ADD8E6" height="48.6211" rx="2.5" ry="2.5" style="stroke:#181818;stroke-width:0.5;" width="103.0273" x="77" y="135"/><rect fill="#ADD8E6" height="10" style="stroke:#181818;stroke-width:0.5;" width="15" x="160.0273" y="140"/><rect fill="#ADD8E6" height="2" style="stroke:#181818;stroke-width:0.5;" width="4" x="158.0273" y="142"/><rect fill="#ADD8E6" height="2" style="stroke:#181818;stroke-width:0.5;" width="4" x="158.0273" y="146"/><text fill="#000000" font-family="sans-serif" font-size="14" lengthAdjust="spacing" textLength="63.0273" x="92" y="170.1074">Neutralize</text></g><!--entity NG--><g class="entity" data-entity="NG" data-source-line="25" data-uid="ent0019" id="entity_NG"><rect fill="#ADD8E6" height="48.6211" rx="2.5" ry="2.5" style="stroke:#181818;stroke-width:0.5;" width="103.0273" x="413" y="135"/><rect fill="#ADD8E6" height="10" style="stroke:#181818;stroke-width:0.5;" width="15" x="496.0273" y="140"/><rect fill="#ADD8E6" height="2" style="stroke:#181818;stroke-width:0.5;" width="4" x="494.0273" y="142"/><rect fill="#ADD8E6" height="2" style="stroke:#181818;stroke-width:0.5;" width="4" x="494.0273" y="146"/><text fill="#000000" font-family="sans-serif" font-size="14" lengthAdjust="spacing" textLength="63.0273" x="428" y="170.1074">Neutralize</text></g><!--entity NB--><g class="entity" data-entity="NB" data-source-line="26" data-uid="ent0020" id="entity_NB"><rect fill="#ADD8E6" height="48.6211" rx="2.5" ry="2.5" style="stroke:#181818;stroke-width:0.5;" width="103.0273" x="780" y="135"/><rect fill="#ADD8E6" height="10" style="stroke:#181818;stroke-width:0.5;" width="15" x="863.0273" y="140"/><rect fill="#ADD8E6" height="2" style="stroke:#181818;stroke-width:0.5;" width="4" x="861.0273" y="142"/><rect fill="#ADD8E6" height="2" style="stroke:#181818;stroke-width:0.5;" width="4" x="861.0273" y="146"/><text fill="#000000" font-family="sans-serif" font-size="14" lengthAdjust="spacing" textLength="63.0273" x="795" y="170.1074">Neutralize</text></g><!--entity NC--><g class="entity" data-entity="NC" data-source-line="27" data-uid="ent0021" id="entity_NC"><rect fill="#ADD8E6" height="48.6211" rx="2.5" ry="2.5" style="stroke:#181818;stroke-width:0.5;" width="103.0273" x="1027" y="135"/><rect fill="#ADD8E6" height="10" style="stroke:#181818;stroke-width:0.5;" width="15" x="1110.0273" y="140"/><rect fill="#ADD8E6" height="2" style="stroke:#181818;stroke-width:0.5;" width="4" x="1108.0273" y="142"/><rect fill="#ADD8E6" height="2" style="stroke:#181818;stroke-width:0.5;" width="4" x="1108.0273" y="146"/><text fill="#000000" font-family="sans-serif" font-size="14" lengthAdjust="spacing" textLength="63.0273" x="1042" y="170.1074">Neutralize</text></g><!--link RC to NR--><g class="link" data-entity-1="RC" data-entity-2="NR" data-source-line="30" data-uid="lnk22" id="link_RC_NR"><path d="M75.73,56.2 C87.35,78.73 101.9796,107.0875 113.5796,129.5775" fill="none" id="RC-to-NR" style="stroke:#181818;stroke-width:1;"/><polygon fill="#181818" points="116.33,134.91,115.7594,125.0777,114.038,130.4663,108.6494,128.7449,116.33,134.91" style="stroke:#181818;stroke-width:1;"/><text fill="#000000" font-family="sans-serif" font-size="13" lengthAdjust="spacing" textLength="7.23" x="101.5" y="101.0283">1</text></g><!--link GC to NG--><g class="link" data-entity-1="GC" data-entity-2="NG" data-source-line="31" data-uid="lnk23" id="link_GC_NG"><path d="M445.01,56.2 C449.31,78.73 454.5958,106.5263 458.8858,129.0163" fill="none" id="GC-to-NG" style="stroke:#181818;stroke-width:1;"/><polygon fill="#181818" points="460.01,134.91,462.2528,125.3199,459.0731,129.9986,454.3945,126.8189,460.01,134.91" style="stroke:#181818;stroke-width:1;"/><text fill="#000000" font-family="sans-serif" font-size="13" lengthAdjust="spacing" textLength="7.23" x="455.5" y="101.0283">1</text></g><!--link BC to NB--><g class="link" data-entity-1="BC" data-entity-2="NB" data-source-line="32" data-uid="lnk24" id="link_BC_NB"><path d="M733.26,56.2 C754.89,78.73 783.0838,108.0926 804.6838,130.5826" fill="none" id="BC-to-NB" style="stroke:#181818;stroke-width:1;"/><polygon fill="#181818" points="808.84,134.91,805.4907,125.6481,805.3765,131.3038,799.7208,131.1897,808.84,134.91" style="stroke:#181818;stroke-width:1;"/><text fill="#000000" font-family="sans-serif" font-size="13" lengthAdjust="spacing" textLength="7.23" x="779.5" y="101.0283">1</text></g><!--link C to NC--><g class="link" data-entity-1="C" data-entity-2="NC" data-source-line="33" data-uid="lnk25" id="link_C_NC"><path d="M1031.41,56.2 C1041.78,78.73 1054.7816,106.9695 1065.1316,129.4595" fill="none" id="C-to-NC" style="stroke:#181818;stroke-width:1;"/><polygon fill="#181818" points="1067.64,134.91,1067.5111,125.062,1065.5497,130.3679,1060.2438,128.4065,1067.64,134.91" style="stroke:#181818;stroke-width:1;"/><text fill="#000000" font-family="sans-serif" font-size="13" lengthAdjust="spacing" textLength="7.23" x="1054.5" y="101.0283">1</text></g><!--link NR to CU--><g class="link" data-entity-1="NR" data-entity-2="CU" data-source-line="35" data-uid="lnk26" id="link_NR_CU"><path d="M122.48,184.2 C116.76,206.73 109.6765,234.6045 103.9665,257.0945" fill="none" id="NR-to-CU" style="stroke:#181818;stroke-width:1;"/><polygon fill="#181818" points="102.49,262.91,108.5817,255.1711,103.7204,258.0638,100.8278,253.2024,102.49,262.91" style="stroke:#181818;stroke-width:1;"/><text fill="#000000" font-family="sans-serif" font-size="13" lengthAdjust="spacing" textLength="7.23" x="115.5" y="229.0283">2</text></g><!--link NG to S--><g class="link" data-entity-1="NG" data-entity-2="S" data-source-line="36" data-uid="lnk27" id="link_NG_S"><path d="M446.82,184.2 C430.01,206.73 408.468,235.611 391.688,258.101" fill="none" id="NG-to-S" style="stroke:#181818;stroke-width:1;"/><polygon fill="#181818" points="388.1,262.91,396.688,258.0886,391.09,258.9025,390.276,253.3045,388.1,262.91" style="stroke:#181818;stroke-width:1;"/><text fill="#000000" font-family="sans-serif" font-size="13" lengthAdjust="spacing" textLength="7.23" x="424.5" y="229.0283">2</text></g><!--link NB to FE--><g class="link" data-entity-1="NB" data-entity-2="FE" data-source-line="37" data-uid="lnk28" id="link_NB_FE"><path d="M806.86,184.2 C783.44,206.73 752.7341,236.2605 729.3541,258.7505" fill="none" id="NB-to-FE" style="stroke:#181818;stroke-width:1;"/><polygon fill="#181818" points="725.03,262.91,734.2892,259.5535,728.6335,259.4437,728.7432,253.7879,725.03,262.91" style="stroke:#181818;stroke-width:1;"/><text fill="#000000" font-family="sans-serif" font-size="13" lengthAdjust="spacing" textLength="7.23" x="775.5" y="229.0283">2</text></g><!--link NC to Ca--><g class="link" data-entity-1="NC" data-entity-2="Ca" data-source-line="38" data-uid="lnk29" id="link_NC_Ca"><path d="M1056.12,184.2 C1034.84,206.73 1007.1397,236.0579 985.8997,258.5479" fill="none" id="NC-to-Ca" style="stroke:#181818;stroke-width:1;"/><polygon fill="#181818" points="981.78,262.91,990.8676,259.1133,985.2131,259.2749,985.0514,253.6203,981.78,262.91" style="stroke:#181818;stroke-width:1;"/><text fill="#000000" font-family="sans-serif" font-size="13" lengthAdjust="spacing" textLength="7.23" x="1027.5" y="229.0283">6</text></g><!--link NR to PA1--><g class="link" data-entity-1="NR" data-entity-2="PA1" data-source-line="40" data-uid="lnk30" id="link_NR_PA1"><path d="M149.94,184.2 C170.32,206.73 196.7743,235.971 217.1243,258.461" fill="none" id="NR-to-PA1" style="stroke:#181818;stroke-width:1;stroke-dasharray:7,7;"/><polygon fill="#181818" points="221.15,262.91,218.0775,253.5527,217.7953,259.2025,212.1455,258.9203,221.15,262.91" style="stroke:#181818;stroke-width:1;"/><text fill="#000000" font-family="sans-serif" font-size="13" lengthAdjust="spacing" textLength="14.46" x="193.5" y="229.0283">20</text></g><!--link NG to PA2--><g class="link" data-entity-1="NG" data-entity-2="PA2" data-source-line="41" data-uid="lnk31" id="link_NG_PA2"><path d="M470.9,184.2 C476.97,206.73 484.4966,234.6273 490.5666,257.1173" fill="none" id="NG-to-PA2" style="stroke:#181818;stroke-width:1;stroke-dasharray:7,7;"/><polygon fill="#181818" points="492.13,262.91,493.6467,253.1786,490.8271,258.0827,485.923,255.2632,492.13,262.91" style="stroke:#181818;stroke-width:1;"/><text fill="#000000" font-family="sans-serif" font-size="13" lengthAdjust="spacing" textLength="14.46" x="485.5" y="229.0283">20</text></g><!--link NB to PA3--><g class="link" data-entity-1="NB" data-entity-2="PA3" data-source-line="42" data-uid="lnk32" id="link_NB_PA3"><path d="M832.25,184.2 C832.97,206.73 833.8507,234.423 834.5607,256.913" fill="none" id="NB-to-PA3" style="stroke:#181818;stroke-width:1;stroke-dasharray:7,7;"/><polygon fill="#181818" points="834.75,262.91,838.464,253.7883,834.5922,257.9125,830.468,254.0407,834.75,262.91" style="stroke:#181818;stroke-width:1;"/><text fill="#000000" font-family="sans-serif" font-size="13" lengthAdjust="spacing" textLength="14.46" x="835.5" y="229.0283">20</text></g><!--link NC to PA4--><g class="link" data-entity-1="NC" data-entity-2="PA4" data-source-line="43" data-uid="lnk33" id="link_NC_PA4"><path d="M1079.44,184.2 C1080.33,206.73 1081.4327,234.4247 1082.3227,256.9147" fill="none" id="NC-to-PA4" style="stroke:#181818;stroke-width:1;stroke-dasharray:7,7;"/><polygon fill="#181818" points="1082.56,262.91,1086.201,253.7589,1082.3623,257.9139,1078.2072,254.0752,1082.56,262.91" style="stroke:#181818;stroke-width:1;"/><text fill="#000000" font-family="sans-serif" font-size="13" lengthAdjust="spacing" textLength="14.46" x="1082.5" y="229.0283">60</text></g><!--link W1 to NR--><g class="link" data-entity-1="W1" data-entity-2="NR" data-source-line="45" data-uid="lnk34" id="link_W1_NR"><path d="M181.27,56.2 C169.65,78.73 155.0204,107.0875 143.4204,129.5775" fill="none" id="W1-to-NR" style="stroke:#181818;stroke-width:1;stroke-dasharray:7,7;"/><polygon fill="#181818" points="140.67,134.91,148.3506,128.7449,142.962,130.4663,141.2406,125.0777,140.67,134.91" style="stroke:#181818;stroke-width:1;"/><text fill="#000000" font-family="sans-serif" font-size="13" lengthAdjust="spacing" textLength="7.23" x="166.5" y="101.0283">5</text></g><!--link W2 to NG--><g class="link" data-entity-1="W2" data-entity-2="NG" data-source-line="46" data-uid="lnk35" id="link_W2_NG"><path d="M556.25,56.2 C536.04,78.73 509.836,107.9532 489.666,130.4432" fill="none" id="W2-to-NG" style="stroke:#181818;stroke-width:1;stroke-dasharray:7,7;"/><polygon fill="#181818" points="485.66,134.91,494.6468,130.8805,488.9983,131.1877,488.6911,125.5392,485.66,134.91" style="stroke:#181818;stroke-width:1;"/><text fill="#000000" font-family="sans-serif" font-size="13" lengthAdjust="spacing" textLength="7.23" x="529.5" y="101.0283">5</text></g><!--link W3 to NB--><g class="link" data-entity-1="W3" data-entity-2="NB" data-source-line="47" data-uid="lnk36" id="link_W3_NB"><path d="M839.62,56.2 C837.83,78.73 835.636,106.4389 833.846,128.9289" fill="none" id="W3-to-NB" style="stroke:#181818;stroke-width:1;stroke-dasharray:7,7;"/><polygon fill="#181818" points="833.37,134.91,838.0715,126.2557,833.7667,129.9258,830.0967,125.621,833.37,134.91" style="stroke:#181818;stroke-width:1;"/><text fill="#000000" font-family="sans-serif" font-size="13" lengthAdjust="spacing" textLength="7.23" x="838.5" y="101.0283">5</text></g><!--link W4 to NC--><g class="link" data-entity-1="W4" data-entity-2="NC" data-source-line="48" data-uid="lnk37" id="link_W4_NC"><path d="M1125.59,56.2 C1115.22,78.73 1102.2184,106.9695 1091.8684,129.4595" fill="none" id="W4-to-NC" style="stroke:#181818;stroke-width:1;stroke-dasharray:7,7;"/><polygon fill="#181818" points="1089.36,134.91,1096.7562,128.4065,1091.4503,130.3679,1089.4889,125.062,1089.36,134.91" style="stroke:#181818;stroke-width:1;"/><text fill="#000000" font-family="sans-serif" font-size="13" lengthAdjust="spacing" textLength="14.46" x="1112.5" y="101.0283">15</text></g><!--SRC=[VP8zRuCm48Rt-nMMEYSANnaO8jMeHLtI2bHbG1r8k0Qh190XG_lhQv-T2gU2pOyVl_BvVBMea5rmhBjgW5h3fy3cjZu9UMeGeCYmOedy7iQo-M3bmBA4FJJYN8-zQB-WI2LYwnn8tGEykQBZkUkdoZM7SaH9-mTlJlXp8fWJuLH0yIAxbhrA9FdyPELPlqhLrlKzoZ-TlBiw7xlMcFm-TtjGUP_0yiAyRKJsxT5Rrlwo3fPrw6WezdWTPTc87rFpFhF-g7xelqqNBL-qoTG2g95PhNRwmfXva5fAYRWbJcGX8G0LqAZQ7ZCVL41JRe0Jg0yZCZdLxPXjARTUxwYzocvqqh1lcLiEB2UMGvtV0AXvqnjKS0Hgo8XIGu4XRYWqH1L7lm00]--></g></svg>