<svg xmlns="http://www.w3.org/2000/svg" xmlns:xlink="http://www.w3.org/1999/xlink" contentStyleType="text/css" data-diagram-type="DESCRIPTION" height="452px" preserveAspectRatio="none" style="width:801px;height:452px;background:#FFFFFF;" version="1.1" viewBox="0 0 801 452" width="801px" zoomAndPan="magnify"><defs/><g><!--cluster Energizer--><g class="cluster" data-entity="Energizer" data-source-line="17" data-uid="ent0011" id="cluster_Energizer"><path d="M176,121 L240.7998,121 A3.75,3.75 0 0 1 243.2998,123.5 L250.2998,145.6211 L721,145.6211 A2.5,2.5 0 0 1 723.5,148.1211 L723.5,220.5 A2.5,2.5 0 0 1 721,223 L176,223 A2.5,2.5 0 0 1 173.5,220.5 L173.5,123.5 A2.5,2.5 0 0 1 176,121" fill="#FFFFE0" style="stroke:#000000;stroke-width:1.5;"/><line style="stroke:#000000;stroke-width:1.5;" x1="173.5" x2="250.2998" y1="145.6211" y2="145.6211"/><text fill="#000000" font-family="sans-serif" font-size="14" font-weight="bold" lengthAdjust="spacing" textLength="63.7998" x="177.5" y="138.1074">Energizer</text></g><!--entity NR--><g class="entity" data-entity="NR" data-source-line="18" data-uid="ent0012" id="entity_NR"><rect fill="#ADD8E6" height="48.6211" rx="2.5" ry="2.5" style="stroke:#181818;stroke-width:0.5;" width="103.0273" x="190" y="158"/><rect fill="#ADD8E6" height="10" style="stroke:#181818;stroke-width:0.5;" width="15" x="273.0273" y="163"/><rect fill="#ADD8E6" height="2" style="stroke:#181818;stroke-width:0.5;" width="4" x="271.0273" y="165"/><rect fill="#ADD8E6" height="2" style="stroke:#181818;stroke-width:0.5;" width="4" x="271.0273" y="169"/><text fill="#000000" font-family="sans-serif" font-size="14" lengthAdjust="spacing" textLength="63.0273" x="205" y="193.1074">Neutralize</text></g><!--entity NG--><g class="entity" data-entity="NG" data-source-line="19" data-uid="ent0013" id="entity_NG"><rect fill="#ADD8E6" height="48.6211" rx="2.5" ry="2.5" style="stroke:#181818;stroke-width:0.5;" width="103.0273" x="328" y="158"/><rect fill="#ADD8E6" height="10" style="stroke:#181818;stroke-width:0.5;" width="15" x="411.0273" y="163"/><rect fill="#ADD8E6" height="2" style="stroke:#181818;stroke-width:0.5;" width="4" x="409.0273" y="165"/><rect fill="#ADD8E6" height="2" style="stroke:#181818;stroke-width:0.5;" width="4" x="409.0273" y="169"/><text fill="#000000" font-family="sans-serif" font-size="14" lengthAdjust="spacing" textLength="63.0273" x="343" y="193.1074">Neutralize</text></g><!--entity NB--><g class="entity" data-entity="NB" data-source-line="20" data-uid="ent0014" id="entity_NB"><rect fill="#ADD8E6" height="48.6211" rx="2.5" ry="2.5" style="stroke:#181818;stroke-width:0.5;" width="103.0273" x="466" y="158"/><rect fill="#ADD8E6" height="10" style="stroke:#181818;stroke-width:0.5;" width="15" x="549.0273" y="163"/><rect fill="#ADD8E6" height="2" style="stroke:#181818;stroke-width:0.5;" width="4" x="547.0273" y="165"/><rect fill="#ADD8E6" height="2" style="stroke:#181818;stroke-width:0.5;" width="4" x="547.0273" y="169"/><text fill="#000000" font-family="sans-serif" font-size="14" lengthAdjust="spacing" textLength="63.0273" x="481" y="193.1074">Neutralize</text></g><!--entity NC--><g class="entity" data-entity="NC" data-source-line="21" data-uid="ent0015" id="entity_NC"><rect fill="#ADD8E6" height="48.6211" rx="2.5" ry="2.5" style="stroke:#181818;stroke-width:0.5;" width="103.0273" x="604" y="158"/><rect fill="#ADD8E6" height="10" style="stroke:#181818;stroke-width:0.5;" width="15" x="687.0273" y="163"/><rect fill="#ADD8E6" height="2" style="stroke:#181818;stroke-width:0.5;" width="4" x="685.0273" y="165"/><rect fill="#ADD8E6" height="2" style="stroke:#181818;stroke-width:0.5;" width="4" x="685.0273" y="169"/><text fill="#000000" font-family="sans-serif" font-size="14" lengthAdjust="spacing" textLength="63.0273" x="619" y="193.1074">Neutralize</text></g><!--entity RC--><g class="entity" data-entity="RC" data-source-line="6" data-uid="ent0002" id="entity_RC"><rect fill="#FFB6C1" height="48.6211" rx="2.5" ry="2.5" style="stroke:#181818;stroke-width:0.5;" width="113.1309" x="160" y="7"/><rect fill="#FFB6C1" height="10" style="stroke:#181818;stroke-width:0.5;" width="15" x="253.1309" y="12"/><rect fill="#FFB6C1" height="2" style="stroke:#181818;stroke-width:0.5;" width="4" x="251.1309" y="14"/><rect fill="#FFB6C1" height="2" style="stroke:#181818;stroke-width:0.5;" width="4" x="251.1309" y="18"/><text fill="#000000" font-family="sans-serif" font-size="14" lengthAdjust="spacing" textLength="73.1309" x="175" y="42.1074">Red Crystal</text></g><!--entity GC--><g class="entity" data-entity="GC" data-source-line="7" data-uid="ent0003" id="entity_GC"><rect fill="#FFB6C1" height="48.6211" rx="2.5" ry="2.5" style="stroke:#181818;stroke-width:0.5;" width="126.3584" x="308.5" y="7"/><rect fill="#FFB6C1" height="10" style="stroke:#181818;stroke-width:0.5;" width="15" x="414.8584" y="12"/><rect fill="#FFB6C1" height="2" style="stroke:#181818;stroke-width:0.5;" width="4" x="412.8584" y="14"/><rect fill="#FFB6C1" height="2" style="stroke:#181818;stroke-width:0.5;" width="4" x="412.8584" y="18"/><text fill="#000000" font-family="sans-serif" font-size="14" lengthAdjust="spacing" textLength="86.3584" x="323.5" y="42.1074">Green Crystal</text></g><!--entity BC--><g class="entity" data-entity="BC" data-source-line="8" data-uid="ent0004" id="entity_BC"><rect fill="#FFB6C1" height="48.6211" rx="2.5" ry="2.5" style="stroke:#181818;stroke-width:0.5;" width="115.4688" x="470" y="7"/><rect fill="#FFB6C1" height="10" style="stroke:#181818;stroke-width:0.5;" width="15" x="565.4688" y="12"/><rect fill="#FFB6C1" height="2" style="stroke:#181818;stroke-width:0.5;" width="4" x="563.4688" y="14"/><rect fill="#FFB6C1" height="2" style="stroke:#181818;stroke-width:0.5;" width="4" x="563.4688" y="18"/><text fill="#000000" font-family="sans-serif" font-size="14" lengthAdjust="spacing" textLength="75.4688" x="485" y="42.1074">Blue Crystal</text></g><!--entity C--><g class="entity" data-entity="C" data-source-line="9" data-uid="ent0005" id="entity_C"><rect fill="#FFB6C1" height="48.6211" rx="2.5" ry="2.5" style="stroke:#181818;stroke-width:0.5;" width="83.5586" x="620.5" y="7"/><rect fill="#FFB6C1" height="10" style="stroke:#181818;stroke-width:0.5;" width="15" x="684.0586" y="12"/><rect fill="#FFB6C1" height="2" style="stroke:#181818;stroke-width:0.5;" width="4" x="682.0586" y="14"/><rect fill="#FFB6C1" height="2" style="stroke:#181818;stroke-width:0.5;" width="4" x="682.0586" y="18"/><text fill="#000000" font-family="sans-serif" font-size="14" lengthAdjust="spacing" textLength="43.5586" x="635.5" y="42.1074">Crystal</text></g><!--entity FE--><g class="entity" data-entity="FE" data-source-line="11" data-uid="ent0006" id="entity_FE"><rect fill="#90EE90" height="48.6211" rx="2.5" ry="2.5" style="stroke:#181818;stroke-width:0.5;" width="91.3516" x="455" y="288"/><rect fill="#90EE90" height="10" style="stroke:#181818;stroke-width:0.5;" width="15" x="526.3516" y="293"/><rect fill="#90EE90" height="2" style="stroke:#181818;stroke-width:0.5;" width="4" x="524.3516" y="295"/><rect fill="#90EE90" height="2" style="stroke:#181818;stroke-width:0.5;" width="4" x="524.3516" y="299"/><text fill="#000000" font-family="sans-serif" font-size="14" lengthAdjust="spacing" textLength="51.3516" x="470" y="323.1074">Iron Ore</text></g><!--entity CU--><g class="entity" data-entity="CU" data-source-line="12" data-uid="ent0007" id="entity_CU"><rect fill="#90EE90" height="48.6211" rx="2.5" ry="2.5" style="stroke:#181818;stroke-width:0.5;" width="113.1445" x="7" y="288"/><rect fill="#90EE90" height="10" style="stroke:#181818;stroke-width:0.5;" width="15" x="100.1445" y="293"/><rect fill="#90EE90" height="2" style="stroke:#181818;stroke-width:0.5;" width="4" x="98.1445" y="295"/><rect fill="#90EE90" height="2" style="stroke:#181818;stroke-width:0.5;" width="4" x="98.1445" y="299"/><text fill="#000000" font-family="sans-serif" font-size="14" lengthAdjust="spacing" textLength="73.1445" x="22" y="323.1074">Copper Ore</text></g><!--entity S--><g class="entity" data-entity="S" data-source-line="13" data-uid="ent0008" id="entity_S"><rect fill="#90EE90" height="48.6211" rx="2.5" ry="2.5" style="stroke:#181818;stroke-width:0.5;" width="76.5859" x="249" y="288"/><rect fill="#90EE90" height="10" style="stroke:#181818;stroke-width:0.5;" width="15" x="305.5859" y="293"/><rect fill="#90EE90" height="2" style="stroke:#181818;stroke-width:0.5;" width="4" x="303.5859" y="295"/><rect fill="#90EE90" height="2" style="stroke:#181818;stroke-width:0.5;" width="4" x="303.5859" y="299"/><text fill="#000000" font-family="sans-serif" font-size="14" lengthAdjust="spacing" textLength="36.5859" x="264" y="323.1074">Stone</text></g><!--entity Ca--><g class="entity" data-entity="Ca" data-source-line="14" data-uid="ent0009" id="entity_Ca"><rect fill="#90EE90" height="48.6211" rx="2.5" ry="2.5" style="stroke:#181818;stroke-width:0.5;" width="68.793" x="675" y="288"/><rect fill="#90EE90" height="10" style="stroke:#181818;stroke-width:0.5;" width="15" x="723.793" y="293"/><rect fill="#90EE90" height="2" style="stroke:#181818;stroke-width:0.5;" width="4" x="721.793" y="295"/><rect fill="#90EE90" height="2" style="stroke:#181818;stroke-width:0.5;" width="4" x="721.793" y="299"/><text fill="#000000" font-family="sans-serif" font-size="14" lengthAdjust="spacing" textLength="28.793" x="690" y="323.1074">Coal</text></g><!--entity PA--><g class="entity" data-entity="PA" data-source-line="15" data-uid="ent0010" id="entity_PA"><rect fill="#90EE90" height="48.6211" rx="2.5" ry="2.5" style="stroke:#181818;stroke-width:0.5;" width="86.6826" x="463" y="398"/><rect fill="#90EE90" height="10" style="stroke:#181818;stroke-width:0.5;" width="15" x="529.6826" y="403"/><rect fill="#90EE90" height="2" style="stroke:#181818;stroke-width:0.5;" width="4" x="527.6826" y="405"/><rect fill="#90EE90" height="2" style="stroke:#181818;stroke-width:0.5;" width="4" x="527.6826" y="409"/><text fill="#000000" font-family="sans-serif" font-size="14" lengthAdjust="spacing" textLength="46.6826" x="478" y="433.1074">Plasma</text></g><!--link RC to NR--><g class="link" data-entity-1="RC" data-entity-2="NR" data-source-line="26" data-uid="lnk16" id="link_RC_NR"><path d="M220.46,56.11 C225.11,83.85 231.7974,123.6927 236.4774,151.5927" fill="none" id="RC-to-NR" style="stroke:#181818;stroke-width:1;"/><polygon fill="#181818" points="237.47,157.51,239.926,147.9723,236.6428,152.5789,232.0362,149.2957,237.47,157.51" style="stroke:#181818;stroke-width:1;"/><text fill="#000000" font-family="sans-serif" font-size="13" lengthAdjust="spacing" textLength="7.23" x="229.5" y="101.0283">1</text></g><!--link GC to NG--><g class="link" data-entity-1="GC" data-entity-2="NG" data-source-line="27" data-uid="lnk17" id="link_GC_NG"><path d="M372.77,56.11 C374.26,83.85 376.3879,123.6187 377.8879,151.5187" fill="none" id="GC-to-NG" style="stroke:#181818;stroke-width:1;"/><polygon fill="#181818" points="378.21,157.51,381.7211,148.3082,377.9416,152.5172,373.7326,148.7377,378.21,157.51" style="stroke:#181818;stroke-width:1;"/><text fill="#000000" font-family="sans-serif" font-size="13" lengthAdjust="spacing" textLength="7.23" x="376.5" y="101.0283">1</text></g><!--link BC to NB--><g class="link" data-entity-1="BC" data-entity-2="NB" data-source-line="28" data-uid="lnk18" id="link_BC_NB"><path d="M525.92,56.11 C524.05,83.85 521.3813,123.6234 519.5113,151.5234" fill="none" id="BC-to-NB" style="stroke:#181818;stroke-width:1;"/><polygon fill="#181818" points="519.11,157.51,523.7029,148.7976,519.4444,152.5212,515.7208,148.2626,519.11,157.51" style="stroke:#181818;stroke-width:1;"/><text fill="#000000" font-family="sans-serif" font-size="13" lengthAdjust="spacing" textLength="7.23" x="524.5" y="101.0283">1</text></g><!--link C to NC--><g class="link" data-entity-1="C" data-entity-2="NC" data-source-line="29" data-uid="lnk19" id="link_C_NC"><path d="M661.39,56.11 C660.09,83.85 658.2214,123.6166 656.9114,151.5166" fill="none" id="C-to-NC" style="stroke:#181818;stroke-width:1;"/><polygon fill="#181818" points="656.63,157.51,661.0477,148.7075,656.8645,152.5155,653.0565,148.3323,656.63,157.51" style="stroke:#181818;stroke-width:1;"/><text fill="#000000" font-family="sans-serif" font-size="13" lengthAdjust="spacing" textLength="7.23" x="660.5" y="101.0283">1</text></g><!--link NR to CU--><g class="link" data-entity-1="NR" data-entity-2="CU" data-source-line="31" data-uid="lnk20" id="link_NR_CU"><path d="M203.31,207.06 C188.21,216.65 170.83,228.05 155.5,239 C133.66,254.6 114.5382,269.6083 96.6282,284.1483" fill="none" id="NR-to-CU" style="stroke:#181818;stroke-width:1;"/><polygon fill="#181818" points="91.97,287.93,101.4784,285.3629,95.8518,284.7786,96.4362,279.152,91.97,287.93" style="stroke:#181818;stroke-width:1;"/><text fill="#000000" font-family="sans-serif" font-size="13" lengthAdjust="spacing" textLength="7.23" x="156.5" y="254.0283">1</text></g><!--link NG to S--><g class="link" data-entity-1="NG" data-entity-2="S" data-source-line="32" data-uid="lnk21" id="link_NG_S"><path d="M362.41,207.28 C345.89,230.27 324.4911,260.0274 308.0011,282.9774" fill="none" id="NG-to-S" style="stroke:#181818;stroke-width:1;"/><polygon fill="#181818" points="304.5,287.85,313,282.8751,307.4176,283.7895,306.5032,278.207,304.5,287.85" style="stroke:#181818;stroke-width:1;"/><text fill="#000000" font-family="sans-serif" font-size="13" lengthAdjust="spacing" textLength="7.23" x="340.5" y="254.0283">1</text></g><!--link NB to FE--><g class="link" data-entity-1="NB" data-entity-2="FE" data-source-line="33" data-uid="lnk22" id="link_NB_FE"><path d="M514.34,207.28 C511.29,230.27 507.4804,258.9523 504.4304,281.9023" fill="none" id="NB-to-FE" style="stroke:#181818;stroke-width:1;"/><polygon fill="#181818" points="503.64,287.85,508.7908,279.4554,504.2987,282.8936,500.8605,278.4015,503.64,287.85" style="stroke:#181818;stroke-width:1;"/><text fill="#000000" font-family="sans-serif" font-size="13" lengthAdjust="spacing" textLength="7.23" x="510.5" y="254.0283">1</text></g><!--link NC to Ca--><g class="link" data-entity-1="NC" data-entity-2="Ca" data-source-line="34" data-uid="lnk23" id="link_NC_Ca"><path d="M665.53,207.28 C675.23,230.27 687.5082,259.3716 697.1882,282.3216" fill="none" id="NC-to-Ca" style="stroke:#181818;stroke-width:1;"/><polygon fill="#181818" points="699.52,287.85,699.7079,278.0029,697.5768,283.243,692.3367,281.112,699.52,287.85" style="stroke:#181818;stroke-width:1;"/><text fill="#000000" font-family="sans-serif" font-size="13" lengthAdjust="spacing" textLength="7.23" x="686.5" y="254.0283">3</text></g><!--link NR to PA--><g class="link" data-entity-1="NR" data-entity-2="PA" data-source-line="36" data-uid="lnk24" id="link_NR_PA"><path d="M225.86,207.06 C206.47,239.53 179.33,298.4 208.5,337 C239.22,377.65 381.8153,403.5372 456.9053,414.7072" fill="none" id="NR-to-PA" style="stroke:#181818;stroke-width:1;stroke-dasharray:7,7;"/><polygon fill="#181818" points="462.84,415.59,454.5265,410.3093,457.8944,414.8543,453.3494,418.2222,462.84,415.59" style="stroke:#181818;stroke-width:1;"/><text fill="#000000" font-family="sans-serif" font-size="13" lengthAdjust="spacing" textLength="21.6899" x="209.5" y="318.0283">100</text></g><!--link NG to PA--><g class="link" data-entity-1="NG" data-entity-2="PA" data-source-line="37" data-uid="lnk25" id="link_NG_PA"><path d="M380.56,207.18 C382.9,238.77 390.41,295.52 414.5,337 C428.66,361.38 447.4052,379.1305 467.1152,394.3005" fill="none" id="NG-to-PA" style="stroke:#181818;stroke-width:1;stroke-dasharray:7,7;"/><polygon fill="#181818" points="471.87,397.96,467.1776,389.3008,467.9077,394.9104,462.2982,395.6405,471.87,397.96" style="stroke:#181818;stroke-width:1;"/><text fill="#000000" font-family="sans-serif" font-size="13" lengthAdjust="spacing" textLength="21.6899" x="415.5" y="318.0283">100</text></g><!--link NB to PA--><g class="link" data-entity-1="NB" data-entity-2="PA" data-source-line="38" data-uid="lnk26" id="link_NB_PA"><path d="M533.47,207.19 C551.77,237.37 577.53,291.11 563.5,337 C556.57,359.68 545.0678,377.125 532.0678,393.025" fill="none" id="NB-to-PA" style="stroke:#181818;stroke-width:1;stroke-dasharray:7,7;"/><polygon fill="#181818" points="528.27,397.67,537.0635,393.2343,531.4349,393.7991,530.8701,388.1705,528.27,397.67" style="stroke:#181818;stroke-width:1;"/><text fill="#000000" font-family="sans-serif" font-size="13" lengthAdjust="spacing" textLength="21.6899" x="568.5" y="318.0283">100</text></g><!--link NC to PA--><g class="link" data-entity-1="NC" data-entity-2="PA" data-source-line="39" data-uid="lnk27" id="link_NC_PA"><path d="M692.05,207.12 C734.36,237.45 794.3,291.58 761.5,337 C713.04,404.11 615.1838,418.5073 556.0538,421.1973" fill="none" id="NC-to-PA" style="stroke:#181818;stroke-width:1;stroke-dasharray:7,7;"/><polygon fill="#181818" points="550.06,421.47,559.2325,425.0569,555.0548,421.2428,558.8689,417.0651,550.06,421.47" style="stroke:#181818;stroke-width:1;"/><text fill="#000000" font-family="sans-serif" font-size="13" lengthAdjust="spacing" textLength="21.6899" x="771.5" y="318.0283">100</text></g><!--SRC=[VP6nQiCm48PtFOMWSqnAjmo1IgIYInfiCfaEgdsrHHJ9o0ebANttdcIbH2v4ax_xxjVXKwzQe4VmlMr7qWVuLA2lturoZGP2wX9Qojrvz5A_KpdIajC7hRhU3yeSI2qSWCaQHDx0z0aopt9_gp93wbTd3Nrp4DtB9iakJCIS7GPmVvhlSrrvQoPJpNFNOJ8NEot7eungzvmfCiZc83kW6mEkKnSSE-apQ6s_w3Ufjt3oJcfqyO9jcJe-yE__Mt7NihkMtzeVWWTVPB5OXvah-aX48X699MAH4l0810C1SNC1CH2ece15m9r7cdAui1LzYhcYADPXIsYNon2T5TYymFF2Bm00]--></g></svg>