<svg xmlns="http://www.w3.org/2000/svg" xmlns:xlink="http://www.w3.org/1999/xlink" contentStyleType="text/css" data-diagram-type="DESCRIPTION" height="623px" preserveAspectRatio="none" style="width:582px;height:623px;background:#FFFFFF;" version="1.1" viewBox="0 0 582 623" width="582px" zoomAndPan="magnify"><defs/><g><!--cluster Chemical Plant--><g class="cluster" data-entity="Chemical Plant" data-source-line="14" data-uid="ent0008" id="cluster_Chemical Plant"><path d="M31.5,402 L132.8652,402 A3.75,3.75 0 0 1 135.3652,404.5 L142.3652,426.6211 L572.5,426.6211 A2.5,2.5 0 0 1 575,429.1211 L575,501.5 A2.5,2.5 0 0 1 572.5,504 L31.5,504 A2.5,2.5 0 0 1 29,501.5 L29,404.5 A2.5,2.5 0 0 1 31.5,402" fill="#FFFFE0" style="stroke:#000000;stroke-width:1.5;"/><line style="stroke:#000000;stroke-width:1.5;" x1="29" x2="142.3652" y1="426.6211" y2="426.6211"/><text fill="#000000" font-family="sans-serif" font-size="14" font-weight="bold" lengthAdjust="spacing" textLength="100.3652" x="33" y="419.1074">Chemical Plant</text></g><!--cluster Crusher--><g class="cluster" data-entity="Crusher" data-source-line="20" data-uid="ent0012" id="cluster_Crusher"><path d="M8.5,121 L63.1826,121 A3.75,3.75 0 0 1 65.6826,123.5 L72.6826,145.6211 L207.5,145.6211 A2.5,2.5 0 0 1 210,148.1211 L210,220.5 A2.5,2.5 0 0 1 207.5,223 L8.5,223 A2.5,2.5 0 0 1 6,220.5 L6,123.5 A2.5,2.5 0 0 1 8.5,121" fill="#FFFFE0" style="stroke:#000000;stroke-width:1.5;"/><line style="stroke:#000000;stroke-width:1.5;" x1="6" x2="72.6826" y1="145.6211" y2="145.6211"/><text fill="#000000" font-family="sans-serif" font-size="14" font-weight="bold" lengthAdjust="spacing" textLength="53.6826" x="10" y="138.1074">Crusher</text></g><!--entity Me--><g class="entity" data-entity="Me" data-source-line="15" data-uid="ent0009" id="entity_Me"><rect fill="#ADD8E6" height="48.6211" rx="2.5" ry="2.5" style="stroke:#181818;stroke-width:0.5;" width="85.124" x="473.5" y="439"/><rect fill="#ADD8E6" height="10" style="stroke:#181818;stroke-width:0.5;" width="15" x="538.624" y="444"/><rect fill="#ADD8E6" height="2" style="stroke:#181818;stroke-width:0.5;" width="4" x="536.624" y="446"/><rect fill="#ADD8E6" height="2" style="stroke:#181818;stroke-width:0.5;" width="4" x="536.624" y="450"/><text fill="#000000" font-family="sans-serif" font-size="14" lengthAdjust="spacing" textLength="45.124" x="488.5" y="474.1074">Melt 1s</text></g><!--entity SCS--><g class="entity" data-entity="SCS" data-source-line="16" data-uid="ent0010" id="entity_SCS"><rect fill="#ADD8E6" height="48.6211" rx="2.5" ry="2.5" style="stroke:#181818;stroke-width:0.5;" width="238.4131" x="200" y="439"/><rect fill="#ADD8E6" height="10" style="stroke:#181818;stroke-width:0.5;" width="15" x="418.4131" y="444"/><rect fill="#ADD8E6" height="2" style="stroke:#181818;stroke-width:0.5;" width="4" x="416.4131" y="446"/><rect fill="#ADD8E6" height="2" style="stroke:#181818;stroke-width:0.5;" width="4" x="416.4131" y="450"/><text fill="#000000" font-family="sans-serif" font-size="14" lengthAdjust="spacing" textLength="198.4131" x="215" y="474.1074">Sludge from Crushed Crystal 1s</text></g><!--entity CCF--><g class="entity" data-entity="CCF" data-source-line="17" data-uid="ent0011" id="entity_CCF"><rect fill="#ADD8E6" height="48.6211" rx="2.5" ry="2.5" style="stroke:#181818;stroke-width:0.5;" width="120.1309" x="45" y="439"/><rect fill="#ADD8E6" height="10" style="stroke:#181818;stroke-width:0.5;" width="15" x="145.1309" y="444"/><rect fill="#ADD8E6" height="2" style="stroke:#181818;stroke-width:0.5;" width="4" x="143.1309" y="446"/><rect fill="#ADD8E6" height="2" style="stroke:#181818;stroke-width:0.5;" width="4" x="143.1309" y="450"/><text fill="#000000" font-family="sans-serif" font-size="14" lengthAdjust="spacing" textLength="80.1309" x="60" y="474.1074">Crystalise 4s</text></g><!--entity Cr--><g class="entity" data-entity="Cr" data-source-line="21" data-uid="ent0013" id="entity_Cr"><rect fill="#ADD8E6" height="48.6211" rx="2.5" ry="2.5" style="stroke:#181818;stroke-width:0.5;" width="170.6963" x="22.5" y="158"/><rect fill="#ADD8E6" height="10" style="stroke:#181818;stroke-width:0.5;" width="15" x="173.1963" y="163"/><rect fill="#ADD8E6" height="2" style="stroke:#181818;stroke-width:0.5;" width="4" x="171.1963" y="165"/><rect fill="#ADD8E6" height="2" style="stroke:#181818;stroke-width:0.5;" width="4" x="171.1963" y="169"/><text fill="#000000" font-family="sans-serif" font-size="14" lengthAdjust="spacing" textLength="130.6963" x="37.5" y="193.1074">Crush Crystal Ore 1s</text></g><!--entity CO--><g class="entity" data-entity="CO" data-source-line="6" data-uid="ent0002" id="entity_CO"><rect fill="#FFB6C1" height="48.6211" rx="2.5" ry="2.5" style="stroke:#181818;stroke-width:0.5;" width="110.7861" x="52.5" y="7"/><rect fill="#FFB6C1" height="10" style="stroke:#181818;stroke-width:0.5;" width="15" x="143.2861" y="12"/><rect fill="#FFB6C1" height="2" style="stroke:#181818;stroke-width:0.5;" width="4" x="141.2861" y="14"/><rect fill="#FFB6C1" height="2" style="stroke:#181818;stroke-width:0.5;" width="4" x="141.2861" y="18"/><text fill="#000000" font-family="sans-serif" font-size="14" lengthAdjust="spacing" textLength="70.7861" x="67.5" y="42.1074">Crystal Ore</text></g><!--entity CCr--><g class="entity" data-entity="CCr" data-source-line="7" data-uid="ent0003" id="entity_CCr"><rect fill="#F1F1F1" height="48.6211" rx="2.5" ry="2.5" style="stroke:#181818;stroke-width:0.5;" width="140.3652" x="38" y="288"/><rect fill="#F1F1F1" height="10" style="stroke:#181818;stroke-width:0.5;" width="15" x="158.3652" y="293"/><rect fill="#F1F1F1" height="2" style="stroke:#181818;stroke-width:0.5;" width="4" x="156.3652" y="295"/><rect fill="#F1F1F1" height="2" style="stroke:#181818;stroke-width:0.5;" width="4" x="156.3652" y="299"/><text fill="#000000" font-family="sans-serif" font-size="14" lengthAdjust="spacing" textLength="100.3652" x="53" y="323.1074">Crushed Crystal</text></g><!--entity CS--><g class="entity" data-entity="CS" data-source-line="8" data-uid="ent0004" id="entity_CS"><rect fill="#F1F1F1" height="48.6211" rx="2.5" ry="2.5" style="stroke:#181818;stroke-width:0.5;" width="124.0068" x="214" y="288"/><rect fill="#F1F1F1" height="10" style="stroke:#181818;stroke-width:0.5;" width="15" x="318.0068" y="293"/><rect fill="#F1F1F1" height="2" style="stroke:#181818;stroke-width:0.5;" width="4" x="316.0068" y="295"/><rect fill="#F1F1F1" height="2" style="stroke:#181818;stroke-width:0.5;" width="4" x="316.0068" y="299"/><text fill="#000000" font-family="sans-serif" font-size="14" lengthAdjust="spacing" textLength="84.0068" x="229" y="323.1074">Crystal Slurry</text></g><!--entity I--><g class="entity" data-entity="I" data-source-line="9" data-uid="ent0005" id="entity_I"><rect fill="#FFB6C1" height="48.6211" rx="2.5" ry="2.5" style="stroke:#181818;stroke-width:0.5;" width="58.6758" x="486.5" y="288"/><rect fill="#FFB6C1" height="10" style="stroke:#181818;stroke-width:0.5;" width="15" x="525.1758" y="293"/><rect fill="#FFB6C1" height="2" style="stroke:#181818;stroke-width:0.5;" width="4" x="523.1758" y="295"/><rect fill="#FFB6C1" height="2" style="stroke:#181818;stroke-width:0.5;" width="4" x="523.1758" y="299"/><text fill="#000000" font-family="sans-serif" font-size="14" lengthAdjust="spacing" textLength="18.6758" x="501.5" y="323.1074">Ice</text></g><!--entity W--><g class="entity" data-entity="W" data-source-line="10" data-uid="ent0006" id="entity_W"><rect fill="#F1F1F1" height="48.6211" rx="2.5" ry="2.5" style="stroke:#181818;stroke-width:0.5;" width="77.3379" x="374.5" y="288"/><rect fill="#F1F1F1" height="10" style="stroke:#181818;stroke-width:0.5;" width="15" x="431.8379" y="293"/><rect fill="#F1F1F1" height="2" style="stroke:#181818;stroke-width:0.5;" width="4" x="429.8379" y="295"/><rect fill="#F1F1F1" height="2" style="stroke:#181818;stroke-width:0.5;" width="4" x="429.8379" y="299"/><text fill="#000000" font-family="sans-serif" font-size="14" lengthAdjust="spacing" textLength="37.3379" x="389.5" y="323.1074">Water</text></g><!--entity C--><g class="entity" data-entity="C" data-source-line="12" data-uid="ent0007" id="entity_C"><rect fill="#90EE90" height="48.6211" rx="2.5" ry="2.5" style="stroke:#181818;stroke-width:0.5;" width="83.5586" x="63" y="569"/><rect fill="#90EE90" height="10" style="stroke:#181818;stroke-width:0.5;" width="15" x="126.5586" y="574"/><rect fill="#90EE90" height="2" style="stroke:#181818;stroke-width:0.5;" width="4" x="124.5586" y="576"/><rect fill="#90EE90" height="2" style="stroke:#181818;stroke-width:0.5;" width="4" x="124.5586" y="580"/><text fill="#000000" font-family="sans-serif" font-size="14" lengthAdjust="spacing" textLength="43.5586" x="78" y="604.1074">Crystal</text></g><!--link CO to Cr--><g class="link" data-entity-1="CO" data-entity-2="Cr" data-source-line="26" data-uid="lnk14" id="link_CO_Cr"><path d="M108,56.11 C108,83.85 108,123.61 108,151.51" fill="none" id="CO-to-Cr" style="stroke:#181818;stroke-width:1;"/><polygon fill="#181818" points="108,157.51,112,148.51,108,152.51,104,148.51,108,157.51" style="stroke:#181818;stroke-width:1;"/><text fill="#000000" font-family="sans-serif" font-size="13" lengthAdjust="spacing" textLength="7.23" x="109" y="101.0283">1</text></g><!--link Cr to CCr--><g class="link" data-entity-1="Cr" data-entity-2="CCr" data-source-line="27" data-uid="lnk15" id="link_Cr_CCr"><path d="M108,207.28 C108,230.27 108,258.9 108,281.85" fill="none" id="Cr-to-CCr" style="stroke:#181818;stroke-width:1;"/><polygon fill="#181818" points="108,287.85,112,278.85,108,282.85,104,278.85,108,287.85" style="stroke:#181818;stroke-width:1;"/><text fill="#000000" font-family="sans-serif" font-size="13" lengthAdjust="spacing" textLength="7.23" x="109" y="254.0283">2</text></g><!--link CCr to SCS--><g class="link" data-entity-1="CCr" data-entity-2="SCS" data-source-line="28" data-uid="lnk16" id="link_CCr_SCS"><path d="M153.93,337.23 C169.83,346 187.54,356.41 203,367 C235.49,389.27 265.5176,414.5127 288.3676,434.7427" fill="none" id="CCr-to-SCS" style="stroke:#181818;stroke-width:1;"/><polygon fill="#181818" points="292.86,438.72,288.773,429.7592,289.1164,435.4056,283.4699,435.749,292.86,438.72" style="stroke:#181818;stroke-width:1;"/><text fill="#000000" font-family="sans-serif" font-size="13" lengthAdjust="spacing" textLength="14.46" x="227" y="382.0283">15</text></g><!--link I to Me--><g class="link" data-entity-1="I" data-entity-2="Me" data-source-line="29" data-uid="lnk17" id="link_I_Me"><path d="M516,337.11 C516,364.85 516,404.61 516,432.51" fill="none" id="I-to-Me" style="stroke:#181818;stroke-width:1;"/><polygon fill="#181818" points="516,438.51,520,429.51,516,433.51,512,429.51,516,438.51" style="stroke:#181818;stroke-width:1;"/><text fill="#000000" font-family="sans-serif" font-size="13" lengthAdjust="spacing" textLength="7.23" x="517" y="382.0283">1</text></g><!--link Me to W--><g class="link" data-entity-1="Me" data-entity-2="W" data-source-line="30" data-uid="lnk18" id="link_Me_W"><path d="M499.41,438.51 C480.13,410.61 451.9011,369.786 432.7311,342.046" fill="none" id="Me-to-W" style="stroke:#181818;stroke-width:1;"/><polygon fill="#181818" points="429.32,337.11,431.146,346.7881,432.1626,341.2234,437.7273,342.24,429.32,337.11" style="stroke:#181818;stroke-width:1;"/><text fill="#000000" font-family="sans-serif" font-size="13" lengthAdjust="spacing" textLength="14.46" x="462" y="382.0283">20</text></g><!--link W to SCS--><g class="link" data-entity-1="W" data-entity-2="SCS" data-source-line="31" data-uid="lnk19" id="link_W_SCS"><path d="M396.81,337.05 C390.53,346.32 383.33,357.1 377,367 C361.53,391.19 347.6267,414.1629 336.0667,433.6029" fill="none" id="W-to-SCS" style="stroke:#181818;stroke-width:1;"/><polygon fill="#181818" points="333,438.76,341.0381,433.0688,335.5556,434.4624,334.1619,428.9799,333,438.76" style="stroke:#181818;stroke-width:1;"/><text fill="#000000" font-family="sans-serif" font-size="13" lengthAdjust="spacing" textLength="14.46" x="378" y="382.0283">20</text></g><!--link SCS to CS--><g class="link" data-entity-1="SCS" data-entity-2="CS" data-source-line="32" data-uid="lnk20" id="link_SCS_CS"><path d="M312.08,438.51 C304.02,410.61 292.4845,370.6145 284.4745,342.8745" fill="none" id="SCS-to-CS" style="stroke:#181818;stroke-width:1;"/><polygon fill="#181818" points="282.81,337.11,281.4638,346.8664,284.1971,341.9137,289.1498,344.6471,282.81,337.11" style="stroke:#181818;stroke-width:1;"/><text fill="#000000" font-family="sans-serif" font-size="13" lengthAdjust="spacing" textLength="14.46" x="297" y="382.0283">20</text></g><!--link CS to CCF--><g class="link" data-entity-1="CS" data-entity-2="CCF" data-source-line="33" data-uid="lnk21" id="link_CS_CCF"><path d="M227.44,337.04 C212.43,345.44 196.35,355.67 183,367 C158.03,388.2 138.4871,413.252 124.0271,433.942" fill="none" id="CS-to-CCF" style="stroke:#181818;stroke-width:1;"/><polygon fill="#181818" points="120.59,438.86,129.0243,433.7745,123.4543,434.7617,122.467,429.1917,120.59,438.86" style="stroke:#181818;stroke-width:1;"/><text fill="#000000" font-family="sans-serif" font-size="13" lengthAdjust="spacing" textLength="14.46" x="184" y="382.0283">16</text></g><!--link CCF to C--><g class="link" data-entity-1="CCF" data-entity-2="C" data-source-line="34" data-uid="lnk22" id="link_CCF_C"><path d="M105,488.28 C105,511.27 105,539.9 105,562.85" fill="none" id="CCF-to-C" style="stroke:#181818;stroke-width:1;"/><polygon fill="#181818" points="105,568.85,109,559.85,105,563.85,101,559.85,105,568.85" style="stroke:#181818;stroke-width:1;"/><text fill="#000000" font-family="sans-serif" font-size="13" lengthAdjust="spacing" textLength="36.8608" x="106" y="535.0283">75% 8</text></g><!--link CCF to CCr--><g class="link" data-entity-1="CCF" data-entity-2="CCr" data-source-line="35" data-uid="lnk23" id="link_CCF_CCr"><path d="M104.63,438.95 C104.42,419.61 104.31,391.53 105,367 C105.27,357.24 105.469,352.4691 106.029,343.1791" fill="none" id="CCF-to-CCr" style="stroke:#181818;stroke-width:1;"/><polygon fill="#181818" points="106.39,337.19,101.8557,345.933,106.0891,342.1809,109.8412,346.4144,106.39,337.19" style="stroke:#181818;stroke-width:1;"/><text fill="#000000" font-family="sans-serif" font-size="13" lengthAdjust="spacing" textLength="36.8608" x="106" y="382.0283">25% 2</text></g><!--SRC=[PL2nQiCm4DtlAuwKZe4cD6tfq4LGy11IyE31T53jYoKYsq6IAQRqttkIPUAaa-xTU_VkdPIk2LloggyTg02EcinSLzfMXW1AOKVdfS63fK-K3iK1xunkb3_hxXJemIcgCSacYR2NkTmCrevJFuSogoQRxCgba9vix1UNbTDCqZMMg0Cuo-ea6yALKDJgYlq_ZEpyAgb6CgR_nXyezsGyRbpqs5EYlyn0K7AYcYsEjc_n9luyaOlyQYJHsX4-kdJZ-rBnkumMFUt_J970nOVEwuIzyGBWRrwltmBpYXlW9w88jo0I3Z6Pta4M8TyPnFm4L0Jf0nGB9SDGHAk4PyZdyEmJX28s63xlxl7bqfcMSsyR0i8V]--></g></svg>