<svg xmlns="http://www.w3.org/2000/svg" xmlns:xlink="http://www.w3.org/1999/xlink" contentStyleType="text/css" data-diagram-type="DESCRIPTION" height="623px" preserveAspectRatio="none" style="width:512px;height:623px;background:#FFFFFF;" version="1.1" viewBox="0 0 512 623" width="512px" zoomAndPan="magnify"><defs/><g><!--cluster Chemical Plant x2--><g class="cluster" data-entity="Chemical Plant x2" data-source-line="14" data-uid="ent0008" id="cluster_Chemical Plant x2"><path d="M372.5,121 L493.3271,121 A3.75,3.75 0 0 1 495.8271,123.5 L502.8271,145.6211 L502.5,145.6211 A2.5,2.5 0 0 1 505,148.1211 L505,220.5 A2.5,2.5 0 0 1 502.5,223 L372.5,223 A2.5,2.5 0 0 1 370,220.5 L370,123.5 A2.5,2.5 0 0 1 372.5,121" fill="#FFFFE0" style="stroke:#000000;stroke-width:1.5;"/><line style="stroke:#000000;stroke-width:1.5;" x1="370" x2="502.8271" y1="145.6211" y2="145.6211"/><text fill="#000000" font-family="sans-serif" font-size="14" font-weight="bold" lengthAdjust="spacing" textLength="119.8271" x="374" y="138.1074">Chemical Plant x2</text></g><!--cluster Crusher x30--><g class="cluster" data-entity="Crusher x30" data-source-line="18" data-uid="ent0010" id="cluster_Crusher x30"><path d="M8.5,121 L90.4307,121 A3.75,3.75 0 0 1 92.9307,123.5 L99.9307,145.6211 L207.5,145.6211 A2.5,2.5 0 0 1 210,148.1211 L210,220.5 A2.5,2.5 0 0 1 207.5,223 L8.5,223 A2.5,2.5 0 0 1 6,220.5 L6,123.5 A2.5,2.5 0 0 1 8.5,121" fill="#FFFFE0" style="stroke:#000000;stroke-width:1.5;"/><line style="stroke:#000000;stroke-width:1.5;" x1="6" x2="99.9307" y1="145.6211" y2="145.6211"/><text fill="#000000" font-family="sans-serif" font-size="14" font-weight="bold" lengthAdjust="spacing" textLength="80.9307" x="10" y="138.1074">Crusher x30</text></g><!--cluster Crystalizer x10--><g class="cluster" data-entity="Crystalizer x10" data-source-line="22" data-uid="ent0012" id="cluster_Crystalizer x10"><path d="M71.5,402 L171.3408,402 A3.75,3.75 0 0 1 173.8408,404.5 L180.8408,426.6211 L491.5,426.6211 A2.5,2.5 0 0 1 494,429.1211 L494,501.5 A2.5,2.5 0 0 1 491.5,504 L71.5,504 A2.5,2.5 0 0 1 69,501.5 L69,404.5 A2.5,2.5 0 0 1 71.5,402" fill="#FFFFE0" style="stroke:#000000;stroke-width:1.5;"/><line style="stroke:#000000;stroke-width:1.5;" x1="69" x2="180.8408" y1="426.6211" y2="426.6211"/><text fill="#000000" font-family="sans-serif" font-size="14" font-weight="bold" lengthAdjust="spacing" textLength="98.8408" x="73" y="419.1074">Crystalizer x10</text></g><!--entity Me--><g class="entity" data-entity="Me" data-source-line="15" data-uid="ent0009" id="entity_Me"><rect fill="#ADD8E6" height="48.6211" rx="2.5" ry="2.5" style="stroke:#181818;stroke-width:0.5;" width="85.124" x="394.5" y="158"/><rect fill="#ADD8E6" height="10" style="stroke:#181818;stroke-width:0.5;" width="15" x="459.624" y="163"/><rect fill="#ADD8E6" height="2" style="stroke:#181818;stroke-width:0.5;" width="4" x="457.624" y="165"/><rect fill="#ADD8E6" height="2" style="stroke:#181818;stroke-width:0.5;" width="4" x="457.624" y="169"/><text fill="#000000" font-family="sans-serif" font-size="14" lengthAdjust="spacing" textLength="45.124" x="409.5" y="193.1074">Melt 1s</text></g><!--entity Cr--><g class="entity" data-entity="Cr" data-source-line="19" data-uid="ent0011" id="entity_Cr"><rect fill="#ADD8E6" height="48.6211" rx="2.5" ry="2.5" style="stroke:#181818;stroke-width:0.5;" width="170.6963" x="22.5" y="158"/><rect fill="#ADD8E6" height="10" style="stroke:#181818;stroke-width:0.5;" width="15" x="173.1963" y="163"/><rect fill="#ADD8E6" height="2" style="stroke:#181818;stroke-width:0.5;" width="4" x="171.1963" y="165"/><rect fill="#ADD8E6" height="2" style="stroke:#181818;stroke-width:0.5;" width="4" x="171.1963" y="169"/><text fill="#000000" font-family="sans-serif" font-size="14" lengthAdjust="spacing" textLength="130.6963" x="37.5" y="193.1074">Crush Crystal Ore 1s</text></g><!--entity SCS--><g class="entity" data-entity="SCS" data-source-line="23" data-uid="ent0013" id="entity_SCS"><rect fill="#ADD8E6" height="48.6211" rx="2.5" ry="2.5" style="stroke:#181818;stroke-width:0.5;" width="238.4131" x="240" y="439"/><rect fill="#ADD8E6" height="10" style="stroke:#181818;stroke-width:0.5;" width="15" x="458.4131" y="444"/><rect fill="#ADD8E6" height="2" style="stroke:#181818;stroke-width:0.5;" width="4" x="456.4131" y="446"/><rect fill="#ADD8E6" height="2" style="stroke:#181818;stroke-width:0.5;" width="4" x="456.4131" y="450"/><text fill="#000000" font-family="sans-serif" font-size="14" lengthAdjust="spacing" textLength="198.4131" x="255" y="474.1074">Sludge from Crushed Crystal 1s</text></g><!--entity CCF--><g class="entity" data-entity="CCF" data-source-line="24" data-uid="ent0014" id="entity_CCF"><rect fill="#ADD8E6" height="48.6211" rx="2.5" ry="2.5" style="stroke:#181818;stroke-width:0.5;" width="120.1309" x="85" y="439"/><rect fill="#ADD8E6" height="10" style="stroke:#181818;stroke-width:0.5;" width="15" x="185.1309" y="444"/><rect fill="#ADD8E6" height="2" style="stroke:#181818;stroke-width:0.5;" width="4" x="183.1309" y="446"/><rect fill="#ADD8E6" height="2" style="stroke:#181818;stroke-width:0.5;" width="4" x="183.1309" y="450"/><text fill="#000000" font-family="sans-serif" font-size="14" lengthAdjust="spacing" textLength="80.1309" x="100" y="474.1074">Crystalise 4s</text></g><!--entity CO--><g class="entity" data-entity="CO" data-source-line="6" data-uid="ent0002" id="entity_CO"><rect fill="#FFB6C1" height="48.6211" rx="2.5" ry="2.5" style="stroke:#181818;stroke-width:0.5;" width="110.7861" x="52.5" y="7"/><rect fill="#FFB6C1" height="10" style="stroke:#181818;stroke-width:0.5;" width="15" x="143.2861" y="12"/><rect fill="#FFB6C1" height="2" style="stroke:#181818;stroke-width:0.5;" width="4" x="141.2861" y="14"/><rect fill="#FFB6C1" height="2" style="stroke:#181818;stroke-width:0.5;" width="4" x="141.2861" y="18"/><text fill="#000000" font-family="sans-serif" font-size="14" lengthAdjust="spacing" textLength="70.7861" x="67.5" y="42.1074">Crystal Ore</text></g><!--entity CCr--><g class="entity" data-entity="CCr" data-source-line="7" data-uid="ent0003" id="entity_CCr"><rect fill="#F1F1F1" height="48.6211" rx="2.5" ry="2.5" style="stroke:#181818;stroke-width:0.5;" width="140.3652" x="38" y="288"/><rect fill="#F1F1F1" height="10" style="stroke:#181818;stroke-width:0.5;" width="15" x="158.3652" y="293"/><rect fill="#F1F1F1" height="2" style="stroke:#181818;stroke-width:0.5;" width="4" x="156.3652" y="295"/><rect fill="#F1F1F1" height="2" style="stroke:#181818;stroke-width:0.5;" width="4" x="156.3652" y="299"/><text fill="#000000" font-family="sans-serif" font-size="14" lengthAdjust="spacing" textLength="100.3652" x="53" y="323.1074">Crushed Crystal</text></g><!--entity CS--><g class="entity" data-entity="CS" data-source-line="8" data-uid="ent0004" id="entity_CS"><rect fill="#F1F1F1" height="48.6211" rx="2.5" ry="2.5" style="stroke:#181818;stroke-width:0.5;" width="124.0068" x="233" y="288"/><rect fill="#F1F1F1" height="10" style="stroke:#181818;stroke-width:0.5;" width="15" x="337.0068" y="293"/><rect fill="#F1F1F1" height="2" style="stroke:#181818;stroke-width:0.5;" width="4" x="335.0068" y="295"/><rect fill="#F1F1F1" height="2" style="stroke:#181818;stroke-width:0.5;" width="4" x="335.0068" y="299"/><text fill="#000000" font-family="sans-serif" font-size="14" lengthAdjust="spacing" textLength="84.0068" x="248" y="323.1074">Crystal Slurry</text></g><!--entity I--><g class="entity" data-entity="I" data-source-line="9" data-uid="ent0005" id="entity_I"><rect fill="#FFB6C1" height="48.6211" rx="2.5" ry="2.5" style="stroke:#181818;stroke-width:0.5;" width="58.6758" x="407.5" y="7"/><rect fill="#FFB6C1" height="10" style="stroke:#181818;stroke-width:0.5;" width="15" x="446.1758" y="12"/><rect fill="#FFB6C1" height="2" style="stroke:#181818;stroke-width:0.5;" width="4" x="444.1758" y="14"/><rect fill="#FFB6C1" height="2" style="stroke:#181818;stroke-width:0.5;" width="4" x="444.1758" y="18"/><text fill="#000000" font-family="sans-serif" font-size="14" lengthAdjust="spacing" textLength="18.6758" x="422.5" y="42.1074">Ice</text></g><!--entity W--><g class="entity" data-entity="W" data-source-line="10" data-uid="ent0006" id="entity_W"><rect fill="#F1F1F1" height="48.6211" rx="2.5" ry="2.5" style="stroke:#181818;stroke-width:0.5;" width="77.3379" x="398.5" y="288"/><rect fill="#F1F1F1" height="10" style="stroke:#181818;stroke-width:0.5;" width="15" x="455.8379" y="293"/><rect fill="#F1F1F1" height="2" style="stroke:#181818;stroke-width:0.5;" width="4" x="453.8379" y="295"/><rect fill="#F1F1F1" height="2" style="stroke:#181818;stroke-width:0.5;" width="4" x="453.8379" y="299"/><text fill="#000000" font-family="sans-serif" font-size="14" lengthAdjust="spacing" textLength="37.3379" x="413.5" y="323.1074">Water</text></g><!--entity C--><g class="entity" data-entity="C" data-source-line="12" data-uid="ent0007" id="entity_C"><rect fill="#90EE90" height="48.6211" rx="2.5" ry="2.5" style="stroke:#181818;stroke-width:0.5;" width="83.5586" x="103" y="569"/><rect fill="#90EE90" height="10" style="stroke:#181818;stroke-width:0.5;" width="15" x="166.5586" y="574"/><rect fill="#90EE90" height="2" style="stroke:#181818;stroke-width:0.5;" width="4" x="164.5586" y="576"/><rect fill="#90EE90" height="2" style="stroke:#181818;stroke-width:0.5;" width="4" x="164.5586" y="580"/><text fill="#000000" font-family="sans-serif" font-size="14" lengthAdjust="spacing" textLength="43.5586" x="118" y="604.1074">Crystal</text></g><!--link CO to Cr--><g class="link" data-entity-1="CO" data-entity-2="Cr" data-source-line="28" data-uid="lnk15" id="link_CO_Cr"><path d="M108,56.11 C108,83.85 108,123.61 108,151.51" fill="none" id="CO-to-Cr" style="stroke:#181818;stroke-width:1;"/><polygon fill="#181818" points="108,157.51,112,148.51,108,152.51,104,148.51,108,157.51" style="stroke:#181818;stroke-width:1;"/><text fill="#000000" font-family="sans-serif" font-size="13" lengthAdjust="spacing" textLength="21.6836" x="109" y="101.0283">1[1]</text></g><!--link Cr to CCr--><g class="link" data-entity-1="Cr" data-entity-2="CCr" data-source-line="29" data-uid="lnk16" id="link_Cr_CCr"><path d="M108,207.28 C108,230.27 108,258.9 108,281.85" fill="none" id="Cr-to-CCr" style="stroke:#181818;stroke-width:1;"/><polygon fill="#181818" points="108,287.85,112,278.85,108,282.85,104,278.85,108,287.85" style="stroke:#181818;stroke-width:1;"/><text fill="#000000" font-family="sans-serif" font-size="13" lengthAdjust="spacing" textLength="21.6836" x="109" y="254.0283">1[1]</text></g><!--link CCr to SCS--><g class="link" data-entity-1="CCr" data-entity-2="SCS" data-source-line="30" data-uid="lnk17" id="link_CCr_SCS"><path d="M135.28,337.01 C153.83,352.25 179.39,371.82 204,386 C211.94,390.57 214.68,390.16 223,394 C253.72,408.19 282.3879,422.5589 308.7079,436.1389" fill="none" id="CCr-to-SCS" style="stroke:#181818;stroke-width:1;"/><polygon fill="#181818" points="314.04,438.89,307.8759,431.2086,309.5966,436.5974,304.2078,438.318,314.04,438.89" style="stroke:#181818;stroke-width:1;"/><text fill="#000000" font-family="sans-serif" font-size="13" lengthAdjust="spacing" textLength="36.1436" x="205" y="382.0283">15[15]</text></g><!--link I to Me--><g class="link" data-entity-1="I" data-entity-2="Me" data-source-line="31" data-uid="lnk18" id="link_I_Me"><path d="M437,56.11 C437,83.85 437,123.61 437,151.51" fill="none" id="I-to-Me" style="stroke:#181818;stroke-width:1;"/><polygon fill="#181818" points="437,157.51,441,148.51,437,152.51,433,148.51,437,157.51" style="stroke:#181818;stroke-width:1;"/><text fill="#000000" font-family="sans-serif" font-size="13" lengthAdjust="spacing" textLength="21.6836" x="438" y="101.0283">1[1]</text></g><!--link Me to W--><g class="link" data-entity-1="Me" data-entity-2="W" data-source-line="32" data-uid="lnk19" id="link_Me_W"><path d="M437,207.28 C437,230.27 437,258.9 437,281.85" fill="none" id="Me-to-W" style="stroke:#181818;stroke-width:1;"/><polygon fill="#181818" points="437,287.85,441,278.85,437,282.85,433,278.85,437,287.85" style="stroke:#181818;stroke-width:1;"/><text fill="#000000" font-family="sans-serif" font-size="13" lengthAdjust="spacing" textLength="36.1436" x="438" y="254.0283">20[20]</text></g><!--link W to SCS--><g class="link" data-entity-1="W" data-entity-2="SCS" data-source-line="33" data-uid="lnk20" id="link_W_SCS"><path d="M424.64,337.11 C410.12,364.85 388.9534,405.2947 374.3434,433.1947" fill="none" id="W-to-SCS" style="stroke:#181818;stroke-width:1;"/><polygon fill="#181818" points="371.56,438.51,379.2787,432.3926,373.8795,434.0806,372.1916,428.6814,371.56,438.51" style="stroke:#181818;stroke-width:1;"/><text fill="#000000" font-family="sans-serif" font-size="13" lengthAdjust="spacing" textLength="36.1436" x="408" y="382.0283">20[20]</text></g><!--link SCS to CS--><g class="link" data-entity-1="SCS" data-entity-2="CS" data-source-line="34" data-uid="lnk21" id="link_SCS_CS"><path d="M349.71,438.82 C342,419.41 330.62,391.28 320,367 C315.69,357.14 313.2562,351.7982 308.8862,342.5182" fill="none" id="SCS-to-CS" style="stroke:#181818;stroke-width:1;"/><polygon fill="#181818" points="306.33,337.09,306.5455,346.9365,308.4602,341.6135,313.7831,343.5282,306.33,337.09" style="stroke:#181818;stroke-width:1;"/><text fill="#000000" font-family="sans-serif" font-size="13" lengthAdjust="spacing" textLength="36.1436" x="328" y="382.0283">20[20]</text></g><!--link CS to CCF--><g class="link" data-entity-1="CS" data-entity-2="CCF" data-source-line="35" data-uid="lnk22" id="link_CS_CCF"><path d="M285.65,337.26 C278.23,353.21 266.37,373.51 250,386 C240.05,393.59 233.96,387.95 223,394 C201.7,405.76 185.3924,419.8972 170.7524,434.6772" fill="none" id="CS-to-CCF" style="stroke:#181818;stroke-width:1;"/><polygon fill="#181818" points="166.53,438.94,175.7055,435.3608,170.0487,435.3877,170.0218,429.7309,166.53,438.94" style="stroke:#181818;stroke-width:1;"/><text fill="#000000" font-family="sans-serif" font-size="13" lengthAdjust="spacing" textLength="28.9136" x="268" y="382.0283">16[4]</text></g><!--link CCF to C--><g class="link" data-entity-1="CCF" data-entity-2="C" data-source-line="36" data-uid="lnk23" id="link_CCF_C"><path d="M145,488.28 C145,511.27 145,539.9 145,562.85" fill="none" id="CCF-to-C" style="stroke:#181818;stroke-width:1;"/><polygon fill="#181818" points="145,568.85,149,559.85,145,563.85,141,559.85,145,568.85" style="stroke:#181818;stroke-width:1;"/><text fill="#000000" font-family="sans-serif" font-size="13" lengthAdjust="spacing" textLength="62.1563" x="146" y="535.0283">75% 8[1.5]</text></g><!--link CCF to CCr--><g class="link" data-entity-1="CCF" data-entity-2="CCr" data-source-line="37" data-uid="lnk24" id="link_CCF_CCr"><path d="M122.03,438.86 C109.96,424.76 96.37,405.77 90,386 C84.83,369.95 87.2575,357.0548 93.1575,342.7848" fill="none" id="CCF-to-CCr" style="stroke:#181818;stroke-width:1;"/><polygon fill="#181818" points="95.45,337.24,88.3147,344.0288,93.5396,341.8606,95.7077,347.0855,95.45,337.24" style="stroke:#181818;stroke-width:1;"/><text fill="#000000" font-family="sans-serif" font-size="13" lengthAdjust="spacing" textLength="76.6162" x="91" y="382.0283">25% 2[0.125]</text></g><!--SRC=[TP6nRi8m48PtFyM9gYCeJabRTUXY2Oa1KIb31Yj3cXp4mYJ82Igqwhltx3Z2XJQJ_Ttlp-TBhIg4FVPrMtMijfkDGZskIsLAZOn9OSvTNsXO6yoXw42iuKwhRTqVLBEpvMDNOmK-DaI4kPnBzT6Oyy1J9fVbe5d-icH5ZyRnx7BbSCRdjWQnOUnGbBjYYp0HDUvLIVutNJGzdEA93vvHw_O3lfXSeUw1TqwpGbz-rqTatw78FS30wI6wLRWY12COVSByxtDXzMcT_0yd3QIYuCQqUxYQtcXFHHhgnu6e3c7kxnUBgmOO_PZfzDLszW9SyfpHoe60U6JzX1B9avmj7Q81-H2jBCXe7qSoZdAM1OSyiXid3zY8g3LIFSgvlN0nC29FoJqyIpvB0knQYwaGosZ6OohPxmS0]--></g></svg>