<svg xmlns="http://www.w3.org/2000/svg" xmlns:xlink="http://www.w3.org/1999/xlink" contentStyleType="text/css" data-diagram-type="DESCRIPTION" height="829px" preserveAspectRatio="none" style="width:384px;height:829px;background:#FFFFFF;" version="1.1" viewBox="0 0 384 829" width="384px" zoomAndPan="magnify"><defs/><g><!--entity CO--><g class="entity" data-entity="CO" data-source-line="6" data-uid="ent0002" id="entity_CO"><rect fill="#FFB6C1" height="48.6211" rx="2.5" ry="2.5" style="stroke:#181818;stroke-width:0.5;" width="110.7861" x="37" y="7"/><rect fill="#FFB6C1" height="10" style="stroke:#181818;stroke-width:0.5;" width="15" x="127.7861" y="12"/><rect fill="#FFB6C1" height="2" style="stroke:#181818;stroke-width:0.5;" width="4" x="125.7861" y="14"/><rect fill="#FFB6C1" height="2" style="stroke:#181818;stroke-width:0.5;" width="4" x="125.7861" y="18"/><text fill="#000000" font-family="sans-serif" font-size="14" lengthAdjust="spacing" textLength="70.7861" x="52" y="42.1074">Crystal Ore</text></g><!--entity CCr--><g class="entity" data-entity="CCr" data-source-line="7" data-uid="ent0003" id="entity_CCr"><rect fill="#F1F1F1" height="48.6211" rx="2.5" ry="2.5" style="stroke:#181818;stroke-width:0.5;" width="140.3652" x="22.5" y="263"/><rect fill="#F1F1F1" height="10" style="stroke:#181818;stroke-width:0.5;" width="15" x="142.8652" y="268"/><rect fill="#F1F1F1" height="2" style="stroke:#181818;stroke-width:0.5;" width="4" x="140.8652" y="270"/><rect fill="#F1F1F1" height="2" style="stroke:#181818;stroke-width:0.5;" width="4" x="140.8652" y="274"/><text fill="#000000" font-family="sans-serif" font-size="14" lengthAdjust="spacing" textLength="100.3652" x="37.5" y="298.1074">Crushed Crystal</text></g><!--entity CS--><g class="entity" data-entity="CS" data-source-line="8" data-uid="ent0004" id="entity_CS"><rect fill="#F1F1F1" height="48.6211" rx="2.5" ry="2.5" style="stroke:#181818;stroke-width:0.5;" width="124.0068" x="168.5" y="519"/><rect fill="#F1F1F1" height="10" style="stroke:#181818;stroke-width:0.5;" width="15" x="272.5068" y="524"/><rect fill="#F1F1F1" height="2" style="stroke:#181818;stroke-width:0.5;" width="4" x="270.5068" y="526"/><rect fill="#F1F1F1" height="2" style="stroke:#181818;stroke-width:0.5;" width="4" x="270.5068" y="530"/><text fill="#000000" font-family="sans-serif" font-size="14" lengthAdjust="spacing" textLength="84.0068" x="183.5" y="554.1074">Crystal Slurry</text></g><!--entity I--><g class="entity" data-entity="I" data-source-line="9" data-uid="ent0005" id="entity_I"><rect fill="#FFB6C1" height="48.6211" rx="2.5" ry="2.5" style="stroke:#181818;stroke-width:0.5;" width="58.6758" x="230" y="7"/><rect fill="#FFB6C1" height="10" style="stroke:#181818;stroke-width:0.5;" width="15" x="268.6758" y="12"/><rect fill="#FFB6C1" height="2" style="stroke:#181818;stroke-width:0.5;" width="4" x="266.6758" y="14"/><rect fill="#FFB6C1" height="2" style="stroke:#181818;stroke-width:0.5;" width="4" x="266.6758" y="18"/><text fill="#000000" font-family="sans-serif" font-size="14" lengthAdjust="spacing" textLength="18.6758" x="245" y="42.1074">Ice</text></g><!--entity W--><g class="entity" data-entity="W" data-source-line="10" data-uid="ent0006" id="entity_W"><rect fill="#F1F1F1" height="48.6211" rx="2.5" ry="2.5" style="stroke:#181818;stroke-width:0.5;" width="77.3379" x="221" y="263"/><rect fill="#F1F1F1" height="10" style="stroke:#181818;stroke-width:0.5;" width="15" x="278.3379" y="268"/><rect fill="#F1F1F1" height="2" style="stroke:#181818;stroke-width:0.5;" width="4" x="276.3379" y="270"/><rect fill="#F1F1F1" height="2" style="stroke:#181818;stroke-width:0.5;" width="4" x="276.3379" y="274"/><text fill="#000000" font-family="sans-serif" font-size="14" lengthAdjust="spacing" textLength="37.3379" x="236" y="298.1074">Water</text></g><!--entity C--><g class="entity" data-entity="C" data-source-line="12" data-uid="ent0007" id="entity_C"><rect fill="#90EE90" height="48.6211" rx="2.5" ry="2.5" style="stroke:#181818;stroke-width:0.5;" width="83.5586" x="74.5" y="775"/><rect fill="#90EE90" height="10" style="stroke:#181818;stroke-width:0.5;" width="15" x="138.0586" y="780"/><rect fill="#90EE90" height="2" style="stroke:#181818;stroke-width:0.5;" width="4" x="136.0586" y="782"/><rect fill="#90EE90" height="2" style="stroke:#181818;stroke-width:0.5;" width="4" x="136.0586" y="786"/><text fill="#000000" font-family="sans-serif" font-size="14" lengthAdjust="spacing" textLength="43.5586" x="89.5" y="810.1074">Crystal</text></g><!--entity Me--><g class="entity" data-entity="Me" data-source-line="14" data-uid="ent0008" id="entity_Me"><rect fill="#ADD8E6" height="48.6211" rx="2.5" ry="2.5" style="stroke:#181818;stroke-width:0.5;" width="85.124" x="217" y="135"/><rect fill="#ADD8E6" height="10" style="stroke:#181818;stroke-width:0.5;" width="15" x="282.124" y="140"/><rect fill="#ADD8E6" height="2" style="stroke:#181818;stroke-width:0.5;" width="4" x="280.124" y="142"/><rect fill="#ADD8E6" height="2" style="stroke:#181818;stroke-width:0.5;" width="4" x="280.124" y="146"/><text fill="#000000" font-family="sans-serif" font-size="14" lengthAdjust="spacing" textLength="45.124" x="232" y="170.1074">Melt 1s</text></g><!--entity SCS--><g class="entity" data-entity="SCS" data-source-line="15" data-uid="ent0009" id="entity_SCS"><rect fill="#ADD8E6" height="48.6211" rx="2.5" ry="2.5" style="stroke:#181818;stroke-width:0.5;" width="238.4131" x="140.5" y="391"/><rect fill="#ADD8E6" height="10" style="stroke:#181818;stroke-width:0.5;" width="15" x="358.9131" y="396"/><rect fill="#ADD8E6" height="2" style="stroke:#181818;stroke-width:0.5;" width="4" x="356.9131" y="398"/><rect fill="#ADD8E6" height="2" style="stroke:#181818;stroke-width:0.5;" width="4" x="356.9131" y="402"/><text fill="#000000" font-family="sans-serif" font-size="14" lengthAdjust="spacing" textLength="198.4131" x="155.5" y="426.1074">Sludge from Crushed Crystal 1s</text></g><!--entity CCF--><g class="entity" data-entity="CCF" data-source-line="16" data-uid="ent0010" id="entity_CCF"><rect fill="#ADD8E6" height="48.6211" rx="2.5" ry="2.5" style="stroke:#181818;stroke-width:0.5;" width="120.1309" x="56.5" y="647"/><rect fill="#ADD8E6" height="10" style="stroke:#181818;stroke-width:0.5;" width="15" x="156.6309" y="652"/><rect fill="#ADD8E6" height="2" style="stroke:#181818;stroke-width:0.5;" width="4" x="154.6309" y="654"/><rect fill="#ADD8E6" height="2" style="stroke:#181818;stroke-width:0.5;" width="4" x="154.6309" y="658"/><text fill="#000000" font-family="sans-serif" font-size="14" lengthAdjust="spacing" textLength="80.1309" x="71.5" y="682.1074">Crystalise 4s</text></g><!--entity Cr--><g class="entity" data-entity="Cr" data-source-line="19" data-uid="ent0011" id="entity_Cr"><rect fill="#ADD8E6" height="48.6211" rx="2.5" ry="2.5" style="stroke:#181818;stroke-width:0.5;" width="170.6963" x="7" y="135"/><rect fill="#ADD8E6" height="10" style="stroke:#181818;stroke-width:0.5;" width="15" x="157.6963" y="140"/><rect fill="#ADD8E6" height="2" style="stroke:#181818;stroke-width:0.5;" width="4" x="155.6963" y="142"/><rect fill="#ADD8E6" height="2" style="stroke:#181818;stroke-width:0.5;" width="4" x="155.6963" y="146"/><text fill="#000000" font-family="sans-serif" font-size="14" lengthAdjust="spacing" textLength="130.6963" x="22" y="170.1074">Crush Crystal Ore 1s</text></g><!--link CO to Cr--><g class="link" data-entity-1="CO" data-entity-2="Cr" data-source-line="24" data-uid="lnk12" id="link_CO_Cr"><path d="M92.5,56.2 C92.5,78.73 92.5,106.42 92.5,128.91" fill="none" id="CO-to-Cr" style="stroke:#181818;stroke-width:1;"/><polygon fill="#181818" points="92.5,134.91,96.5,125.91,92.5,129.91,88.5,125.91,92.5,134.91" style="stroke:#181818;stroke-width:1;"/><text fill="#000000" font-family="sans-serif" font-size="13" lengthAdjust="spacing" textLength="7.23" x="93.5" y="101.0283">1</text></g><!--link Cr to CCr--><g class="link" data-entity-1="Cr" data-entity-2="CCr" data-source-line="25" data-uid="lnk13" id="link_Cr_CCr"><path d="M92.5,184.2 C92.5,206.73 92.5,234.42 92.5,256.91" fill="none" id="Cr-to-CCr" style="stroke:#181818;stroke-width:1;"/><polygon fill="#181818" points="92.5,262.91,96.5,253.91,92.5,257.91,88.5,253.91,92.5,262.91" style="stroke:#181818;stroke-width:1;"/><text fill="#000000" font-family="sans-serif" font-size="13" lengthAdjust="spacing" textLength="7.23" x="93.5" y="229.0283">2</text></g><!--link CCr to SCS--><g class="link" data-entity-1="CCr" data-entity-2="SCS" data-source-line="26" data-uid="lnk14" id="link_CCr_SCS"><path d="M123.91,312.2 C153.77,334.73 193.6302,364.8064 223.4402,387.2964" fill="none" id="CCr-to-SCS" style="stroke:#181818;stroke-width:1;"/><polygon fill="#181818" points="228.23,390.91,223.4544,382.2964,224.2385,387.8987,218.6363,388.6828,228.23,390.91" style="stroke:#181818;stroke-width:1;"/><text fill="#000000" font-family="sans-serif" font-size="13" lengthAdjust="spacing" textLength="14.46" x="187.5" y="357.0283">15</text></g><!--link I to Me--><g class="link" data-entity-1="I" data-entity-2="Me" data-source-line="27" data-uid="lnk15" id="link_I_Me"><path d="M259.5,56.2 C259.5,78.73 259.5,106.42 259.5,128.91" fill="none" id="I-to-Me" style="stroke:#181818;stroke-width:1;"/><polygon fill="#181818" points="259.5,134.91,263.5,125.91,259.5,129.91,255.5,125.91,259.5,134.91" style="stroke:#181818;stroke-width:1;"/><text fill="#000000" font-family="sans-serif" font-size="13" lengthAdjust="spacing" textLength="7.23" x="260.5" y="101.0283">1</text></g><!--link Me to W--><g class="link" data-entity-1="Me" data-entity-2="W" data-source-line="28" data-uid="lnk16" id="link_Me_W"><path d="M259.5,184.2 C259.5,206.73 259.5,234.42 259.5,256.91" fill="none" id="Me-to-W" style="stroke:#181818;stroke-width:1;"/><polygon fill="#181818" points="259.5,262.91,263.5,253.91,259.5,257.91,255.5,253.91,259.5,262.91" style="stroke:#181818;stroke-width:1;"/><text fill="#000000" font-family="sans-serif" font-size="13" lengthAdjust="spacing" textLength="14.46" x="260.5" y="229.0283">20</text></g><!--link W to SCS--><g class="link" data-entity-1="W" data-entity-2="SCS" data-source-line="29" data-uid="lnk17" id="link_W_SCS"><path d="M259.5,312.2 C259.5,334.73 259.5,362.42 259.5,384.91" fill="none" id="W-to-SCS" style="stroke:#181818;stroke-width:1;"/><polygon fill="#181818" points="259.5,390.91,263.5,381.91,259.5,385.91,255.5,381.91,259.5,390.91" style="stroke:#181818;stroke-width:1;"/><text fill="#000000" font-family="sans-serif" font-size="13" lengthAdjust="spacing" textLength="14.46" x="260.5" y="357.0283">20</text></g><!--link SCS to CS--><g class="link" data-entity-1="SCS" data-entity-2="CS" data-source-line="30" data-uid="lnk18" id="link_SCS_CS"><path d="M254.05,440.2 C248.86,462.73 242.4567,490.5731 237.2767,513.0631" fill="none" id="SCS-to-CS" style="stroke:#181818;stroke-width:1;"/><polygon fill="#181818" points="235.93,518.91,241.848,511.0374,237.0522,514.0376,234.0521,509.2418,235.93,518.91" style="stroke:#181818;stroke-width:1;"/><text fill="#000000" font-family="sans-serif" font-size="13" lengthAdjust="spacing" textLength="14.46" x="248.5" y="485.0283">20</text></g><!--link CS to CCF--><g class="link" data-entity-1="CS" data-entity-2="CCF" data-source-line="31" data-uid="lnk19" id="link_CS_CCF"><path d="M209.06,568.2 C188.68,590.73 162.2257,619.971 141.8757,642.461" fill="none" id="CS-to-CCF" style="stroke:#181818;stroke-width:1;"/><polygon fill="#181818" points="137.85,646.91,146.8545,642.9203,141.2047,643.2025,140.9225,637.5527,137.85,646.91" style="stroke:#181818;stroke-width:1;"/><text fill="#000000" font-family="sans-serif" font-size="13" lengthAdjust="spacing" textLength="14.46" x="181.5" y="613.0283">16</text></g><!--link CCF to C--><g class="link" data-entity-1="CCF" data-entity-2="C" data-source-line="32" data-uid="lnk20" id="link_CCF_C"><path d="M116.5,696.2 C116.5,718.73 116.5,746.42 116.5,768.91" fill="none" id="CCF-to-C" style="stroke:#181818;stroke-width:1;"/><polygon fill="#181818" points="116.5,774.91,120.5,765.91,116.5,769.91,112.5,765.91,116.5,774.91" style="stroke:#181818;stroke-width:1;"/><text fill="#000000" font-family="sans-serif" font-size="13" lengthAdjust="spacing" textLength="36.8608" x="117.5" y="741.0283">75% 8</text></g><!--link CCF to CCr--><g class="link" data-entity-1="CCF" data-entity-2="CCr" data-source-line="33" data-uid="lnk21" id="link_CCF_CCr"><path d="M115,646.56 C110.68,577.83 98.6569,386.4182 94.3569,318.0982" fill="none" id="CCF-to-CCr" style="stroke:#181818;stroke-width:1;"/><polygon fill="#181818" points="93.98,312.11,90.5532,321.3435,94.2941,317.1001,98.5374,320.841,93.98,312.11" style="stroke:#181818;stroke-width:1;"/><text fill="#000000" font-family="sans-serif" font-size="13" lengthAdjust="spacing" textLength="36.8608" x="106.5" y="485.0283">25% 2</text></g><!--SRC=[NL2vRiCm3Dtv5GIAZ06I86c33bq41F0GPF3WmUZWsgmbH3b0oKF-ljHXsEualeFaexJf26_azQDpe0FuDMJ7kZNSMWAe5R-SRonUcBwnSQWk-6PDh_tJtAz17foc3hCjMHHFVQKTc5-9Bw4ksZIcM4of6ayS-MfQcNgohsUYksXdiXwtBcfdokAF7GXgsTJrSWK_RlWlrjXHgdBHacNZ2FSkPp_D7P0lnDatZCCKBvq0yZVhzLSGFd4ByaGKuGvKnY63o0Se8fGZWbcUWAfWtK0rSmeCHHoLyGWbg_I-GoWY8V3ZiCBZnAJbmkrYmZy0]--></g></svg>