<svg xmlns="http://www.w3.org/2000/svg" xmlns:xlink="http://www.w3.org/1999/xlink" contentStyleType="text/css" data-diagram-type="DESCRIPTION" height="444px" preserveAspectRatio="none" style="width:884px;height:444px;background:#FFFFFF;" version="1.1" viewBox="0 0 884 444" width="884.8px" zoomAndPan="magnify"><defs/><g><!--entity R--><g class="entity" data-entity="R" data-source-line="6" data-uid="ent0002" id="entity_R"><rect fill="#FFB6C1" height="38.8969" rx="2" ry="2" style="stroke:#181818;stroke-width:0.4;" width="57.5172" x="341.6" y="5.6"/><rect fill="#FFB6C1" height="8" style="stroke:#181818;stroke-width:0.4;" width="12" x="383.1172" y="9.6"/><rect fill="#FFB6C1" height="1.6" style="stroke:#181818;stroke-width:0.4;" width="3.2" x="381.5172" y="11.2"/><rect fill="#FFB6C1" height="1.6" style="stroke:#181818;stroke-width:0.4;" width="3.2" x="381.5172" y="14.4"/><text fill="#000000" font-family="sans-serif" font-size="11.2" lengthAdjust="spacing" textLength="25.5172" x="353.6" y="33.6859">Rock</text></g><!--entity I--><g class="entity" data-entity="I" data-source-line="7" data-uid="ent0003" id="entity_I"><rect fill="#FFB6C1" height="38.8969" rx="2" ry="2" style="stroke:#181818;stroke-width:0.4;" width="46.9406" x="679.6" y="5.6"/><rect fill="#FFB6C1" height="8" style="stroke:#181818;stroke-width:0.4;" width="12" x="710.5406" y="9.6"/><rect fill="#FFB6C1" height="1.6" style="stroke:#181818;stroke-width:0.4;" width="3.2" x="708.9406" y="11.2"/><rect fill="#FFB6C1" height="1.6" style="stroke:#181818;stroke-width:0.4;" width="3.2" x="708.9406" y="14.4"/><text fill="#000000" font-family="sans-serif" font-size="11.2" lengthAdjust="spacing" textLength="14.9406" x="691.6" y="33.6859">Ice</text></g><!--entity C--><g class="entity" data-entity="C" data-source-line="9" data-uid="ent0004" id="entity_C"><rect fill="#F1F1F1" height="38.8969" rx="2" ry="2" style="stroke:#181818;stroke-width:0.4;" width="66.8469" x="444" y="196"/><rect fill="#F1F1F1" height="8" style="stroke:#181818;stroke-width:0.4;" width="12" x="494.8469" y="200"/><rect fill="#F1F1F1" height="1.6" style="stroke:#181818;stroke-width:0.4;" width="3.2" x="493.2469" y="201.6"/><rect fill="#F1F1F1" height="1.6" style="stroke:#181818;stroke-width:0.4;" width="3.2" x="493.2469" y="204.8"/><text fill="#000000" font-family="sans-serif" font-size="11.2" lengthAdjust="spacing" textLength="34.8469" x="456" y="224.0859">Crystal</text></g><!--entity RC--><g class="entity" data-entity="RC" data-source-line="10" data-uid="ent0005" id="entity_RC"><rect fill="#F1F1F1" height="38.8969" rx="2" ry="2" style="stroke:#181818;stroke-width:0.4;" width="90.5047" x="325.2" y="196"/><rect fill="#F1F1F1" height="8" style="stroke:#181818;stroke-width:0.4;" width="12" x="399.7047" y="200"/><rect fill="#F1F1F1" height="1.6" style="stroke:#181818;stroke-width:0.4;" width="3.2" x="398.1047" y="201.6"/><rect fill="#F1F1F1" height="1.6" style="stroke:#181818;stroke-width:0.4;" width="3.2" x="398.1047" y="204.8"/><text fill="#000000" font-family="sans-serif" font-size="11.2" lengthAdjust="spacing" textLength="58.5047" x="337.2" y="224.0859">Red Crystal</text></g><!--entity GC--><g class="entity" data-entity="GC" data-source-line="11" data-uid="ent0006" id="entity_GC"><rect fill="#F1F1F1" height="38.8969" rx="2" ry="2" style="stroke:#181818;stroke-width:0.4;" width="101.0867" x="56" y="196"/><rect fill="#F1F1F1" height="8" style="stroke:#181818;stroke-width:0.4;" width="12" x="141.0867" y="200"/><rect fill="#F1F1F1" height="1.6" style="stroke:#181818;stroke-width:0.4;" width="3.2" x="139.4867" y="201.6"/><rect fill="#F1F1F1" height="1.6" style="stroke:#181818;stroke-width:0.4;" width="3.2" x="139.4867" y="204.8"/><text fill="#000000" font-family="sans-serif" font-size="11.2" lengthAdjust="spacing" textLength="69.0867" x="68" y="224.0859">Green Crystal</text></g><!--entity BC--><g class="entity" data-entity="BC" data-source-line="12" data-uid="ent0007" id="entity_BC"><rect fill="#F1F1F1" height="38.8969" rx="2" ry="2" style="stroke:#181818;stroke-width:0.4;" width="92.375" x="539.6" y="196"/><rect fill="#F1F1F1" height="8" style="stroke:#181818;stroke-width:0.4;" width="12" x="615.975" y="200"/><rect fill="#F1F1F1" height="1.6" style="stroke:#181818;stroke-width:0.4;" width="3.2" x="614.375" y="201.6"/><rect fill="#F1F1F1" height="1.6" style="stroke:#181818;stroke-width:0.4;" width="3.2" x="614.375" y="204.8"/><text fill="#000000" font-family="sans-serif" font-size="11.2" lengthAdjust="spacing" textLength="60.375" x="551.6" y="224.0859">Blue Crystal</text></g><!--entity CCr--><g class="entity" data-entity="CCr" data-source-line="13" data-uid="ent0008" id="entity_CCr"><rect fill="#90EE90" height="38.8969" rx="2" ry="2" style="stroke:#181818;stroke-width:0.4;" width="112.2922" x="184.8" y="196"/><rect fill="#90EE90" height="8" style="stroke:#181818;stroke-width:0.4;" width="12" x="281.0922" y="200"/><rect fill="#90EE90" height="1.6" style="stroke:#181818;stroke-width:0.4;" width="3.2" x="279.4922" y="201.6"/><rect fill="#90EE90" height="1.6" style="stroke:#181818;stroke-width:0.4;" width="3.2" x="279.4922" y="204.8"/><text fill="#000000" font-family="sans-serif" font-size="11.2" lengthAdjust="spacing" textLength="80.2922" x="196.8" y="224.0859">Crushed Crystal</text></g><!--entity FE--><g class="entity" data-entity="FE" data-source-line="15" data-uid="ent0009" id="entity_FE"><rect fill="#90EE90" height="38.8969" rx="2" ry="2" style="stroke:#181818;stroke-width:0.4;" width="73.0813" x="781.2" y="400.8"/><rect fill="#90EE90" height="8" style="stroke:#181818;stroke-width:0.4;" width="12" x="838.2813" y="404.8"/><rect fill="#90EE90" height="1.6" style="stroke:#181818;stroke-width:0.4;" width="3.2" x="836.6813" y="406.4"/><rect fill="#90EE90" height="1.6" style="stroke:#181818;stroke-width:0.4;" width="3.2" x="836.6813" y="409.6"/><text fill="#000000" font-family="sans-serif" font-size="11.2" lengthAdjust="spacing" textLength="41.0813" x="793.2" y="428.8859">Iron Ore</text></g><!--entity CU--><g class="entity" data-entity="CU" data-source-line="16" data-uid="ent0010" id="entity_CU"><rect fill="#90EE90" height="38.8969" rx="2" ry="2" style="stroke:#181818;stroke-width:0.4;" width="90.5156" x="488.4" y="400.8"/><rect fill="#90EE90" height="8" style="stroke:#181818;stroke-width:0.4;" width="12" x="562.9156" y="404.8"/><rect fill="#90EE90" height="1.6" style="stroke:#181818;stroke-width:0.4;" width="3.2" x="561.3156" y="406.4"/><rect fill="#90EE90" height="1.6" style="stroke:#181818;stroke-width:0.4;" width="3.2" x="561.3156" y="409.6"/><text fill="#000000" font-family="sans-serif" font-size="11.2" lengthAdjust="spacing" textLength="58.5156" x="500.4" y="428.8859">Copper Ore</text></g><!--entity S--><g class="entity" data-entity="S" data-source-line="17" data-uid="ent0011" id="entity_S"><rect fill="#90EE90" height="38.8969" rx="2" ry="2" style="stroke:#181818;stroke-width:0.4;" width="61.2688" x="18" y="400.8"/><rect fill="#90EE90" height="8" style="stroke:#181818;stroke-width:0.4;" width="12" x="63.2688" y="404.8"/><rect fill="#90EE90" height="1.6" style="stroke:#181818;stroke-width:0.4;" width="3.2" x="61.6688" y="406.4"/><rect fill="#90EE90" height="1.6" style="stroke:#181818;stroke-width:0.4;" width="3.2" x="61.6688" y="409.6"/><text fill="#000000" font-family="sans-serif" font-size="11.2" lengthAdjust="spacing" textLength="29.2688" x="30" y="428.8859">Stone</text></g><!--entity Ca--><g class="entity" data-entity="Ca" data-source-line="18" data-uid="ent0012" id="entity_Ca"><rect fill="#90EE90" height="38.8969" rx="2" ry="2" style="stroke:#181818;stroke-width:0.4;" width="55.0344" x="675.6" y="400.8"/><rect fill="#90EE90" height="8" style="stroke:#181818;stroke-width:0.4;" width="12" x="714.6344" y="404.8"/><rect fill="#90EE90" height="1.6" style="stroke:#181818;stroke-width:0.4;" width="3.2" x="713.0344" y="406.4"/><rect fill="#90EE90" height="1.6" style="stroke:#181818;stroke-width:0.4;" width="3.2" x="713.0344" y="409.6"/><text fill="#000000" font-family="sans-serif" font-size="11.2" lengthAdjust="spacing" textLength="23.0344" x="687.6" y="428.8859">Coal</text></g><!--entity MR--><g class="entity" data-entity="MR" data-source-line="20" data-uid="ent0013" id="entity_MR"><rect fill="#ADD8E6" height="38.8969" rx="2" ry="2" style="stroke:#181818;stroke-width:0.4;" width="56.2758" x="342.4" y="93.6"/><rect fill="#ADD8E6" height="8" style="stroke:#181818;stroke-width:0.4;" width="12" x="382.6758" y="97.6"/><rect fill="#ADD8E6" height="1.6" style="stroke:#181818;stroke-width:0.4;" width="3.2" x="381.0758" y="99.2"/><rect fill="#ADD8E6" height="1.6" style="stroke:#181818;stroke-width:0.4;" width="3.2" x="381.0758" y="102.4"/><text fill="#000000" font-family="sans-serif" font-size="11.2" lengthAdjust="spacing" textLength="24.2758" x="354.4" y="121.6859">Mine</text></g><!--entity DC--><g class="entity" data-entity="DC" data-source-line="21" data-uid="ent0014" id="entity_DC"><rect fill="#ADD8E6" height="38.8969" rx="2" ry="2" style="stroke:#181818;stroke-width:0.4;" width="86.7805" x="660" y="298.4"/><rect fill="#ADD8E6" height="8" style="stroke:#181818;stroke-width:0.4;" width="12" x="730.7805" y="302.4"/><rect fill="#ADD8E6" height="1.6" style="stroke:#181818;stroke-width:0.4;" width="3.2" x="729.1805" y="304"/><rect fill="#ADD8E6" height="1.6" style="stroke:#181818;stroke-width:0.4;" width="3.2" x="729.1805" y="307.2"/><text fill="#000000" font-family="sans-serif" font-size="11.2" lengthAdjust="spacing" textLength="54.7805" x="672" y="326.4859">Destabilize</text></g><!--entity DRC--><g class="entity" data-entity="DRC" data-source-line="22" data-uid="ent0015" id="entity_DRC"><rect fill="#ADD8E6" height="38.8969" rx="2" ry="2" style="stroke:#181818;stroke-width:0.4;" width="86.7805" x="490.4" y="298.4"/><rect fill="#ADD8E6" height="8" style="stroke:#181818;stroke-width:0.4;" width="12" x="561.1805" y="302.4"/><rect fill="#ADD8E6" height="1.6" style="stroke:#181818;stroke-width:0.4;" width="3.2" x="559.5805" y="304"/><rect fill="#ADD8E6" height="1.6" style="stroke:#181818;stroke-width:0.4;" width="3.2" x="559.5805" y="307.2"/><text fill="#000000" font-family="sans-serif" font-size="11.2" lengthAdjust="spacing" textLength="54.7805" x="502.4" y="326.4859">Destabilize</text></g><!--entity DGC--><g class="entity" data-entity="DGC" data-source-line="23" data-uid="ent0016" id="entity_DGC"><rect fill="#ADD8E6" height="38.8969" rx="2" ry="2" style="stroke:#181818;stroke-width:0.4;" width="86.7805" x="5.6" y="298.4"/><rect fill="#ADD8E6" height="8" style="stroke:#181818;stroke-width:0.4;" width="12" x="76.3805" y="302.4"/><rect fill="#ADD8E6" height="1.6" style="stroke:#181818;stroke-width:0.4;" width="3.2" x="74.7805" y="304"/><rect fill="#ADD8E6" height="1.6" style="stroke:#181818;stroke-width:0.4;" width="3.2" x="74.7805" y="307.2"/><text fill="#000000" font-family="sans-serif" font-size="11.2" lengthAdjust="spacing" textLength="54.7805" x="17.6" y="326.4859">Destabilize</text></g><!--entity DBC--><g class="entity" data-entity="DBC" data-source-line="24" data-uid="ent0017" id="entity_DBC"><rect fill="#ADD8E6" height="38.8969" rx="2" ry="2" style="stroke:#181818;stroke-width:0.4;" width="86.7805" x="774.4" y="298.4"/><rect fill="#ADD8E6" height="8" style="stroke:#181818;stroke-width:0.4;" width="12" x="845.1805" y="302.4"/><rect fill="#ADD8E6" height="1.6" style="stroke:#181818;stroke-width:0.4;" width="3.2" x="843.5805" y="304"/><rect fill="#ADD8E6" height="1.6" style="stroke:#181818;stroke-width:0.4;" width="3.2" x="843.5805" y="307.2"/><text fill="#000000" font-family="sans-serif" font-size="11.2" lengthAdjust="spacing" textLength="54.7805" x="786.4" y="326.4859">Destabilize</text></g><!--link R to MR--><g class="link" data-entity-1="R" data-entity-2="MR" data-source-line="27" data-uid="lnk18" id="link_R_MR"><path d="M370.4,44.96 C370.4,59.368 370.4,74.288 370.4,88.68" fill="none" id="R-to-MR" style="stroke:#181818;stroke-width:0.8;"/><polygon fill="#181818" points="370.4,93.48,373.6,86.28,370.4,89.48,367.2,86.28,370.4,93.48" style="stroke:#181818;stroke-width:0.8;"/></g><!--link MR to C--><g class="link" data-entity-1="MR" data-entity-2="C" data-source-line="28" data-uid="lnk19" id="link_MR_C"><path d="M390.56,132.96 C409.728,150.984 434.895,174.648 454.031,192.64" fill="none" id="MR-to-C" style="stroke:#181818;stroke-width:0.8;"/><polygon fill="#181818" points="457.528,195.928,454.4744,188.6647,454.6138,193.188,450.0905,193.3274,457.528,195.928" style="stroke:#181818;stroke-width:0.8;"/><text fill="#000000" font-family="sans-serif" font-size="10.4" lengthAdjust="spacing" textLength="5.784" x="431.2" y="168.8227">5</text></g><!--link MR to RC--><g class="link" data-entity-1="MR" data-entity-2="RC" data-source-line="29" data-uid="lnk20" id="link_MR_RC"><path d="M370.4,132.96 C370.4,150.984 370.4,173.136 370.4,191.128" fill="none" id="MR-to-RC" style="stroke:#181818;stroke-width:0.8;"/><polygon fill="#181818" points="370.4,195.928,373.6,188.728,370.4,191.928,367.2,188.728,370.4,195.928" style="stroke:#181818;stroke-width:0.8;"/><text fill="#000000" font-family="sans-serif" font-size="10.4" lengthAdjust="spacing" textLength="11.568" x="371.2" y="168.8227">10</text></g><!--link MR to GC--><g class="link" data-entity-1="MR" data-entity-2="GC" data-source-line="30" data-uid="lnk21" id="link_MR_GC"><path d="M342.4,124.688 C298.008,141.64 215.3723,173.1919 160.3083,194.2159" fill="none" id="MR-to-GC" style="stroke:#181818;stroke-width:0.8;"/><polygon fill="#181818" points="155.824,195.928,163.6918,196.3493,159.5609,194.5012,161.409,190.3703,155.824,195.928" style="stroke:#181818;stroke-width:0.8;"/><text fill="#000000" font-family="sans-serif" font-size="10.4" lengthAdjust="spacing" textLength="11.568" x="255.2" y="168.8227">10</text></g><!--link MR to BC--><g class="link" data-entity-1="MR" data-entity-2="BC" data-source-line="31" data-uid="lnk22" id="link_MR_BC"><path d="M398.536,127.176 C436.016,144.736 498.2212,173.876 541.0052,193.916" fill="none" id="MR-to-BC" style="stroke:#181818;stroke-width:0.8;"/><polygon fill="#181818" points="545.352,195.952,540.1892,190.0001,541.7297,194.2553,537.4745,195.7958,545.352,195.952" style="stroke:#181818;stroke-width:0.8;"/><text fill="#000000" font-family="sans-serif" font-size="10.4" lengthAdjust="spacing" textLength="11.568" x="491.2" y="168.8227">25</text></g><!--link MR to CCr--><g class="link" data-entity-1="MR" data-entity-2="CCr" data-source-line="32" data-uid="lnk23" id="link_MR_CCr"><path d="M346.024,132.96 C322.856,150.984 291.9891,174.9894 268.8531,192.9814" fill="none" id="MR-to-CCr" style="stroke:#181818;stroke-width:0.8;"/><polygon fill="#181818" points="265.064,195.928,272.7121,194.0341,268.2216,193.4725,268.7832,188.982,265.064,195.928" style="stroke:#181818;stroke-width:0.8;"/><text fill="#000000" font-family="sans-serif" font-size="10.4" lengthAdjust="spacing" textLength="11.568" x="314.4" y="168.8227">50</text></g><!--link C to DC--><g class="link" data-entity-1="C" data-entity-2="DC" data-source-line="34" data-uid="lnk24" id="link_C_DC"><path d="M511.376,231.488 C551.32,249.344 613.4655,277.1061 656.7295,296.4341" fill="none" id="C-to-DC" style="stroke:#181818;stroke-width:0.8;"/><polygon fill="#181818" points="661.112,298.392,655.8434,292.5335,657.4599,296.7604,653.2329,298.3769,661.112,298.392" style="stroke:#181818;stroke-width:0.8;"/><text fill="#000000" font-family="sans-serif" font-size="10.4" lengthAdjust="spacing" textLength="5.784" x="604" y="271.2227">1</text></g><!--link I to DC--><g class="link" data-entity-1="I" data-entity-2="DC" data-source-line="35" data-uid="lnk25" id="link_I_DC"><path d="M703.2,44.88 C703.2,97.56 703.2,240.928 703.2,293.56" fill="none" id="I-to-DC" style="stroke:#181818;stroke-width:0.8;"/><polygon fill="#181818" points="703.2,298.36,706.4,291.16,703.2,294.36,700,291.16,703.2,298.36" style="stroke:#181818;stroke-width:0.8;"/><text fill="#000000" font-family="sans-serif" font-size="10.4" lengthAdjust="spacing" textLength="5.784" x="704" y="168.8227">1</text></g><!--link DC to Ca--><g class="link" data-entity-1="DC" data-entity-2="Ca" data-source-line="36" data-uid="lnk26" id="link_DC_Ca"><path d="M703.2,337.76 C703.2,355.784 703.2,377.936 703.2,395.928" fill="none" id="DC-to-Ca" style="stroke:#181818;stroke-width:0.8;"/><polygon fill="#181818" points="703.2,400.728,706.4,393.528,703.2,396.728,700,393.528,703.2,400.728" style="stroke:#181818;stroke-width:0.8;"/><text fill="#000000" font-family="sans-serif" font-size="10.4" lengthAdjust="spacing" textLength="60.125" x="704" y="373.6227">3 take 5 dmg</text></g><!--link RC to DRC--><g class="link" data-entity-1="RC" data-entity-2="DRC" data-source-line="38" data-uid="lnk27" id="link_RC_DRC"><path d="M401.096,235.36 C430.272,253.384 469.8282,277.8135 498.9562,295.8055" fill="none" id="RC-to-DRC" style="stroke:#181818;stroke-width:0.8;"/><polygon fill="#181818" points="503.04,298.328,498.596,291.8218,499.6369,296.2259,495.2327,297.2668,503.04,298.328" style="stroke:#181818;stroke-width:0.8;"/><text fill="#000000" font-family="sans-serif" font-size="10.4" lengthAdjust="spacing" textLength="5.784" x="462.4" y="271.2227">1</text></g><!--link I to DRC--><g class="link" data-entity-1="I" data-entity-2="DRC" data-source-line="39" data-uid="lnk28" id="link_I_DRC"><path d="M699.672,44.808 C690.92,90.064 667.36,203.648 645.6,235.2 C626.784,262.48 600.0302,281.7142 575.4462,295.8902" fill="none" id="I-to-DRC" style="stroke:#181818;stroke-width:0.8;"/><polygon fill="#181818" points="571.288,298.288,579.1238,297.4635,574.7532,296.2899,575.9268,291.9192,571.288,298.288" style="stroke:#181818;stroke-width:0.8;"/><text fill="#000000" font-family="sans-serif" font-size="10.4" lengthAdjust="spacing" textLength="5.784" x="674.4" y="168.8227">1</text></g><!--link DRC to CU--><g class="link" data-entity-1="DRC" data-entity-2="CU" data-source-line="40" data-uid="lnk29" id="link_DRC_CU"><path d="M533.6,337.76 C533.6,355.784 533.6,377.936 533.6,395.928" fill="none" id="DRC-to-CU" style="stroke:#181818;stroke-width:0.8;"/><polygon fill="#181818" points="533.6,400.728,536.8,393.528,533.6,396.728,530.4,393.528,533.6,400.728" style="stroke:#181818;stroke-width:0.8;"/><text fill="#000000" font-family="sans-serif" font-size="10.4" lengthAdjust="spacing" textLength="60.125" x="534.4" y="373.6227">1 take 5 dmg</text></g><!--link BC to DBC--><g class="link" data-entity-1="BC" data-entity-2="DBC" data-source-line="42" data-uid="lnk30" id="link_BC_DBC"><path d="M628.968,235.24 C670.408,253.248 728.1496,278.3353 769.6536,296.3673" fill="none" id="BC-to-DBC" style="stroke:#181818;stroke-width:0.8;"/><polygon fill="#181818" points="774.056,298.28,768.7275,292.476,770.3873,296.6861,766.1772,298.3459,774.056,298.28" style="stroke:#181818;stroke-width:0.8;"/><text fill="#000000" font-family="sans-serif" font-size="10.4" lengthAdjust="spacing" textLength="5.784" x="716" y="271.2227">1</text></g><!--link I to DBC--><g class="link" data-entity-1="I" data-entity-2="DBC" data-source-line="43" data-uid="lnk31" id="link_I_DBC"><path d="M712.896,45 C716.536,52.368 720.6,60.904 724,68.8 C760.248,153.04 795.1394,251.8782 809.5714,293.7342" fill="none" id="I-to-DBC" style="stroke:#181818;stroke-width:0.8;"/><polygon fill="#181818" points="811.136,298.272,811.8142,290.4222,809.8321,294.4905,805.7638,292.5084,811.136,298.272" style="stroke:#181818;stroke-width:0.8;"/><text fill="#000000" font-family="sans-serif" font-size="10.4" lengthAdjust="spacing" textLength="5.784" x="764.8" y="168.8227">1</text></g><!--link DBC to FE--><g class="link" data-entity-1="DBC" data-entity-2="FE" data-source-line="44" data-uid="lnk32" id="link_DBC_FE"><path d="M817.6,337.76 C817.6,355.784 817.6,377.936 817.6,395.928" fill="none" id="DBC-to-FE" style="stroke:#181818;stroke-width:0.8;"/><polygon fill="#181818" points="817.6,400.728,820.8,393.528,817.6,396.728,814.4,393.528,817.6,400.728" style="stroke:#181818;stroke-width:0.8;"/><text fill="#000000" font-family="sans-serif" font-size="10.4" lengthAdjust="spacing" textLength="60.125" x="818.4" y="373.6227">1 take 5 dmg</text></g><!--link GC to DGC--><g class="link" data-entity-1="GC" data-entity-2="DGC" data-source-line="46" data-uid="lnk33" id="link_GC_DGC"><path d="M95.568,235.36 C85.264,253.384 72.2453,276.1683 61.9653,294.1603" fill="none" id="GC-to-DGC" style="stroke:#181818;stroke-width:0.8;"/><polygon fill="#181818" points="59.584,298.328,65.9344,293.664,61.5684,294.8549,60.3774,290.489,59.584,298.328" style="stroke:#181818;stroke-width:0.8;"/><text fill="#000000" font-family="sans-serif" font-size="10.4" lengthAdjust="spacing" textLength="5.784" x="82.4" y="271.2227">1</text></g><!--link I to DGC--><g class="link" data-entity-1="I" data-entity-2="DGC" data-source-line="47" data-uid="lnk34" id="link_I_DGC"><path d="M679.464,28.112 C570.272,38.368 118.352,87.048 41.6,196 C20.176,226.416 30.0873,267.9873 39.3273,293.6753" fill="none" id="I-to-DGC" style="stroke:#181818;stroke-width:0.8;"/><polygon fill="#181818" points="40.952,298.192,41.5261,290.3339,39.5981,294.4281,35.5039,292.5001,40.952,298.192" style="stroke:#181818;stroke-width:0.8;"/><text fill="#000000" font-family="sans-serif" font-size="10.4" lengthAdjust="spacing" textLength="5.784" x="88.8" y="168.8227">1</text></g><!--link DGC to S--><g class="link" data-entity-1="DGC" data-entity-2="S" data-source-line="48" data-uid="lnk35" id="link_DGC_S"><path d="M48.8,337.76 C48.8,355.784 48.8,377.936 48.8,395.928" fill="none" id="DGC-to-S" style="stroke:#181818;stroke-width:0.8;"/><polygon fill="#181818" points="48.8,400.728,52,393.528,48.8,396.728,45.6,393.528,48.8,400.728" style="stroke:#181818;stroke-width:0.8;"/><text fill="#000000" font-family="sans-serif" font-size="10.4" lengthAdjust="spacing" textLength="60.125" x="49.6" y="373.6227">1 take 5 dmg</text></g><!--SRC=[XP6nReCm48PtFyL9dIEbhR9aw83TM0oeab4dr8705ImSG8OCxTFt32QAFJIR__ly-KxdLjS85vpRePvOwyAtHhETAsqhWumLQgYwBoWdKF1aTDFEe-uxLgGLBjNqlieARd-ckJGBuYHZ3VSbHJLf4VkWAgcQc2i6nOIxrwvJ6pt1kVKj6_SGzKpjqCE7NUSvlGUquCCuehrX_XdYV1xwbUInj_KhetQPzaQsRUHCixD28CruraR_hbZm_x5wmEK3dWISCGMxtHiDnRBrnE48XoqebvxtMvHXJ5nykLrsAoPtpnXVibXkivJ2NHGhfFqSuHNciaCuG7rfQ1AlgSZpMNXEVq4nC1Dl9f7fi_2SFZasfJTbPFeiFCyZyGy0]--></g></svg>