<svg xmlns="http://www.w3.org/2000/svg" xmlns:xlink="http://www.w3.org/1999/xlink" contentStyleType="text/css" data-diagram-type="DESCRIPTION" height="555px" preserveAspectRatio="none" style="width:1127px;height:555px;background:#FFFFFF;" version="1.1" viewBox="0 0 1127 555" width="1127px" zoomAndPan="magnify"><defs/><g><!--entity R--><g class="entity" data-entity="R" data-source-line="6" data-uid="ent0002" id="entity_R"><rect fill="#FFB6C1" height="48.6211" rx="2.5" ry="2.5" style="stroke:#181818;stroke-width:0.5;" width="71.8965" x="497.5" y="7"/><rect fill="#FFB6C1" height="10" style="stroke:#181818;stroke-width:0.5;" width="15" x="549.3965" y="12"/><rect fill="#FFB6C1" height="2" style="stroke:#181818;stroke-width:0.5;" width="4" x="547.3965" y="14"/><rect fill="#FFB6C1" height="2" style="stroke:#181818;stroke-width:0.5;" width="4" x="547.3965" y="18"/><text fill="#000000" font-family="sans-serif" font-size="14" lengthAdjust="spacing" textLength="31.8965" x="512.5" y="42.1074">Rock</text></g><!--entity I1--><g class="entity" data-entity="I1" data-source-line="7" data-uid="ent0003" id="entity_I1"><rect fill="#FFB6C1" height="48.6211" rx="2.5" ry="2.5" style="stroke:#181818;stroke-width:0.5;" width="58.6758" x="7" y="245"/><rect fill="#FFB6C1" height="10" style="stroke:#181818;stroke-width:0.5;" width="15" x="45.6758" y="250"/><rect fill="#FFB6C1" height="2" style="stroke:#181818;stroke-width:0.5;" width="4" x="43.6758" y="252"/><rect fill="#FFB6C1" height="2" style="stroke:#181818;stroke-width:0.5;" width="4" x="43.6758" y="256"/><text fill="#000000" font-family="sans-serif" font-size="14" lengthAdjust="spacing" textLength="18.6758" x="22" y="280.1074">Ice</text></g><!--entity I2--><g class="entity" data-entity="I2" data-source-line="8" data-uid="ent0004" id="entity_I2"><rect fill="#FFB6C1" height="48.6211" rx="2.5" ry="2.5" style="stroke:#181818;stroke-width:0.5;" width="58.6758" x="369" y="245"/><rect fill="#FFB6C1" height="10" style="stroke:#181818;stroke-width:0.5;" width="15" x="407.6758" y="250"/><rect fill="#FFB6C1" height="2" style="stroke:#181818;stroke-width:0.5;" width="4" x="405.6758" y="252"/><rect fill="#FFB6C1" height="2" style="stroke:#181818;stroke-width:0.5;" width="4" x="405.6758" y="256"/><text fill="#000000" font-family="sans-serif" font-size="14" lengthAdjust="spacing" textLength="18.6758" x="384" y="280.1074">Ice</text></g><!--entity I3--><g class="entity" data-entity="I3" data-source-line="9" data-uid="ent0005" id="entity_I3"><rect fill="#FFB6C1" height="48.6211" rx="2.5" ry="2.5" style="stroke:#181818;stroke-width:0.5;" width="58.6758" x="1045" y="245"/><rect fill="#FFB6C1" height="10" style="stroke:#181818;stroke-width:0.5;" width="15" x="1083.6758" y="250"/><rect fill="#FFB6C1" height="2" style="stroke:#181818;stroke-width:0.5;" width="4" x="1081.6758" y="252"/><rect fill="#FFB6C1" height="2" style="stroke:#181818;stroke-width:0.5;" width="4" x="1081.6758" y="256"/><text fill="#000000" font-family="sans-serif" font-size="14" lengthAdjust="spacing" textLength="18.6758" x="1060" y="280.1074">Ice</text></g><!--entity I4--><g class="entity" data-entity="I4" data-source-line="10" data-uid="ent0006" id="entity_I4"><rect fill="#FFB6C1" height="48.6211" rx="2.5" ry="2.5" style="stroke:#181818;stroke-width:0.5;" width="58.6758" x="639" y="245"/><rect fill="#FFB6C1" height="10" style="stroke:#181818;stroke-width:0.5;" width="15" x="677.6758" y="250"/><rect fill="#FFB6C1" height="2" style="stroke:#181818;stroke-width:0.5;" width="4" x="675.6758" y="252"/><rect fill="#FFB6C1" height="2" style="stroke:#181818;stroke-width:0.5;" width="4" x="675.6758" y="256"/><text fill="#000000" font-family="sans-serif" font-size="14" lengthAdjust="spacing" textLength="18.6758" x="654" y="280.1074">Ice</text></g><!--entity C--><g class="entity" data-entity="C" data-source-line="12" data-uid="ent0007" id="entity_C"><rect fill="#F1F1F1" height="48.6211" rx="2.5" ry="2.5" style="stroke:#181818;stroke-width:0.5;" width="83.5586" x="101.5" y="245"/><rect fill="#F1F1F1" height="10" style="stroke:#181818;stroke-width:0.5;" width="15" x="165.0586" y="250"/><rect fill="#F1F1F1" height="2" style="stroke:#181818;stroke-width:0.5;" width="4" x="163.0586" y="252"/><rect fill="#F1F1F1" height="2" style="stroke:#181818;stroke-width:0.5;" width="4" x="163.0586" y="256"/><text fill="#000000" font-family="sans-serif" font-size="14" lengthAdjust="spacing" textLength="43.5586" x="116.5" y="280.1074">Crystal</text></g><!--entity RC--><g class="entity" data-entity="RC" data-source-line="13" data-uid="ent0008" id="entity_RC"><rect fill="#F1F1F1" height="48.6211" rx="2.5" ry="2.5" style="stroke:#181818;stroke-width:0.5;" width="113.1309" x="221" y="245"/><rect fill="#F1F1F1" height="10" style="stroke:#181818;stroke-width:0.5;" width="15" x="314.1309" y="250"/><rect fill="#F1F1F1" height="2" style="stroke:#181818;stroke-width:0.5;" width="4" x="312.1309" y="252"/><rect fill="#F1F1F1" height="2" style="stroke:#181818;stroke-width:0.5;" width="4" x="312.1309" y="256"/><text fill="#000000" font-family="sans-serif" font-size="14" lengthAdjust="spacing" textLength="73.1309" x="236" y="280.1074">Red Crystal</text></g><!--entity GC--><g class="entity" data-entity="GC" data-source-line="14" data-uid="ent0009" id="entity_GC"><rect fill="#F1F1F1" height="48.6211" rx="2.5" ry="2.5" style="stroke:#181818;stroke-width:0.5;" width="126.3584" x="733.5" y="245"/><rect fill="#F1F1F1" height="10" style="stroke:#181818;stroke-width:0.5;" width="15" x="839.8584" y="250"/><rect fill="#F1F1F1" height="2" style="stroke:#181818;stroke-width:0.5;" width="4" x="837.8584" y="252"/><rect fill="#F1F1F1" height="2" style="stroke:#181818;stroke-width:0.5;" width="4" x="837.8584" y="256"/><text fill="#000000" font-family="sans-serif" font-size="14" lengthAdjust="spacing" textLength="86.3584" x="748.5" y="280.1074">Green Crystal</text></g><!--entity BC--><g class="entity" data-entity="BC" data-source-line="15" data-uid="ent0010" id="entity_BC"><rect fill="#F1F1F1" height="48.6211" rx="2.5" ry="2.5" style="stroke:#181818;stroke-width:0.5;" width="115.4688" x="895" y="245"/><rect fill="#F1F1F1" height="10" style="stroke:#181818;stroke-width:0.5;" width="15" x="990.4688" y="250"/><rect fill="#F1F1F1" height="2" style="stroke:#181818;stroke-width:0.5;" width="4" x="988.4688" y="252"/><rect fill="#F1F1F1" height="2" style="stroke:#181818;stroke-width:0.5;" width="4" x="988.4688" y="256"/><text fill="#000000" font-family="sans-serif" font-size="14" lengthAdjust="spacing" textLength="75.4688" x="910" y="280.1074">Blue Crystal</text></g><!--entity CCr--><g class="entity" data-entity="CCr" data-source-line="16" data-uid="ent0011" id="entity_CCr"><rect fill="#90EE90" height="48.6211" rx="2.5" ry="2.5" style="stroke:#181818;stroke-width:0.5;" width="140.3652" x="463.5" y="245"/><rect fill="#90EE90" height="10" style="stroke:#181818;stroke-width:0.5;" width="15" x="583.8652" y="250"/><rect fill="#90EE90" height="2" style="stroke:#181818;stroke-width:0.5;" width="4" x="581.8652" y="252"/><rect fill="#90EE90" height="2" style="stroke:#181818;stroke-width:0.5;" width="4" x="581.8652" y="256"/><text fill="#000000" font-family="sans-serif" font-size="14" lengthAdjust="spacing" textLength="100.3652" x="478.5" y="280.1074">Crushed Crystal</text></g><!--entity FE--><g class="entity" data-entity="FE" data-source-line="18" data-uid="ent0012" id="entity_FE"><rect fill="#90EE90" height="48.6211" rx="2.5" ry="2.5" style="stroke:#181818;stroke-width:0.5;" width="91.3516" x="998" y="501"/><rect fill="#90EE90" height="10" style="stroke:#181818;stroke-width:0.5;" width="15" x="1069.3516" y="506"/><rect fill="#90EE90" height="2" style="stroke:#181818;stroke-width:0.5;" width="4" x="1067.3516" y="508"/><rect fill="#90EE90" height="2" style="stroke:#181818;stroke-width:0.5;" width="4" x="1067.3516" y="512"/><text fill="#000000" font-family="sans-serif" font-size="14" lengthAdjust="spacing" textLength="51.3516" x="1013" y="536.1074">Iron Ore</text></g><!--entity CU--><g class="entity" data-entity="CU" data-source-line="19" data-uid="ent0013" id="entity_CU"><rect fill="#90EE90" height="48.6211" rx="2.5" ry="2.5" style="stroke:#181818;stroke-width:0.5;" width="113.1445" x="299" y="501"/><rect fill="#90EE90" height="10" style="stroke:#181818;stroke-width:0.5;" width="15" x="392.1445" y="506"/><rect fill="#90EE90" height="2" style="stroke:#181818;stroke-width:0.5;" width="4" x="390.1445" y="508"/><rect fill="#90EE90" height="2" style="stroke:#181818;stroke-width:0.5;" width="4" x="390.1445" y="512"/><text fill="#000000" font-family="sans-serif" font-size="14" lengthAdjust="spacing" textLength="73.1445" x="314" y="536.1074">Copper Ore</text></g><!--entity S--><g class="entity" data-entity="S" data-source-line="20" data-uid="ent0014" id="entity_S"><rect fill="#90EE90" height="48.6211" rx="2.5" ry="2.5" style="stroke:#181818;stroke-width:0.5;" width="76.5859" x="662" y="501"/><rect fill="#90EE90" height="10" style="stroke:#181818;stroke-width:0.5;" width="15" x="718.5859" y="506"/><rect fill="#90EE90" height="2" style="stroke:#181818;stroke-width:0.5;" width="4" x="716.5859" y="508"/><rect fill="#90EE90" height="2" style="stroke:#181818;stroke-width:0.5;" width="4" x="716.5859" y="512"/><text fill="#000000" font-family="sans-serif" font-size="14" lengthAdjust="spacing" textLength="36.5859" x="677" y="536.1074">Stone</text></g><!--entity Ca--><g class="entity" data-entity="Ca" data-source-line="21" data-uid="ent0015" id="entity_Ca"><rect fill="#90EE90" height="48.6211" rx="2.5" ry="2.5" style="stroke:#181818;stroke-width:0.5;" width="68.793" x="41" y="501"/><rect fill="#90EE90" height="10" style="stroke:#181818;stroke-width:0.5;" width="15" x="89.793" y="506"/><rect fill="#90EE90" height="2" style="stroke:#181818;stroke-width:0.5;" width="4" x="87.793" y="508"/><rect fill="#90EE90" height="2" style="stroke:#181818;stroke-width:0.5;" width="4" x="87.793" y="512"/><text fill="#000000" font-family="sans-serif" font-size="14" lengthAdjust="spacing" textLength="28.793" x="56" y="536.1074">Coal</text></g><!--entity MR--><g class="entity" data-entity="MR" data-source-line="23" data-uid="ent0016" id="entity_MR"><rect fill="#ADD8E6" height="48.6211" rx="2.5" ry="2.5" style="stroke:#181818;stroke-width:0.5;" width="70.3447" x="498.5" y="117"/><rect fill="#ADD8E6" height="10" style="stroke:#181818;stroke-width:0.5;" width="15" x="548.8447" y="122"/><rect fill="#ADD8E6" height="2" style="stroke:#181818;stroke-width:0.5;" width="4" x="546.8447" y="124"/><rect fill="#ADD8E6" height="2" style="stroke:#181818;stroke-width:0.5;" width="4" x="546.8447" y="128"/><text fill="#000000" font-family="sans-serif" font-size="14" lengthAdjust="spacing" textLength="30.3447" x="513.5" y="152.1074">Mine</text></g><!--entity DC--><g class="entity" data-entity="DC" data-source-line="24" data-uid="ent0017" id="entity_DC"><rect fill="#ADD8E6" height="48.6211" rx="2.5" ry="2.5" style="stroke:#181818;stroke-width:0.5;" width="108.4756" x="21.5" y="373"/><rect fill="#ADD8E6" height="10" style="stroke:#181818;stroke-width:0.5;" width="15" x="109.9756" y="378"/><rect fill="#ADD8E6" height="2" style="stroke:#181818;stroke-width:0.5;" width="4" x="107.9756" y="380"/><rect fill="#ADD8E6" height="2" style="stroke:#181818;stroke-width:0.5;" width="4" x="107.9756" y="384"/><text fill="#000000" font-family="sans-serif" font-size="14" lengthAdjust="spacing" textLength="68.4756" x="36.5" y="408.1074">Destabilize</text></g><!--entity DRC--><g class="entity" data-entity="DRC" data-source-line="25" data-uid="ent0018" id="entity_DRC"><rect fill="#ADD8E6" height="48.6211" rx="2.5" ry="2.5" style="stroke:#181818;stroke-width:0.5;" width="108.4756" x="301.5" y="373"/><rect fill="#ADD8E6" height="10" style="stroke:#181818;stroke-width:0.5;" width="15" x="389.9756" y="378"/><rect fill="#ADD8E6" height="2" style="stroke:#181818;stroke-width:0.5;" width="4" x="387.9756" y="380"/><rect fill="#ADD8E6" height="2" style="stroke:#181818;stroke-width:0.5;" width="4" x="387.9756" y="384"/><text fill="#000000" font-family="sans-serif" font-size="14" lengthAdjust="spacing" textLength="68.4756" x="316.5" y="408.1074">Destabilize</text></g><!--entity DGC--><g class="entity" data-entity="DGC" data-source-line="26" data-uid="ent0019" id="entity_DGC"><rect fill="#ADD8E6" height="48.6211" rx="2.5" ry="2.5" style="stroke:#181818;stroke-width:0.5;" width="108.4756" x="646.5" y="373"/><rect fill="#ADD8E6" height="10" style="stroke:#181818;stroke-width:0.5;" width="15" x="734.9756" y="378"/><rect fill="#ADD8E6" height="2" style="stroke:#181818;stroke-width:0.5;" width="4" x="732.9756" y="380"/><rect fill="#ADD8E6" height="2" style="stroke:#181818;stroke-width:0.5;" width="4" x="732.9756" y="384"/><text fill="#000000" font-family="sans-serif" font-size="14" lengthAdjust="spacing" textLength="68.4756" x="661.5" y="408.1074">Destabilize</text></g><!--entity DBC--><g class="entity" data-entity="DBC" data-source-line="27" data-uid="ent0020" id="entity_DBC"><rect fill="#ADD8E6" height="48.6211" rx="2.5" ry="2.5" style="stroke:#181818;stroke-width:0.5;" width="108.4756" x="989.5" y="373"/><rect fill="#ADD8E6" height="10" style="stroke:#181818;stroke-width:0.5;" width="15" x="1077.9756" y="378"/><rect fill="#ADD8E6" height="2" style="stroke:#181818;stroke-width:0.5;" width="4" x="1075.9756" y="380"/><rect fill="#ADD8E6" height="2" style="stroke:#181818;stroke-width:0.5;" width="4" x="1075.9756" y="384"/><text fill="#000000" font-family="sans-serif" font-size="14" lengthAdjust="spacing" textLength="68.4756" x="1004.5" y="408.1074">Destabilize</text></g><!--link R to MR--><g class="link" data-entity-1="R" data-entity-2="MR" data-source-line="30" data-uid="lnk21" id="link_R_MR"><path d="M533.5,56.2 C533.5,74.21 533.5,92.86 533.5,110.85" fill="none" id="R-to-MR" style="stroke:#181818;stroke-width:1;"/><polygon fill="#181818" points="533.5,116.85,537.5,107.85,533.5,111.85,529.5,107.85,533.5,116.85" style="stroke:#181818;stroke-width:1;"/></g><!--link MR to C--><g class="link" data-entity-1="MR" data-entity-2="C" data-source-line="31" data-uid="lnk22" id="link_MR_C"><path d="M498.06,152.59 C437.33,170.1 309.65,207.78 203.5,245 C197.69,247.04 197.2183,247.1475 191.2483,249.4175" fill="none" id="MR-to-C" style="stroke:#181818;stroke-width:1;"/><polygon fill="#181818" points="185.64,251.55,195.474,252.0902,190.3136,249.773,192.6308,244.6125,185.64,251.55" style="stroke:#181818;stroke-width:1;"/><text fill="#000000" font-family="sans-serif" font-size="13" lengthAdjust="spacing" textLength="7.23" x="349.5" y="211.0283">5</text></g><!--link MR to RC--><g class="link" data-entity-1="MR" data-entity-2="RC" data-source-line="32" data-uid="lnk23" id="link_MR_RC"><path d="M498.44,159.76 C453.66,181.8 381.3434,217.3906 331.0334,242.1506" fill="none" id="MR-to-RC" style="stroke:#181818;stroke-width:1;"/><polygon fill="#181818" points="325.65,244.8,335.4913,244.4148,330.1361,242.5922,331.9588,237.237,325.65,244.8" style="stroke:#181818;stroke-width:1;"/><text fill="#000000" font-family="sans-serif" font-size="13" lengthAdjust="spacing" textLength="14.46" x="422.5" y="211.0283">10</text></g><!--link MR to GC--><g class="link" data-entity-1="MR" data-entity-2="GC" data-source-line="33" data-uid="lnk24" id="link_MR_GC"><path d="M568.7,159.36 C614.61,181.36 689.7792,217.367 741.7592,242.277" fill="none" id="MR-to-GC" style="stroke:#181818;stroke-width:1;"/><polygon fill="#181818" points="747.17,244.87,740.7825,237.3734,742.661,242.7092,737.3252,244.5877,747.17,244.87" style="stroke:#181818;stroke-width:1;"/><text fill="#000000" font-family="sans-serif" font-size="13" lengthAdjust="spacing" textLength="14.46" x="681.5" y="211.0283">10</text></g><!--link MR to BC--><g class="link" data-entity-1="MR" data-entity-2="BC" data-source-line="34" data-uid="lnk25" id="link_MR_BC"><path d="M568.71,152.81 C631.04,171.11 764.86,210.57 877.5,245 C883.11,246.71 883.2189,246.7438 889.0589,248.5538" fill="none" id="MR-to-BC" style="stroke:#181818;stroke-width:1;"/><polygon fill="#181818" points="894.79,250.33,887.3776,243.8449,890.0141,248.8498,885.0093,251.4864,894.79,250.33" style="stroke:#181818;stroke-width:1;"/><text fill="#000000" font-family="sans-serif" font-size="13" lengthAdjust="spacing" textLength="14.46" x="774.5" y="211.0283">25</text></g><!--link MR to CCr--><g class="link" data-entity-1="MR" data-entity-2="CCr" data-source-line="35" data-uid="lnk26" id="link_MR_CCr"><path d="M533.5,166.2 C533.5,188.73 533.5,216.42 533.5,238.91" fill="none" id="MR-to-CCr" style="stroke:#181818;stroke-width:1;"/><polygon fill="#181818" points="533.5,244.91,537.5,235.91,533.5,239.91,529.5,235.91,533.5,244.91" style="stroke:#181818;stroke-width:1;"/><text fill="#000000" font-family="sans-serif" font-size="13" lengthAdjust="spacing" textLength="14.46" x="534.5" y="211.0283">50</text></g><!--link C to DC--><g class="link" data-entity-1="C" data-entity-2="DC" data-source-line="37" data-uid="lnk27" id="link_C_DC"><path d="M130.71,294.2 C118.55,316.73 103.2201,345.1401 91.0801,367.6301" fill="none" id="C-to-DC" style="stroke:#181818;stroke-width:1;"/><polygon fill="#181818" points="88.23,372.91,96.025,366.8902,90.605,368.5101,88.9852,363.0901,88.23,372.91" style="stroke:#181818;stroke-width:1;"/><text fill="#000000" font-family="sans-serif" font-size="13" lengthAdjust="spacing" textLength="7.23" x="115.5" y="339.0283">1</text></g><!--link I1 to DC--><g class="link" data-entity-1="I1" data-entity-2="DC" data-source-line="38" data-uid="lnk28" id="link_I1_DC"><path d="M43.84,294.2 C50.81,316.73 59.4662,344.6882 66.4262,367.1782" fill="none" id="I1-to-DC" style="stroke:#181818;stroke-width:1;"/><polygon fill="#181818" points="68.2,372.91,69.3605,363.1297,66.7218,368.1335,61.7181,365.4948,68.2,372.91" style="stroke:#181818;stroke-width:1;"/><text fill="#000000" font-family="sans-serif" font-size="13" lengthAdjust="spacing" textLength="7.23" x="59.5" y="339.0283">1</text></g><!--link DC to Ca--><g class="link" data-entity-1="DC" data-entity-2="Ca" data-source-line="39" data-uid="lnk29" id="link_DC_Ca"><path d="M75.5,422.2 C75.5,444.73 75.5,472.42 75.5,494.91" fill="none" id="DC-to-Ca" style="stroke:#181818;stroke-width:1;"/><polygon fill="#181818" points="75.5,500.91,79.5,491.91,75.5,495.91,71.5,491.91,75.5,500.91" style="stroke:#181818;stroke-width:1;"/><text fill="#000000" font-family="sans-serif" font-size="13" lengthAdjust="spacing" textLength="75.1563" x="76.5" y="467.0283">3 take 5 dmg</text></g><!--link RC to DRC--><g class="link" data-entity-1="RC" data-entity-2="DRC" data-source-line="41" data-uid="lnk30" id="link_RC_DRC"><path d="M292.17,294.2 C306.12,316.73 323.8123,345.3182 337.7323,367.8082" fill="none" id="RC-to-DRC" style="stroke:#181818;stroke-width:1;"/><polygon fill="#181818" points="340.89,372.91,339.5546,363.1521,338.2586,368.6585,332.7522,367.3624,340.89,372.91" style="stroke:#181818;stroke-width:1;"/><text fill="#000000" font-family="sans-serif" font-size="13" lengthAdjust="spacing" textLength="7.23" x="322.5" y="339.0283">1</text></g><!--link I2 to DRC--><g class="link" data-entity-1="I2" data-entity-2="DRC" data-source-line="42" data-uid="lnk31" id="link_I2_DRC"><path d="M390.41,294.2 C382.72,316.73 373.169,344.7419 365.489,367.2319" fill="none" id="I2-to-DRC" style="stroke:#181818;stroke-width:1;"/><polygon fill="#181818" points="363.55,372.91,370.2438,365.6856,365.1658,368.1783,362.6731,363.1003,363.55,372.91" style="stroke:#181818;stroke-width:1;"/><text fill="#000000" font-family="sans-serif" font-size="13" lengthAdjust="spacing" textLength="7.23" x="381.5" y="339.0283">1</text></g><!--link DRC to CU--><g class="link" data-entity-1="DRC" data-entity-2="CU" data-source-line="43" data-uid="lnk32" id="link_DRC_CU"><path d="M355.5,422.2 C355.5,444.73 355.5,472.42 355.5,494.91" fill="none" id="DRC-to-CU" style="stroke:#181818;stroke-width:1;"/><polygon fill="#181818" points="355.5,500.91,359.5,491.91,355.5,495.91,351.5,491.91,355.5,500.91" style="stroke:#181818;stroke-width:1;"/><text fill="#000000" font-family="sans-serif" font-size="13" lengthAdjust="spacing" textLength="75.1563" x="356.5" y="467.0283">1 take 5 dmg</text></g><!--link BC to DBC--><g class="link" data-entity-1="BC" data-entity-2="DBC" data-source-line="45" data-uid="lnk33" id="link_BC_DBC"><path d="M969.62,294.2 C985.89,316.73 1006.7075,345.5556 1022.9475,368.0456" fill="none" id="BC-to-DBC" style="stroke:#181818;stroke-width:1;"/><polygon fill="#181818" points="1026.46,372.91,1024.4341,363.2718,1023.5329,368.8564,1017.9483,367.9552,1026.46,372.91" style="stroke:#181818;stroke-width:1;"/><text fill="#000000" font-family="sans-serif" font-size="13" lengthAdjust="spacing" textLength="7.23" x="1003.5" y="339.0283">1</text></g><!--link I3 to DBC--><g class="link" data-entity-1="I3" data-entity-2="DBC" data-source-line="46" data-uid="lnk34" id="link_I3_DBC"><path d="M1068.67,294.2 C1063.13,316.73 1056.2751,344.5942 1050.7351,367.0842" fill="none" id="I3-to-DBC" style="stroke:#181818;stroke-width:1;"/><polygon fill="#181818" points="1049.3,372.91,1055.3365,365.128,1050.4959,368.0551,1047.5687,363.2145,1049.3,372.91" style="stroke:#181818;stroke-width:1;"/><text fill="#000000" font-family="sans-serif" font-size="13" lengthAdjust="spacing" textLength="7.23" x="1061.5" y="339.0283">1</text></g><!--link DBC to FE--><g class="link" data-entity-1="DBC" data-entity-2="FE" data-source-line="47" data-uid="lnk35" id="link_DBC_FE"><path d="M1043.5,422.2 C1043.5,444.73 1043.5,472.42 1043.5,494.91" fill="none" id="DBC-to-FE" style="stroke:#181818;stroke-width:1;"/><polygon fill="#181818" points="1043.5,500.91,1047.5,491.91,1043.5,495.91,1039.5,491.91,1043.5,500.91" style="stroke:#181818;stroke-width:1;"/><text fill="#000000" font-family="sans-serif" font-size="13" lengthAdjust="spacing" textLength="75.1563" x="1044.5" y="467.0283">1 take 5 dmg</text></g><!--link GC to DGC--><g class="link" data-entity-1="GC" data-entity-2="DGC" data-source-line="49" data-uid="lnk36" id="link_GC_DGC"><path d="M778.44,294.2 C761.28,316.73 739.2456,345.6469 722.1156,368.1369" fill="none" id="GC-to-DGC" style="stroke:#181818;stroke-width:1;"/><polygon fill="#181818" points="718.48,372.91,727.1154,368.174,721.5096,368.9324,720.7512,363.3266,718.48,372.91" style="stroke:#181818;stroke-width:1;"/><text fill="#000000" font-family="sans-serif" font-size="13" lengthAdjust="spacing" textLength="7.23" x="754.5" y="339.0283">1</text></g><!--link I4 to DGC--><g class="link" data-entity-1="I4" data-entity-2="DGC" data-source-line="50" data-uid="lnk37" id="link_I4_DGC"><path d="M674.52,294.2 C680.24,316.73 687.3235,344.6045 693.0335,367.0945" fill="none" id="I4-to-DGC" style="stroke:#181818;stroke-width:1;"/><polygon fill="#181818" points="694.51,372.91,696.1722,363.2024,693.2796,368.0638,688.4183,365.1711,694.51,372.91" style="stroke:#181818;stroke-width:1;"/><text fill="#000000" font-family="sans-serif" font-size="13" lengthAdjust="spacing" textLength="7.23" x="686.5" y="339.0283">1</text></g><!--link DGC to S--><g class="link" data-entity-1="DGC" data-entity-2="S" data-source-line="51" data-uid="lnk38" id="link_DGC_S"><path d="M700.5,422.2 C700.5,444.73 700.5,472.42 700.5,494.91" fill="none" id="DGC-to-S" style="stroke:#181818;stroke-width:1;"/><polygon fill="#181818" points="700.5,500.91,704.5,491.91,700.5,495.91,696.5,491.91,700.5,500.91" style="stroke:#181818;stroke-width:1;"/><text fill="#000000" font-family="sans-serif" font-size="13" lengthAdjust="spacing" textLength="75.1563" x="701.5" y="467.0283">1 take 5 dmg</text></g><!--SRC=[XP8nRuCm48Lt_ugJEaTAGh9aw62xjHXG9QDEg0C15omSG8OCxQ_l0IR223MRt_lyxavdbpfNS5DzsUGTAGVnhPMPpvcscL649BB9gYz8Ev3mOdHHzgskAvA4cHhTyB1j7xVjODi-BMsICFlJzQaP6SCHL0vBIw8dh5ArvmfqgRahpwHig7RlobK9ngnhMGo5i6Tecne-x3JG-vj74zQqhR8Fp3vz7FTDFP5udPlxfQjsaNQ9QDxh5MSd2LSuurKR_JjXplx7yWaNJpZrE24IThjN78f4qud11Swpa8Cwx6SfV4a7UNnS7bQCsJqXRDHyl4tmmomKdnYkvm81z6cbu0pvhS11N4gwsD6Jt65y2PHUaBeWTS70aznXVE5rKBYWSC6J9xd3yIht1m00]--></g></svg>