<svg xmlns="http://www.w3.org/2000/svg" xmlns:xlink="http://www.w3.org/1999/xlink" contentStyleType="text/css" data-diagram-type="DESCRIPTION" height="555px" preserveAspectRatio="none" style="width:752px;height:555px;background:#FFFFFF;" version="1.1" viewBox="0 0 752 555" width="752px" zoomAndPan="magnify"><defs/><g><!--entity R--><g class="entity" data-entity="R" data-source-line="6" data-uid="ent0002" id="entity_R"><rect fill="#FFB6C1" height="48.6211" rx="2.5" ry="2.5" style="stroke:#181818;stroke-width:0.5;" width="71.8965" x="321" y="7"/><rect fill="#FFB6C1" height="10" style="stroke:#181818;stroke-width:0.5;" width="15" x="372.8965" y="12"/><rect fill="#FFB6C1" height="2" style="stroke:#181818;stroke-width:0.5;" width="4" x="370.8965" y="14"/><rect fill="#FFB6C1" height="2" style="stroke:#181818;stroke-width:0.5;" width="4" x="370.8965" y="18"/><text fill="#000000" font-family="sans-serif" font-size="14" lengthAdjust="spacing" textLength="31.8965" x="336" y="42.1074">Rock</text></g><!--entity C--><g class="entity" data-entity="C" data-source-line="8" data-uid="ent0003" id="entity_C"><rect fill="#F1F1F1" height="48.6211" rx="2.5" ry="2.5" style="stroke:#181818;stroke-width:0.5;" width="83.5586" x="25" y="245"/><rect fill="#F1F1F1" height="10" style="stroke:#181818;stroke-width:0.5;" width="15" x="88.5586" y="250"/><rect fill="#F1F1F1" height="2" style="stroke:#181818;stroke-width:0.5;" width="4" x="86.5586" y="252"/><rect fill="#F1F1F1" height="2" style="stroke:#181818;stroke-width:0.5;" width="4" x="86.5586" y="256"/><text fill="#000000" font-family="sans-serif" font-size="14" lengthAdjust="spacing" textLength="43.5586" x="40" y="280.1074">Crystal</text></g><!--entity RC--><g class="entity" data-entity="RC" data-source-line="9" data-uid="ent0004" id="entity_RC"><rect fill="#F1F1F1" height="48.6211" rx="2.5" ry="2.5" style="stroke:#181818;stroke-width:0.5;" width="113.1309" x="145.5" y="245"/><rect fill="#F1F1F1" height="10" style="stroke:#181818;stroke-width:0.5;" width="15" x="238.6309" y="250"/><rect fill="#F1F1F1" height="2" style="stroke:#181818;stroke-width:0.5;" width="4" x="236.6309" y="252"/><rect fill="#F1F1F1" height="2" style="stroke:#181818;stroke-width:0.5;" width="4" x="236.6309" y="256"/><text fill="#000000" font-family="sans-serif" font-size="14" lengthAdjust="spacing" textLength="73.1309" x="160.5" y="280.1074">Red Crystal</text></g><!--entity GC--><g class="entity" data-entity="GC" data-source-line="10" data-uid="ent0005" id="entity_GC"><rect fill="#F1F1F1" height="48.6211" rx="2.5" ry="2.5" style="stroke:#181818;stroke-width:0.5;" width="126.3584" x="294" y="245"/><rect fill="#F1F1F1" height="10" style="stroke:#181818;stroke-width:0.5;" width="15" x="400.3584" y="250"/><rect fill="#F1F1F1" height="2" style="stroke:#181818;stroke-width:0.5;" width="4" x="398.3584" y="252"/><rect fill="#F1F1F1" height="2" style="stroke:#181818;stroke-width:0.5;" width="4" x="398.3584" y="256"/><text fill="#000000" font-family="sans-serif" font-size="14" lengthAdjust="spacing" textLength="86.3584" x="309" y="280.1074">Green Crystal</text></g><!--entity BC--><g class="entity" data-entity="BC" data-source-line="11" data-uid="ent0006" id="entity_BC"><rect fill="#F1F1F1" height="48.6211" rx="2.5" ry="2.5" style="stroke:#181818;stroke-width:0.5;" width="115.4688" x="455.5" y="245"/><rect fill="#F1F1F1" height="10" style="stroke:#181818;stroke-width:0.5;" width="15" x="550.9688" y="250"/><rect fill="#F1F1F1" height="2" style="stroke:#181818;stroke-width:0.5;" width="4" x="548.9688" y="252"/><rect fill="#F1F1F1" height="2" style="stroke:#181818;stroke-width:0.5;" width="4" x="548.9688" y="256"/><text fill="#000000" font-family="sans-serif" font-size="14" lengthAdjust="spacing" textLength="75.4688" x="470.5" y="280.1074">Blue Crystal</text></g><!--entity CCr--><g class="entity" data-entity="CCr" data-source-line="12" data-uid="ent0007" id="entity_CCr"><rect fill="#90EE90" height="48.6211" rx="2.5" ry="2.5" style="stroke:#181818;stroke-width:0.5;" width="140.3652" x="606" y="245"/><rect fill="#90EE90" height="10" style="stroke:#181818;stroke-width:0.5;" width="15" x="726.3652" y="250"/><rect fill="#90EE90" height="2" style="stroke:#181818;stroke-width:0.5;" width="4" x="724.3652" y="252"/><rect fill="#90EE90" height="2" style="stroke:#181818;stroke-width:0.5;" width="4" x="724.3652" y="256"/><text fill="#000000" font-family="sans-serif" font-size="14" lengthAdjust="spacing" textLength="100.3652" x="621" y="280.1074">Crushed Crystal</text></g><!--entity FE--><g class="entity" data-entity="FE" data-source-line="14" data-uid="ent0008" id="entity_FE"><rect fill="#90EE90" height="48.6211" rx="2.5" ry="2.5" style="stroke:#181818;stroke-width:0.5;" width="91.3516" x="467.5" y="501"/><rect fill="#90EE90" height="10" style="stroke:#181818;stroke-width:0.5;" width="15" x="538.8516" y="506"/><rect fill="#90EE90" height="2" style="stroke:#181818;stroke-width:0.5;" width="4" x="536.8516" y="508"/><rect fill="#90EE90" height="2" style="stroke:#181818;stroke-width:0.5;" width="4" x="536.8516" y="512"/><text fill="#000000" font-family="sans-serif" font-size="14" lengthAdjust="spacing" textLength="51.3516" x="482.5" y="536.1074">Iron Ore</text></g><!--entity CU--><g class="entity" data-entity="CU" data-source-line="15" data-uid="ent0009" id="entity_CU"><rect fill="#90EE90" height="48.6211" rx="2.5" ry="2.5" style="stroke:#181818;stroke-width:0.5;" width="113.1445" x="147.5" y="501"/><rect fill="#90EE90" height="10" style="stroke:#181818;stroke-width:0.5;" width="15" x="240.6445" y="506"/><rect fill="#90EE90" height="2" style="stroke:#181818;stroke-width:0.5;" width="4" x="238.6445" y="508"/><rect fill="#90EE90" height="2" style="stroke:#181818;stroke-width:0.5;" width="4" x="238.6445" y="512"/><text fill="#000000" font-family="sans-serif" font-size="14" lengthAdjust="spacing" textLength="73.1445" x="162.5" y="536.1074">Copper Ore</text></g><!--entity S--><g class="entity" data-entity="S" data-source-line="16" data-uid="ent0010" id="entity_S"><rect fill="#90EE90" height="48.6211" rx="2.5" ry="2.5" style="stroke:#181818;stroke-width:0.5;" width="76.5859" x="318.5" y="501"/><rect fill="#90EE90" height="10" style="stroke:#181818;stroke-width:0.5;" width="15" x="375.0859" y="506"/><rect fill="#90EE90" height="2" style="stroke:#181818;stroke-width:0.5;" width="4" x="373.0859" y="508"/><rect fill="#90EE90" height="2" style="stroke:#181818;stroke-width:0.5;" width="4" x="373.0859" y="512"/><text fill="#000000" font-family="sans-serif" font-size="14" lengthAdjust="spacing" textLength="36.5859" x="333.5" y="536.1074">Stone</text></g><!--entity Ca--><g class="entity" data-entity="Ca" data-source-line="17" data-uid="ent0011" id="entity_Ca"><rect fill="#90EE90" height="48.6211" rx="2.5" ry="2.5" style="stroke:#181818;stroke-width:0.5;" width="68.793" x="26.5" y="501"/><rect fill="#90EE90" height="10" style="stroke:#181818;stroke-width:0.5;" width="15" x="75.293" y="506"/><rect fill="#90EE90" height="2" style="stroke:#181818;stroke-width:0.5;" width="4" x="73.293" y="508"/><rect fill="#90EE90" height="2" style="stroke:#181818;stroke-width:0.5;" width="4" x="73.293" y="512"/><text fill="#000000" font-family="sans-serif" font-size="14" lengthAdjust="spacing" textLength="28.793" x="41.5" y="536.1074">Coal</text></g><!--entity MR--><g class="entity" data-entity="MR" data-source-line="19" data-uid="ent0012" id="entity_MR"><rect fill="#ADD8E6" height="48.6211" rx="2.5" ry="2.5" style="stroke:#181818;stroke-width:0.5;" width="70.3447" x="322" y="117"/><rect fill="#ADD8E6" height="10" style="stroke:#181818;stroke-width:0.5;" width="15" x="372.3447" y="122"/><rect fill="#ADD8E6" height="2" style="stroke:#181818;stroke-width:0.5;" width="4" x="370.3447" y="124"/><rect fill="#ADD8E6" height="2" style="stroke:#181818;stroke-width:0.5;" width="4" x="370.3447" y="128"/><text fill="#000000" font-family="sans-serif" font-size="14" lengthAdjust="spacing" textLength="30.3447" x="337" y="152.1074">Mine</text></g><!--entity DC--><g class="entity" data-entity="DC" data-source-line="20" data-uid="ent0013" id="entity_DC"><rect fill="#ADD8E6" height="48.6211" rx="2.5" ry="2.5" style="stroke:#181818;stroke-width:0.5;" width="108.4756" x="7" y="373"/><rect fill="#ADD8E6" height="10" style="stroke:#181818;stroke-width:0.5;" width="15" x="95.4756" y="378"/><rect fill="#ADD8E6" height="2" style="stroke:#181818;stroke-width:0.5;" width="4" x="93.4756" y="380"/><rect fill="#ADD8E6" height="2" style="stroke:#181818;stroke-width:0.5;" width="4" x="93.4756" y="384"/><text fill="#000000" font-family="sans-serif" font-size="14" lengthAdjust="spacing" textLength="68.4756" x="22" y="408.1074">Destabilize</text></g><!--entity DRC--><g class="entity" data-entity="DRC" data-source-line="21" data-uid="ent0014" id="entity_DRC"><rect fill="#ADD8E6" height="48.6211" rx="2.5" ry="2.5" style="stroke:#181818;stroke-width:0.5;" width="108.4756" x="150" y="373"/><rect fill="#ADD8E6" height="10" style="stroke:#181818;stroke-width:0.5;" width="15" x="238.4756" y="378"/><rect fill="#ADD8E6" height="2" style="stroke:#181818;stroke-width:0.5;" width="4" x="236.4756" y="380"/><rect fill="#ADD8E6" height="2" style="stroke:#181818;stroke-width:0.5;" width="4" x="236.4756" y="384"/><text fill="#000000" font-family="sans-serif" font-size="14" lengthAdjust="spacing" textLength="68.4756" x="165" y="408.1074">Destabilize</text></g><!--entity DGC--><g class="entity" data-entity="DGC" data-source-line="22" data-uid="ent0015" id="entity_DGC"><rect fill="#ADD8E6" height="48.6211" rx="2.5" ry="2.5" style="stroke:#181818;stroke-width:0.5;" width="108.4756" x="303" y="373"/><rect fill="#ADD8E6" height="10" style="stroke:#181818;stroke-width:0.5;" width="15" x="391.4756" y="378"/><rect fill="#ADD8E6" height="2" style="stroke:#181818;stroke-width:0.5;" width="4" x="389.4756" y="380"/><rect fill="#ADD8E6" height="2" style="stroke:#181818;stroke-width:0.5;" width="4" x="389.4756" y="384"/><text fill="#000000" font-family="sans-serif" font-size="14" lengthAdjust="spacing" textLength="68.4756" x="318" y="408.1074">Destabilize</text></g><!--entity DBC--><g class="entity" data-entity="DBC" data-source-line="23" data-uid="ent0016" id="entity_DBC"><rect fill="#ADD8E6" height="48.6211" rx="2.5" ry="2.5" style="stroke:#181818;stroke-width:0.5;" width="108.4756" x="459" y="373"/><rect fill="#ADD8E6" height="10" style="stroke:#181818;stroke-width:0.5;" width="15" x="547.4756" y="378"/><rect fill="#ADD8E6" height="2" style="stroke:#181818;stroke-width:0.5;" width="4" x="545.4756" y="380"/><rect fill="#ADD8E6" height="2" style="stroke:#181818;stroke-width:0.5;" width="4" x="545.4756" y="384"/><text fill="#000000" font-family="sans-serif" font-size="14" lengthAdjust="spacing" textLength="68.4756" x="474" y="408.1074">Destabilize</text></g><!--link R to MR--><g class="link" data-entity-1="R" data-entity-2="MR" data-source-line="26" data-uid="lnk17" id="link_R_MR"><path d="M357,56.2 C357,74.21 357,92.86 357,110.85" fill="none" id="R-to-MR" style="stroke:#181818;stroke-width:1;"/><polygon fill="#181818" points="357,116.85,361,107.85,357,111.85,353,107.85,357,116.85" style="stroke:#181818;stroke-width:1;"/></g><!--link MR to C--><g class="link" data-entity-1="MR" data-entity-2="C" data-source-line="27" data-uid="lnk18" id="link_MR_C"><path d="M321.73,157.82 C268.14,181.11 171.9131,222.9192 114.5531,247.8392" fill="none" id="MR-to-C" style="stroke:#181818;stroke-width:1;"/><polygon fill="#181818" points="109.05,250.23,118.8985,250.3125,113.6359,248.2377,115.7108,242.9751,109.05,250.23" style="stroke:#181818;stroke-width:1;"/><text fill="#000000" font-family="sans-serif" font-size="13" lengthAdjust="spacing" textLength="7.23" x="231" y="211.0283">5</text></g><!--link MR to RC--><g class="link" data-entity-1="MR" data-entity-2="RC" data-source-line="28" data-uid="lnk19" id="link_MR_RC"><path d="M327.85,166.2 C300.13,188.73 263.346,218.6356 235.676,241.1256" fill="none" id="MR-to-RC" style="stroke:#181818;stroke-width:1;"/><polygon fill="#181818" points="231.02,244.91,240.5269,242.3374,234.9,241.7564,235.4811,236.1294,231.02,244.91" style="stroke:#181818;stroke-width:1;"/><text fill="#000000" font-family="sans-serif" font-size="13" lengthAdjust="spacing" textLength="14.46" x="290" y="211.0283">10</text></g><!--link MR to GC--><g class="link" data-entity-1="MR" data-entity-2="GC" data-source-line="29" data-uid="lnk20" id="link_MR_GC"><path d="M357,166.2 C357,188.73 357,216.42 357,238.91" fill="none" id="MR-to-GC" style="stroke:#181818;stroke-width:1;"/><polygon fill="#181818" points="357,244.91,361,235.91,357,239.91,353,235.91,357,244.91" style="stroke:#181818;stroke-width:1;"/><text fill="#000000" font-family="sans-serif" font-size="13" lengthAdjust="spacing" textLength="14.46" x="358" y="211.0283">10</text></g><!--link MR to BC--><g class="link" data-entity-1="MR" data-entity-2="BC" data-source-line="30" data-uid="lnk21" id="link_MR_BC"><path d="M386.34,166.2 C414.23,188.73 451.272,218.6504 479.122,241.1404" fill="none" id="MR-to-BC" style="stroke:#181818;stroke-width:1;"/><polygon fill="#181818" points="483.79,244.91,479.3011,236.1436,479.9,241.7687,474.2749,242.3676,483.79,244.91" style="stroke:#181818;stroke-width:1;"/><text fill="#000000" font-family="sans-serif" font-size="13" lengthAdjust="spacing" textLength="14.46" x="446" y="211.0283">25</text></g><!--link MR to CCr--><g class="link" data-entity-1="MR" data-entity-2="CCr" data-source-line="31" data-uid="lnk22" id="link_MR_CCr"><path d="M392.05,156.34 C446.03,177.66 544.5793,216.5964 610.6293,242.6764" fill="none" id="MR-to-CCr" style="stroke:#181818;stroke-width:1;"/><polygon fill="#181818" points="616.21,244.88,609.308,237.8542,611.5594,243.0437,606.3699,245.2951,616.21,244.88" style="stroke:#181818;stroke-width:1;"/><text fill="#000000" font-family="sans-serif" font-size="13" lengthAdjust="spacing" textLength="14.46" x="537" y="211.0283">50</text></g><!--link C to DC--><g class="link" data-entity-1="C" data-entity-2="DC" data-source-line="33" data-uid="lnk23" id="link_C_DC"><path d="M65.87,294.2 C64.8,316.73 63.4751,344.4268 62.4051,366.9168" fill="none" id="C-to-DC" style="stroke:#181818;stroke-width:1;"/><polygon fill="#181818" points="62.12,372.91,66.5432,364.1103,62.3576,367.9156,58.5522,363.7301,62.12,372.91" style="stroke:#181818;stroke-width:1;"/><text fill="#000000" font-family="sans-serif" font-size="13" lengthAdjust="spacing" textLength="7.23" x="66" y="339.0283">1</text></g><!--link DC to Ca--><g class="link" data-entity-1="DC" data-entity-2="Ca" data-source-line="34" data-uid="lnk24" id="link_DC_Ca"><path d="M61,422.2 C61,444.73 61,472.42 61,494.91" fill="none" id="DC-to-Ca" style="stroke:#181818;stroke-width:1;"/><polygon fill="#181818" points="61,500.91,65,491.91,61,495.91,57,491.91,61,500.91" style="stroke:#181818;stroke-width:1;"/><text fill="#000000" font-family="sans-serif" font-size="13" lengthAdjust="spacing" textLength="75.1563" x="62" y="467.0283">3 take 5 dmg</text></g><!--link RC to DRC--><g class="link" data-entity-1="RC" data-entity-2="DRC" data-source-line="36" data-uid="lnk25" id="link_RC_DRC"><path d="M202.38,294.2 C202.73,316.73 203.174,344.4208 203.534,366.9108" fill="none" id="RC-to-DRC" style="stroke:#181818;stroke-width:1;"/><polygon fill="#181818" points="203.63,372.91,207.4854,363.8471,203.55,367.9106,199.4865,363.9752,203.63,372.91" style="stroke:#181818;stroke-width:1;"/><text fill="#000000" font-family="sans-serif" font-size="13" lengthAdjust="spacing" textLength="7.23" x="205" y="339.0283">1</text></g><!--link DRC to CU--><g class="link" data-entity-1="DRC" data-entity-2="CU" data-source-line="37" data-uid="lnk26" id="link_DRC_CU"><path d="M204,422.2 C204,444.73 204,472.42 204,494.91" fill="none" id="DRC-to-CU" style="stroke:#181818;stroke-width:1;"/><polygon fill="#181818" points="204,500.91,208,491.91,204,495.91,200,491.91,204,500.91" style="stroke:#181818;stroke-width:1;"/><text fill="#000000" font-family="sans-serif" font-size="13" lengthAdjust="spacing" textLength="75.1563" x="205" y="467.0283">1 take 5 dmg</text></g><!--link BC to DBC--><g class="link" data-entity-1="BC" data-entity-2="DBC" data-source-line="39" data-uid="lnk27" id="link_BC_DBC"><path d="M513,294.2 C513,316.73 513,344.42 513,366.91" fill="none" id="BC-to-DBC" style="stroke:#181818;stroke-width:1;"/><polygon fill="#181818" points="513,372.91,517,363.91,513,367.91,509,363.91,513,372.91" style="stroke:#181818;stroke-width:1;"/><text fill="#000000" font-family="sans-serif" font-size="13" lengthAdjust="spacing" textLength="7.23" x="514" y="339.0283">1</text></g><!--link DBC to FE--><g class="link" data-entity-1="DBC" data-entity-2="FE" data-source-line="40" data-uid="lnk28" id="link_DBC_FE"><path d="M513,422.2 C513,444.73 513,472.42 513,494.91" fill="none" id="DBC-to-FE" style="stroke:#181818;stroke-width:1;"/><polygon fill="#181818" points="513,500.91,517,491.91,513,495.91,509,491.91,513,500.91" style="stroke:#181818;stroke-width:1;"/><text fill="#000000" font-family="sans-serif" font-size="13" lengthAdjust="spacing" textLength="75.1563" x="514" y="467.0283">1 take 5 dmg</text></g><!--link GC to DGC--><g class="link" data-entity-1="GC" data-entity-2="DGC" data-source-line="42" data-uid="lnk29" id="link_GC_DGC"><path d="M357,294.2 C357,316.73 357,344.42 357,366.91" fill="none" id="GC-to-DGC" style="stroke:#181818;stroke-width:1;"/><polygon fill="#181818" points="357,372.91,361,363.91,357,367.91,353,363.91,357,372.91" style="stroke:#181818;stroke-width:1;"/><text fill="#000000" font-family="sans-serif" font-size="13" lengthAdjust="spacing" textLength="7.23" x="358" y="339.0283">1</text></g><!--link DGC to S--><g class="link" data-entity-1="DGC" data-entity-2="S" data-source-line="43" data-uid="lnk30" id="link_DGC_S"><path d="M357,422.2 C357,444.73 357,472.42 357,494.91" fill="none" id="DGC-to-S" style="stroke:#181818;stroke-width:1;"/><polygon fill="#181818" points="357,500.91,361,491.91,357,495.91,353,491.91,357,500.91" style="stroke:#181818;stroke-width:1;"/><text fill="#000000" font-family="sans-serif" font-size="13" lengthAdjust="spacing" textLength="75.1563" x="358" y="467.0283">1 take 5 dmg</text></g><!--SRC=[XP4_RuCm4CLtVugJEaTAMsN9qC6ciJgWIaQTK0S2Lx1m01aoj9- -PpYYcg7P_DxxtH-EnbO85voQlXf54yINHRU-I-jBXqBafY_RJoX6CF3WRDrCW-rQyfN_7gV2pP4Y32luQndoj4Vi8bUJAzqL8rEgqEqwDfiMIdaUMOT6DFFDznsyUvpZqskKvgeV1lItM7t4SJRrtP9asxfrNh4PbrgkIDTlFzFk8a-GTZnRPt-ME57_n-PEhk_aCig5CB3RlT1I8brU2evmM8K9wd6_IXrB6UJJ3Gudfjgz46hMoKoBP55qa2CymrIq20UeBZMDPiumo9gEJJ8Y9PEIITRqrxQaPb8poJhRWBy0]--></g></svg>