<svg xmlns="http://www.w3.org/2000/svg" xmlns:xlink="http://www.w3.org/1999/xlink" contentStyleType="text/css" data-diagram-type="DESCRIPTION" height="1014px" preserveAspectRatio="none" style="width:860px;height:1014px;background:#FFFFFF;" version="1.1" viewBox="0 0 860 1014" width="860px" zoomAndPan="magnify"><defs/><g><!--cluster Crystalizer--><g class="cluster" data-entity="Crystalizer" data-source-line="26" data-uid="ent0017" id="cluster_Crystalizer"><path d="M143,121 L215.5928,121 A3.75,3.75 0 0 1 218.0928,123.5 L225.0928,145.6211 L835,145.6211 A2.5,2.5 0 0 1 837.5,148.1211 L837.5,220.5 A2.5,2.5 0 0 1 835,223 L143,223 A2.5,2.5 0 0 1 140.5,220.5 L140.5,123.5 A2.5,2.5 0 0 1 143,121" fill="#FFFFE0" style="stroke:#000000;stroke-width:1.5;"/><line style="stroke:#000000;stroke-width:1.5;" x1="140.5" x2="225.0928" y1="145.6211" y2="145.6211"/><text fill="#000000" font-family="sans-serif" font-size="14" font-weight="bold" lengthAdjust="spacing" textLength="71.5928" x="144.5" y="138.1074">Crystalizer</text></g><!--cluster Chemical Plant--><g class="cluster" data-entity="Chemical Plant" data-source-line="32" data-uid="ent0021" id="cluster_Chemical Plant"><path d="M262,402 L363.3652,402 A3.75,3.75 0 0 1 365.8652,404.5 L372.8652,426.6211 L639,426.6211 A2.5,2.5 0 0 1 641.5,429.1211 L641.5,501.5 A2.5,2.5 0 0 1 639,504 L262,504 A2.5,2.5 0 0 1 259.5,501.5 L259.5,404.5 A2.5,2.5 0 0 1 262,402" fill="#FFFFE0" style="stroke:#000000;stroke-width:1.5;"/><line style="stroke:#000000;stroke-width:1.5;" x1="259.5" x2="372.8652" y1="426.6211" y2="426.6211"/><text fill="#000000" font-family="sans-serif" font-size="14" font-weight="bold" lengthAdjust="spacing" textLength="100.3652" x="263.5" y="419.1074">Chemical Plant</text></g><!--cluster Energizer--><g class="cluster" data-entity="Energizer" data-source-line="39" data-uid="ent0025" id="cluster_Energizer"><path d="M195,683 L259.7998,683 A3.75,3.75 0 0 1 262.2998,685.5 L269.2998,707.6211 L759,707.6211 A2.5,2.5 0 0 1 761.5,710.1211 L761.5,782.5 A2.5,2.5 0 0 1 759,785 L195,785 A2.5,2.5 0 0 1 192.5,782.5 L192.5,685.5 A2.5,2.5 0 0 1 195,683" fill="#FFFFE0" style="stroke:#000000;stroke-width:1.5;"/><line style="stroke:#000000;stroke-width:1.5;" x1="192.5" x2="269.2998" y1="707.6211" y2="707.6211"/><text fill="#000000" font-family="sans-serif" font-size="14" font-weight="bold" lengthAdjust="spacing" textLength="63.7998" x="196.5" y="700.1074">Energizer</text></g><!--entity SfR--><g class="entity" data-entity="SfR" data-source-line="27" data-uid="ent0018" id="entity_SfR"><rect fill="#ADD8E6" height="48.6211" rx="2.5" ry="2.5" style="stroke:#181818;stroke-width:0.5;" width="192.5029" x="387" y="158"/><rect fill="#ADD8E6" height="10" style="stroke:#181818;stroke-width:0.5;" width="15" x="559.5029" y="163"/><rect fill="#ADD8E6" height="2" style="stroke:#181818;stroke-width:0.5;" width="4" x="557.5029" y="165"/><rect fill="#ADD8E6" height="2" style="stroke:#181818;stroke-width:0.5;" width="4" x="557.5029" y="169"/><text fill="#000000" font-family="sans-serif" font-size="14" lengthAdjust="spacing" textLength="152.5029" x="402" y="193.1074">Sludge from Red Crystal</text></g><!--entity SfB--><g class="entity" data-entity="SfB" data-source-line="28" data-uid="ent0019" id="entity_SfB"><rect fill="#ADD8E6" height="48.6211" rx="2.5" ry="2.5" style="stroke:#181818;stroke-width:0.5;" width="194.8408" x="157" y="158"/><rect fill="#ADD8E6" height="10" style="stroke:#181818;stroke-width:0.5;" width="15" x="331.8408" y="163"/><rect fill="#ADD8E6" height="2" style="stroke:#181818;stroke-width:0.5;" width="4" x="329.8408" y="165"/><rect fill="#ADD8E6" height="2" style="stroke:#181818;stroke-width:0.5;" width="4" x="329.8408" y="169"/><text fill="#000000" font-family="sans-serif" font-size="14" lengthAdjust="spacing" textLength="154.8408" x="172" y="193.1074">Sludge from Blue Crystal</text></g><!--entity SfG--><g class="entity" data-entity="SfG" data-source-line="29" data-uid="ent0020" id="entity_SfG"><rect fill="#ADD8E6" height="48.6211" rx="2.5" ry="2.5" style="stroke:#181818;stroke-width:0.5;" width="205.7305" x="615.5" y="158"/><rect fill="#ADD8E6" height="10" style="stroke:#181818;stroke-width:0.5;" width="15" x="801.2305" y="163"/><rect fill="#ADD8E6" height="2" style="stroke:#181818;stroke-width:0.5;" width="4" x="799.2305" y="165"/><rect fill="#ADD8E6" height="2" style="stroke:#181818;stroke-width:0.5;" width="4" x="799.2305" y="169"/><text fill="#000000" font-family="sans-serif" font-size="14" lengthAdjust="spacing" textLength="165.7305" x="630.5" y="193.1074">Sludge from Green Crystal</text></g><!--entity CPB--><g class="entity" data-entity="CPB" data-source-line="33" data-uid="ent0022" id="entity_CPB"><rect fill="#ADD8E6" height="48.6211" rx="2.5" ry="2.5" style="stroke:#181818;stroke-width:0.5;" width="106.1309" x="376.5" y="439"/><rect fill="#ADD8E6" height="10" style="stroke:#181818;stroke-width:0.5;" width="15" x="462.6309" y="444"/><rect fill="#ADD8E6" height="2" style="stroke:#181818;stroke-width:0.5;" width="4" x="460.6309" y="446"/><rect fill="#ADD8E6" height="2" style="stroke:#181818;stroke-width:0.5;" width="4" x="460.6309" y="450"/><text fill="#000000" font-family="sans-serif" font-size="14" lengthAdjust="spacing" textLength="66.1309" x="391.5" y="474.1074">Purple Mix</text></g><!--entity CPY--><g class="entity" data-entity="CPY" data-source-line="34" data-uid="ent0023" id="entity_CPY"><rect fill="#ADD8E6" height="48.6211" rx="2.5" ry="2.5" style="stroke:#181818;stroke-width:0.5;" width="106.9033" x="518" y="439"/><rect fill="#ADD8E6" height="10" style="stroke:#181818;stroke-width:0.5;" width="15" x="604.9033" y="444"/><rect fill="#ADD8E6" height="2" style="stroke:#181818;stroke-width:0.5;" width="4" x="602.9033" y="446"/><rect fill="#ADD8E6" height="2" style="stroke:#181818;stroke-width:0.5;" width="4" x="602.9033" y="450"/><text fill="#000000" font-family="sans-serif" font-size="14" lengthAdjust="spacing" textLength="66.9033" x="533" y="474.1074">Yellow Mix</text></g><!--entity Me--><g class="entity" data-entity="Me" data-source-line="35" data-uid="ent0024" id="entity_Me"><rect fill="#ADD8E6" height="48.6211" rx="2.5" ry="2.5" style="stroke:#181818;stroke-width:0.5;" width="66.4482" x="275.5" y="439"/><rect fill="#ADD8E6" height="10" style="stroke:#181818;stroke-width:0.5;" width="15" x="321.9482" y="444"/><rect fill="#ADD8E6" height="2" style="stroke:#181818;stroke-width:0.5;" width="4" x="319.9482" y="446"/><rect fill="#ADD8E6" height="2" style="stroke:#181818;stroke-width:0.5;" width="4" x="319.9482" y="450"/><text fill="#000000" font-family="sans-serif" font-size="14" lengthAdjust="spacing" textLength="26.4482" x="290.5" y="474.1074">Melt</text></g><!--entity HOP--><g class="entity" data-entity="HOP" data-source-line="40" data-uid="ent0026" id="entity_HOP"><rect fill="#ADD8E6" height="48.6211" rx="2.5" ry="2.5" style="stroke:#181818;stroke-width:0.5;" width="107.7031" x="208.5" y="720"/><rect fill="#ADD8E6" height="10" style="stroke:#181818;stroke-width:0.5;" width="15" x="296.2031" y="725"/><rect fill="#ADD8E6" height="2" style="stroke:#181818;stroke-width:0.5;" width="4" x="294.2031" y="727"/><rect fill="#ADD8E6" height="2" style="stroke:#181818;stroke-width:0.5;" width="4" x="294.2031" y="731"/><text fill="#000000" font-family="sans-serif" font-size="14" lengthAdjust="spacing" textLength="67.7031" x="223.5" y="755.1074">Denaturize</text></g><!--entity LOP--><g class="entity" data-entity="LOP" data-source-line="41" data-uid="ent0027" id="entity_LOP"><rect fill="#ADD8E6" height="48.6211" rx="2.5" ry="2.5" style="stroke:#181818;stroke-width:0.5;" width="107.7031" x="494.5" y="720"/><rect fill="#ADD8E6" height="10" style="stroke:#181818;stroke-width:0.5;" width="15" x="582.2031" y="725"/><rect fill="#ADD8E6" height="2" style="stroke:#181818;stroke-width:0.5;" width="4" x="580.2031" y="727"/><rect fill="#ADD8E6" height="2" style="stroke:#181818;stroke-width:0.5;" width="4" x="580.2031" y="731"/><text fill="#000000" font-family="sans-serif" font-size="14" lengthAdjust="spacing" textLength="67.7031" x="509.5" y="755.1074">Denaturize</text></g><!--entity GP--><g class="entity" data-entity="GP" data-source-line="42" data-uid="ent0028" id="entity_GP"><rect fill="#ADD8E6" height="48.6211" rx="2.5" ry="2.5" style="stroke:#181818;stroke-width:0.5;" width="107.7031" x="351.5" y="720"/><rect fill="#ADD8E6" height="10" style="stroke:#181818;stroke-width:0.5;" width="15" x="439.2031" y="725"/><rect fill="#ADD8E6" height="2" style="stroke:#181818;stroke-width:0.5;" width="4" x="437.2031" y="727"/><rect fill="#ADD8E6" height="2" style="stroke:#181818;stroke-width:0.5;" width="4" x="437.2031" y="731"/><text fill="#000000" font-family="sans-serif" font-size="14" lengthAdjust="spacing" textLength="67.7031" x="366.5" y="755.1074">Denaturize</text></g><!--entity LP--><g class="entity" data-entity="LP" data-source-line="43" data-uid="ent0029" id="entity_LP"><rect fill="#ADD8E6" height="48.6211" rx="2.5" ry="2.5" style="stroke:#181818;stroke-width:0.5;" width="107.7031" x="637.5" y="720"/><rect fill="#ADD8E6" height="10" style="stroke:#181818;stroke-width:0.5;" width="15" x="725.2031" y="725"/><rect fill="#ADD8E6" height="2" style="stroke:#181818;stroke-width:0.5;" width="4" x="723.2031" y="727"/><rect fill="#ADD8E6" height="2" style="stroke:#181818;stroke-width:0.5;" width="4" x="723.2031" y="731"/><text fill="#000000" font-family="sans-serif" font-size="14" lengthAdjust="spacing" textLength="67.7031" x="652.5" y="755.1074">Denaturize</text></g><!--entity I--><g class="entity" data-entity="I" data-source-line="6" data-uid="ent0002" id="entity_I"><rect fill="#FFB6C1" height="48.6211" rx="2.5" ry="2.5" style="stroke:#181818;stroke-width:0.5;" width="58.6758" x="161" y="288"/><rect fill="#FFB6C1" height="10" style="stroke:#181818;stroke-width:0.5;" width="15" x="199.6758" y="293"/><rect fill="#FFB6C1" height="2" style="stroke:#181818;stroke-width:0.5;" width="4" x="197.6758" y="295"/><rect fill="#FFB6C1" height="2" style="stroke:#181818;stroke-width:0.5;" width="4" x="197.6758" y="299"/><text fill="#000000" font-family="sans-serif" font-size="14" lengthAdjust="spacing" textLength="18.6758" x="176" y="323.1074">Ice</text></g><!--entity W--><g class="entity" data-entity="W" data-source-line="7" data-uid="ent0003" id="entity_W"><rect fill="#F1F1F1" height="48.6211" rx="2.5" ry="2.5" style="stroke:#181818;stroke-width:0.5;" width="77.3379" x="290" y="7"/><rect fill="#F1F1F1" height="10" style="stroke:#181818;stroke-width:0.5;" width="15" x="347.3379" y="12"/><rect fill="#F1F1F1" height="2" style="stroke:#181818;stroke-width:0.5;" width="4" x="345.3379" y="14"/><rect fill="#F1F1F1" height="2" style="stroke:#181818;stroke-width:0.5;" width="4" x="345.3379" y="18"/><text fill="#000000" font-family="sans-serif" font-size="14" lengthAdjust="spacing" textLength="37.3379" x="305" y="42.1074">Water</text></g><!--entity RC--><g class="entity" data-entity="RC" data-source-line="9" data-uid="ent0004" id="entity_RC"><rect fill="#FFB6C1" height="48.6211" rx="2.5" ry="2.5" style="stroke:#181818;stroke-width:0.5;" width="113.1309" x="427" y="7"/><rect fill="#FFB6C1" height="10" style="stroke:#181818;stroke-width:0.5;" width="15" x="520.1309" y="12"/><rect fill="#FFB6C1" height="2" style="stroke:#181818;stroke-width:0.5;" width="4" x="518.1309" y="14"/><rect fill="#FFB6C1" height="2" style="stroke:#181818;stroke-width:0.5;" width="4" x="518.1309" y="18"/><text fill="#000000" font-family="sans-serif" font-size="14" lengthAdjust="spacing" textLength="73.1309" x="442" y="42.1074">Red Crystal</text></g><!--entity BC--><g class="entity" data-entity="BC" data-source-line="10" data-uid="ent0005" id="entity_BC"><rect fill="#FFB6C1" height="48.6211" rx="2.5" ry="2.5" style="stroke:#181818;stroke-width:0.5;" width="115.4688" x="7" y="7"/><rect fill="#FFB6C1" height="10" style="stroke:#181818;stroke-width:0.5;" width="15" x="102.4688" y="12"/><rect fill="#FFB6C1" height="2" style="stroke:#181818;stroke-width:0.5;" width="4" x="100.4688" y="14"/><rect fill="#FFB6C1" height="2" style="stroke:#181818;stroke-width:0.5;" width="4" x="100.4688" y="18"/><text fill="#000000" font-family="sans-serif" font-size="14" lengthAdjust="spacing" textLength="75.4688" x="22" y="42.1074">Blue Crystal</text></g><!--entity GC--><g class="entity" data-entity="GC" data-source-line="11" data-uid="ent0006" id="entity_GC"><rect fill="#FFB6C1" height="48.6211" rx="2.5" ry="2.5" style="stroke:#181818;stroke-width:0.5;" width="126.3584" x="655.5" y="7"/><rect fill="#FFB6C1" height="10" style="stroke:#181818;stroke-width:0.5;" width="15" x="761.8584" y="12"/><rect fill="#FFB6C1" height="2" style="stroke:#181818;stroke-width:0.5;" width="4" x="759.8584" y="14"/><rect fill="#FFB6C1" height="2" style="stroke:#181818;stroke-width:0.5;" width="4" x="759.8584" y="18"/><text fill="#000000" font-family="sans-serif" font-size="14" lengthAdjust="spacing" textLength="86.3584" x="670.5" y="42.1074">Green Crystal</text></g><!--entity RS--><g class="entity" data-entity="RS" data-source-line="13" data-uid="ent0007" id="entity_RS"><rect fill="#F1F1F1" height="48.6211" rx="2.5" ry="2.5" style="stroke:#181818;stroke-width:0.5;" width="113.165" x="421" y="288"/><rect fill="#F1F1F1" height="10" style="stroke:#181818;stroke-width:0.5;" width="15" x="514.165" y="293"/><rect fill="#F1F1F1" height="2" style="stroke:#181818;stroke-width:0.5;" width="4" x="512.165" y="295"/><rect fill="#F1F1F1" height="2" style="stroke:#181818;stroke-width:0.5;" width="4" x="512.165" y="299"/><text fill="#000000" font-family="sans-serif" font-size="14" lengthAdjust="spacing" textLength="73.165" x="436" y="323.1074">Red Sludge</text></g><!--entity GS--><g class="entity" data-entity="GS" data-source-line="14" data-uid="ent0008" id="entity_GS"><rect fill="#F1F1F1" height="48.6211" rx="2.5" ry="2.5" style="stroke:#181818;stroke-width:0.5;" width="126.3926" x="628.5" y="288"/><rect fill="#F1F1F1" height="10" style="stroke:#181818;stroke-width:0.5;" width="15" x="734.8926" y="293"/><rect fill="#F1F1F1" height="2" style="stroke:#181818;stroke-width:0.5;" width="4" x="732.8926" y="295"/><rect fill="#F1F1F1" height="2" style="stroke:#181818;stroke-width:0.5;" width="4" x="732.8926" y="299"/><text fill="#000000" font-family="sans-serif" font-size="14" lengthAdjust="spacing" textLength="86.3926" x="643.5" y="323.1074">Green Sludge</text></g><!--entity BS--><g class="entity" data-entity="BS" data-source-line="15" data-uid="ent0009" id="entity_BS"><rect fill="#F1F1F1" height="48.6211" rx="2.5" ry="2.5" style="stroke:#181818;stroke-width:0.5;" width="115.5029" x="259.5" y="288"/><rect fill="#F1F1F1" height="10" style="stroke:#181818;stroke-width:0.5;" width="15" x="355.0029" y="293"/><rect fill="#F1F1F1" height="2" style="stroke:#181818;stroke-width:0.5;" width="4" x="353.0029" y="295"/><rect fill="#F1F1F1" height="2" style="stroke:#181818;stroke-width:0.5;" width="4" x="353.0029" y="299"/><text fill="#000000" font-family="sans-serif" font-size="14" lengthAdjust="spacing" textLength="75.5029" x="274.5" y="323.1074">Blue Sludge</text></g><!--entity PM--><g class="entity" data-entity="PM" data-source-line="17" data-uid="ent0010" id="entity_PM"><rect fill="#F1F1F1" height="48.6211" rx="2.5" ry="2.5" style="stroke:#181818;stroke-width:0.5;" width="130.2549" x="340.5" y="569"/><rect fill="#F1F1F1" height="10" style="stroke:#181818;stroke-width:0.5;" width="15" x="450.7549" y="574"/><rect fill="#F1F1F1" height="2" style="stroke:#181818;stroke-width:0.5;" width="4" x="448.7549" y="576"/><rect fill="#F1F1F1" height="2" style="stroke:#181818;stroke-width:0.5;" width="4" x="448.7549" y="580"/><text fill="#000000" font-family="sans-serif" font-size="14" lengthAdjust="spacing" textLength="90.2549" x="355.5" y="604.1074">Purple Mixture</text></g><!--entity YM--><g class="entity" data-entity="YM" data-source-line="18" data-uid="ent0011" id="entity_YM"><rect fill="#F1F1F1" height="48.6211" rx="2.5" ry="2.5" style="stroke:#181818;stroke-width:0.5;" width="131.0273" x="506" y="569"/><rect fill="#F1F1F1" height="10" style="stroke:#181818;stroke-width:0.5;" width="15" x="617.0273" y="574"/><rect fill="#F1F1F1" height="2" style="stroke:#181818;stroke-width:0.5;" width="4" x="615.0273" y="576"/><rect fill="#F1F1F1" height="2" style="stroke:#181818;stroke-width:0.5;" width="4" x="615.0273" y="580"/><text fill="#000000" font-family="sans-serif" font-size="14" lengthAdjust="spacing" textLength="91.0273" x="521" y="604.1074">Yellow Mixture</text></g><!--entity HO--><g class="entity" data-entity="HO" data-source-line="20" data-uid="ent0012" id="entity_HO"><rect fill="#90EE90" height="48.6211" rx="2.5" ry="2.5" style="stroke:#181818;stroke-width:0.5;" width="100.6826" x="59" y="850"/><rect fill="#90EE90" height="10" style="stroke:#181818;stroke-width:0.5;" width="15" x="139.6826" y="855"/><rect fill="#90EE90" height="2" style="stroke:#181818;stroke-width:0.5;" width="4" x="137.6826" y="857"/><rect fill="#90EE90" height="2" style="stroke:#181818;stroke-width:0.5;" width="4" x="137.6826" y="861"/><text fill="#000000" font-family="sans-serif" font-size="14" lengthAdjust="spacing" textLength="60.6826" x="74" y="885.1074">Heavy Oil</text></g><!--entity LO--><g class="entity" data-entity="LO" data-source-line="21" data-uid="ent0013" id="entity_LO"><rect fill="#90EE90" height="48.6211" rx="2.5" ry="2.5" style="stroke:#181818;stroke-width:0.5;" width="91.3584" x="483" y="850"/><rect fill="#90EE90" height="10" style="stroke:#181818;stroke-width:0.5;" width="15" x="554.3584" y="855"/><rect fill="#90EE90" height="2" style="stroke:#181818;stroke-width:0.5;" width="4" x="552.3584" y="857"/><rect fill="#90EE90" height="2" style="stroke:#181818;stroke-width:0.5;" width="4" x="552.3584" y="861"/><text fill="#000000" font-family="sans-serif" font-size="14" lengthAdjust="spacing" textLength="51.3584" x="498" y="885.1074">Light Oil</text></g><!--entity G--><g class="entity" data-entity="G" data-source-line="22" data-uid="ent0014" id="entity_G"><rect fill="#90EE90" height="48.6211" rx="2.5" ry="2.5" style="stroke:#181818;stroke-width:0.5;" width="65.6758" x="288.5" y="850"/><rect fill="#90EE90" height="10" style="stroke:#181818;stroke-width:0.5;" width="15" x="334.1758" y="855"/><rect fill="#90EE90" height="2" style="stroke:#181818;stroke-width:0.5;" width="4" x="332.1758" y="857"/><rect fill="#90EE90" height="2" style="stroke:#181818;stroke-width:0.5;" width="4" x="332.1758" y="861"/><text fill="#000000" font-family="sans-serif" font-size="14" lengthAdjust="spacing" textLength="25.6758" x="303.5" y="885.1074">Gas</text></g><!--entity L--><g class="entity" data-entity="L" data-source-line="23" data-uid="ent0015" id="entity_L"><rect fill="#90EE90" height="48.6211" rx="2.5" ry="2.5" style="stroke:#181818;stroke-width:0.5;" width="97.5928" x="702.5" y="850"/><rect fill="#90EE90" height="10" style="stroke:#181818;stroke-width:0.5;" width="15" x="780.0928" y="855"/><rect fill="#90EE90" height="2" style="stroke:#181818;stroke-width:0.5;" width="4" x="778.0928" y="857"/><rect fill="#90EE90" height="2" style="stroke:#181818;stroke-width:0.5;" width="4" x="778.0928" y="861"/><text fill="#000000" font-family="sans-serif" font-size="14" lengthAdjust="spacing" textLength="57.5928" x="717.5" y="885.1074">Lubricant</text></g><!--entity PA--><g class="entity" data-entity="PA" data-source-line="24" data-uid="ent0016" id="entity_PA"><rect fill="#90EE90" height="48.6211" rx="2.5" ry="2.5" style="stroke:#181818;stroke-width:0.5;" width="86.6826" x="491" y="960"/><rect fill="#90EE90" height="10" style="stroke:#181818;stroke-width:0.5;" width="15" x="557.6826" y="965"/><rect fill="#90EE90" height="2" style="stroke:#181818;stroke-width:0.5;" width="4" x="555.6826" y="967"/><rect fill="#90EE90" height="2" style="stroke:#181818;stroke-width:0.5;" width="4" x="555.6826" y="971"/><text fill="#000000" font-family="sans-serif" font-size="14" lengthAdjust="spacing" textLength="46.6826" x="506" y="995.1074">Plasma</text></g><!--link I to Me--><g class="link" data-entity-1="I" data-entity-2="Me" data-source-line="46" data-uid="lnk30" id="link_I_Me"><path d="M209.2,337.11 C231.16,364.85 263.6745,405.9068 285.7745,433.8068" fill="none" id="I-to-Me" style="stroke:#181818;stroke-width:1;"/><polygon fill="#181818" points="289.5,438.51,287.0472,428.9715,286.3954,434.5906,280.7762,433.9388,289.5,438.51" style="stroke:#181818;stroke-width:1;"/><text fill="#000000" font-family="sans-serif" font-size="13" lengthAdjust="spacing" textLength="7.23" x="246.5" y="382.0283">1</text></g><!--link Me to W--><g class="link" data-entity-1="Me" data-entity-2="W" data-source-line="47" data-uid="lnk31" id="link_Me_W"><path d="M275.31,448.29 C235.79,429.35 171.61,391.75 143.5,337 C98.02,248.43 85.68,196.11 140.5,113 C173.64,62.76 239.3847,44.7035 284.0347,37.5935" fill="none" id="Me-to-W" style="stroke:#181818;stroke-width:1;"/><polygon fill="#181818" points="289.96,36.65,280.443,34.1151,285.0222,37.4363,281.701,42.0155,289.96,36.65" style="stroke:#181818;stroke-width:1;"/><text fill="#000000" font-family="sans-serif" font-size="13" lengthAdjust="spacing" textLength="14.46" x="111.5" y="254.0283">20</text></g><!--link RC to SfR--><g class="link" data-entity-1="RC" data-entity-2="SfR" data-source-line="49" data-uid="lnk32" id="link_RC_SfR"><path d="M483.5,56.11 C483.5,83.85 483.5,123.61 483.5,151.51" fill="none" id="RC-to-SfR" style="stroke:#181818;stroke-width:1;"/><polygon fill="#181818" points="483.5,157.51,487.5,148.51,483.5,152.51,479.5,148.51,483.5,157.51" style="stroke:#181818;stroke-width:1;"/><text fill="#000000" font-family="sans-serif" font-size="13" lengthAdjust="spacing" textLength="7.23" x="484.5" y="101.0283">5</text></g><!--link W to SfR--><g class="link" data-entity-1="W" data-entity-2="SfR" data-source-line="50" data-uid="lnk33" id="link_W_SfR"><path d="M353.06,56.11 C382,83.93 425.4739,125.7225 454.4739,153.5925" fill="none" id="W-to-SfR" style="stroke:#181818;stroke-width:1;"/><polygon fill="#181818" points="458.8,157.75,455.0825,148.6297,455.1949,154.2854,449.5392,154.3978,458.8,157.75" style="stroke:#181818;stroke-width:1;"/><text fill="#000000" font-family="sans-serif" font-size="13" lengthAdjust="spacing" textLength="14.46" x="401.5" y="101.0283">20</text></g><!--link SfR to RS--><g class="link" data-entity-1="SfR" data-entity-2="RS" data-source-line="51" data-uid="lnk34" id="link_SfR_RS"><path d="M482.39,207.28 C481.31,230.27 479.9594,258.9065 478.8894,281.8565" fill="none" id="SfR-to-RS" style="stroke:#181818;stroke-width:1;"/><polygon fill="#181818" points="478.61,287.85,483.0248,279.0461,478.8429,282.8554,475.0335,278.6735,478.61,287.85" style="stroke:#181818;stroke-width:1;"/><text fill="#000000" font-family="sans-serif" font-size="13" lengthAdjust="spacing" textLength="14.46" x="481.5" y="254.0283">20</text></g><!--link BC to SfB--><g class="link" data-entity-1="BC" data-entity-2="SfB" data-source-line="53" data-uid="lnk35" id="link_BC_SfB"><path d="M94.61,56.11 C130.08,83.93 183.9481,126.1782 219.4981,154.0482" fill="none" id="BC-to-SfB" style="stroke:#181818;stroke-width:1;"/><polygon fill="#181818" points="224.22,157.75,219.605,149.0493,220.2851,154.6651,214.6692,155.3452,224.22,157.75" style="stroke:#181818;stroke-width:1;"/><text fill="#000000" font-family="sans-serif" font-size="13" lengthAdjust="spacing" textLength="14.46" x="154.5" y="101.0283">10</text></g><!--link W to SfB--><g class="link" data-entity-1="W" data-entity-2="SfB" data-source-line="54" data-uid="lnk36" id="link_W_SfB"><path d="M316.77,56.11 C303,83.85 282.9379,124.2358 269.0879,152.1358" fill="none" id="W-to-SfB" style="stroke:#181818;stroke-width:1;"/><polygon fill="#181818" points="266.42,157.51,274.0046,151.2272,268.6432,153.0315,266.839,147.6701,266.42,157.51" style="stroke:#181818;stroke-width:1;"/><text fill="#000000" font-family="sans-serif" font-size="13" lengthAdjust="spacing" textLength="14.46" x="300.5" y="101.0283">20</text></g><!--link SfB to BS--><g class="link" data-entity-1="SfB" data-entity-2="BS" data-source-line="55" data-uid="lnk37" id="link_SfB_BS"><path d="M266.2,207.28 C277.52,230.27 291.9215,259.5162 303.2115,282.4662" fill="none" id="SfB-to-BS" style="stroke:#181818;stroke-width:1;"/><polygon fill="#181818" points="305.86,287.85,305.4764,278.0086,303.6529,283.3635,298.298,281.54,305.86,287.85" style="stroke:#181818;stroke-width:1;"/><text fill="#000000" font-family="sans-serif" font-size="13" lengthAdjust="spacing" textLength="14.46" x="290.5" y="254.0283">20</text></g><!--link GC to SfG--><g class="link" data-entity-1="GC" data-entity-2="SfG" data-source-line="57" data-uid="lnk38" id="link_GC_SfG"><path d="M718.5,56.11 C718.5,83.85 718.5,123.61 718.5,151.51" fill="none" id="GC-to-SfG" style="stroke:#181818;stroke-width:1;"/><polygon fill="#181818" points="718.5,157.51,722.5,148.51,718.5,152.51,714.5,148.51,718.5,157.51" style="stroke:#181818;stroke-width:1;"/><text fill="#000000" font-family="sans-serif" font-size="13" lengthAdjust="spacing" textLength="14.46" x="719.5" y="101.0283">10</text></g><!--link W to SfG--><g class="link" data-entity-1="W" data-entity-2="SfG" data-source-line="58" data-uid="lnk39" id="link_W_SfG"><path d="M367.11,43.81 C438.9,64.86 586.67,108.38 597.5,113 C627.03,125.59 653.4245,140.4544 676.8845,154.8344" fill="none" id="W-to-SfG" style="stroke:#181818;stroke-width:1;"/><polygon fill="#181818" points="682,157.97,676.4172,149.8563,677.7371,155.357,672.2364,156.677,682,157.97" style="stroke:#181818;stroke-width:1;"/><text fill="#000000" font-family="sans-serif" font-size="13" lengthAdjust="spacing" textLength="14.46" x="569.5" y="101.0283">20</text></g><!--link SfG to GS--><g class="link" data-entity-1="SfG" data-entity-2="GS" data-source-line="59" data-uid="lnk40" id="link_SfG_GS"><path d="M713.48,207.28 C708.64,230.27 702.5681,259.0291 697.7281,281.9791" fill="none" id="SfG-to-GS" style="stroke:#181818;stroke-width:1;"/><polygon fill="#181818" points="696.49,287.85,702.2611,279.8691,697.5218,282.9576,694.4333,278.2183,696.49,287.85" style="stroke:#181818;stroke-width:1;"/><text fill="#000000" font-family="sans-serif" font-size="13" lengthAdjust="spacing" textLength="14.46" x="707.5" y="254.0283">20</text></g><!--link RS to CPB--><g class="link" data-entity-1="RS" data-entity-2="CPB" data-source-line="61" data-uid="lnk41" id="link_RS_CPB"><path d="M469.89,337.11 C460.96,364.85 448.0602,404.8992 439.0702,432.7992" fill="none" id="RS-to-CPB" style="stroke:#181818;stroke-width:1;"/><polygon fill="#181818" points="437.23,438.51,443.7975,431.1705,438.7635,433.751,436.183,428.717,437.23,438.51" style="stroke:#181818;stroke-width:1;"/><text fill="#000000" font-family="sans-serif" font-size="13" lengthAdjust="spacing" textLength="7.23" x="459.5" y="382.0283">5</text></g><!--link BS to CPB--><g class="link" data-entity-1="BS" data-entity-2="CPB" data-source-line="62" data-uid="lnk42" id="link_BS_CPB"><path d="M335.25,337.11 C356.1,364.85 386.884,405.8145 407.864,433.7145" fill="none" id="BS-to-CPB" style="stroke:#181818;stroke-width:1;"/><polygon fill="#181818" points="411.47,438.51,409.2579,428.9128,408.465,434.5138,402.864,433.7208,411.47,438.51" style="stroke:#181818;stroke-width:1;"/><text fill="#000000" font-family="sans-serif" font-size="13" lengthAdjust="spacing" textLength="7.23" x="370.5" y="382.0283">5</text></g><!--link CPB to PM--><g class="link" data-entity-1="CPB" data-entity-2="PM" data-source-line="63" data-uid="lnk43" id="link_CPB_PM"><path d="M425.04,488.28 C420.73,511.27 415.3474,540.0031 411.0374,562.9531" fill="none" id="CPB-to-PM" style="stroke:#181818;stroke-width:1;"/><polygon fill="#181818" points="409.93,568.85,415.5224,560.7429,410.8529,563.9359,407.6599,559.2663,409.93,568.85" style="stroke:#181818;stroke-width:1;"/><text fill="#000000" font-family="sans-serif" font-size="13" lengthAdjust="spacing" textLength="7.23" x="419.5" y="535.0283">5</text></g><!--link PM to GP--><g class="link" data-entity-1="PM" data-entity-2="GP" data-source-line="64" data-uid="lnk44" id="link_PM_GP"><path d="M405.5,618.11 C405.5,645.85 405.5,685.61 405.5,713.51" fill="none" id="PM-to-GP" style="stroke:#181818;stroke-width:1;"/><polygon fill="#181818" points="405.5,719.51,409.5,710.51,405.5,714.51,401.5,710.51,405.5,719.51" style="stroke:#181818;stroke-width:1;"/><text fill="#000000" font-family="sans-serif" font-size="13" lengthAdjust="spacing" textLength="14.46" x="406.5" y="663.0283">20</text></g><!--link GP to G--><g class="link" data-entity-1="GP" data-entity-2="G" data-source-line="65" data-uid="lnk45" id="link_GP_G"><path d="M389.9,769.28 C374.81,792.27 355.3718,821.8836 340.3118,844.8336" fill="none" id="GP-to-G" style="stroke:#181818;stroke-width:1;"/><polygon fill="#181818" points="337.02,849.85,345.3019,844.52,339.7632,845.6697,338.6134,840.1309,337.02,849.85" style="stroke:#181818;stroke-width:1;"/><text fill="#000000" font-family="sans-serif" font-size="13" lengthAdjust="spacing" textLength="14.46" x="369.5" y="816.0283">20</text></g><!--link RS to HOP--><g class="link" data-entity-1="RS" data-entity-2="HOP" data-source-line="67" data-uid="lnk46" id="link_RS_HOP"><path d="M420.82,330.74 C359.5,349.95 269.16,380.14 259.5,394 C188.39,496.06 231.1618,653.0983 251.7918,713.8883" fill="none" id="RS-to-HOP" style="stroke:#181818;stroke-width:1;"/><polygon fill="#181818" points="253.72,719.57,254.6156,709.7619,252.1132,714.8352,247.0399,712.3329,253.72,719.57" style="stroke:#181818;stroke-width:1;"/><text fill="#000000" font-family="sans-serif" font-size="13" lengthAdjust="spacing" textLength="14.46" x="221.5" y="535.0283">20</text></g><!--link HOP to HO--><g class="link" data-entity-1="HOP" data-entity-2="HO" data-source-line="68" data-uid="lnk47" id="link_HOP_HO"><path d="M229.54,769.13 C216.53,778.74 201.6,790.13 188.5,801 C169.6,816.7 153.5375,831.3554 138.1975,845.8754" fill="none" id="HOP-to-HO" style="stroke:#181818;stroke-width:1;"/><polygon fill="#181818" points="133.84,850,143.126,846.7181,137.4713,846.5629,137.6265,840.9081,133.84,850" style="stroke:#181818;stroke-width:1;"/><text fill="#000000" font-family="sans-serif" font-size="13" lengthAdjust="spacing" textLength="14.46" x="189.5" y="816.0283">20</text></g><!--link GS to CPY--><g class="link" data-entity-1="GS" data-entity-2="CPY" data-source-line="70" data-uid="lnk48" id="link_GS_CPY"><path d="M672.49,337.11 C650.15,364.85 617.0535,405.9371 594.5835,433.8371" fill="none" id="GS-to-CPY" style="stroke:#181818;stroke-width:1;"/><polygon fill="#181818" points="590.82,438.51,599.5805,434.0096,593.9562,434.6159,593.3499,428.9916,590.82,438.51" style="stroke:#181818;stroke-width:1;"/><text fill="#000000" font-family="sans-serif" font-size="13" lengthAdjust="spacing" textLength="7.23" x="646.5" y="382.0283">5</text></g><!--link RS to CPY--><g class="link" data-entity-1="RS" data-entity-2="CPY" data-source-line="71" data-uid="lnk49" id="link_RS_CPY"><path d="M492.39,337.11 C509.89,364.85 535.5588,405.5353 553.1588,433.4353" fill="none" id="RS-to-CPY" style="stroke:#181818;stroke-width:1;"/><polygon fill="#181818" points="556.36,438.51,554.9413,428.7639,553.6923,434.2811,548.1751,433.0322,556.36,438.51" style="stroke:#181818;stroke-width:1;"/><text fill="#000000" font-family="sans-serif" font-size="13" lengthAdjust="spacing" textLength="7.23" x="522.5" y="382.0283">5</text></g><!--link CPY to YM--><g class="link" data-entity-1="CPY" data-entity-2="YM" data-source-line="72" data-uid="lnk50" id="link_CPY_YM"><path d="M571.5,488.28 C571.5,511.27 571.5,539.9 571.5,562.85" fill="none" id="CPY-to-YM" style="stroke:#181818;stroke-width:1;"/><polygon fill="#181818" points="571.5,568.85,575.5,559.85,571.5,563.85,567.5,559.85,571.5,568.85" style="stroke:#181818;stroke-width:1;"/><text fill="#000000" font-family="sans-serif" font-size="13" lengthAdjust="spacing" textLength="7.23" x="572.5" y="535.0283">5</text></g><!--link YM to LOP--><g class="link" data-entity-1="YM" data-entity-2="LOP" data-source-line="73" data-uid="lnk51" id="link_YM_LOP"><path d="M567.86,618.11 C563.57,645.85 557.426,685.6803 553.116,713.5803" fill="none" id="YM-to-LOP" style="stroke:#181818;stroke-width:1;"/><polygon fill="#181818" points="552.2,719.51,557.5271,711.2262,552.9633,714.5686,549.6209,710.0048,552.2,719.51" style="stroke:#181818;stroke-width:1;"/><text fill="#000000" font-family="sans-serif" font-size="13" lengthAdjust="spacing" textLength="14.46" x="563.5" y="663.0283">20</text></g><!--link LOP to LO--><g class="link" data-entity-1="LOP" data-entity-2="LO" data-source-line="74" data-uid="lnk52" id="link_LOP_LO"><path d="M544.79,769.28 C541.19,792.27 536.7048,820.9717 533.1248,843.9217" fill="none" id="LOP-to-LO" style="stroke:#181818;stroke-width:1;"/><polygon fill="#181818" points="532.2,849.85,537.5394,841.5741,532.9706,844.9097,529.6349,840.341,532.2,849.85" style="stroke:#181818;stroke-width:1;"/><text fill="#000000" font-family="sans-serif" font-size="13" lengthAdjust="spacing" textLength="14.46" x="540.5" y="816.0283">20</text></g><!--link GS to LP--><g class="link" data-entity-1="GS" data-entity-2="LP" data-source-line="76" data-uid="lnk53" id="link_GS_LP"><path d="M691.5,337.23 C691.5,412.41 691.5,638.77 691.5,713.84" fill="none" id="GS-to-LP" style="stroke:#181818;stroke-width:1;"/><polygon fill="#181818" points="691.5,719.84,695.5,710.84,691.5,714.84,687.5,710.84,691.5,719.84" style="stroke:#181818;stroke-width:1;"/><text fill="#000000" font-family="sans-serif" font-size="13" lengthAdjust="spacing" textLength="14.46" x="692.5" y="535.0283">20</text></g><!--link LP to L--><g class="link" data-entity-1="LP" data-entity-2="L" data-source-line="77" data-uid="lnk54" id="link_LP_L"><path d="M702.64,769.28 C713.42,792.27 727.1149,821.4665 737.8649,844.4165" fill="none" id="LP-to-L" style="stroke:#181818;stroke-width:1;"/><polygon fill="#181818" points="740.41,849.85,740.2147,840.0031,738.2891,845.3221,732.9701,843.3965,740.41,849.85" style="stroke:#181818;stroke-width:1;"/><text fill="#000000" font-family="sans-serif" font-size="13" lengthAdjust="spacing" textLength="14.46" x="725.5" y="816.0283">20</text></g><!--link HOP to PA--><g class="link" data-entity-1="HOP" data-entity-2="PA" data-source-line="79" data-uid="lnk55" id="link_HOP_PA"><path d="M251.34,769.22 C237.79,801.87 220.07,860.95 248.5,899 C277.63,937.99 412.297,964.3218 484.927,976.0718" fill="none" id="HOP-to-PA" style="stroke:#181818;stroke-width:1;stroke-dasharray:7,7;"/><polygon fill="#181818" points="490.85,977.03,482.6043,971.644,485.9142,976.2315,481.3267,979.5413,490.85,977.03" style="stroke:#181818;stroke-width:1;"/><text fill="#000000" font-family="sans-serif" font-size="13" lengthAdjust="spacing" textLength="21.6899" x="249.5" y="880.0283">100</text></g><!--link LOP to PA--><g class="link" data-entity-1="LOP" data-entity-2="PA" data-source-line="80" data-uid="lnk56" id="link_LOP_PA"><path d="M563.54,769.01 C580.94,799.21 605.5,853.21 591.5,899 C584.57,921.68 573.0678,939.125 560.0678,955.025" fill="none" id="LOP-to-PA" style="stroke:#181818;stroke-width:1;stroke-dasharray:7,7;"/><polygon fill="#181818" points="556.27,959.67,565.0635,955.2343,559.4349,955.7991,558.8701,950.1705,556.27,959.67" style="stroke:#181818;stroke-width:1;"/><text fill="#000000" font-family="sans-serif" font-size="13" lengthAdjust="spacing" textLength="21.6899" x="596.5" y="880.0283">100</text></g><!--link GP to PA--><g class="link" data-entity-1="GP" data-entity-2="PA" data-source-line="81" data-uid="lnk57" id="link_GP_PA"><path d="M406.93,769.19 C409.76,800.79 418.09,857.54 442.5,899 C456.81,923.29 475.5632,941.0301 495.2232,956.2301" fill="none" id="GP-to-PA" style="stroke:#181818;stroke-width:1;stroke-dasharray:7,7;"/><polygon fill="#181818" points="499.97,959.9,495.2965,951.2306,496.0144,956.8417,490.4033,957.5596,499.97,959.9" style="stroke:#181818;stroke-width:1;"/><text fill="#000000" font-family="sans-serif" font-size="13" lengthAdjust="spacing" textLength="21.6899" x="443.5" y="880.0283">100</text></g><!--link LP to PA--><g class="link" data-entity-1="LP" data-entity-2="PA" data-source-line="82" data-uid="lnk58" id="link_LP_PA"><path d="M735.47,769.09 C784.91,798.72 853.96,851.45 818.5,899 C789.63,937.71 656.2708,964.1184 584.0608,975.9684" fill="none" id="LP-to-PA" style="stroke:#181818;stroke-width:1;stroke-dasharray:7,7;"/><polygon fill="#181818" points="578.14,976.94,587.669,979.4298,583.074,976.1303,586.3735,971.5353,578.14,976.94" style="stroke:#181818;stroke-width:1;"/><text fill="#000000" font-family="sans-serif" font-size="13" lengthAdjust="spacing" textLength="21.6899" x="828.5" y="880.0283">100</text></g><!--SRC=[VLCxRzim4DxvAuXaZf46w98XGEaMZ0494QJ148GEZ7oMXD2oGKbjtQB_lJm-79sCPYA_nzrzua5jjmD-WB4zxWRM8jXteEEzxaojWR5gKyDthWQ-uRUwQzhnrFLlhDgg4OpZjzQJmuwlpNaObNPSlYPceISWkg2wD00zCKXYy0CAFUqQdoKlOj6Cb4MODED4OOkpoPmqyBJxDKx6yrdAgXAqFluaT9bQ-pEe7sV-qlaapoyXIOFpM9NW_Q8c2rMgmMTP54slfgjLF_eYAcPQ3GVbOtqX4Zkf-aqrm6_2stI_mTm4ozd7_yCg_xryRuu7ljn4iS-3_zK-3VMIjJYl-A-NhiYPvTpyTnwsXOFzMitjb_NZTTxtVRY8wuoEVTzBa4iYfw3zCwQm2719yAq7q-1RNOt-2hsosxPQM6v6UY_av6DPVboSBU9j-DtT4wP-v9-OFH1jBNYuPyp-C0XnMu_yCzlEa9NnWaHU1Bk8Te7DxYz-4Vs2EqR40XaB92sGiK0wGaQ_dOGOLuDv18Lu8ivI1-tXYZDVR4y7QIjyQaVWnHCnMsnUkcuvXNWYBlsiqizAOhSaT4iMtPAe1pceE7orMZtXduOFuHjGHbvPbiG_]--></g></svg>