<svg xmlns="http://www.w3.org/2000/svg" xmlns:xlink="http://www.w3.org/1999/xlink" contentStyleType="text/css" data-diagram-type="DESCRIPTION" height="829px" preserveAspectRatio="none" style="width:1047px;height:829px;background:#FFFFFF;" version="1.1" viewBox="0 0 1047 829" width="1047px" zoomAndPan="magnify"><defs/><g><!--entity W1--><g class="entity" data-entity="W1" data-source-line="6" data-uid="ent0002" id="entity_W1"><rect fill="#FFB6C1" height="48.6211" rx="2.5" ry="2.5" style="stroke:#181818;stroke-width:0.5;" width="77.3379" x="292.5" y="7"/><rect fill="#FFB6C1" height="10" style="stroke:#181818;stroke-width:0.5;" width="15" x="349.8379" y="12"/><rect fill="#FFB6C1" height="2" style="stroke:#181818;stroke-width:0.5;" width="4" x="347.8379" y="14"/><rect fill="#FFB6C1" height="2" style="stroke:#181818;stroke-width:0.5;" width="4" x="347.8379" y="18"/><text fill="#000000" font-family="sans-serif" font-size="14" lengthAdjust="spacing" textLength="37.3379" x="307.5" y="42.1074">Water</text></g><!--entity W2--><g class="entity" data-entity="W2" data-source-line="7" data-uid="ent0003" id="entity_W2"><rect fill="#FFB6C1" height="48.6211" rx="2.5" ry="2.5" style="stroke:#181818;stroke-width:0.5;" width="77.3379" x="21.5" y="7"/><rect fill="#FFB6C1" height="10" style="stroke:#181818;stroke-width:0.5;" width="15" x="78.8379" y="12"/><rect fill="#FFB6C1" height="2" style="stroke:#181818;stroke-width:0.5;" width="4" x="76.8379" y="14"/><rect fill="#FFB6C1" height="2" style="stroke:#181818;stroke-width:0.5;" width="4" x="76.8379" y="18"/><text fill="#000000" font-family="sans-serif" font-size="14" lengthAdjust="spacing" textLength="37.3379" x="36.5" y="42.1074">Water</text></g><!--entity W3--><g class="entity" data-entity="W3" data-source-line="8" data-uid="ent0004" id="entity_W3"><rect fill="#FFB6C1" height="48.6211" rx="2.5" ry="2.5" style="stroke:#181818;stroke-width:0.5;" width="77.3379" x="557.5" y="7"/><rect fill="#FFB6C1" height="10" style="stroke:#181818;stroke-width:0.5;" width="15" x="614.8379" y="12"/><rect fill="#FFB6C1" height="2" style="stroke:#181818;stroke-width:0.5;" width="4" x="612.8379" y="14"/><rect fill="#FFB6C1" height="2" style="stroke:#181818;stroke-width:0.5;" width="4" x="612.8379" y="18"/><text fill="#000000" font-family="sans-serif" font-size="14" lengthAdjust="spacing" textLength="37.3379" x="572.5" y="42.1074">Water</text></g><!--entity RC--><g class="entity" data-entity="RC" data-source-line="10" data-uid="ent0005" id="entity_RC"><rect fill="#FFB6C1" height="48.6211" rx="2.5" ry="2.5" style="stroke:#181818;stroke-width:0.5;" width="113.1309" x="404.5" y="7"/><rect fill="#FFB6C1" height="10" style="stroke:#181818;stroke-width:0.5;" width="15" x="497.6309" y="12"/><rect fill="#FFB6C1" height="2" style="stroke:#181818;stroke-width:0.5;" width="4" x="495.6309" y="14"/><rect fill="#FFB6C1" height="2" style="stroke:#181818;stroke-width:0.5;" width="4" x="495.6309" y="18"/><text fill="#000000" font-family="sans-serif" font-size="14" lengthAdjust="spacing" textLength="73.1309" x="419.5" y="42.1074">Red Crystal</text></g><!--entity BC--><g class="entity" data-entity="BC" data-source-line="11" data-uid="ent0006" id="entity_BC"><rect fill="#FFB6C1" height="48.6211" rx="2.5" ry="2.5" style="stroke:#181818;stroke-width:0.5;" width="115.4688" x="133.5" y="7"/><rect fill="#FFB6C1" height="10" style="stroke:#181818;stroke-width:0.5;" width="15" x="228.9688" y="12"/><rect fill="#FFB6C1" height="2" style="stroke:#181818;stroke-width:0.5;" width="4" x="226.9688" y="14"/><rect fill="#FFB6C1" height="2" style="stroke:#181818;stroke-width:0.5;" width="4" x="226.9688" y="18"/><text fill="#000000" font-family="sans-serif" font-size="14" lengthAdjust="spacing" textLength="75.4688" x="148.5" y="42.1074">Blue Crystal</text></g><!--entity GC--><g class="entity" data-entity="GC" data-source-line="12" data-uid="ent0007" id="entity_GC"><rect fill="#FFB6C1" height="48.6211" rx="2.5" ry="2.5" style="stroke:#181818;stroke-width:0.5;" width="126.3584" x="670" y="7"/><rect fill="#FFB6C1" height="10" style="stroke:#181818;stroke-width:0.5;" width="15" x="776.3584" y="12"/><rect fill="#FFB6C1" height="2" style="stroke:#181818;stroke-width:0.5;" width="4" x="774.3584" y="14"/><rect fill="#FFB6C1" height="2" style="stroke:#181818;stroke-width:0.5;" width="4" x="774.3584" y="18"/><text fill="#000000" font-family="sans-serif" font-size="14" lengthAdjust="spacing" textLength="86.3584" x="685" y="42.1074">Green Crystal</text></g><!--entity RS--><g class="entity" data-entity="RS" data-source-line="14" data-uid="ent0008" id="entity_RS"><rect fill="#F1F1F1" height="48.6211" rx="2.5" ry="2.5" style="stroke:#181818;stroke-width:0.5;" width="113.165" x="378.5" y="263"/><rect fill="#F1F1F1" height="10" style="stroke:#181818;stroke-width:0.5;" width="15" x="471.665" y="268"/><rect fill="#F1F1F1" height="2" style="stroke:#181818;stroke-width:0.5;" width="4" x="469.665" y="270"/><rect fill="#F1F1F1" height="2" style="stroke:#181818;stroke-width:0.5;" width="4" x="469.665" y="274"/><text fill="#000000" font-family="sans-serif" font-size="14" lengthAdjust="spacing" textLength="73.165" x="393.5" y="298.1074">Red Sludge</text></g><!--entity GS--><g class="entity" data-entity="GS" data-source-line="15" data-uid="ent0009" id="entity_GS"><rect fill="#F1F1F1" height="48.6211" rx="2.5" ry="2.5" style="stroke:#181818;stroke-width:0.5;" width="126.3926" x="663" y="263"/><rect fill="#F1F1F1" height="10" style="stroke:#181818;stroke-width:0.5;" width="15" x="769.3926" y="268"/><rect fill="#F1F1F1" height="2" style="stroke:#181818;stroke-width:0.5;" width="4" x="767.3926" y="270"/><rect fill="#F1F1F1" height="2" style="stroke:#181818;stroke-width:0.5;" width="4" x="767.3926" y="274"/><text fill="#000000" font-family="sans-serif" font-size="14" lengthAdjust="spacing" textLength="86.3926" x="678" y="298.1074">Green Sludge</text></g><!--entity BS--><g class="entity" data-entity="BS" data-source-line="16" data-uid="ent0010" id="entity_BS"><rect fill="#F1F1F1" height="48.6211" rx="2.5" ry="2.5" style="stroke:#181818;stroke-width:0.5;" width="115.5029" x="131" y="263"/><rect fill="#F1F1F1" height="10" style="stroke:#181818;stroke-width:0.5;" width="15" x="226.5029" y="268"/><rect fill="#F1F1F1" height="2" style="stroke:#181818;stroke-width:0.5;" width="4" x="224.5029" y="270"/><rect fill="#F1F1F1" height="2" style="stroke:#181818;stroke-width:0.5;" width="4" x="224.5029" y="274"/><text fill="#000000" font-family="sans-serif" font-size="14" lengthAdjust="spacing" textLength="75.5029" x="146" y="298.1074">Blue Sludge</text></g><!--entity PM--><g class="entity" data-entity="PM" data-source-line="18" data-uid="ent0011" id="entity_PM"><rect fill="#F1F1F1" height="48.6211" rx="2.5" ry="2.5" style="stroke:#181818;stroke-width:0.5;" width="130.2549" x="99" y="519"/><rect fill="#F1F1F1" height="10" style="stroke:#181818;stroke-width:0.5;" width="15" x="209.2549" y="524"/><rect fill="#F1F1F1" height="2" style="stroke:#181818;stroke-width:0.5;" width="4" x="207.2549" y="526"/><rect fill="#F1F1F1" height="2" style="stroke:#181818;stroke-width:0.5;" width="4" x="207.2549" y="530"/><text fill="#000000" font-family="sans-serif" font-size="14" lengthAdjust="spacing" textLength="90.2549" x="114" y="554.1074">Purple Mixture</text></g><!--entity YM--><g class="entity" data-entity="YM" data-source-line="19" data-uid="ent0012" id="entity_YM"><rect fill="#F1F1F1" height="48.6211" rx="2.5" ry="2.5" style="stroke:#181818;stroke-width:0.5;" width="131.0273" x="524.5" y="519"/><rect fill="#F1F1F1" height="10" style="stroke:#181818;stroke-width:0.5;" width="15" x="635.5273" y="524"/><rect fill="#F1F1F1" height="2" style="stroke:#181818;stroke-width:0.5;" width="4" x="633.5273" y="526"/><rect fill="#F1F1F1" height="2" style="stroke:#181818;stroke-width:0.5;" width="4" x="633.5273" y="530"/><text fill="#000000" font-family="sans-serif" font-size="14" lengthAdjust="spacing" textLength="91.0273" x="539.5" y="554.1074">Yellow Mixture</text></g><!--entity HO--><g class="entity" data-entity="HO" data-source-line="21" data-uid="ent0013" id="entity_HO"><rect fill="#90EE90" height="48.6211" rx="2.5" ry="2.5" style="stroke:#181818;stroke-width:0.5;" width="100.6826" x="251.5" y="775"/><rect fill="#90EE90" height="10" style="stroke:#181818;stroke-width:0.5;" width="15" x="332.1826" y="780"/><rect fill="#90EE90" height="2" style="stroke:#181818;stroke-width:0.5;" width="4" x="330.1826" y="782"/><rect fill="#90EE90" height="2" style="stroke:#181818;stroke-width:0.5;" width="4" x="330.1826" y="786"/><text fill="#000000" font-family="sans-serif" font-size="14" lengthAdjust="spacing" textLength="60.6826" x="266.5" y="810.1074">Heavy Oil</text></g><!--entity LO--><g class="entity" data-entity="LO" data-source-line="22" data-uid="ent0014" id="entity_LO"><rect fill="#90EE90" height="48.6211" rx="2.5" ry="2.5" style="stroke:#181818;stroke-width:0.5;" width="91.3584" x="531.5" y="775"/><rect fill="#90EE90" height="10" style="stroke:#181818;stroke-width:0.5;" width="15" x="602.8584" y="780"/><rect fill="#90EE90" height="2" style="stroke:#181818;stroke-width:0.5;" width="4" x="600.8584" y="782"/><rect fill="#90EE90" height="2" style="stroke:#181818;stroke-width:0.5;" width="4" x="600.8584" y="786"/><text fill="#000000" font-family="sans-serif" font-size="14" lengthAdjust="spacing" textLength="51.3584" x="546.5" y="810.1074">Light Oil</text></g><!--entity G--><g class="entity" data-entity="G" data-source-line="23" data-uid="ent0015" id="entity_G"><rect fill="#90EE90" height="48.6211" rx="2.5" ry="2.5" style="stroke:#181818;stroke-width:0.5;" width="65.6758" x="7" y="775"/><rect fill="#90EE90" height="10" style="stroke:#181818;stroke-width:0.5;" width="15" x="52.6758" y="780"/><rect fill="#90EE90" height="2" style="stroke:#181818;stroke-width:0.5;" width="4" x="50.6758" y="782"/><rect fill="#90EE90" height="2" style="stroke:#181818;stroke-width:0.5;" width="4" x="50.6758" y="786"/><text fill="#000000" font-family="sans-serif" font-size="14" lengthAdjust="spacing" textLength="25.6758" x="22" y="810.1074">Gas</text></g><!--entity L--><g class="entity" data-entity="L" data-source-line="24" data-uid="ent0016" id="entity_L"><rect fill="#90EE90" height="48.6211" rx="2.5" ry="2.5" style="stroke:#181818;stroke-width:0.5;" width="97.5928" x="801" y="775"/><rect fill="#90EE90" height="10" style="stroke:#181818;stroke-width:0.5;" width="15" x="878.5928" y="780"/><rect fill="#90EE90" height="2" style="stroke:#181818;stroke-width:0.5;" width="4" x="876.5928" y="782"/><rect fill="#90EE90" height="2" style="stroke:#181818;stroke-width:0.5;" width="4" x="876.5928" y="786"/><text fill="#000000" font-family="sans-serif" font-size="14" lengthAdjust="spacing" textLength="57.5928" x="816" y="810.1074">Lubricant</text></g><!--entity PA1--><g class="entity" data-entity="PA1" data-source-line="25" data-uid="ent0017" id="entity_PA1"><rect fill="#90EE90" height="48.6211" rx="2.5" ry="2.5" style="stroke:#181818;stroke-width:0.5;" width="107.71" x="388" y="775"/><rect fill="#90EE90" height="10" style="stroke:#181818;stroke-width:0.5;" width="15" x="475.71" y="780"/><rect fill="#90EE90" height="2" style="stroke:#181818;stroke-width:0.5;" width="4" x="473.71" y="782"/><rect fill="#90EE90" height="2" style="stroke:#181818;stroke-width:0.5;" width="4" x="473.71" y="786"/><text fill="#000000" font-family="sans-serif" font-size="14" lengthAdjust="spacing" textLength="67.71" x="403" y="810.1074">Steam 165</text></g><!--entity PA2--><g class="entity" data-entity="PA2" data-source-line="26" data-uid="ent0018" id="entity_PA2"><rect fill="#90EE90" height="48.6211" rx="2.5" ry="2.5" style="stroke:#181818;stroke-width:0.5;" width="107.71" x="658" y="775"/><rect fill="#90EE90" height="10" style="stroke:#181818;stroke-width:0.5;" width="15" x="745.71" y="780"/><rect fill="#90EE90" height="2" style="stroke:#181818;stroke-width:0.5;" width="4" x="743.71" y="782"/><rect fill="#90EE90" height="2" style="stroke:#181818;stroke-width:0.5;" width="4" x="743.71" y="786"/><text fill="#000000" font-family="sans-serif" font-size="14" lengthAdjust="spacing" textLength="67.71" x="673" y="810.1074">Steam 165</text></g><!--entity PA3--><g class="entity" data-entity="PA3" data-source-line="27" data-uid="ent0019" id="entity_PA3"><rect fill="#90EE90" height="48.6211" rx="2.5" ry="2.5" style="stroke:#181818;stroke-width:0.5;" width="107.71" x="108" y="775"/><rect fill="#90EE90" height="10" style="stroke:#181818;stroke-width:0.5;" width="15" x="195.71" y="780"/><rect fill="#90EE90" height="2" style="stroke:#181818;stroke-width:0.5;" width="4" x="193.71" y="782"/><rect fill="#90EE90" height="2" style="stroke:#181818;stroke-width:0.5;" width="4" x="193.71" y="786"/><text fill="#000000" font-family="sans-serif" font-size="14" lengthAdjust="spacing" textLength="67.71" x="123" y="810.1074">Steam 165</text></g><!--entity PA4--><g class="entity" data-entity="PA4" data-source-line="28" data-uid="ent0020" id="entity_PA4"><rect fill="#90EE90" height="48.6211" rx="2.5" ry="2.5" style="stroke:#181818;stroke-width:0.5;" width="107.71" x="934" y="775"/><rect fill="#90EE90" height="10" style="stroke:#181818;stroke-width:0.5;" width="15" x="1021.71" y="780"/><rect fill="#90EE90" height="2" style="stroke:#181818;stroke-width:0.5;" width="4" x="1019.71" y="782"/><rect fill="#90EE90" height="2" style="stroke:#181818;stroke-width:0.5;" width="4" x="1019.71" y="786"/><text fill="#000000" font-family="sans-serif" font-size="14" lengthAdjust="spacing" textLength="67.71" x="949" y="810.1074">Steam 165</text></g><!--entity SfR--><g class="entity" data-entity="SfR" data-source-line="30" data-uid="ent0021" id="entity_SfR"><rect fill="#ADD8E6" height="48.6211" rx="2.5" ry="2.5" style="stroke:#181818;stroke-width:0.5;" width="192.5029" x="338.5" y="135"/><rect fill="#ADD8E6" height="10" style="stroke:#181818;stroke-width:0.5;" width="15" x="511.0029" y="140"/><rect fill="#ADD8E6" height="2" style="stroke:#181818;stroke-width:0.5;" width="4" x="509.0029" y="142"/><rect fill="#ADD8E6" height="2" style="stroke:#181818;stroke-width:0.5;" width="4" x="509.0029" y="146"/><text fill="#000000" font-family="sans-serif" font-size="14" lengthAdjust="spacing" textLength="152.5029" x="353.5" y="170.1074">Sludge from Red Crystal</text></g><!--entity SfB--><g class="entity" data-entity="SfB" data-source-line="31" data-uid="ent0022" id="entity_SfB"><rect fill="#ADD8E6" height="48.6211" rx="2.5" ry="2.5" style="stroke:#181818;stroke-width:0.5;" width="194.8408" x="91.5" y="135"/><rect fill="#ADD8E6" height="10" style="stroke:#181818;stroke-width:0.5;" width="15" x="266.3408" y="140"/><rect fill="#ADD8E6" height="2" style="stroke:#181818;stroke-width:0.5;" width="4" x="264.3408" y="142"/><rect fill="#ADD8E6" height="2" style="stroke:#181818;stroke-width:0.5;" width="4" x="264.3408" y="146"/><text fill="#000000" font-family="sans-serif" font-size="14" lengthAdjust="spacing" textLength="154.8408" x="106.5" y="170.1074">Sludge from Blue Crystal</text></g><!--entity SfG--><g class="entity" data-entity="SfG" data-source-line="32" data-uid="ent0023" id="entity_SfG"><rect fill="#ADD8E6" height="48.6211" rx="2.5" ry="2.5" style="stroke:#181818;stroke-width:0.5;" width="205.7305" x="623" y="135"/><rect fill="#ADD8E6" height="10" style="stroke:#181818;stroke-width:0.5;" width="15" x="808.7305" y="140"/><rect fill="#ADD8E6" height="2" style="stroke:#181818;stroke-width:0.5;" width="4" x="806.7305" y="142"/><rect fill="#ADD8E6" height="2" style="stroke:#181818;stroke-width:0.5;" width="4" x="806.7305" y="146"/><text fill="#000000" font-family="sans-serif" font-size="14" lengthAdjust="spacing" textLength="165.7305" x="638" y="170.1074">Sludge from Green Crystal</text></g><!--entity CPB--><g class="entity" data-entity="CPB" data-source-line="33" data-uid="ent0024" id="entity_CPB"><rect fill="#ADD8E6" height="48.6211" rx="2.5" ry="2.5" style="stroke:#181818;stroke-width:0.5;" width="106.1309" x="136" y="391"/><rect fill="#ADD8E6" height="10" style="stroke:#181818;stroke-width:0.5;" width="15" x="222.1309" y="396"/><rect fill="#ADD8E6" height="2" style="stroke:#181818;stroke-width:0.5;" width="4" x="220.1309" y="398"/><rect fill="#ADD8E6" height="2" style="stroke:#181818;stroke-width:0.5;" width="4" x="220.1309" y="402"/><text fill="#000000" font-family="sans-serif" font-size="14" lengthAdjust="spacing" textLength="66.1309" x="151" y="426.1074">Purple Mix</text></g><!--entity CPY--><g class="entity" data-entity="CPY" data-source-line="34" data-uid="ent0025" id="entity_CPY"><rect fill="#ADD8E6" height="48.6211" rx="2.5" ry="2.5" style="stroke:#181818;stroke-width:0.5;" width="106.9033" x="536.5" y="391"/><rect fill="#ADD8E6" height="10" style="stroke:#181818;stroke-width:0.5;" width="15" x="623.4033" y="396"/><rect fill="#ADD8E6" height="2" style="stroke:#181818;stroke-width:0.5;" width="4" x="621.4033" y="398"/><rect fill="#ADD8E6" height="2" style="stroke:#181818;stroke-width:0.5;" width="4" x="621.4033" y="402"/><text fill="#000000" font-family="sans-serif" font-size="14" lengthAdjust="spacing" textLength="66.9033" x="551.5" y="426.1074">Yellow Mix</text></g><!--entity HOP--><g class="entity" data-entity="HOP" data-source-line="36" data-uid="ent0026" id="entity_HOP"><rect fill="#ADD8E6" height="48.6211" rx="2.5" ry="2.5" style="stroke:#181818;stroke-width:0.5;" width="107.7031" x="381" y="647"/><rect fill="#ADD8E6" height="10" style="stroke:#181818;stroke-width:0.5;" width="15" x="468.7031" y="652"/><rect fill="#ADD8E6" height="2" style="stroke:#181818;stroke-width:0.5;" width="4" x="466.7031" y="654"/><rect fill="#ADD8E6" height="2" style="stroke:#181818;stroke-width:0.5;" width="4" x="466.7031" y="658"/><text fill="#000000" font-family="sans-serif" font-size="14" lengthAdjust="spacing" textLength="67.7031" x="396" y="682.1074">Denaturize</text></g><!--entity LOP--><g class="entity" data-entity="LOP" data-source-line="37" data-uid="ent0027" id="entity_LOP"><rect fill="#ADD8E6" height="48.6211" rx="2.5" ry="2.5" style="stroke:#181818;stroke-width:0.5;" width="107.7031" x="536" y="647"/><rect fill="#ADD8E6" height="10" style="stroke:#181818;stroke-width:0.5;" width="15" x="623.7031" y="652"/><rect fill="#ADD8E6" height="2" style="stroke:#181818;stroke-width:0.5;" width="4" x="621.7031" y="654"/><rect fill="#ADD8E6" height="2" style="stroke:#181818;stroke-width:0.5;" width="4" x="621.7031" y="658"/><text fill="#000000" font-family="sans-serif" font-size="14" lengthAdjust="spacing" textLength="67.7031" x="551" y="682.1074">Denaturize</text></g><!--entity GP--><g class="entity" data-entity="GP" data-source-line="38" data-uid="ent0028" id="entity_GP"><rect fill="#ADD8E6" height="48.6211" rx="2.5" ry="2.5" style="stroke:#181818;stroke-width:0.5;" width="107.7031" x="108" y="647"/><rect fill="#ADD8E6" height="10" style="stroke:#181818;stroke-width:0.5;" width="15" x="195.7031" y="652"/><rect fill="#ADD8E6" height="2" style="stroke:#181818;stroke-width:0.5;" width="4" x="193.7031" y="654"/><rect fill="#ADD8E6" height="2" style="stroke:#181818;stroke-width:0.5;" width="4" x="193.7031" y="658"/><text fill="#000000" font-family="sans-serif" font-size="14" lengthAdjust="spacing" textLength="67.7031" x="123" y="682.1074">Denaturize</text></g><!--entity LP--><g class="entity" data-entity="LP" data-source-line="39" data-uid="ent0029" id="entity_LP"><rect fill="#ADD8E6" height="48.6211" rx="2.5" ry="2.5" style="stroke:#181818;stroke-width:0.5;" width="107.7031" x="796" y="647"/><rect fill="#ADD8E6" height="10" style="stroke:#181818;stroke-width:0.5;" width="15" x="883.7031" y="652"/><rect fill="#ADD8E6" height="2" style="stroke:#181818;stroke-width:0.5;" width="4" x="881.7031" y="654"/><rect fill="#ADD8E6" height="2" style="stroke:#181818;stroke-width:0.5;" width="4" x="881.7031" y="658"/><text fill="#000000" font-family="sans-serif" font-size="14" lengthAdjust="spacing" textLength="67.7031" x="811" y="682.1074">Denaturize</text></g><!--link RC to SfR--><g class="link" data-entity-1="RC" data-entity-2="SfR" data-source-line="42" data-uid="lnk30" id="link_RC_SfR"><path d="M456.11,56.2 C451.46,78.73 445.7224,106.5438 441.0824,129.0338" fill="none" id="RC-to-SfR" style="stroke:#181818;stroke-width:1;"/><polygon fill="#181818" points="439.87,134.91,445.606,126.9039,440.8803,130.0131,437.771,125.2874,439.87,134.91" style="stroke:#181818;stroke-width:1;"/><text fill="#000000" font-family="sans-serif" font-size="13" lengthAdjust="spacing" textLength="7.23" x="451" y="101.0283">5</text></g><!--link W1 to SfR--><g class="link" data-entity-1="W1" data-entity-2="SfR" data-source-line="43" data-uid="lnk31" id="link_W1_SfR"><path d="M350.56,56.2 C369.16,78.73 393.1398,107.7934 411.7098,130.2834" fill="none" id="W1-to-SfR" style="stroke:#181818;stroke-width:1;"/><polygon fill="#181818" points="415.53,134.91,412.8841,125.4232,412.3465,131.0545,406.7152,130.5168,415.53,134.91" style="stroke:#181818;stroke-width:1;"/><text fill="#000000" font-family="sans-serif" font-size="13" lengthAdjust="spacing" textLength="14.46" x="391" y="101.0283">20</text></g><!--link SfR to RS--><g class="link" data-entity-1="SfR" data-entity-2="RS" data-source-line="44" data-uid="lnk32" id="link_SfR_RS"><path d="M435,184.2 C435,206.73 435,234.42 435,256.91" fill="none" id="SfR-to-RS" style="stroke:#181818;stroke-width:1;"/><polygon fill="#181818" points="435,262.91,439,253.91,435,257.91,431,253.91,435,262.91" style="stroke:#181818;stroke-width:1;"/><text fill="#000000" font-family="sans-serif" font-size="13" lengthAdjust="spacing" textLength="14.46" x="436" y="229.0283">20</text></g><!--link BC to SfB--><g class="link" data-entity-1="BC" data-entity-2="SfB" data-source-line="46" data-uid="lnk33" id="link_BC_SfB"><path d="M190.62,56.2 C190.27,78.73 189.826,106.4208 189.466,128.9108" fill="none" id="BC-to-SfB" style="stroke:#181818;stroke-width:1;"/><polygon fill="#181818" points="189.37,134.91,193.5135,125.9752,189.45,129.9106,185.5146,125.8471,189.37,134.91" style="stroke:#181818;stroke-width:1;"/><text fill="#000000" font-family="sans-serif" font-size="13" lengthAdjust="spacing" textLength="14.46" x="192" y="101.0283">10</text></g><!--link W2 to SfB--><g class="link" data-entity-1="W2" data-entity-2="SfB" data-source-line="47" data-uid="lnk34" id="link_W2_SfB"><path d="M84.26,56.2 C107.33,78.73 137.5282,108.2271 160.5482,130.7171" fill="none" id="W2-to-SfB" style="stroke:#181818;stroke-width:1;"/><polygon fill="#181818" points="164.84,134.91,161.1977,125.7594,161.2635,131.4159,155.6071,131.4818,164.84,134.91" style="stroke:#181818;stroke-width:1;"/><text fill="#000000" font-family="sans-serif" font-size="13" lengthAdjust="spacing" textLength="14.46" x="134" y="101.0283">20</text></g><!--link SfB to BS--><g class="link" data-entity-1="SfB" data-entity-2="BS" data-source-line="48" data-uid="lnk35" id="link_SfB_BS"><path d="M189,184.2 C189,206.73 189,234.42 189,256.91" fill="none" id="SfB-to-BS" style="stroke:#181818;stroke-width:1;"/><polygon fill="#181818" points="189,262.91,193,253.91,189,257.91,185,253.91,189,262.91" style="stroke:#181818;stroke-width:1;"/><text fill="#000000" font-family="sans-serif" font-size="13" lengthAdjust="spacing" textLength="14.46" x="190" y="229.0283">20</text></g><!--link GC to SfG--><g class="link" data-entity-1="GC" data-entity-2="SfG" data-source-line="50" data-uid="lnk36" id="link_GC_SfG"><path d="M731.68,56.2 C730.43,78.73 728.893,106.4292 727.643,128.9192" fill="none" id="GC-to-SfG" style="stroke:#181818;stroke-width:1;"/><polygon fill="#181818" points="727.31,134.91,731.8033,126.1458,727.5875,129.9177,723.8156,125.7019,727.31,134.91" style="stroke:#181818;stroke-width:1;"/><text fill="#000000" font-family="sans-serif" font-size="13" lengthAdjust="spacing" textLength="14.46" x="730" y="101.0283">10</text></g><!--link W3 to SfG--><g class="link" data-entity-1="W3" data-entity-2="SfG" data-source-line="51" data-uid="lnk37" id="link_W3_SfG"><path d="M620.45,56.2 C643.69,78.73 674.1411,108.2447 697.3511,130.7347" fill="none" id="W3-to-SfG" style="stroke:#181818;stroke-width:1;"/><polygon fill="#181818" points="701.66,134.91,697.9801,125.7744,698.0692,131.4306,692.4131,131.5197,701.66,134.91" style="stroke:#181818;stroke-width:1;"/><text fill="#000000" font-family="sans-serif" font-size="13" lengthAdjust="spacing" textLength="14.46" x="669" y="101.0283">20</text></g><!--link SfG to GS--><g class="link" data-entity-1="SfG" data-entity-2="GS" data-source-line="52" data-uid="lnk38" id="link_SfG_GS"><path d="M726,184.2 C726,206.73 726,234.42 726,256.91" fill="none" id="SfG-to-GS" style="stroke:#181818;stroke-width:1;"/><polygon fill="#181818" points="726,262.91,730,253.91,726,257.91,722,253.91,726,262.91" style="stroke:#181818;stroke-width:1;"/><text fill="#000000" font-family="sans-serif" font-size="13" lengthAdjust="spacing" textLength="14.46" x="727" y="229.0283">20</text></g><!--link RS to CPB--><g class="link" data-entity-1="RS" data-entity-2="CPB" data-source-line="54" data-uid="lnk39" id="link_RS_CPB"><path d="M389.02,312.05 C345.07,334.56 284.5203,365.5749 240.5103,388.1149" fill="none" id="RS-to-CPB" style="stroke:#181818;stroke-width:1;"/><polygon fill="#181818" points="235.17,390.85,245.0039,390.3076,239.6203,388.5708,241.3571,383.1871,235.17,390.85" style="stroke:#181818;stroke-width:1;"/><text fill="#000000" font-family="sans-serif" font-size="13" lengthAdjust="spacing" textLength="7.23" x="328" y="357.0283">5</text></g><!--link BS to CPB--><g class="link" data-entity-1="BS" data-entity-2="CPB" data-source-line="55" data-uid="lnk40" id="link_BS_CPB"><path d="M189,312.2 C189,334.73 189,362.42 189,384.91" fill="none" id="BS-to-CPB" style="stroke:#181818;stroke-width:1;"/><polygon fill="#181818" points="189,390.91,193,381.91,189,385.91,185,381.91,189,390.91" style="stroke:#181818;stroke-width:1;"/><text fill="#000000" font-family="sans-serif" font-size="13" lengthAdjust="spacing" textLength="7.23" x="190" y="357.0283">5</text></g><!--link CPB to PM--><g class="link" data-entity-1="CPB" data-entity-2="PM" data-source-line="56" data-uid="lnk41" id="link_CPB_PM"><path d="M184.3,440.2 C179.83,462.73 174.3071,490.5346 169.8471,513.0246" fill="none" id="CPB-to-PM" style="stroke:#181818;stroke-width:1;"/><polygon fill="#181818" points="168.68,518.91,174.3543,510.86,169.6526,514.0055,166.5071,509.3038,168.68,518.91" style="stroke:#181818;stroke-width:1;"/><text fill="#000000" font-family="sans-serif" font-size="13" lengthAdjust="spacing" textLength="7.23" x="179" y="485.0283">5</text></g><!--link PM to GP--><g class="link" data-entity-1="PM" data-entity-2="GP" data-source-line="57" data-uid="lnk42" id="link_PM_GP"><path d="M163.62,568.2 C163.27,590.73 162.826,618.4208 162.466,640.9108" fill="none" id="PM-to-GP" style="stroke:#181818;stroke-width:1;"/><polygon fill="#181818" points="162.37,646.91,166.5135,637.9752,162.45,641.9106,158.5146,637.8471,162.37,646.91" style="stroke:#181818;stroke-width:1;"/><text fill="#000000" font-family="sans-serif" font-size="13" lengthAdjust="spacing" textLength="14.46" x="165" y="613.0283">20</text></g><!--link GP to G--><g class="link" data-entity-1="GP" data-entity-2="G" data-source-line="58" data-uid="lnk43" id="link_GP_G"><path d="M139.05,696.2 C117.24,718.73 88.7941,748.1099 67.0141,770.5999" fill="none" id="GP-to-G" style="stroke:#181818;stroke-width:1;"/><polygon fill="#181818" points="62.84,774.91,71.9745,771.2275,66.3184,771.3182,66.2277,765.6621,62.84,774.91" style="stroke:#181818;stroke-width:1;"/><text fill="#000000" font-family="sans-serif" font-size="13" lengthAdjust="spacing" textLength="14.46" x="110" y="741.0283">20</text></g><!--link RS to HOP--><g class="link" data-entity-1="RS" data-entity-2="HOP" data-source-line="60" data-uid="lnk44" id="link_RS_HOP"><path d="M435,312.11 C435,380.43 435,571.83 435,640.56" fill="none" id="RS-to-HOP" style="stroke:#181818;stroke-width:1;"/><polygon fill="#181818" points="435,646.56,439,637.56,435,641.56,431,637.56,435,646.56" style="stroke:#181818;stroke-width:1;"/><text fill="#000000" font-family="sans-serif" font-size="13" lengthAdjust="spacing" textLength="14.46" x="436" y="485.0283">20</text></g><!--link HOP to HO--><g class="link" data-entity-1="HOP" data-entity-2="HO" data-source-line="61" data-uid="lnk45" id="link_HOP_HO"><path d="M409.98,696.2 C386.21,718.73 355.0066,748.2945 331.2566,770.7845" fill="none" id="HOP-to-HO" style="stroke:#181818;stroke-width:1;"/><polygon fill="#181818" points="326.9,774.91,336.1853,771.6262,330.5305,771.4721,330.6846,765.8173,326.9,774.91" style="stroke:#181818;stroke-width:1;"/><text fill="#000000" font-family="sans-serif" font-size="13" lengthAdjust="spacing" textLength="14.46" x="378" y="741.0283">20</text></g><!--link GS to CPY--><g class="link" data-entity-1="GS" data-entity-2="CPY" data-source-line="63" data-uid="lnk46" id="link_GS_CPY"><path d="M700.42,312.2 C676.1,334.73 644.141,364.3418 619.871,386.8318" fill="none" id="GS-to-CPY" style="stroke:#181818;stroke-width:1;"/><polygon fill="#181818" points="615.47,390.91,624.7902,387.7267,619.1375,387.5115,619.3526,381.8588,615.47,390.91" style="stroke:#181818;stroke-width:1;"/><text fill="#000000" font-family="sans-serif" font-size="13" lengthAdjust="spacing" textLength="7.23" x="667" y="357.0283">5</text></g><!--link RS to CPY--><g class="link" data-entity-1="RS" data-entity-2="CPY" data-source-line="64" data-uid="lnk47" id="link_RS_CPY"><path d="M464.15,312.2 C491.87,334.73 528.654,364.6356 556.324,387.1256" fill="none" id="RS-to-CPY" style="stroke:#181818;stroke-width:1;"/><polygon fill="#181818" points="560.98,390.91,556.5189,382.1294,557.1,387.7564,551.4731,388.3374,560.98,390.91" style="stroke:#181818;stroke-width:1;"/><text fill="#000000" font-family="sans-serif" font-size="13" lengthAdjust="spacing" textLength="7.23" x="522" y="357.0283">5</text></g><!--link CPY to YM--><g class="link" data-entity-1="CPY" data-entity-2="YM" data-source-line="65" data-uid="lnk48" id="link_CPY_YM"><path d="M590,440.2 C590,462.73 590,490.42 590,512.91" fill="none" id="CPY-to-YM" style="stroke:#181818;stroke-width:1;"/><polygon fill="#181818" points="590,518.91,594,509.91,590,513.91,586,509.91,590,518.91" style="stroke:#181818;stroke-width:1;"/><text fill="#000000" font-family="sans-serif" font-size="13" lengthAdjust="spacing" textLength="7.23" x="591" y="485.0283">5</text></g><!--link YM to LOP--><g class="link" data-entity-1="YM" data-entity-2="LOP" data-source-line="66" data-uid="lnk49" id="link_YM_LOP"><path d="M590,568.2 C590,590.73 590,618.42 590,640.91" fill="none" id="YM-to-LOP" style="stroke:#181818;stroke-width:1;"/><polygon fill="#181818" points="590,646.91,594,637.91,590,641.91,586,637.91,590,646.91" style="stroke:#181818;stroke-width:1;"/><text fill="#000000" font-family="sans-serif" font-size="13" lengthAdjust="spacing" textLength="14.46" x="591" y="613.0283">20</text></g><!--link LOP to LO--><g class="link" data-entity-1="LOP" data-entity-2="LO" data-source-line="67" data-uid="lnk50" id="link_LOP_LO"><path d="M587.55,696.2 C585.23,718.73 582.3657,746.4517 580.0457,768.9417" fill="none" id="LOP-to-LO" style="stroke:#181818;stroke-width:1;"/><polygon fill="#181818" points="579.43,774.91,584.3324,766.368,579.9431,769.9364,576.3746,765.5471,579.43,774.91" style="stroke:#181818;stroke-width:1;"/><text fill="#000000" font-family="sans-serif" font-size="13" lengthAdjust="spacing" textLength="14.46" x="585" y="741.0283">20</text></g><!--link GS to LP--><g class="link" data-entity-1="GS" data-entity-2="LP" data-source-line="69" data-uid="lnk51" id="link_GS_LP"><path d="M733.66,312.11 C755.84,380.43 818.0675,572.1231 840.3775,640.8531" fill="none" id="GS-to-LP" style="stroke:#181818;stroke-width:1;"/><polygon fill="#181818" points="842.23,646.56,843.2559,636.7647,840.6863,641.8043,835.6467,639.2347,842.23,646.56" style="stroke:#181818;stroke-width:1;"/><text fill="#000000" font-family="sans-serif" font-size="13" lengthAdjust="spacing" textLength="14.46" x="791" y="485.0283">20</text></g><!--link LP to L--><g class="link" data-entity-1="LP" data-entity-2="L" data-source-line="70" data-uid="lnk52" id="link_LP_L"><path d="M850,696.2 C850,718.73 850,746.42 850,768.91" fill="none" id="LP-to-L" style="stroke:#181818;stroke-width:1;"/><polygon fill="#181818" points="850,774.91,854,765.91,850,769.91,846,765.91,850,774.91" style="stroke:#181818;stroke-width:1;"/><text fill="#000000" font-family="sans-serif" font-size="13" lengthAdjust="spacing" textLength="14.46" x="851" y="741.0283">20</text></g><!--link HOP to PA1--><g class="link" data-entity-1="HOP" data-entity-2="PA1" data-source-line="72" data-uid="lnk53" id="link_HOP_PA1"><path d="M436.32,696.2 C437.57,718.73 439.107,746.4292 440.357,768.9192" fill="none" id="HOP-to-PA1" style="stroke:#181818;stroke-width:1;stroke-dasharray:7,7;"/><polygon fill="#181818" points="440.69,774.91,444.1844,765.7019,440.4125,769.9177,436.1967,766.1458,440.69,774.91" style="stroke:#181818;stroke-width:1;"/><text fill="#000000" font-family="sans-serif" font-size="13" lengthAdjust="spacing" textLength="14.46" x="440" y="741.0283">80</text></g><!--link LOP to PA2--><g class="link" data-entity-1="LOP" data-entity-2="PA2" data-source-line="73" data-uid="lnk54" id="link_LOP_PA2"><path d="M612.95,696.2 C634.76,718.73 663.2059,748.1099 684.9859,770.5999" fill="none" id="LOP-to-PA2" style="stroke:#181818;stroke-width:1;stroke-dasharray:7,7;"/><polygon fill="#181818" points="689.16,774.91,685.7723,765.6621,685.6816,771.3182,680.0255,771.2275,689.16,774.91" style="stroke:#181818;stroke-width:1;"/><text fill="#000000" font-family="sans-serif" font-size="13" lengthAdjust="spacing" textLength="14.46" x="659" y="741.0283">08</text></g><!--link GP to PA3--><g class="link" data-entity-1="GP" data-entity-2="PA3" data-source-line="74" data-uid="lnk55" id="link_GP_PA3"><path d="M162,696.2 C162,718.73 162,746.42 162,768.91" fill="none" id="GP-to-PA3" style="stroke:#181818;stroke-width:1;stroke-dasharray:7,7;"/><polygon fill="#181818" points="162,774.91,166,765.91,162,769.91,158,765.91,162,774.91" style="stroke:#181818;stroke-width:1;"/><text fill="#000000" font-family="sans-serif" font-size="13" lengthAdjust="spacing" textLength="14.46" x="163" y="741.0283">80</text></g><!--link LP to PA4--><g class="link" data-entity-1="LP" data-entity-2="PA4" data-source-line="75" data-uid="lnk56" id="link_LP_PA4"><path d="M875.96,696.2 C900.63,718.73 933.0992,748.3742 957.7292,770.8642" fill="none" id="LP-to-PA4" style="stroke:#181818;stroke-width:1;stroke-dasharray:7,7;"/><polygon fill="#181818" points="962.16,774.91,958.2111,765.8875,958.4677,771.5385,952.8167,771.7952,962.16,774.91" style="stroke:#181818;stroke-width:1;"/><text fill="#000000" font-family="sans-serif" font-size="13" lengthAdjust="spacing" textLength="14.46" x="928" y="741.0283">08</text></g><!--SRC=[VLDFJy8m5B_tKpJnh066XdWmiPYKmuZBTZ3Buc50OOq5pDXK_FJslRPk3-DExU_VUuy-LkcDudlLLCVDYLK0jbgPS5_hUcqKOyLBsQZwbPSd_ZBcLqRlgkPT7zw8CFbFYFe2ArAruVFwV6fAWtew9q5XMaLqGNLPAtKW1Zd_so0pxMQdNFqiX7gap7od7YSo6qxQ-jqeljHVJLixFbco8bV673y9dI-jVQ7AZpD_rcwInREVP0VzM173_LUDBrHPdjmi5w5sLUjrUMXSY8fPeyez7z_TkiaUnyFoP5YEXkKfaQsERyMtzN7FBxUORLFlNjbdfLwoKlIAVxrqlMYMnDmj2FlE4rghMvINyxxCYYTrAEqAzRVo6qj8_4AEXsKv72OgO_QFVdtzW2zrps-P_P8wE1ank02HPWup4Vp24kCHirzOXp4WE38Y96H8I9-8UXWJ4WaP0hONO7X464bG22VWP8dG7XXENDYU2FkbW80dHGekZWZZXV8vraifX1DmxhhbhbiSgiM-Maog8HCStk1rQ7zpyu0VoJsVkGgEc5XYD8DVu73a3G5FdSv-0000]--></g></svg>