<svg xmlns="http://www.w3.org/2000/svg" xmlns:xlink="http://www.w3.org/1999/xlink" contentStyleType="text/css" data-diagram-type="DESCRIPTION" height="1014px" preserveAspectRatio="none" style="width:1080px;height:1014px;background:#FFFFFF;" version="1.1" viewBox="0 0 1080 1014" width="1080px" zoomAndPan="magnify"><defs/><g><!--cluster Crystalizer--><g class="cluster" data-entity="Crystalizer" data-source-line="25" data-uid="ent0016" id="cluster_Crystalizer"><path d="M8.5,121 L81.0928,121 A3.75,3.75 0 0 1 83.5928,123.5 L90.5928,145.6211 L700.5,145.6211 A2.5,2.5 0 0 1 703,148.1211 L703,220.5 A2.5,2.5 0 0 1 700.5,223 L8.5,223 A2.5,2.5 0 0 1 6,220.5 L6,123.5 A2.5,2.5 0 0 1 8.5,121" fill="#FFFFE0" style="stroke:#000000;stroke-width:1.5;"/><line style="stroke:#000000;stroke-width:1.5;" x1="6" x2="90.5928" y1="145.6211" y2="145.6211"/><text fill="#000000" font-family="sans-serif" font-size="14" font-weight="bold" lengthAdjust="spacing" textLength="71.5928" x="10" y="138.1074">Crystalizer</text></g><!--cluster Chemical Plant--><g class="cluster" data-entity="Chemical Plant" data-source-line="31" data-uid="ent0020" id="cluster_Chemical Plant"><path d="M315.5,402 L416.8652,402 A3.75,3.75 0 0 1 419.3652,404.5 L426.3652,426.6211 L591.5,426.6211 A2.5,2.5 0 0 1 594,429.1211 L594,501.5 A2.5,2.5 0 0 1 591.5,504 L315.5,504 A2.5,2.5 0 0 1 313,501.5 L313,404.5 A2.5,2.5 0 0 1 315.5,402" fill="#FFFFE0" style="stroke:#000000;stroke-width:1.5;"/><line style="stroke:#000000;stroke-width:1.5;" x1="313" x2="426.3652" y1="426.6211" y2="426.6211"/><text fill="#000000" font-family="sans-serif" font-size="14" font-weight="bold" lengthAdjust="spacing" textLength="100.3652" x="317" y="419.1074">Chemical Plant</text></g><!--cluster Energizer--><g class="cluster" data-entity="Energizer" data-source-line="37" data-uid="ent0023" id="cluster_Energizer"><path d="M414.5,683 L479.2998,683 A3.75,3.75 0 0 1 481.7998,685.5 L488.7998,707.6211 L978.5,707.6211 A2.5,2.5 0 0 1 981,710.1211 L981,782.5 A2.5,2.5 0 0 1 978.5,785 L414.5,785 A2.5,2.5 0 0 1 412,782.5 L412,685.5 A2.5,2.5 0 0 1 414.5,683" fill="#FFFFE0" style="stroke:#000000;stroke-width:1.5;"/><line style="stroke:#000000;stroke-width:1.5;" x1="412" x2="488.7998" y1="707.6211" y2="707.6211"/><text fill="#000000" font-family="sans-serif" font-size="14" font-weight="bold" lengthAdjust="spacing" textLength="63.7998" x="416" y="700.1074">Energizer</text></g><!--entity SfR--><g class="entity" data-entity="SfR" data-source-line="26" data-uid="ent0017" id="entity_SfR"><rect fill="#ADD8E6" height="48.6211" rx="2.5" ry="2.5" style="stroke:#181818;stroke-width:0.5;" width="192.5029" x="252.5" y="158"/><rect fill="#ADD8E6" height="10" style="stroke:#181818;stroke-width:0.5;" width="15" x="425.0029" y="163"/><rect fill="#ADD8E6" height="2" style="stroke:#181818;stroke-width:0.5;" width="4" x="423.0029" y="165"/><rect fill="#ADD8E6" height="2" style="stroke:#181818;stroke-width:0.5;" width="4" x="423.0029" y="169"/><text fill="#000000" font-family="sans-serif" font-size="14" lengthAdjust="spacing" textLength="152.5029" x="267.5" y="193.1074">Sludge from Red Crystal</text></g><!--entity SfB--><g class="entity" data-entity="SfB" data-source-line="27" data-uid="ent0018" id="entity_SfB"><rect fill="#ADD8E6" height="48.6211" rx="2.5" ry="2.5" style="stroke:#181818;stroke-width:0.5;" width="194.8408" x="22.5" y="158"/><rect fill="#ADD8E6" height="10" style="stroke:#181818;stroke-width:0.5;" width="15" x="197.3408" y="163"/><rect fill="#ADD8E6" height="2" style="stroke:#181818;stroke-width:0.5;" width="4" x="195.3408" y="165"/><rect fill="#ADD8E6" height="2" style="stroke:#181818;stroke-width:0.5;" width="4" x="195.3408" y="169"/><text fill="#000000" font-family="sans-serif" font-size="14" lengthAdjust="spacing" textLength="154.8408" x="37.5" y="193.1074">Sludge from Blue Crystal</text></g><!--entity SfG--><g class="entity" data-entity="SfG" data-source-line="28" data-uid="ent0019" id="entity_SfG"><rect fill="#ADD8E6" height="48.6211" rx="2.5" ry="2.5" style="stroke:#181818;stroke-width:0.5;" width="205.7305" x="481" y="158"/><rect fill="#ADD8E6" height="10" style="stroke:#181818;stroke-width:0.5;" width="15" x="666.7305" y="163"/><rect fill="#ADD8E6" height="2" style="stroke:#181818;stroke-width:0.5;" width="4" x="664.7305" y="165"/><rect fill="#ADD8E6" height="2" style="stroke:#181818;stroke-width:0.5;" width="4" x="664.7305" y="169"/><text fill="#000000" font-family="sans-serif" font-size="14" lengthAdjust="spacing" textLength="165.7305" x="496" y="193.1074">Sludge from Green Crystal</text></g><!--entity CPB--><g class="entity" data-entity="CPB" data-source-line="32" data-uid="ent0021" id="entity_CPB"><rect fill="#ADD8E6" height="48.6211" rx="2.5" ry="2.5" style="stroke:#181818;stroke-width:0.5;" width="106.1309" x="329" y="439"/><rect fill="#ADD8E6" height="10" style="stroke:#181818;stroke-width:0.5;" width="15" x="415.1309" y="444"/><rect fill="#ADD8E6" height="2" style="stroke:#181818;stroke-width:0.5;" width="4" x="413.1309" y="446"/><rect fill="#ADD8E6" height="2" style="stroke:#181818;stroke-width:0.5;" width="4" x="413.1309" y="450"/><text fill="#000000" font-family="sans-serif" font-size="14" lengthAdjust="spacing" textLength="66.1309" x="344" y="474.1074">Purple Mix</text></g><!--entity CPY--><g class="entity" data-entity="CPY" data-source-line="33" data-uid="ent0022" id="entity_CPY"><rect fill="#ADD8E6" height="48.6211" rx="2.5" ry="2.5" style="stroke:#181818;stroke-width:0.5;" width="106.9033" x="470.5" y="439"/><rect fill="#ADD8E6" height="10" style="stroke:#181818;stroke-width:0.5;" width="15" x="557.4033" y="444"/><rect fill="#ADD8E6" height="2" style="stroke:#181818;stroke-width:0.5;" width="4" x="555.4033" y="446"/><rect fill="#ADD8E6" height="2" style="stroke:#181818;stroke-width:0.5;" width="4" x="555.4033" y="450"/><text fill="#000000" font-family="sans-serif" font-size="14" lengthAdjust="spacing" textLength="66.9033" x="485.5" y="474.1074">Yellow Mix</text></g><!--entity HOP--><g class="entity" data-entity="HOP" data-source-line="38" data-uid="ent0024" id="entity_HOP"><rect fill="#ADD8E6" height="48.6211" rx="2.5" ry="2.5" style="stroke:#181818;stroke-width:0.5;" width="107.7031" x="571" y="720"/><rect fill="#ADD8E6" height="10" style="stroke:#181818;stroke-width:0.5;" width="15" x="658.7031" y="725"/><rect fill="#ADD8E6" height="2" style="stroke:#181818;stroke-width:0.5;" width="4" x="656.7031" y="727"/><rect fill="#ADD8E6" height="2" style="stroke:#181818;stroke-width:0.5;" width="4" x="656.7031" y="731"/><text fill="#000000" font-family="sans-serif" font-size="14" lengthAdjust="spacing" textLength="67.7031" x="586" y="755.1074">Denaturize</text></g><!--entity LOP--><g class="entity" data-entity="LOP" data-source-line="39" data-uid="ent0025" id="entity_LOP"><rect fill="#ADD8E6" height="48.6211" rx="2.5" ry="2.5" style="stroke:#181818;stroke-width:0.5;" width="107.7031" x="714" y="720"/><rect fill="#ADD8E6" height="10" style="stroke:#181818;stroke-width:0.5;" width="15" x="801.7031" y="725"/><rect fill="#ADD8E6" height="2" style="stroke:#181818;stroke-width:0.5;" width="4" x="799.7031" y="727"/><rect fill="#ADD8E6" height="2" style="stroke:#181818;stroke-width:0.5;" width="4" x="799.7031" y="731"/><text fill="#000000" font-family="sans-serif" font-size="14" lengthAdjust="spacing" textLength="67.7031" x="729" y="755.1074">Denaturize</text></g><!--entity GP--><g class="entity" data-entity="GP" data-source-line="40" data-uid="ent0026" id="entity_GP"><rect fill="#ADD8E6" height="48.6211" rx="2.5" ry="2.5" style="stroke:#181818;stroke-width:0.5;" width="107.7031" x="428" y="720"/><rect fill="#ADD8E6" height="10" style="stroke:#181818;stroke-width:0.5;" width="15" x="515.7031" y="725"/><rect fill="#ADD8E6" height="2" style="stroke:#181818;stroke-width:0.5;" width="4" x="513.7031" y="727"/><rect fill="#ADD8E6" height="2" style="stroke:#181818;stroke-width:0.5;" width="4" x="513.7031" y="731"/><text fill="#000000" font-family="sans-serif" font-size="14" lengthAdjust="spacing" textLength="67.7031" x="443" y="755.1074">Denaturize</text></g><!--entity LP--><g class="entity" data-entity="LP" data-source-line="41" data-uid="ent0027" id="entity_LP"><rect fill="#ADD8E6" height="48.6211" rx="2.5" ry="2.5" style="stroke:#181818;stroke-width:0.5;" width="107.7031" x="857" y="720"/><rect fill="#ADD8E6" height="10" style="stroke:#181818;stroke-width:0.5;" width="15" x="944.7031" y="725"/><rect fill="#ADD8E6" height="2" style="stroke:#181818;stroke-width:0.5;" width="4" x="942.7031" y="727"/><rect fill="#ADD8E6" height="2" style="stroke:#181818;stroke-width:0.5;" width="4" x="942.7031" y="731"/><text fill="#000000" font-family="sans-serif" font-size="14" lengthAdjust="spacing" textLength="67.7031" x="872" y="755.1074">Denaturize</text></g><!--entity W--><g class="entity" data-entity="W" data-source-line="6" data-uid="ent0002" id="entity_W"><rect fill="#FFB6C1" height="48.6211" rx="2.5" ry="2.5" style="stroke:#181818;stroke-width:0.5;" width="77.3379" x="701.5" y="7"/><rect fill="#FFB6C1" height="10" style="stroke:#181818;stroke-width:0.5;" width="15" x="758.8379" y="12"/><rect fill="#FFB6C1" height="2" style="stroke:#181818;stroke-width:0.5;" width="4" x="756.8379" y="14"/><rect fill="#FFB6C1" height="2" style="stroke:#181818;stroke-width:0.5;" width="4" x="756.8379" y="18"/><text fill="#000000" font-family="sans-serif" font-size="14" lengthAdjust="spacing" textLength="37.3379" x="716.5" y="42.1074">Water</text></g><!--entity RC--><g class="entity" data-entity="RC" data-source-line="8" data-uid="ent0003" id="entity_RC"><rect fill="#FFB6C1" height="48.6211" rx="2.5" ry="2.5" style="stroke:#181818;stroke-width:0.5;" width="113.1309" x="292.5" y="7"/><rect fill="#FFB6C1" height="10" style="stroke:#181818;stroke-width:0.5;" width="15" x="385.6309" y="12"/><rect fill="#FFB6C1" height="2" style="stroke:#181818;stroke-width:0.5;" width="4" x="383.6309" y="14"/><rect fill="#FFB6C1" height="2" style="stroke:#181818;stroke-width:0.5;" width="4" x="383.6309" y="18"/><text fill="#000000" font-family="sans-serif" font-size="14" lengthAdjust="spacing" textLength="73.1309" x="307.5" y="42.1074">Red Crystal</text></g><!--entity BC--><g class="entity" data-entity="BC" data-source-line="9" data-uid="ent0004" id="entity_BC"><rect fill="#FFB6C1" height="48.6211" rx="2.5" ry="2.5" style="stroke:#181818;stroke-width:0.5;" width="115.4688" x="62.5" y="7"/><rect fill="#FFB6C1" height="10" style="stroke:#181818;stroke-width:0.5;" width="15" x="157.9688" y="12"/><rect fill="#FFB6C1" height="2" style="stroke:#181818;stroke-width:0.5;" width="4" x="155.9688" y="14"/><rect fill="#FFB6C1" height="2" style="stroke:#181818;stroke-width:0.5;" width="4" x="155.9688" y="18"/><text fill="#000000" font-family="sans-serif" font-size="14" lengthAdjust="spacing" textLength="75.4688" x="77.5" y="42.1074">Blue Crystal</text></g><!--entity GC--><g class="entity" data-entity="GC" data-source-line="10" data-uid="ent0005" id="entity_GC"><rect fill="#FFB6C1" height="48.6211" rx="2.5" ry="2.5" style="stroke:#181818;stroke-width:0.5;" width="126.3584" x="521" y="7"/><rect fill="#FFB6C1" height="10" style="stroke:#181818;stroke-width:0.5;" width="15" x="627.3584" y="12"/><rect fill="#FFB6C1" height="2" style="stroke:#181818;stroke-width:0.5;" width="4" x="625.3584" y="14"/><rect fill="#FFB6C1" height="2" style="stroke:#181818;stroke-width:0.5;" width="4" x="625.3584" y="18"/><text fill="#000000" font-family="sans-serif" font-size="14" lengthAdjust="spacing" textLength="86.3584" x="536" y="42.1074">Green Crystal</text></g><!--entity RS--><g class="entity" data-entity="RS" data-source-line="12" data-uid="ent0006" id="entity_RS"><rect fill="#F1F1F1" height="48.6211" rx="2.5" ry="2.5" style="stroke:#181818;stroke-width:0.5;" width="113.165" x="316.5" y="288"/><rect fill="#F1F1F1" height="10" style="stroke:#181818;stroke-width:0.5;" width="15" x="409.665" y="293"/><rect fill="#F1F1F1" height="2" style="stroke:#181818;stroke-width:0.5;" width="4" x="407.665" y="295"/><rect fill="#F1F1F1" height="2" style="stroke:#181818;stroke-width:0.5;" width="4" x="407.665" y="299"/><text fill="#000000" font-family="sans-serif" font-size="14" lengthAdjust="spacing" textLength="73.165" x="331.5" y="323.1074">Red Sludge</text></g><!--entity GS--><g class="entity" data-entity="GS" data-source-line="13" data-uid="ent0007" id="entity_GS"><rect fill="#F1F1F1" height="48.6211" rx="2.5" ry="2.5" style="stroke:#181818;stroke-width:0.5;" width="126.3926" x="521" y="288"/><rect fill="#F1F1F1" height="10" style="stroke:#181818;stroke-width:0.5;" width="15" x="627.3926" y="293"/><rect fill="#F1F1F1" height="2" style="stroke:#181818;stroke-width:0.5;" width="4" x="625.3926" y="295"/><rect fill="#F1F1F1" height="2" style="stroke:#181818;stroke-width:0.5;" width="4" x="625.3926" y="299"/><text fill="#000000" font-family="sans-serif" font-size="14" lengthAdjust="spacing" textLength="86.3926" x="536" y="323.1074">Green Sludge</text></g><!--entity BS--><g class="entity" data-entity="BS" data-source-line="14" data-uid="ent0008" id="entity_BS"><rect fill="#F1F1F1" height="48.6211" rx="2.5" ry="2.5" style="stroke:#181818;stroke-width:0.5;" width="115.5029" x="138" y="288"/><rect fill="#F1F1F1" height="10" style="stroke:#181818;stroke-width:0.5;" width="15" x="233.5029" y="293"/><rect fill="#F1F1F1" height="2" style="stroke:#181818;stroke-width:0.5;" width="4" x="231.5029" y="295"/><rect fill="#F1F1F1" height="2" style="stroke:#181818;stroke-width:0.5;" width="4" x="231.5029" y="299"/><text fill="#000000" font-family="sans-serif" font-size="14" lengthAdjust="spacing" textLength="75.5029" x="153" y="323.1074">Blue Sludge</text></g><!--entity PM--><g class="entity" data-entity="PM" data-source-line="16" data-uid="ent0009" id="entity_PM"><rect fill="#F1F1F1" height="48.6211" rx="2.5" ry="2.5" style="stroke:#181818;stroke-width:0.5;" width="130.2549" x="319" y="569"/><rect fill="#F1F1F1" height="10" style="stroke:#181818;stroke-width:0.5;" width="15" x="429.2549" y="574"/><rect fill="#F1F1F1" height="2" style="stroke:#181818;stroke-width:0.5;" width="4" x="427.2549" y="576"/><rect fill="#F1F1F1" height="2" style="stroke:#181818;stroke-width:0.5;" width="4" x="427.2549" y="580"/><text fill="#000000" font-family="sans-serif" font-size="14" lengthAdjust="spacing" textLength="90.2549" x="334" y="604.1074">Purple Mixture</text></g><!--entity YM--><g class="entity" data-entity="YM" data-source-line="17" data-uid="ent0010" id="entity_YM"><rect fill="#F1F1F1" height="48.6211" rx="2.5" ry="2.5" style="stroke:#181818;stroke-width:0.5;" width="131.0273" x="484.5" y="569"/><rect fill="#F1F1F1" height="10" style="stroke:#181818;stroke-width:0.5;" width="15" x="595.5273" y="574"/><rect fill="#F1F1F1" height="2" style="stroke:#181818;stroke-width:0.5;" width="4" x="593.5273" y="576"/><rect fill="#F1F1F1" height="2" style="stroke:#181818;stroke-width:0.5;" width="4" x="593.5273" y="580"/><text fill="#000000" font-family="sans-serif" font-size="14" lengthAdjust="spacing" textLength="91.0273" x="499.5" y="604.1074">Yellow Mixture</text></g><!--entity HO--><g class="entity" data-entity="HO" data-source-line="19" data-uid="ent0011" id="entity_HO"><rect fill="#90EE90" height="48.6211" rx="2.5" ry="2.5" style="stroke:#181818;stroke-width:0.5;" width="100.6826" x="472.5" y="850"/><rect fill="#90EE90" height="10" style="stroke:#181818;stroke-width:0.5;" width="15" x="553.1826" y="855"/><rect fill="#90EE90" height="2" style="stroke:#181818;stroke-width:0.5;" width="4" x="551.1826" y="857"/><rect fill="#90EE90" height="2" style="stroke:#181818;stroke-width:0.5;" width="4" x="551.1826" y="861"/><text fill="#000000" font-family="sans-serif" font-size="14" lengthAdjust="spacing" textLength="60.6826" x="487.5" y="885.1074">Heavy Oil</text></g><!--entity LO--><g class="entity" data-entity="LO" data-source-line="20" data-uid="ent0012" id="entity_LO"><rect fill="#90EE90" height="48.6211" rx="2.5" ry="2.5" style="stroke:#181818;stroke-width:0.5;" width="91.3584" x="702.5" y="850"/><rect fill="#90EE90" height="10" style="stroke:#181818;stroke-width:0.5;" width="15" x="773.8584" y="855"/><rect fill="#90EE90" height="2" style="stroke:#181818;stroke-width:0.5;" width="4" x="771.8584" y="857"/><rect fill="#90EE90" height="2" style="stroke:#181818;stroke-width:0.5;" width="4" x="771.8584" y="861"/><text fill="#000000" font-family="sans-serif" font-size="14" lengthAdjust="spacing" textLength="51.3584" x="717.5" y="885.1074">Light Oil</text></g><!--entity G--><g class="entity" data-entity="G" data-source-line="21" data-uid="ent0013" id="entity_G"><rect fill="#90EE90" height="48.6211" rx="2.5" ry="2.5" style="stroke:#181818;stroke-width:0.5;" width="65.6758" x="278" y="850"/><rect fill="#90EE90" height="10" style="stroke:#181818;stroke-width:0.5;" width="15" x="323.6758" y="855"/><rect fill="#90EE90" height="2" style="stroke:#181818;stroke-width:0.5;" width="4" x="321.6758" y="857"/><rect fill="#90EE90" height="2" style="stroke:#181818;stroke-width:0.5;" width="4" x="321.6758" y="861"/><text fill="#000000" font-family="sans-serif" font-size="14" lengthAdjust="spacing" textLength="25.6758" x="293" y="885.1074">Gas</text></g><!--entity L--><g class="entity" data-entity="L" data-source-line="22" data-uid="ent0014" id="entity_L"><rect fill="#90EE90" height="48.6211" rx="2.5" ry="2.5" style="stroke:#181818;stroke-width:0.5;" width="97.5928" x="922" y="850"/><rect fill="#90EE90" height="10" style="stroke:#181818;stroke-width:0.5;" width="15" x="999.5928" y="855"/><rect fill="#90EE90" height="2" style="stroke:#181818;stroke-width:0.5;" width="4" x="997.5928" y="857"/><rect fill="#90EE90" height="2" style="stroke:#181818;stroke-width:0.5;" width="4" x="997.5928" y="861"/><text fill="#000000" font-family="sans-serif" font-size="14" lengthAdjust="spacing" textLength="57.5928" x="937" y="885.1074">Lubricant</text></g><!--entity PA--><g class="entity" data-entity="PA" data-source-line="23" data-uid="ent0015" id="entity_PA"><rect fill="#90EE90" height="48.6211" rx="2.5" ry="2.5" style="stroke:#181818;stroke-width:0.5;" width="86.6826" x="710.5" y="960"/><rect fill="#90EE90" height="10" style="stroke:#181818;stroke-width:0.5;" width="15" x="777.1826" y="965"/><rect fill="#90EE90" height="2" style="stroke:#181818;stroke-width:0.5;" width="4" x="775.1826" y="967"/><rect fill="#90EE90" height="2" style="stroke:#181818;stroke-width:0.5;" width="4" x="775.1826" y="971"/><text fill="#000000" font-family="sans-serif" font-size="14" lengthAdjust="spacing" textLength="46.6826" x="725.5" y="995.1074">Plasma</text></g><!--link RC to SfR--><g class="link" data-entity-1="RC" data-entity-2="SfR" data-source-line="44" data-uid="lnk28" id="link_RC_SfR"><path d="M349,56.11 C349,83.85 349,123.61 349,151.51" fill="none" id="RC-to-SfR" style="stroke:#181818;stroke-width:1;"/><polygon fill="#181818" points="349,157.51,353,148.51,349,152.51,345,148.51,349,157.51" style="stroke:#181818;stroke-width:1;"/><text fill="#000000" font-family="sans-serif" font-size="13" lengthAdjust="spacing" textLength="7.23" x="350" y="101.0283">5</text></g><!--link W to SfR--><g class="link" data-entity-1="W" data-entity-2="SfR" data-source-line="45" data-uid="lnk29" id="link_W_SfR"><path d="M701.14,44.9 C689.53,48.54 676.77,52.49 665,56 C576.02,82.55 549.28,76.26 464,113 C435.61,125.23 410.7062,139.9632 388.4962,154.4432" fill="none" id="W-to-SfR" style="stroke:#181818;stroke-width:1;"/><polygon fill="#181818" points="383.47,157.72,393.1938,156.1555,387.6585,154.9893,388.8247,149.454,383.47,157.72" style="stroke:#181818;stroke-width:1;"/><text fill="#000000" font-family="sans-serif" font-size="13" lengthAdjust="spacing" textLength="14.46" x="539" y="101.0283">20</text></g><!--link SfR to RS--><g class="link" data-entity-1="SfR" data-entity-2="RS" data-source-line="46" data-uid="lnk30" id="link_SfR_RS"><path d="M353.46,207.28 C357.77,230.27 363.1526,259.0031 367.4626,281.9531" fill="none" id="SfR-to-RS" style="stroke:#181818;stroke-width:1;"/><polygon fill="#181818" points="368.57,287.85,370.8401,278.2663,367.6471,282.9359,362.9776,279.7429,368.57,287.85" style="stroke:#181818;stroke-width:1;"/><text fill="#000000" font-family="sans-serif" font-size="13" lengthAdjust="spacing" textLength="14.46" x="363" y="254.0283">20</text></g><!--link BC to SfB--><g class="link" data-entity-1="BC" data-entity-2="SfB" data-source-line="48" data-uid="lnk31" id="link_BC_SfB"><path d="M120,56.11 C120,83.85 120,123.61 120,151.51" fill="none" id="BC-to-SfB" style="stroke:#181818;stroke-width:1;"/><polygon fill="#181818" points="120,157.51,124,148.51,120,152.51,116,148.51,120,157.51" style="stroke:#181818;stroke-width:1;"/><text fill="#000000" font-family="sans-serif" font-size="13" lengthAdjust="spacing" textLength="14.46" x="121" y="101.0283">10</text></g><!--link W to SfB--><g class="link" data-entity-1="W" data-entity-2="SfB" data-source-line="49" data-uid="lnk32" id="link_W_SfB"><path d="M701.49,46.31 C689.89,50 677.05,53.61 665,56 C475.9,93.51 411.47,35.39 235,113 C206.71,125.44 181.8037,140.1848 159.5737,154.6048" fill="none" id="W-to-SfB" style="stroke:#181818;stroke-width:1;"/><polygon fill="#181818" points="154.54,157.87,164.2674,156.328,158.7348,155.149,159.9137,149.6163,154.54,157.87" style="stroke:#181818;stroke-width:1;"/><text fill="#000000" font-family="sans-serif" font-size="13" lengthAdjust="spacing" textLength="14.46" x="304" y="101.0283">20</text></g><!--link SfB to BS--><g class="link" data-entity-1="SfB" data-entity-2="BS" data-source-line="50" data-uid="lnk33" id="link_SfB_BS"><path d="M134.12,207.28 C147.77,230.27 165.2662,259.7412 178.8962,282.6912" fill="none" id="SfB-to-BS" style="stroke:#181818;stroke-width:1;"/><polygon fill="#181818" points="181.96,287.85,180.8035,278.0693,179.4068,283.551,173.9251,282.1544,181.96,287.85" style="stroke:#181818;stroke-width:1;"/><text fill="#000000" font-family="sans-serif" font-size="13" lengthAdjust="spacing" textLength="14.46" x="164" y="254.0283">20</text></g><!--link GC to SfG--><g class="link" data-entity-1="GC" data-entity-2="SfG" data-source-line="52" data-uid="lnk34" id="link_GC_SfG"><path d="M584,56.11 C584,83.85 584,123.61 584,151.51" fill="none" id="GC-to-SfG" style="stroke:#181818;stroke-width:1;"/><polygon fill="#181818" points="584,157.51,588,148.51,584,152.51,580,148.51,584,157.51" style="stroke:#181818;stroke-width:1;"/><text fill="#000000" font-family="sans-serif" font-size="13" lengthAdjust="spacing" textLength="14.46" x="585" y="101.0283">10</text></g><!--link W to SfG--><g class="link" data-entity-1="W" data-entity-2="SfG" data-source-line="53" data-uid="lnk35" id="link_W_SfG"><path d="M715.28,56.11 C686.16,83.93 642.3896,125.7366 613.1996,153.6066" fill="none" id="W-to-SfG" style="stroke:#181818;stroke-width:1;"/><polygon fill="#181818" points="608.86,157.75,618.1317,154.428,612.4764,154.2972,612.6072,148.6418,608.86,157.75" style="stroke:#181818;stroke-width:1;"/><text fill="#000000" font-family="sans-serif" font-size="13" lengthAdjust="spacing" textLength="14.46" x="681" y="101.0283">20</text></g><!--link SfG to GS--><g class="link" data-entity-1="SfG" data-entity-2="GS" data-source-line="54" data-uid="lnk36" id="link_SfG_GS"><path d="M584,207.28 C584,230.27 584,258.9 584,281.85" fill="none" id="SfG-to-GS" style="stroke:#181818;stroke-width:1;"/><polygon fill="#181818" points="584,287.85,588,278.85,584,282.85,580,278.85,584,287.85" style="stroke:#181818;stroke-width:1;"/><text fill="#000000" font-family="sans-serif" font-size="13" lengthAdjust="spacing" textLength="14.46" x="585" y="254.0283">20</text></g><!--link RS to CPB--><g class="link" data-entity-1="RS" data-entity-2="CPB" data-source-line="56" data-uid="lnk37" id="link_RS_CPB"><path d="M374.43,337.11 C376.1,364.85 378.5094,404.6208 380.1894,432.5208" fill="none" id="RS-to-CPB" style="stroke:#181818;stroke-width:1;"/><polygon fill="#181818" points="380.55,438.51,384.0018,429.2858,380.2495,433.519,376.0163,429.7667,380.55,438.51" style="stroke:#181818;stroke-width:1;"/><text fill="#000000" font-family="sans-serif" font-size="13" lengthAdjust="spacing" textLength="7.23" x="378" y="382.0283">5</text></g><!--link BS to CPB--><g class="link" data-entity-1="BS" data-entity-2="CPB" data-source-line="57" data-uid="lnk38" id="link_BS_CPB"><path d="M225.47,337.11 C260.2,364.93 312.8768,407.1294 347.6768,434.9994" fill="none" id="BS-to-CPB" style="stroke:#181818;stroke-width:1;"/><polygon fill="#181818" points="352.36,438.75,347.8356,430.0019,348.4573,435.6245,342.8347,436.2462,352.36,438.75" style="stroke:#181818;stroke-width:1;"/><text fill="#000000" font-family="sans-serif" font-size="13" lengthAdjust="spacing" textLength="7.23" x="284" y="382.0283">5</text></g><!--link CPB to PM--><g class="link" data-entity-1="CPB" data-entity-2="PM" data-source-line="58" data-uid="lnk39" id="link_CPB_PM"><path d="M382.37,488.28 C382.73,511.27 383.1759,539.9007 383.5359,562.8507" fill="none" id="CPB-to-PM" style="stroke:#181818;stroke-width:1;"/><polygon fill="#181818" points="383.63,568.85,387.4883,559.7884,383.5516,563.8506,379.4893,559.9138,383.63,568.85" style="stroke:#181818;stroke-width:1;"/><text fill="#000000" font-family="sans-serif" font-size="13" lengthAdjust="spacing" textLength="7.23" x="384" y="535.0283">5</text></g><!--link PM to GP--><g class="link" data-entity-1="PM" data-entity-2="GP" data-source-line="59" data-uid="lnk40" id="link_PM_GP"><path d="M399.53,618.11 C417.77,645.85 444.573,686.5971 462.923,714.4971" fill="none" id="PM-to-GP" style="stroke:#181818;stroke-width:1;"/><polygon fill="#181818" points="466.22,719.51,464.6164,709.7926,463.4725,715.3326,457.9325,714.1886,466.22,719.51" style="stroke:#181818;stroke-width:1;"/><text fill="#000000" font-family="sans-serif" font-size="13" lengthAdjust="spacing" textLength="14.46" x="431" y="663.0283">20</text></g><!--link GP to G--><g class="link" data-entity-1="GP" data-entity-2="G" data-source-line="60" data-uid="lnk41" id="link_GP_G"><path d="M427.93,767.43 C409.23,776.36 388.78,787.73 372,801 C354.46,814.88 341.8934,829.6354 330.6334,844.9554" fill="none" id="GP-to-G" style="stroke:#181818;stroke-width:1;"/><polygon fill="#181818" points="327.08,849.79,335.6331,844.907,330.0411,845.7612,329.187,840.1692,327.08,849.79" style="stroke:#181818;stroke-width:1;"/><text fill="#000000" font-family="sans-serif" font-size="13" lengthAdjust="spacing" textLength="14.46" x="373" y="816.0283">20</text></g><!--link RS to HOP--><g class="link" data-entity-1="RS" data-entity-2="HOP" data-source-line="62" data-uid="lnk42" id="link_RS_HOP"><path d="M317.28,337.28 C305.57,344.98 294.74,354.79 288,367 C271.85,396.24 114.08,347.8 302,618 C332.79,662.27 360.57,654.38 413,667 C443.51,674.34 525.24,662.43 554,675 C575.97,684.6 591.3596,699.5389 604.2196,715.3189" fill="none" id="RS-to-HOP" style="stroke:#181818;stroke-width:1;"/><polygon fill="#181818" points="608.01,719.97,605.4251,710.4664,604.8513,716.0941,599.2236,715.5203,608.01,719.97" style="stroke:#181818;stroke-width:1;"/><text fill="#000000" font-family="sans-serif" font-size="13" lengthAdjust="spacing" textLength="14.46" x="251" y="535.0283">20</text></g><!--link HOP to HO--><g class="link" data-entity-1="HOP" data-entity-2="HO" data-source-line="63" data-uid="lnk43" id="link_HOP_HO"><path d="M606.05,769.28 C587.73,792.27 563.8694,822.2078 545.5794,845.1578" fill="none" id="HOP-to-HO" style="stroke:#181818;stroke-width:1;"/><polygon fill="#181818" points="541.84,849.85,550.5773,845.3047,544.9562,845.9398,544.321,840.3188,541.84,849.85" style="stroke:#181818;stroke-width:1;"/><text fill="#000000" font-family="sans-serif" font-size="13" lengthAdjust="spacing" textLength="14.46" x="581" y="816.0283">20</text></g><!--link GS to CPY--><g class="link" data-entity-1="GS" data-entity-2="CPY" data-source-line="65" data-uid="lnk44" id="link_GS_CPY"><path d="M574.49,337.11 C563.32,364.85 547.1421,405.0447 535.9021,432.9447" fill="none" id="GS-to-CPY" style="stroke:#181818;stroke-width:1;"/><polygon fill="#181818" points="533.66,438.51,540.7334,431.6567,535.5284,433.8722,533.3129,428.6673,533.66,438.51" style="stroke:#181818;stroke-width:1;"/><text fill="#000000" font-family="sans-serif" font-size="13" lengthAdjust="spacing" textLength="7.23" x="562" y="382.0283">5</text></g><!--link RS to CPY--><g class="link" data-entity-1="RS" data-entity-2="CPY" data-source-line="66" data-uid="lnk45" id="link_RS_CPY"><path d="M396.93,337.11 C425.12,364.93 467.4187,406.6662 495.6687,434.5362" fill="none" id="RS-to-CPY" style="stroke:#181818;stroke-width:1;"/><polygon fill="#181818" points="499.94,438.75,496.3423,429.5818,496.3806,435.2385,490.7239,435.2768,499.94,438.75" style="stroke:#181818;stroke-width:1;"/><text fill="#000000" font-family="sans-serif" font-size="13" lengthAdjust="spacing" textLength="7.23" x="444" y="382.0283">5</text></g><!--link CPY to YM--><g class="link" data-entity-1="CPY" data-entity-2="YM" data-source-line="67" data-uid="lnk46" id="link_CPY_YM"><path d="M528.83,488.28 C533.5,511.27 539.3461,540.02 544.0061,562.97" fill="none" id="CPY-to-YM" style="stroke:#181818;stroke-width:1;"/><polygon fill="#181818" points="545.2,568.85,547.3291,559.234,544.2051,563.95,539.4891,560.8259,545.2,568.85" style="stroke:#181818;stroke-width:1;"/><text fill="#000000" font-family="sans-serif" font-size="13" lengthAdjust="spacing" textLength="7.23" x="539" y="535.0283">5</text></g><!--link YM to LOP--><g class="link" data-entity-1="YM" data-entity-2="LOP" data-source-line="68" data-uid="lnk47" id="link_YM_LOP"><path d="M600.66,618.03 C629.96,632.65 666.88,652.84 697,675 C715.07,688.3 729.091,701.5858 742.531,715.6258" fill="none" id="YM-to-LOP" style="stroke:#181818;stroke-width:1;"/><polygon fill="#181818" points="746.68,719.96,743.346,710.6926,743.2225,716.3481,737.567,716.2246,746.68,719.96" style="stroke:#181818;stroke-width:1;"/><text fill="#000000" font-family="sans-serif" font-size="13" lengthAdjust="spacing" textLength="14.46" x="683" y="663.0283">20</text></g><!--link LOP to LO--><g class="link" data-entity-1="LOP" data-entity-2="LO" data-source-line="69" data-uid="lnk48" id="link_LOP_LO"><path d="M764.29,769.28 C760.69,792.27 756.2048,820.9717 752.6248,843.9217" fill="none" id="LOP-to-LO" style="stroke:#181818;stroke-width:1;"/><polygon fill="#181818" points="751.7,849.85,757.0394,841.5741,752.4706,844.9097,749.1349,840.341,751.7,849.85" style="stroke:#181818;stroke-width:1;"/><text fill="#000000" font-family="sans-serif" font-size="13" lengthAdjust="spacing" textLength="14.46" x="760" y="816.0283">20</text></g><!--link GS to LP--><g class="link" data-entity-1="GS" data-entity-2="LP" data-source-line="71" data-uid="lnk49" id="link_GS_LP"><path d="M647.12,328.02 C670.19,336.12 694.81,348.45 712,367 C766.74,426.06 733,466.96 769,539 C804.17,609.37 857.3054,678.3923 887.2854,715.1123" fill="none" id="GS-to-LP" style="stroke:#181818;stroke-width:1;"/><polygon fill="#181818" points="891.08,719.76,888.4866,710.2587,887.9178,715.8869,882.2896,715.3182,891.08,719.76" style="stroke:#181818;stroke-width:1;"/><text fill="#000000" font-family="sans-serif" font-size="13" lengthAdjust="spacing" textLength="14.46" x="770" y="535.0283">20</text></g><!--link LP to L--><g class="link" data-entity-1="LP" data-entity-2="L" data-source-line="72" data-uid="lnk50" id="link_LP_L"><path d="M922.14,769.28 C932.92,792.27 946.6149,821.4665 957.3649,844.4165" fill="none" id="LP-to-L" style="stroke:#181818;stroke-width:1;"/><polygon fill="#181818" points="959.91,849.85,959.7147,840.0031,957.7891,845.3221,952.4701,843.3965,959.91,849.85" style="stroke:#181818;stroke-width:1;"/><text fill="#000000" font-family="sans-serif" font-size="13" lengthAdjust="spacing" textLength="14.46" x="945" y="816.0283">20</text></g><!--link HOP to PA--><g class="link" data-entity-1="HOP" data-entity-2="PA" data-source-line="74" data-uid="lnk51" id="link_HOP_PA"><path d="M626.43,769.19 C629.26,800.79 637.59,857.54 662,899 C676.31,923.29 695.0632,941.0301 714.7232,956.2301" fill="none" id="HOP-to-PA" style="stroke:#181818;stroke-width:1;stroke-dasharray:7,7;"/><polygon fill="#181818" points="719.47,959.9,714.7965,951.2306,715.5144,956.8417,709.9033,957.5596,719.47,959.9" style="stroke:#181818;stroke-width:1;"/><text fill="#000000" font-family="sans-serif" font-size="13" lengthAdjust="spacing" textLength="21.6899" x="663" y="880.0283">100</text></g><!--link LOP to PA--><g class="link" data-entity-1="LOP" data-entity-2="PA" data-source-line="75" data-uid="lnk52" id="link_LOP_PA"><path d="M783.04,769.01 C800.44,799.21 825,853.21 811,899 C804.07,921.68 792.5678,939.125 779.5678,955.025" fill="none" id="LOP-to-PA" style="stroke:#181818;stroke-width:1;stroke-dasharray:7,7;"/><polygon fill="#181818" points="775.77,959.67,784.5635,955.2343,778.9349,955.7991,778.3701,950.1705,775.77,959.67" style="stroke:#181818;stroke-width:1;"/><text fill="#000000" font-family="sans-serif" font-size="13" lengthAdjust="spacing" textLength="21.6899" x="816" y="880.0283">100</text></g><!--link GP to PA--><g class="link" data-entity-1="GP" data-entity-2="PA" data-source-line="76" data-uid="lnk53" id="link_GP_PA"><path d="M462,769.11 C437.2,801.38 401.7,859.72 432,899 C465.93,942.99 624.5466,967.8137 704.3966,977.8237" fill="none" id="GP-to-PA" style="stroke:#181818;stroke-width:1;stroke-dasharray:7,7;"/><polygon fill="#181818" points="710.35,978.57,701.9174,973.4816,705.3888,977.9481,700.9223,981.4195,710.35,978.57" style="stroke:#181818;stroke-width:1;"/><text fill="#000000" font-family="sans-serif" font-size="13" lengthAdjust="spacing" textLength="21.6899" x="433" y="880.0283">100</text></g><!--link LP to PA--><g class="link" data-entity-1="LP" data-entity-2="PA" data-source-line="77" data-uid="lnk54" id="link_LP_PA"><path d="M954.97,769.09 C1004.41,798.72 1073.46,851.45 1038,899 C1009.13,937.71 875.7708,964.1184 803.5608,975.9684" fill="none" id="LP-to-PA" style="stroke:#181818;stroke-width:1;stroke-dasharray:7,7;"/><polygon fill="#181818" points="797.64,976.94,807.169,979.4298,802.574,976.1303,805.8735,971.5353,797.64,976.94" style="stroke:#181818;stroke-width:1;"/><text fill="#000000" font-family="sans-serif" font-size="13" lengthAdjust="spacing" textLength="21.6899" x="1048" y="880.0283">100</text></g><!--link W to HOP--><g class="link" data-entity-1="W" data-entity-2="HOP" data-source-line="79" data-uid="lnk55" id="link_W_HOP"><path d="M759.4,56.15 C780.42,84.23 811,133.36 811,181.5 C811,181.5 811,181.5 811,594.5 C811,656.53 744.93,635.63 697,675 C679.93,689.02 666.1897,701.9145 652.4597,715.5345" fill="none" id="W-to-HOP" style="stroke:#181818;stroke-width:1;stroke-dasharray:7,7;"/><polygon fill="#181818" points="648.2,719.76,657.4065,716.2615,651.7497,716.2387,651.7725,710.5819,648.2,719.76" style="stroke:#181818;stroke-width:1;"/><text fill="#000000" font-family="sans-serif" font-size="13" lengthAdjust="spacing" textLength="21.6899" x="812" y="382.0283">100</text></g><!--link W to LOP--><g class="link" data-entity-1="W" data-entity-2="LOP" data-source-line="80" data-uid="lnk56" id="link_W_LOP"><path d="M778.71,47.07 C798.16,55.94 820.95,68.89 837,86 C869.1,120.22 882,134.58 882,181.5 C882,181.5 882,181.5 882,594.5 C882,623.9 829.5347,681.6298 796.1047,715.6598" fill="none" id="W-to-LOP" style="stroke:#181818;stroke-width:1;stroke-dasharray:7,7;"/><polygon fill="#181818" points="791.9,719.94,801.0606,716.3229,795.4039,716.3732,795.3536,710.7165,791.9,719.94" style="stroke:#181818;stroke-width:1;"/><text fill="#000000" font-family="sans-serif" font-size="13" lengthAdjust="spacing" textLength="21.6899" x="883" y="382.0283">100</text></g><!--link W to GP--><g class="link" data-entity-1="W" data-entity-2="GP" data-source-line="81" data-uid="lnk57" id="link_W_GP"><path d="M740.26,56.11 C740.89,160.78 737.66,581.6 647,667 C631.9,681.22 572.91,666.48 554,675 C532.13,684.85 516.6476,699.6044 503.5276,715.2344" fill="none" id="W-to-GP" style="stroke:#181818;stroke-width:1;stroke-dasharray:7,7;"/><polygon fill="#181818" points="499.67,719.83,508.5201,715.5084,502.8846,716.0004,502.3926,710.3649,499.67,719.83" style="stroke:#181818;stroke-width:1;"/><text fill="#000000" font-family="sans-serif" font-size="13" lengthAdjust="spacing" textLength="21.6899" x="728" y="382.0283">100</text></g><!--link W to LP--><g class="link" data-entity-1="W" data-entity-2="LP" data-source-line="82" data-uid="lnk58" id="link_W_LP"><path d="M778.57,40.87 C839.95,56.72 953,97.33 953,181.5 C953,181.5 953,181.5 953,594.5 C953,640.19 936.8509,685.3883 924.4109,714.3083" fill="none" id="W-to-LP" style="stroke:#181818;stroke-width:1;stroke-dasharray:7,7;"/><polygon fill="#181818" points="922.04,719.82,929.2708,713.133,924.0157,715.2269,921.9218,709.9719,922.04,719.82" style="stroke:#181818;stroke-width:1;"/><text fill="#000000" font-family="sans-serif" font-size="13" lengthAdjust="spacing" textLength="21.6899" x="954" y="382.0283">100</text></g><!--SRC=[VLDDJ-Cm4BtxLrXmfW8aBXoGS47ca8eeELHHj0VJJXCBDwsS1EYk-E_hyKSRkuAJFU-zcJUUILgv1hg5eTsjUz9Yi96WmdqbzKe18VLI3A3_KD7J9RrKicc7lUpU3L70cixreH-4idGnd_8rKoD4F8jvhW6wIC3dvmQb6jSDkFfbI9g0lFHE4uoL9ZaVzLu1NSYlOTGEpnUaha2ftMS4LmiZVm7nSQ2lqdNoykexQT2Fr1dUZsoMi5pqhfSaQNpJSYMwmIN5PAv4lnMkhSU88dknUXSDq0i_6_aNz8MN75px_qZjtaitUhUbwIRAJU7rRsOqiJPQYzMo7xNnYgoOJyNVqsPRs9hNAcfUrWtd_PxsOLkSvx7jQI-UhXAZezDp1xh1cPnPF44dp5ODvvUOHnO9dVrEyz-JywGzy_5VNJtOoT_JExASHBVN12y85AMB2GjoPe2RwwEU1JsZ5c4XWOS47YVmaC0jm8FUE66COyP-M1pYYN6-iA4vR7BkairfmxWKZjC2U750w2qKhsor8WxnnBXoNfNpoaArp5VBacfPu3tjMJIVpMOF-DVW85o16E5daXGmuxE0UnCY7iXIWAU24Fy7]--></g></svg>