<svg xmlns="http://www.w3.org/2000/svg" xmlns:xlink="http://www.w3.org/1999/xlink" contentStyleType="text/css" data-diagram-type="DESCRIPTION" height="388px" preserveAspectRatio="none" style="width:114px;height:388px;background:#FFFFFF;" version="1.1" viewBox="0 0 114 388" width="114px" zoomAndPan="magnify"><defs/><g><!--entity PA--><g class="entity" data-entity="PA" data-source-line="6" data-uid="ent0002" id="entity_PA"><rect fill="#FFB6C1" height="48.6211" rx="2.5" ry="2.5" style="stroke:#181818;stroke-width:0.5;" width="86.6826" x="14" y="116"/><rect fill="#FFB6C1" height="10" style="stroke:#181818;stroke-width:0.5;" width="15" x="80.6826" y="121"/><rect fill="#FFB6C1" height="2" style="stroke:#181818;stroke-width:0.5;" width="4" x="78.6826" y="123"/><rect fill="#FFB6C1" height="2" style="stroke:#181818;stroke-width:0.5;" width="4" x="78.6826" y="127"/><text fill="#000000" font-family="sans-serif" font-size="14" lengthAdjust="spacing" textLength="46.6826" x="29" y="151.1074">Plasma</text></g><!--entity E--><g class="entity" data-entity="E" data-source-line="8" data-uid="ent0003" id="entity_E"><rect fill="#FFFFE0" height="48.6211" rx="2.5" ry="2.5" style="stroke:#181818;stroke-width:0.5;" width="99.917" x="7.5" y="7"/><rect fill="#FFFFE0" height="10" style="stroke:#181818;stroke-width:0.5;" width="15" x="87.417" y="12"/><rect fill="#FFFFE0" height="2" style="stroke:#181818;stroke-width:0.5;" width="4" x="85.417" y="14"/><rect fill="#FFFFE0" height="2" style="stroke:#181818;stroke-width:0.5;" width="4" x="85.417" y="18"/><text fill="#000000" font-family="sans-serif" font-size="14" lengthAdjust="spacing" textLength="59.917" x="22.5" y="42.1074">Energizer</text></g><!--entity C--><g class="entity" data-entity="C" data-source-line="10" data-uid="ent0004" id="entity_C"><rect fill="#FFFFE0" height="48.6211" rx="2.5" ry="2.5" style="stroke:#181818;stroke-width:0.5;" width="101.4688" x="7" y="225"/><rect fill="#FFFFE0" height="10" style="stroke:#181818;stroke-width:0.5;" width="15" x="88.4688" y="230"/><rect fill="#FFFFE0" height="2" style="stroke:#181818;stroke-width:0.5;" width="4" x="86.4688" y="232"/><rect fill="#FFFFE0" height="2" style="stroke:#181818;stroke-width:0.5;" width="4" x="86.4688" y="236"/><text fill="#000000" font-family="sans-serif" font-size="14" lengthAdjust="spacing" textLength="61.4688" x="22" y="260.1074">Converter</text></g><!--entity P--><g class="entity" data-entity="P" data-source-line="12" data-uid="ent0005" id="entity_P"><rect fill="#90EE90" height="48.6211" rx="2.5" ry="2.5" style="stroke:#181818;stroke-width:0.5;" width="79.6826" x="17.5" y="334"/><rect fill="#90EE90" height="10" style="stroke:#181818;stroke-width:0.5;" width="15" x="77.1826" y="339"/><rect fill="#90EE90" height="2" style="stroke:#181818;stroke-width:0.5;" width="4" x="75.1826" y="341"/><rect fill="#90EE90" height="2" style="stroke:#181818;stroke-width:0.5;" width="4" x="75.1826" y="345"/><text fill="#000000" font-family="sans-serif" font-size="14" lengthAdjust="spacing" textLength="39.6826" x="32.5" y="369.1074">Power</text></g><!--link E to PA--><g class="link" data-entity-1="E" data-entity-2="PA" data-source-line="14" data-uid="lnk6" id="link_E_PA"><path d="M57.5,56.25 C57.5,73.98 57.5,92.1 57.5,109.82" fill="none" id="E-to-PA" style="stroke:#181818;stroke-width:1;stroke-dasharray:7,7;"/><polygon fill="#181818" points="57.5,115.82,61.5,106.82,57.5,110.82,53.5,106.82,57.5,115.82" style="stroke:#181818;stroke-width:1;"/></g><!--link PA to C--><g class="link" data-entity-1="PA" data-entity-2="C" data-source-line="15" data-uid="lnk7" id="link_PA_C"><path d="M57.5,165.25 C57.5,182.98 57.5,201.1 57.5,218.82" fill="none" id="PA-to-C" style="stroke:#181818;stroke-width:1;"/><polygon fill="#181818" points="57.5,224.82,61.5,215.82,57.5,219.82,53.5,215.82,57.5,224.82" style="stroke:#181818;stroke-width:1;"/></g><!--link C to P--><g class="link" data-entity-1="C" data-entity-2="P" data-source-line="16" data-uid="lnk8" id="link_C_P"><path d="M57.5,274.25 C57.5,291.98 57.5,310.1 57.5,327.82" fill="none" id="C-to-P" style="stroke:#181818;stroke-width:1;"/><polygon fill="#181818" points="57.5,333.82,61.5,324.82,57.5,328.82,53.5,324.82,57.5,333.82" style="stroke:#181818;stroke-width:1;"/></g><!--SRC=[NSsn2iCm30JGNLyXw9nyGg0OxzvB1vEejgXY5zaqj5zV9pXBfxlZ3HTv8LofnhmKYFjuCCdPPzPP2E3cn9VLtz4NT5Uy28TONvoUZMmY3VmbFTHs_918tXgRdDwajRFvPvUtJgvJKA84O74SftO6xMyO9ZHWZdJm0m00]--></g></svg>