<svg xmlns="http://www.w3.org/2000/svg" xmlns:xlink="http://www.w3.org/1999/xlink" contentStyleType="text/css" data-diagram-type="DESCRIPTION" height="452px" preserveAspectRatio="none" style="width:766px;height:452px;background:#FFFFFF;" version="1.1" viewBox="0 0 766 452" width="766px" zoomAndPan="magnify"><defs/><g><!--cluster Empowerer lvl1--><g class="cluster" data-entity="Empowerer lvl1" data-source-line="12" data-uid="ent0006" id="cluster_Empowerer lvl1"><path d="M255.5,121 L359.9893,121 A3.75,3.75 0 0 1 362.4893,123.5 L369.4893,145.6211 L502.5,145.6211 A2.5,2.5 0 0 1 505,148.1211 L505,220.5 A2.5,2.5 0 0 1 502.5,223 L255.5,223 A2.5,2.5 0 0 1 253,220.5 L253,123.5 A2.5,2.5 0 0 1 255.5,121" fill="#FFFFE0" style="stroke:#000000;stroke-width:1.5;"/><line style="stroke:#000000;stroke-width:1.5;" x1="253" x2="369.4893" y1="145.6211" y2="145.6211"/><text fill="#000000" font-family="sans-serif" font-size="14" font-weight="bold" lengthAdjust="spacing" textLength="103.4893" x="257" y="138.1074">Empowerer lvl1</text></g><!--entity EMP--><g class="entity" data-entity="EMP" data-source-line="13" data-uid="ent0007" id="entity_EMP"><rect fill="#ADD8E6" height="48.6211" rx="2.5" ry="2.5" style="stroke:#181818;stroke-width:0.5;" width="219.7441" x="269" y="158"/><rect fill="#ADD8E6" height="10" style="stroke:#181818;stroke-width:0.5;" width="15" x="468.7441" y="163"/><rect fill="#ADD8E6" height="2" style="stroke:#181818;stroke-width:0.5;" width="4" x="466.7441" y="165"/><rect fill="#ADD8E6" height="2" style="stroke:#181818;stroke-width:0.5;" width="4" x="466.7441" y="169"/><text fill="#000000" font-family="sans-serif" font-size="14" lengthAdjust="spacing" textLength="179.7441" x="284" y="193.1074">Empower takes lots of power</text></g><!--entity C--><g class="entity" data-entity="C" data-source-line="7" data-uid="ent0002" id="entity_C"><rect fill="#FFB6C1" height="48.6211" rx="2.5" ry="2.5" style="stroke:#181818;stroke-width:0.5;" width="83.5586" x="129" y="7"/><rect fill="#FFB6C1" height="10" style="stroke:#181818;stroke-width:0.5;" width="15" x="192.5586" y="12"/><rect fill="#FFB6C1" height="2" style="stroke:#181818;stroke-width:0.5;" width="4" x="190.5586" y="14"/><rect fill="#FFB6C1" height="2" style="stroke:#181818;stroke-width:0.5;" width="4" x="190.5586" y="18"/><text fill="#000000" font-family="sans-serif" font-size="14" lengthAdjust="spacing" textLength="43.5586" x="144" y="42.1074">Crystal</text></g><!--entity RC--><g class="entity" data-entity="RC" data-source-line="8" data-uid="ent0003" id="entity_RC"><rect fill="#FFB6C1" height="48.6211" rx="2.5" ry="2.5" style="stroke:#181818;stroke-width:0.5;" width="113.1309" x="248.5" y="7"/><rect fill="#FFB6C1" height="10" style="stroke:#181818;stroke-width:0.5;" width="15" x="341.6309" y="12"/><rect fill="#FFB6C1" height="2" style="stroke:#181818;stroke-width:0.5;" width="4" x="339.6309" y="14"/><rect fill="#FFB6C1" height="2" style="stroke:#181818;stroke-width:0.5;" width="4" x="339.6309" y="18"/><text fill="#000000" font-family="sans-serif" font-size="14" lengthAdjust="spacing" textLength="73.1309" x="263.5" y="42.1074">Red Crystal</text></g><!--entity BC--><g class="entity" data-entity="BC" data-source-line="9" data-uid="ent0004" id="entity_BC"><rect fill="#FFB6C1" height="48.6211" rx="2.5" ry="2.5" style="stroke:#181818;stroke-width:0.5;" width="115.4688" x="396.5" y="7"/><rect fill="#FFB6C1" height="10" style="stroke:#181818;stroke-width:0.5;" width="15" x="491.9688" y="12"/><rect fill="#FFB6C1" height="2" style="stroke:#181818;stroke-width:0.5;" width="4" x="489.9688" y="14"/><rect fill="#FFB6C1" height="2" style="stroke:#181818;stroke-width:0.5;" width="4" x="489.9688" y="18"/><text fill="#000000" font-family="sans-serif" font-size="14" lengthAdjust="spacing" textLength="75.4688" x="411.5" y="42.1074">Blue Crystal</text></g><!--entity GC--><g class="entity" data-entity="GC" data-source-line="10" data-uid="ent0005" id="entity_GC"><rect fill="#FFB6C1" height="48.6211" rx="2.5" ry="2.5" style="stroke:#181818;stroke-width:0.5;" width="126.3584" x="547" y="7"/><rect fill="#FFB6C1" height="10" style="stroke:#181818;stroke-width:0.5;" width="15" x="653.3584" y="12"/><rect fill="#FFB6C1" height="2" style="stroke:#181818;stroke-width:0.5;" width="4" x="651.3584" y="14"/><rect fill="#FFB6C1" height="2" style="stroke:#181818;stroke-width:0.5;" width="4" x="651.3584" y="18"/><text fill="#000000" font-family="sans-serif" font-size="14" lengthAdjust="spacing" textLength="86.3584" x="562" y="42.1074">Green Crystal</text></g><!--entity EC--><g class="entity" data-entity="EC" data-source-line="16" data-uid="ent0008" id="entity_EC"><rect fill="#F1F1F1" height="48.6211" rx="2.5" ry="2.5" style="stroke:#181818;stroke-width:0.5;" width="162.1514" x="7" y="288"/><rect fill="#F1F1F1" height="10" style="stroke:#181818;stroke-width:0.5;" width="15" x="149.1514" y="293"/><rect fill="#F1F1F1" height="2" style="stroke:#181818;stroke-width:0.5;" width="4" x="147.1514" y="295"/><rect fill="#F1F1F1" height="2" style="stroke:#181818;stroke-width:0.5;" width="4" x="147.1514" y="299"/><text fill="#000000" font-family="sans-serif" font-size="14" lengthAdjust="spacing" textLength="122.1514" x="22" y="323.1074">Empowered Crystal</text></g><!--entity ERC--><g class="entity" data-entity="ERC" data-source-line="17" data-uid="ent0009" id="entity_ERC"><rect fill="#F1F1F1" height="48.6211" rx="2.5" ry="2.5" style="stroke:#181818;stroke-width:0.5;" width="156.7031" x="204.5" y="288"/><rect fill="#F1F1F1" height="10" style="stroke:#181818;stroke-width:0.5;" width="15" x="341.2031" y="293"/><rect fill="#F1F1F1" height="2" style="stroke:#181818;stroke-width:0.5;" width="4" x="339.2031" y="295"/><rect fill="#F1F1F1" height="2" style="stroke:#181818;stroke-width:0.5;" width="4" x="339.2031" y="299"/><text fill="#000000" font-family="sans-serif" font-size="14" lengthAdjust="spacing" textLength="116.7031" x="219.5" y="323.1074">Whole Red Crystal</text></g><!--entity EBC--><g class="entity" data-entity="EBC" data-source-line="18" data-uid="ent0010" id="entity_EBC"><rect fill="#F1F1F1" height="48.6211" rx="2.5" ry="2.5" style="stroke:#181818;stroke-width:0.5;" width="159.041" x="396.5" y="288"/><rect fill="#F1F1F1" height="10" style="stroke:#181818;stroke-width:0.5;" width="15" x="535.541" y="293"/><rect fill="#F1F1F1" height="2" style="stroke:#181818;stroke-width:0.5;" width="4" x="533.541" y="295"/><rect fill="#F1F1F1" height="2" style="stroke:#181818;stroke-width:0.5;" width="4" x="533.541" y="299"/><text fill="#000000" font-family="sans-serif" font-size="14" lengthAdjust="spacing" textLength="119.041" x="411.5" y="323.1074">Whole Blue Crystal</text></g><!--entity EGC--><g class="entity" data-entity="EGC" data-source-line="19" data-uid="ent0011" id="entity_EGC"><rect fill="#F1F1F1" height="48.6211" rx="2.5" ry="2.5" style="stroke:#181818;stroke-width:0.5;" width="169.9307" x="591" y="288"/><rect fill="#F1F1F1" height="10" style="stroke:#181818;stroke-width:0.5;" width="15" x="740.9307" y="293"/><rect fill="#F1F1F1" height="2" style="stroke:#181818;stroke-width:0.5;" width="4" x="738.9307" y="295"/><rect fill="#F1F1F1" height="2" style="stroke:#181818;stroke-width:0.5;" width="4" x="738.9307" y="299"/><text fill="#000000" font-family="sans-serif" font-size="14" lengthAdjust="spacing" textLength="129.9307" x="606" y="323.1074">Whole Green Crystal</text></g><!--entity S--><g class="entity" data-entity="S" data-source-line="21" data-uid="ent0012" id="entity_S"><rect fill="#90EE90" height="48.6211" rx="2.5" ry="2.5" style="stroke:#181818;stroke-width:0.5;" width="89.8066" x="43" y="398"/><rect fill="#90EE90" height="10" style="stroke:#181818;stroke-width:0.5;" width="15" x="112.8066" y="403"/><rect fill="#90EE90" height="2" style="stroke:#181818;stroke-width:0.5;" width="4" x="110.8066" y="405"/><rect fill="#90EE90" height="2" style="stroke:#181818;stroke-width:0.5;" width="4" x="110.8066" y="409"/><text fill="#000000" font-family="sans-serif" font-size="14" lengthAdjust="spacing" textLength="49.8066" x="58" y="433.1074">Science</text></g><!--entity BR--><g class="entity" data-entity="BR" data-source-line="22" data-uid="ent0013" id="entity_BR"><rect fill="#90EE90" height="48.6211" rx="2.5" ry="2.5" style="stroke:#181818;stroke-width:0.5;" width="148.1582" x="402" y="398"/><rect fill="#90EE90" height="10" style="stroke:#181818;stroke-width:0.5;" width="15" x="530.1582" y="403"/><rect fill="#90EE90" height="2" style="stroke:#181818;stroke-width:0.5;" width="4" x="528.1582" y="405"/><rect fill="#90EE90" height="2" style="stroke:#181818;stroke-width:0.5;" width="4" x="528.1582" y="409"/><text fill="#000000" font-family="sans-serif" font-size="14" lengthAdjust="spacing" textLength="108.1582" x="417" y="433.1074">Better Resources</text></g><!--link C to EMP--><g class="link" data-entity-1="C" data-entity-2="EMP" data-source-line="24" data-uid="lnk14" id="link_C_EMP"><path d="M203.96,56.11 C242.79,83.93 302.0622,126.3862 340.9722,154.2562" fill="none" id="C-to-EMP" style="stroke:#181818;stroke-width:1;"/><polygon fill="#181818" points="345.85,157.75,340.8625,149.2574,341.7851,154.8385,336.204,155.7611,345.85,157.75" style="stroke:#181818;stroke-width:1;"/><text fill="#000000" font-family="sans-serif" font-size="13" lengthAdjust="spacing" textLength="7.23" x="270" y="101.0283">1</text></g><!--link RC to EMP--><g class="link" data-entity-1="RC" data-entity-2="EMP" data-source-line="25" data-uid="lnk15" id="link_RC_EMP"><path d="M316.73,56.11 C330.5,83.85 350.5621,124.2358 364.4121,152.1358" fill="none" id="RC-to-EMP" style="stroke:#181818;stroke-width:1;"/><polygon fill="#181818" points="367.08,157.51,366.661,147.6701,364.8568,153.0315,359.4954,151.2272,367.08,157.51" style="stroke:#181818;stroke-width:1;"/><text fill="#000000" font-family="sans-serif" font-size="13" lengthAdjust="spacing" textLength="7.23" x="341" y="101.0283">3</text></g><!--link BC to EMP--><g class="link" data-entity-1="BC" data-entity-2="EMP" data-source-line="26" data-uid="lnk16" id="link_BC_EMP"><path d="M442.12,56.11 C428.16,83.85 407.8171,124.2504 393.7771,152.1504" fill="none" id="BC-to-EMP" style="stroke:#181818;stroke-width:1;"/><polygon fill="#181818" points="391.08,157.51,398.6987,151.2686,393.3276,153.0436,391.5526,147.6725,391.08,157.51" style="stroke:#181818;stroke-width:1;"/><text fill="#000000" font-family="sans-serif" font-size="13" lengthAdjust="spacing" textLength="7.23" x="427" y="101.0283">3</text></g><!--link GC to EMP--><g class="link" data-entity-1="GC" data-entity-2="EMP" data-source-line="27" data-uid="lnk17" id="link_GC_EMP"><path d="M573.4,56.11 C530.27,83.93 464.0725,126.6284 420.8525,154.4984" fill="none" id="GC-to-EMP" style="stroke:#181818;stroke-width:1;"/><polygon fill="#181818" points="415.81,157.75,425.5415,156.2343,420.0121,155.0403,421.206,149.5109,415.81,157.75" style="stroke:#181818;stroke-width:1;"/><text fill="#000000" font-family="sans-serif" font-size="13" lengthAdjust="spacing" textLength="7.23" x="523" y="101.0283">3</text></g><!--link EMP to EC--><g class="link" data-entity-1="EMP" data-entity-2="EC" data-source-line="29" data-uid="lnk18" id="link_EMP_EC"><path d="M325.29,207.13 C273.06,230.1 199.6726,262.3851 147.3826,285.3751" fill="none" id="EMP-to-EC" style="stroke:#181818;stroke-width:1;"/><polygon fill="#181818" points="141.89,287.79,151.7388,287.8294,146.4671,285.7776,148.5189,280.506,141.89,287.79" style="stroke:#181818;stroke-width:1;"/><text fill="#000000" font-family="sans-serif" font-size="13" lengthAdjust="spacing" textLength="7.23" x="252" y="254.0283">1</text></g><!--link EMP to ERC--><g class="link" data-entity-1="EMP" data-entity-2="ERC" data-source-line="30" data-uid="lnk19" id="link_EMP_ERC"><path d="M361.17,207.28 C343.93,230.27 321.5497,260.0997 304.3397,283.0497" fill="none" id="EMP-to-ERC" style="stroke:#181818;stroke-width:1;"/><polygon fill="#181818" points="300.74,287.85,309.3397,283.0494,303.7397,283.8498,302.9393,278.2498,300.74,287.85" style="stroke:#181818;stroke-width:1;"/><text fill="#000000" font-family="sans-serif" font-size="13" lengthAdjust="spacing" textLength="7.23" x="338" y="254.0283">1</text></g><!--link EMP to EBC--><g class="link" data-entity-1="EMP" data-entity-2="EBC" data-source-line="31" data-uid="lnk20" id="link_EMP_EBC"><path d="M397.02,207.28 C414.44,230.27 437.0664,260.1178 454.4564,283.0678" fill="none" id="EMP-to-EBC" style="stroke:#181818;stroke-width:1;"/><polygon fill="#181818" points="458.08,287.85,455.8327,278.261,455.0603,283.8648,449.4564,283.0925,458.08,287.85" style="stroke:#181818;stroke-width:1;"/><text fill="#000000" font-family="sans-serif" font-size="13" lengthAdjust="spacing" textLength="7.23" x="435" y="254.0283">1</text></g><!--link EMP to EGC--><g class="link" data-entity-1="EMP" data-entity-2="EGC" data-source-line="32" data-uid="lnk21" id="link_EMP_EGC"><path d="M433.82,207.13 C487.2,230.13 562.3797,262.5359 615.7397,285.5259" fill="none" id="EMP-to-EGC" style="stroke:#181818;stroke-width:1;"/><polygon fill="#181818" points="621.25,287.9,614.5673,280.6653,616.6581,285.9216,611.4018,288.0124,621.25,287.9" style="stroke:#181818;stroke-width:1;"/><text fill="#000000" font-family="sans-serif" font-size="13" lengthAdjust="spacing" textLength="7.23" x="546" y="254.0283">1</text></g><!--link EC to S--><g class="link" data-entity-1="EC" data-entity-2="S" data-source-line="34" data-uid="lnk22" id="link_EC_S"><path d="M88,337.2 C88,355.21 88,373.86 88,391.85" fill="none" id="EC-to-S" style="stroke:#181818;stroke-width:1;"/><polygon fill="#181818" points="88,397.85,92,388.85,88,392.85,84,388.85,88,397.85" style="stroke:#181818;stroke-width:1;"/></g><!--link ERC to BR--><g class="link" data-entity-1="ERC" data-entity-2="BR" data-source-line="36" data-uid="lnk23" id="link_ERC_BR"><path d="M325.35,337.2 C357.53,355.21 396.354,376.9301 428.504,394.9201" fill="none" id="ERC-to-BR" style="stroke:#181818;stroke-width:1;"/><polygon fill="#181818" points="433.74,397.85,427.8392,389.9645,429.3767,395.4084,423.9327,396.9458,433.74,397.85" style="stroke:#181818;stroke-width:1;"/></g><!--link EBC to BR--><g class="link" data-entity-1="EBC" data-entity-2="BR" data-source-line="37" data-uid="lnk24" id="link_EBC_BR"><path d="M476,337.2 C476,355.21 476,373.86 476,391.85" fill="none" id="EBC-to-BR" style="stroke:#181818;stroke-width:1;"/><polygon fill="#181818" points="476,397.85,480,388.85,476,392.85,472,388.85,476,397.85" style="stroke:#181818;stroke-width:1;"/></g><!--link EGC to BR--><g class="link" data-entity-1="EGC" data-entity-2="BR" data-source-line="38" data-uid="lnk25" id="link_EGC_BR"><path d="M632.11,337.2 C598.76,355.21 558.3896,377.0095 525.0696,394.9995" fill="none" id="EGC-to-BR" style="stroke:#181818;stroke-width:1;"/><polygon fill="#181818" points="519.79,397.85,529.6098,397.0939,524.1897,395.4745,525.8091,390.0544,519.79,397.85" style="stroke:#181818;stroke-width:1;"/></g><!--SRC=[PL2xRiCm3Dpv5KGwPmYwTUWWGT1Ke9273aO7LsPimOfbI4g3eEY_Ltx4ZHnDTxmJoMDhQi8JnTRL0TgH70tP6zR6Qqi0K79_3R6odrW5vFXaJTF6mVGTb8fgl5TLBZDxfandkIuzKPyPP6Q0eT9TrH3kn6bm5_BaqNxRmsunNSbQTy4VmFJAnOEnwYYWTJ6WE-9KctgBj_VbtrVQ2tvJiblRF8NWK7wqpX9kymcrIW_P15krnrn2yZIkq8PwJLEbM7PfHcyw5SMOTbSKtDbh2lEvL6O2ZllzwvJZ1G-Wxkapi9pAdC88fWAVFgzKRJZRS3bp47E_8g5bC5CWs3-KA_m3]--></g></svg>