<svg xmlns="http://www.w3.org/2000/svg" xmlns:xlink="http://www.w3.org/1999/xlink" contentStyleType="text/css" data-diagram-type="DESCRIPTION" height="562px" preserveAspectRatio="none" style="width:1091px;height:562px;background:#FFFFFF;" version="1.1" viewBox="0 0 1091 562" width="1091px" zoomAndPan="magnify"><defs/><g><!--cluster Empowerer lvl1--><g class="cluster" data-entity="Empowerer lvl1" data-source-line="15" data-uid="ent0008" id="cluster_Empowerer lvl1"><path d="M35.5,121 L139.9893,121 A3.75,3.75 0 0 1 142.4893,123.5 L149.4893,145.6211 L180.5,145.6211 A2.5,2.5 0 0 1 183,148.1211 L183,220.5 A2.5,2.5 0 0 1 180.5,223 L35.5,223 A2.5,2.5 0 0 1 33,220.5 L33,123.5 A2.5,2.5 0 0 1 35.5,121" fill="#FFFFE0" style="stroke:#000000;stroke-width:1.5;"/><line style="stroke:#000000;stroke-width:1.5;" x1="33" x2="149.4893" y1="145.6211" y2="145.6211"/><text fill="#000000" font-family="sans-serif" font-size="14" font-weight="bold" lengthAdjust="spacing" textLength="103.4893" x="37" y="138.1074">Empowerer lvl1</text></g><!--cluster Empowerer lvl2--><g class="cluster" data-entity="Empowerer lvl2" data-source-line="19" data-uid="ent0010" id="cluster_Empowerer lvl2"><path d="M399.5,121 L503.9893,121 A3.75,3.75 0 0 1 506.4893,123.5 L513.4893,145.6211 L544.5,145.6211 A2.5,2.5 0 0 1 547,148.1211 L547,220.5 A2.5,2.5 0 0 1 544.5,223 L399.5,223 A2.5,2.5 0 0 1 397,220.5 L397,123.5 A2.5,2.5 0 0 1 399.5,121" fill="#FFFFE0" style="stroke:#000000;stroke-width:1.5;"/><line style="stroke:#000000;stroke-width:1.5;" x1="397" x2="513.4893" y1="145.6211" y2="145.6211"/><text fill="#000000" font-family="sans-serif" font-size="14" font-weight="bold" lengthAdjust="spacing" textLength="103.4893" x="401" y="138.1074">Empowerer lvl2</text></g><!--cluster Empowerer lvl3--><g class="cluster" data-entity="Empowerer lvl3" data-source-line="23" data-uid="ent0012" id="cluster_Empowerer lvl3"><path d="M774.5,121 L878.9893,121 A3.75,3.75 0 0 1 881.4893,123.5 L888.4893,145.6211 L919.5,145.6211 A2.5,2.5 0 0 1 922,148.1211 L922,220.5 A2.5,2.5 0 0 1 919.5,223 L774.5,223 A2.5,2.5 0 0 1 772,220.5 L772,123.5 A2.5,2.5 0 0 1 774.5,121" fill="#FFFFE0" style="stroke:#000000;stroke-width:1.5;"/><line style="stroke:#000000;stroke-width:1.5;" x1="772" x2="888.4893" y1="145.6211" y2="145.6211"/><text fill="#000000" font-family="sans-serif" font-size="14" font-weight="bold" lengthAdjust="spacing" textLength="103.4893" x="776" y="138.1074">Empowerer lvl3</text></g><!--entity EMP1--><g class="entity" data-entity="EMP1" data-source-line="16" data-uid="ent0009" id="entity_EMP1"><rect fill="#ADD8E6" height="48.6211" rx="2.5" ry="2.5" style="stroke:#181818;stroke-width:0.5;" width="117.8066" x="49" y="158"/><rect fill="#ADD8E6" height="10" style="stroke:#181818;stroke-width:0.5;" width="15" x="146.8066" y="163"/><rect fill="#ADD8E6" height="2" style="stroke:#181818;stroke-width:0.5;" width="4" x="144.8066" y="165"/><rect fill="#ADD8E6" height="2" style="stroke:#181818;stroke-width:0.5;" width="4" x="144.8066" y="169"/><text fill="#000000" font-family="sans-serif" font-size="14" lengthAdjust="spacing" textLength="77.8066" x="64" y="193.1074">Empower 1s</text></g><!--entity EMP2--><g class="entity" data-entity="EMP2" data-source-line="20" data-uid="ent0011" id="entity_EMP2"><rect fill="#ADD8E6" height="48.6211" rx="2.5" ry="2.5" style="stroke:#181818;stroke-width:0.5;" width="117.8066" x="413" y="158"/><rect fill="#ADD8E6" height="10" style="stroke:#181818;stroke-width:0.5;" width="15" x="510.8066" y="163"/><rect fill="#ADD8E6" height="2" style="stroke:#181818;stroke-width:0.5;" width="4" x="508.8066" y="165"/><rect fill="#ADD8E6" height="2" style="stroke:#181818;stroke-width:0.5;" width="4" x="508.8066" y="169"/><text fill="#000000" font-family="sans-serif" font-size="14" lengthAdjust="spacing" textLength="77.8066" x="428" y="193.1074">Empower 2s</text></g><!--entity EMP3--><g class="entity" data-entity="EMP3" data-source-line="24" data-uid="ent0013" id="entity_EMP3"><rect fill="#ADD8E6" height="48.6211" rx="2.5" ry="2.5" style="stroke:#181818;stroke-width:0.5;" width="117.8066" x="788" y="158"/><rect fill="#ADD8E6" height="10" style="stroke:#181818;stroke-width:0.5;" width="15" x="885.8066" y="163"/><rect fill="#ADD8E6" height="2" style="stroke:#181818;stroke-width:0.5;" width="4" x="883.8066" y="165"/><rect fill="#ADD8E6" height="2" style="stroke:#181818;stroke-width:0.5;" width="4" x="883.8066" y="169"/><text fill="#000000" font-family="sans-serif" font-size="14" lengthAdjust="spacing" textLength="77.8066" x="803" y="193.1074">Empower 5s</text></g><!--entity C1--><g class="entity" data-entity="C1" data-source-line="7" data-uid="ent0002" id="entity_C1"><rect fill="#FFB6C1" height="48.6211" rx="2.5" ry="2.5" style="stroke:#181818;stroke-width:0.5;" width="83.5586" x="7" y="7"/><rect fill="#FFB6C1" height="10" style="stroke:#181818;stroke-width:0.5;" width="15" x="70.5586" y="12"/><rect fill="#FFB6C1" height="2" style="stroke:#181818;stroke-width:0.5;" width="4" x="68.5586" y="14"/><rect fill="#FFB6C1" height="2" style="stroke:#181818;stroke-width:0.5;" width="4" x="68.5586" y="18"/><text fill="#000000" font-family="sans-serif" font-size="14" lengthAdjust="spacing" textLength="43.5586" x="22" y="42.1074">Crystal</text></g><!--entity C2--><g class="entity" data-entity="C2" data-source-line="8" data-uid="ent0003" id="entity_C2"><rect fill="#FFB6C1" height="48.6211" rx="2.5" ry="2.5" style="stroke:#181818;stroke-width:0.5;" width="83.5586" x="372" y="7"/><rect fill="#FFB6C1" height="10" style="stroke:#181818;stroke-width:0.5;" width="15" x="435.5586" y="12"/><rect fill="#FFB6C1" height="2" style="stroke:#181818;stroke-width:0.5;" width="4" x="433.5586" y="14"/><rect fill="#FFB6C1" height="2" style="stroke:#181818;stroke-width:0.5;" width="4" x="433.5586" y="18"/><text fill="#000000" font-family="sans-serif" font-size="14" lengthAdjust="spacing" textLength="43.5586" x="387" y="42.1074">Crystal</text></g><!--entity C3--><g class="entity" data-entity="C3" data-source-line="9" data-uid="ent0004" id="entity_C3"><rect fill="#FFB6C1" height="48.6211" rx="2.5" ry="2.5" style="stroke:#181818;stroke-width:0.5;" width="83.5586" x="747" y="7"/><rect fill="#FFB6C1" height="10" style="stroke:#181818;stroke-width:0.5;" width="15" x="810.5586" y="12"/><rect fill="#FFB6C1" height="2" style="stroke:#181818;stroke-width:0.5;" width="4" x="808.5586" y="14"/><rect fill="#FFB6C1" height="2" style="stroke:#181818;stroke-width:0.5;" width="4" x="808.5586" y="18"/><text fill="#000000" font-family="sans-serif" font-size="14" lengthAdjust="spacing" textLength="43.5586" x="762" y="42.1074">Crystal</text></g><!--entity P1--><g class="entity" data-entity="P1" data-source-line="11" data-uid="ent0005" id="entity_P1"><rect fill="#FFB6C1" height="48.6211" rx="2.5" ry="2.5" style="stroke:#181818;stroke-width:0.5;" width="79.6826" x="126" y="7"/><rect fill="#FFB6C1" height="10" style="stroke:#181818;stroke-width:0.5;" width="15" x="185.6826" y="12"/><rect fill="#FFB6C1" height="2" style="stroke:#181818;stroke-width:0.5;" width="4" x="183.6826" y="14"/><rect fill="#FFB6C1" height="2" style="stroke:#181818;stroke-width:0.5;" width="4" x="183.6826" y="18"/><text fill="#000000" font-family="sans-serif" font-size="14" lengthAdjust="spacing" textLength="39.6826" x="141" y="42.1074">Power</text></g><!--entity P2--><g class="entity" data-entity="P2" data-source-line="12" data-uid="ent0006" id="entity_P2"><rect fill="#FFB6C1" height="48.6211" rx="2.5" ry="2.5" style="stroke:#181818;stroke-width:0.5;" width="79.6826" x="491" y="7"/><rect fill="#FFB6C1" height="10" style="stroke:#181818;stroke-width:0.5;" width="15" x="550.6826" y="12"/><rect fill="#FFB6C1" height="2" style="stroke:#181818;stroke-width:0.5;" width="4" x="548.6826" y="14"/><rect fill="#FFB6C1" height="2" style="stroke:#181818;stroke-width:0.5;" width="4" x="548.6826" y="18"/><text fill="#000000" font-family="sans-serif" font-size="14" lengthAdjust="spacing" textLength="39.6826" x="506" y="42.1074">Power</text></g><!--entity P3--><g class="entity" data-entity="P3" data-source-line="13" data-uid="ent0007" id="entity_P3"><rect fill="#FFB6C1" height="48.6211" rx="2.5" ry="2.5" style="stroke:#181818;stroke-width:0.5;" width="79.6826" x="866" y="7"/><rect fill="#FFB6C1" height="10" style="stroke:#181818;stroke-width:0.5;" width="15" x="925.6826" y="12"/><rect fill="#FFB6C1" height="2" style="stroke:#181818;stroke-width:0.5;" width="4" x="923.6826" y="14"/><rect fill="#FFB6C1" height="2" style="stroke:#181818;stroke-width:0.5;" width="4" x="923.6826" y="18"/><text fill="#000000" font-family="sans-serif" font-size="14" lengthAdjust="spacing" textLength="39.6826" x="881" y="42.1074">Power</text></g><!--entity VPC--><g class="entity" data-entity="VPC" data-source-line="27" data-uid="ent0014" id="entity_VPC"><rect fill="#F1F1F1" height="48.6211" rx="2.5" ry="2.5" style="stroke:#181818;stroke-width:0.5;" width="169.9375" x="23" y="288"/><rect fill="#F1F1F1" height="10" style="stroke:#181818;stroke-width:0.5;" width="15" x="172.9375" y="293"/><rect fill="#F1F1F1" height="2" style="stroke:#181818;stroke-width:0.5;" width="4" x="170.9375" y="295"/><rect fill="#F1F1F1" height="2" style="stroke:#181818;stroke-width:0.5;" width="4" x="170.9375" y="299"/><text fill="#000000" font-family="sans-serif" font-size="14" lengthAdjust="spacing" textLength="129.9375" x="38" y="323.1074">Volatile Powercrystal</text></g><!--entity UPC--><g class="entity" data-entity="UPC" data-source-line="28" data-uid="ent0015" id="entity_UPC"><rect fill="#F1F1F1" height="48.6211" rx="2.5" ry="2.5" style="stroke:#181818;stroke-width:0.5;" width="179.2754" x="382.5" y="288"/><rect fill="#F1F1F1" height="10" style="stroke:#181818;stroke-width:0.5;" width="15" x="541.7754" y="293"/><rect fill="#F1F1F1" height="2" style="stroke:#181818;stroke-width:0.5;" width="4" x="539.7754" y="295"/><rect fill="#F1F1F1" height="2" style="stroke:#181818;stroke-width:0.5;" width="4" x="539.7754" y="299"/><text fill="#000000" font-family="sans-serif" font-size="14" lengthAdjust="spacing" textLength="139.2754" x="397.5" y="323.1074">Unstable Powercrystal</text></g><!--entity SPC--><g class="entity" data-entity="SPC" data-source-line="29" data-uid="ent0016" id="entity_SPC"><rect fill="#F1F1F1" height="48.6211" rx="2.5" ry="2.5" style="stroke:#181818;stroke-width:0.5;" width="163.7168" x="765" y="288"/><rect fill="#F1F1F1" height="10" style="stroke:#181818;stroke-width:0.5;" width="15" x="908.7168" y="293"/><rect fill="#F1F1F1" height="2" style="stroke:#181818;stroke-width:0.5;" width="4" x="906.7168" y="295"/><rect fill="#F1F1F1" height="2" style="stroke:#181818;stroke-width:0.5;" width="4" x="906.7168" y="299"/><text fill="#000000" font-family="sans-serif" font-size="14" lengthAdjust="spacing" textLength="123.7168" x="780" y="323.1074">Stable Powercrystal</text></g><!--entity RS--><g class="entity" data-entity="RS" data-source-line="31" data-uid="ent0017" id="entity_RS"><rect fill="#90EE90" height="48.6211" rx="2.5" ry="2.5" style="stroke:#181818;stroke-width:0.5;" width="119.3789" x="228.5" y="288"/><rect fill="#90EE90" height="10" style="stroke:#181818;stroke-width:0.5;" width="15" x="327.8789" y="293"/><rect fill="#90EE90" height="2" style="stroke:#181818;stroke-width:0.5;" width="4" x="325.8789" y="295"/><rect fill="#90EE90" height="2" style="stroke:#181818;stroke-width:0.5;" width="4" x="325.8789" y="299"/><text fill="#000000" font-family="sans-serif" font-size="14" lengthAdjust="spacing" textLength="79.3789" x="243.5" y="323.1074">Red Science</text></g><!--entity GS--><g class="entity" data-entity="GS" data-source-line="32" data-uid="ent0018" id="entity_GS"><rect fill="#90EE90" height="48.6211" rx="2.5" ry="2.5" style="stroke:#181818;stroke-width:0.5;" width="132.6064" x="596.5" y="288"/><rect fill="#90EE90" height="10" style="stroke:#181818;stroke-width:0.5;" width="15" x="709.1064" y="293"/><rect fill="#90EE90" height="2" style="stroke:#181818;stroke-width:0.5;" width="4" x="707.1064" y="295"/><rect fill="#90EE90" height="2" style="stroke:#181818;stroke-width:0.5;" width="4" x="707.1064" y="299"/><text fill="#000000" font-family="sans-serif" font-size="14" lengthAdjust="spacing" textLength="92.6064" x="611.5" y="323.1074">Green Science</text></g><!--entity BS--><g class="entity" data-entity="BS" data-source-line="33" data-uid="ent0019" id="entity_BS"><rect fill="#90EE90" height="48.6211" rx="2.5" ry="2.5" style="stroke:#181818;stroke-width:0.5;" width="121.7168" x="964" y="288"/><rect fill="#90EE90" height="10" style="stroke:#181818;stroke-width:0.5;" width="15" x="1065.7168" y="293"/><rect fill="#90EE90" height="2" style="stroke:#181818;stroke-width:0.5;" width="4" x="1063.7168" y="295"/><rect fill="#90EE90" height="2" style="stroke:#181818;stroke-width:0.5;" width="4" x="1063.7168" y="299"/><text fill="#000000" font-family="sans-serif" font-size="14" lengthAdjust="spacing" textLength="81.7168" x="979" y="323.1074">Blue Science</text></g><!--entity Cr1--><g class="entity" data-entity="Cr1" data-source-line="35" data-uid="ent0020" id="entity_Cr1"><rect fill="#ADD8E6" height="48.6211" rx="2.5" ry="2.5" style="stroke:#181818;stroke-width:0.5;" width="82.0205" x="192" y="398"/><rect fill="#ADD8E6" height="10" style="stroke:#181818;stroke-width:0.5;" width="15" x="254.0205" y="403"/><rect fill="#ADD8E6" height="2" style="stroke:#181818;stroke-width:0.5;" width="4" x="252.0205" y="405"/><rect fill="#ADD8E6" height="2" style="stroke:#181818;stroke-width:0.5;" width="4" x="252.0205" y="409"/><text fill="#000000" font-family="sans-serif" font-size="14" lengthAdjust="spacing" textLength="42.0205" x="207" y="433.1074">Create</text></g><!--entity Cr2--><g class="entity" data-entity="Cr2" data-source-line="36" data-uid="ent0021" id="entity_Cr2"><rect fill="#ADD8E6" height="48.6211" rx="2.5" ry="2.5" style="stroke:#181818;stroke-width:0.5;" width="82.0205" x="527" y="398"/><rect fill="#ADD8E6" height="10" style="stroke:#181818;stroke-width:0.5;" width="15" x="589.0205" y="403"/><rect fill="#ADD8E6" height="2" style="stroke:#181818;stroke-width:0.5;" width="4" x="587.0205" y="405"/><rect fill="#ADD8E6" height="2" style="stroke:#181818;stroke-width:0.5;" width="4" x="587.0205" y="409"/><text fill="#000000" font-family="sans-serif" font-size="14" lengthAdjust="spacing" textLength="42.0205" x="542" y="433.1074">Create</text></g><!--entity Cr3--><g class="entity" data-entity="Cr3" data-source-line="37" data-uid="ent0022" id="entity_Cr3"><rect fill="#ADD8E6" height="48.6211" rx="2.5" ry="2.5" style="stroke:#181818;stroke-width:0.5;" width="82.0205" x="929" y="398"/><rect fill="#ADD8E6" height="10" style="stroke:#181818;stroke-width:0.5;" width="15" x="991.0205" y="403"/><rect fill="#ADD8E6" height="2" style="stroke:#181818;stroke-width:0.5;" width="4" x="989.0205" y="405"/><rect fill="#ADD8E6" height="2" style="stroke:#181818;stroke-width:0.5;" width="4" x="989.0205" y="409"/><text fill="#000000" font-family="sans-serif" font-size="14" lengthAdjust="spacing" textLength="42.0205" x="944" y="433.1074">Create</text></g><!--entity VS--><g class="entity" data-entity="VS" data-source-line="39" data-uid="ent0023" id="entity_VS"><rect fill="#90EE90" height="48.6211" rx="2.5" ry="2.5" style="stroke:#181818;stroke-width:0.5;" width="187.0615" x="139.5" y="508"/><rect fill="#90EE90" height="10" style="stroke:#181818;stroke-width:0.5;" width="15" x="306.5615" y="513"/><rect fill="#90EE90" height="2" style="stroke:#181818;stroke-width:0.5;" width="4" x="304.5615" y="515"/><rect fill="#90EE90" height="2" style="stroke:#181818;stroke-width:0.5;" width="4" x="304.5615" y="519"/><text fill="#000000" font-family="sans-serif" font-size="14" lengthAdjust="spacing" textLength="147.0615" x="154.5" y="543.1074">Volatile Crystal Science</text></g><!--entity US--><g class="entity" data-entity="US" data-source-line="40" data-uid="ent0024" id="entity_US"><rect fill="#90EE90" height="48.6211" rx="2.5" ry="2.5" style="stroke:#181818;stroke-width:0.5;" width="196.3994" x="470" y="508"/><rect fill="#90EE90" height="10" style="stroke:#181818;stroke-width:0.5;" width="15" x="646.3994" y="513"/><rect fill="#90EE90" height="2" style="stroke:#181818;stroke-width:0.5;" width="4" x="644.3994" y="515"/><rect fill="#90EE90" height="2" style="stroke:#181818;stroke-width:0.5;" width="4" x="644.3994" y="519"/><text fill="#000000" font-family="sans-serif" font-size="14" lengthAdjust="spacing" textLength="156.3994" x="485" y="543.1074">Unstable Crystal Science</text></g><!--entity S--><g class="entity" data-entity="S" data-source-line="41" data-uid="ent0025" id="entity_S"><rect fill="#90EE90" height="48.6211" rx="2.5" ry="2.5" style="stroke:#181818;stroke-width:0.5;" width="180.8408" x="879.5" y="508"/><rect fill="#90EE90" height="10" style="stroke:#181818;stroke-width:0.5;" width="15" x="1040.3408" y="513"/><rect fill="#90EE90" height="2" style="stroke:#181818;stroke-width:0.5;" width="4" x="1038.3408" y="515"/><rect fill="#90EE90" height="2" style="stroke:#181818;stroke-width:0.5;" width="4" x="1038.3408" y="519"/><text fill="#000000" font-family="sans-serif" font-size="14" lengthAdjust="spacing" textLength="140.8408" x="894.5" y="543.1074">Stable Crystal Science</text></g><!--link C1 to EMP1--><g class="link" data-entity-1="C1" data-entity-2="EMP1" data-source-line="43" data-uid="lnk26" id="link_C1_EMP1"><path d="M58.35,56.11 C69.33,83.85 85.2406,124.0316 96.2906,151.9316" fill="none" id="C1-to-EMP1" style="stroke:#181818;stroke-width:1;"/><polygon fill="#181818" points="98.5,157.51,98.9049,147.6695,96.6589,152.8613,91.467,150.6153,98.5,157.51" style="stroke:#181818;stroke-width:1;"/><text fill="#000000" font-family="sans-serif" font-size="13" lengthAdjust="spacing" textLength="14.46" x="78" y="101.0283">15</text></g><!--link C2 to EMP2--><g class="link" data-entity-1="C2" data-entity-2="EMP2" data-source-line="44" data-uid="lnk27" id="link_C2_EMP2"><path d="M423.19,56.11 C433.99,83.85 449.6236,124.0186 460.4836,151.9186" fill="none" id="C2-to-EMP2" style="stroke:#181818;stroke-width:1;"/><polygon fill="#181818" points="462.66,157.51,463.1229,147.672,460.8463,152.8505,455.6678,150.5739,462.66,157.51" style="stroke:#181818;stroke-width:1;"/><text fill="#000000" font-family="sans-serif" font-size="13" lengthAdjust="spacing" textLength="14.46" x="443" y="101.0283">30</text></g><!--link C3 to EMP3--><g class="link" data-entity-1="C3" data-entity-2="EMP3" data-source-line="45" data-uid="lnk28" id="link_C3_EMP3"><path d="M798.19,56.11 C808.99,83.85 824.6236,124.0186 835.4836,151.9186" fill="none" id="C3-to-EMP3" style="stroke:#181818;stroke-width:1;"/><polygon fill="#181818" points="837.66,157.51,838.1229,147.672,835.8463,152.8505,830.6678,150.5739,837.66,157.51" style="stroke:#181818;stroke-width:1;"/><text fill="#000000" font-family="sans-serif" font-size="13" lengthAdjust="spacing" textLength="14.46" x="818" y="101.0283">60</text></g><!--link P1 to EMP1--><g class="link" data-entity-1="P1" data-entity-2="EMP1" data-source-line="47" data-uid="lnk29" id="link_P1_EMP1"><path d="M156.81,56.11 C146.01,83.85 130.3764,124.0186 119.5164,151.9186" fill="none" id="P1-to-EMP1" style="stroke:#181818;stroke-width:1;"/><polygon fill="#181818" points="117.34,157.51,124.3322,150.5739,119.1537,152.8505,116.8771,147.672,117.34,157.51" style="stroke:#181818;stroke-width:1;"/><text fill="#000000" font-family="sans-serif" font-size="13" lengthAdjust="spacing" textLength="48.4009" x="145" y="101.0283">100 MW</text></g><!--link P2 to EMP2--><g class="link" data-entity-1="P2" data-entity-2="EMP2" data-source-line="48" data-uid="lnk30" id="link_P2_EMP2"><path d="M521.65,56.11 C510.67,83.85 494.7594,124.0316 483.7094,151.9316" fill="none" id="P2-to-EMP2" style="stroke:#181818;stroke-width:1;"/><polygon fill="#181818" points="481.5,157.51,488.533,150.6153,483.3411,152.8613,481.0951,147.6695,481.5,157.51" style="stroke:#181818;stroke-width:1;"/><text fill="#000000" font-family="sans-serif" font-size="13" lengthAdjust="spacing" textLength="48.4009" x="510" y="101.0283">200 MW</text></g><!--link P3 to EMP3--><g class="link" data-entity-1="P3" data-entity-2="EMP3" data-source-line="49" data-uid="lnk31" id="link_P3_EMP3"><path d="M896.65,56.11 C885.67,83.85 869.7594,124.0316 858.7094,151.9316" fill="none" id="P3-to-EMP3" style="stroke:#181818;stroke-width:1;"/><polygon fill="#181818" points="856.5,157.51,863.533,150.6153,858.3411,152.8613,856.0951,147.6695,856.5,157.51" style="stroke:#181818;stroke-width:1;"/><text fill="#000000" font-family="sans-serif" font-size="13" lengthAdjust="spacing" textLength="48.4009" x="884" y="101.0283">400 MW</text></g><!--link EMP1 to VPC--><g class="link" data-entity-1="EMP1" data-entity-2="VPC" data-source-line="51" data-uid="lnk32" id="link_EMP1_VPC"><path d="M108,207.28 C108,230.27 108,258.9 108,281.85" fill="none" id="EMP1-to-VPC" style="stroke:#181818;stroke-width:1;"/><polygon fill="#181818" points="108,287.85,112,278.85,108,282.85,104,278.85,108,287.85" style="stroke:#181818;stroke-width:1;"/><text fill="#000000" font-family="sans-serif" font-size="13" lengthAdjust="spacing" textLength="14.46" x="109" y="254.0283">15</text></g><!--link EMP2 to UPC--><g class="link" data-entity-1="EMP2" data-entity-2="UPC" data-source-line="52" data-uid="lnk33" id="link_EMP2_UPC"><path d="M472,207.28 C472,230.27 472,258.9 472,281.85" fill="none" id="EMP2-to-UPC" style="stroke:#181818;stroke-width:1;"/><polygon fill="#181818" points="472,287.85,476,278.85,472,282.85,468,278.85,472,287.85" style="stroke:#181818;stroke-width:1;"/><text fill="#000000" font-family="sans-serif" font-size="13" lengthAdjust="spacing" textLength="14.46" x="473" y="254.0283">30</text></g><!--link EMP3 to SPC--><g class="link" data-entity-1="EMP3" data-entity-2="SPC" data-source-line="53" data-uid="lnk34" id="link_EMP3_SPC"><path d="M847,207.28 C847,230.27 847,258.9 847,281.85" fill="none" id="EMP3-to-SPC" style="stroke:#181818;stroke-width:1;"/><polygon fill="#181818" points="847,287.85,851,278.85,847,282.85,843,278.85,847,287.85" style="stroke:#181818;stroke-width:1;"/><text fill="#000000" font-family="sans-serif" font-size="13" lengthAdjust="spacing" textLength="14.46" x="848" y="254.0283">60</text></g><!--link VPC to Cr1--><g class="link" data-entity-1="VPC" data-entity-2="Cr1" data-source-line="55" data-uid="lnk35" id="link_VPC_Cr1"><path d="M135.43,337.2 C156.27,355.21 180.27,375.9371 201.09,393.9271" fill="none" id="VPC-to-Cr1" style="stroke:#181818;stroke-width:1;"/><polygon fill="#181818" points="205.63,397.85,201.4353,388.9391,201.8467,394.581,196.2048,394.9924,205.63,397.85" style="stroke:#181818;stroke-width:1;"/></g><!--link RS to Cr1--><g class="link" data-entity-1="RS" data-entity-2="Cr1" data-source-line="56" data-uid="lnk36" id="link_RS_Cr1"><path d="M275.93,337.2 C266.76,355.21 256.9348,374.5144 247.7648,392.5044" fill="none" id="RS-to-Cr1" style="stroke:#181818;stroke-width:1;"/><polygon fill="#181818" points="245.04,397.85,252.6909,391.6481,247.3107,393.3953,245.5635,388.0151,245.04,397.85" style="stroke:#181818;stroke-width:1;"/></g><!--link Cr1 to VS--><g class="link" data-entity-1="Cr1" data-entity-2="VS" data-source-line="57" data-uid="lnk37" id="link_Cr1_VS"><path d="M233,447.2 C233,465.21 233,483.86 233,501.85" fill="none" id="Cr1-to-VS" style="stroke:#181818;stroke-width:1;"/><polygon fill="#181818" points="233,507.85,237,498.85,233,502.85,229,498.85,233,507.85" style="stroke:#181818;stroke-width:1;"/></g><!--link UPC to Cr2--><g class="link" data-entity-1="UPC" data-entity-2="Cr2" data-source-line="59" data-uid="lnk38" id="link_UPC_Cr2"><path d="M493.07,337.2 C509.07,355.21 527.004,375.3754 542.994,393.3654" fill="none" id="UPC-to-Cr2" style="stroke:#181818;stroke-width:1;"/><polygon fill="#181818" points="546.98,397.85,543.9907,388.4658,543.6583,394.1128,538.0112,393.7805,546.98,397.85" style="stroke:#181818;stroke-width:1;"/></g><!--link GS to Cr2--><g class="link" data-entity-1="GS" data-entity-2="Cr2" data-source-line="60" data-uid="lnk39" id="link_GS_Cr2"><path d="M642.15,337.2 C626.31,355.21 608.5936,375.3556 592.7636,393.3456" fill="none" id="GS-to-Cr2" style="stroke:#181818;stroke-width:1;"/><polygon fill="#181818" points="588.8,397.85,597.7484,393.7358,592.103,394.0963,591.7424,388.451,588.8,397.85" style="stroke:#181818;stroke-width:1;"/></g><!--link Cr2 to US--><g class="link" data-entity-1="Cr2" data-entity-2="US" data-source-line="61" data-uid="lnk40" id="link_Cr2_US"><path d="M568,447.2 C568,465.21 568,483.86 568,501.85" fill="none" id="Cr2-to-US" style="stroke:#181818;stroke-width:1;"/><polygon fill="#181818" points="568,507.85,572,498.85,568,502.85,564,498.85,568,507.85" style="stroke:#181818;stroke-width:1;"/></g><!--link SPC to Cr3--><g class="link" data-entity-1="SPC" data-entity-2="Cr3" data-source-line="63" data-uid="lnk41" id="link_SPC_Cr3"><path d="M873.99,337.2 C894.5,355.21 918.0712,375.9013 938.5612,393.8913" fill="none" id="SPC-to-Cr3" style="stroke:#181818;stroke-width:1;"/><polygon fill="#181818" points="943.07,397.85,938.9459,388.9062,939.3127,394.5511,933.6677,394.9179,943.07,397.85" style="stroke:#181818;stroke-width:1;"/></g><!--link BS to Cr3--><g class="link" data-entity-1="BS" data-entity-2="Cr3" data-source-line="64" data-uid="lnk42" id="link_BS_Cr3"><path d="M1012.93,337.2 C1003.76,355.21 993.9348,374.5144 984.7648,392.5044" fill="none" id="BS-to-Cr3" style="stroke:#181818;stroke-width:1;"/><polygon fill="#181818" points="982.04,397.85,989.6909,391.6481,984.3107,393.3953,982.5635,388.0151,982.04,397.85" style="stroke:#181818;stroke-width:1;"/></g><!--link Cr3 to S--><g class="link" data-entity-1="Cr3" data-entity-2="S" data-source-line="65" data-uid="lnk43" id="link_Cr3_S"><path d="M970,447.2 C970,465.21 970,483.86 970,501.85" fill="none" id="Cr3-to-S" style="stroke:#181818;stroke-width:1;"/><polygon fill="#181818" points="970,507.85,974,498.85,970,502.85,966,498.85,970,507.85" style="stroke:#181818;stroke-width:1;"/></g><!--SRC=[ZLEnReCm4DtlAwnqZWIcwT2XGr2KAHAAHJfO7GYvWXK78g2Degh_Njiu5aOXAelFxxrxP-xiKXoGdB0hwqCBfTvy2fItE1TDBX40UDnSsowJ7oHhIHoI9ocAiZkBwZYYw3GL3IdWINt1nZ29xpSWw1JXUvsp_9WLI6Qhqrbhi27oMuOpAxgYbFM5_01H7xSQ4hR6QhLnvVVo2-5toeu-jgFEZlxBBdfijt1sqSYExsgPTK8YCVt81otU9J7mj5Bx_JqwrJIR89aYWM_nG5WkiChHe5jcgnSDOWLyhHTFiHufbkgOdc3f2_IbmAphkRZnUkzJT9hoUZBeYBrlNltTw82kF_V4wKZCfgMZtrAFOZv_ww_JAmaNe9w21QW2eW3K0x10f82N023nSuA0RDuXyVAe1RtSvnu4awXnDVY-gCdII6eGLTMaQ8GPH9VLQesexeCQy2tKmp1c321r4Wfhva8z5EEk9Cn98bWo5-hXc7Bm1m00]--></g></svg>