<svg xmlns="http://www.w3.org/2000/svg" xmlns:xlink="http://www.w3.org/1999/xlink" contentStyleType="text/css" data-diagram-type="DESCRIPTION" height="598px" preserveAspectRatio="none" style="width:147px;height:598px;background:#FFFFFF;" version="1.1" viewBox="0 0 147 598" width="147px" zoomAndPan="magnify"><defs/><g><!--cluster Crusher--><g class="cluster" data-entity="Crusher" data-source-line="12" data-uid="ent0005" id="cluster_Crusher"><path d="M22,121 L76.6826,121 A3.75,3.75 0 0 1 79.1826,123.5 L86.1826,145.6211 L127,145.6211 A2.5,2.5 0 0 1 129.5,148.1211 L129.5,220.5 A2.5,2.5 0 0 1 127,223 L22,223 A2.5,2.5 0 0 1 19.5,220.5 L19.5,123.5 A2.5,2.5 0 0 1 22,121" fill="#FFFFE0" style="stroke:#000000;stroke-width:1.5;"/><line style="stroke:#000000;stroke-width:1.5;" x1="19.5" x2="86.1826" y1="145.6211" y2="145.6211"/><text fill="#000000" font-family="sans-serif" font-size="14" font-weight="bold" lengthAdjust="spacing" textLength="53.6826" x="23.5" y="138.1074">Crusher</text></g><!--entity S--><g class="entity" data-entity="S" data-source-line="14" data-uid="ent0006" id="entity_S"><rect fill="#ADD8E6" height="48.6211" rx="2.5" ry="2.5" style="stroke:#181818;stroke-width:0.5;" width="78.1309" x="35.5" y="158"/><rect fill="#ADD8E6" height="10" style="stroke:#181818;stroke-width:0.5;" width="15" x="93.6309" y="163"/><rect fill="#ADD8E6" height="2" style="stroke:#181818;stroke-width:0.5;" width="4" x="91.6309" y="165"/><rect fill="#ADD8E6" height="2" style="stroke:#181818;stroke-width:0.5;" width="4" x="91.6309" y="169"/><text fill="#000000" font-family="sans-serif" font-size="14" lengthAdjust="spacing" textLength="38.1309" x="50.5" y="193.1074">Splice</text></g><!--entity C--><g class="entity" data-entity="C" data-source-line="6" data-uid="ent0002" id="entity_C"><rect fill="#FFB6C1" height="48.6211" rx="2.5" ry="2.5" style="stroke:#181818;stroke-width:0.5;" width="83.5586" x="32.5" y="7"/><rect fill="#FFB6C1" height="10" style="stroke:#181818;stroke-width:0.5;" width="15" x="96.0586" y="12"/><rect fill="#FFB6C1" height="2" style="stroke:#181818;stroke-width:0.5;" width="4" x="94.0586" y="14"/><rect fill="#FFB6C1" height="2" style="stroke:#181818;stroke-width:0.5;" width="4" x="94.0586" y="18"/><text fill="#000000" font-family="sans-serif" font-size="14" lengthAdjust="spacing" textLength="43.5586" x="47.5" y="42.1074">Crystal</text></g><!--entity CS--><g class="entity" data-entity="CS" data-source-line="8" data-uid="ent0003" id="entity_CS"><rect fill="#F1F1F1" height="48.6211" rx="2.5" ry="2.5" style="stroke:#181818;stroke-width:0.5;" width="134.917" x="7" y="288"/><rect fill="#F1F1F1" height="10" style="stroke:#181818;stroke-width:0.5;" width="15" x="121.917" y="293"/><rect fill="#F1F1F1" height="2" style="stroke:#181818;stroke-width:0.5;" width="4" x="119.917" y="295"/><rect fill="#F1F1F1" height="2" style="stroke:#181818;stroke-width:0.5;" width="4" x="119.917" y="299"/><text fill="#000000" font-family="sans-serif" font-size="14" lengthAdjust="spacing" textLength="94.917" x="22" y="323.1074">Crystal Splinter</text></g><!--entity A--><g class="entity" data-entity="A" data-source-line="10" data-uid="ent0004" id="entity_A"><rect fill="#90EE90" height="48.6211" rx="2.5" ry="2.5" style="stroke:#181818;stroke-width:0.5;" width="80.4482" x="34.5" y="544"/><rect fill="#90EE90" height="10" style="stroke:#181818;stroke-width:0.5;" width="15" x="94.9482" y="549"/><rect fill="#90EE90" height="2" style="stroke:#181818;stroke-width:0.5;" width="4" x="92.9482" y="551"/><rect fill="#90EE90" height="2" style="stroke:#181818;stroke-width:0.5;" width="4" x="92.9482" y="555"/><text fill="#000000" font-family="sans-serif" font-size="14" lengthAdjust="spacing" textLength="40.4482" x="49.5" y="579.1074">Ammo</text></g><!--entity Cr--><g class="entity" data-entity="Cr" data-source-line="18" data-uid="ent0007" id="entity_Cr"><rect fill="#ADD8E6" height="48.6211" rx="2.5" ry="2.5" style="stroke:#181818;stroke-width:0.5;" width="82.0205" x="33.5" y="416"/><rect fill="#ADD8E6" height="10" style="stroke:#181818;stroke-width:0.5;" width="15" x="95.5205" y="421"/><rect fill="#ADD8E6" height="2" style="stroke:#181818;stroke-width:0.5;" width="4" x="93.5205" y="423"/><rect fill="#ADD8E6" height="2" style="stroke:#181818;stroke-width:0.5;" width="4" x="93.5205" y="427"/><text fill="#000000" font-family="sans-serif" font-size="14" lengthAdjust="spacing" textLength="42.0205" x="48.5" y="451.1074">Create</text></g><!--link C to S--><g class="link" data-entity-1="C" data-entity-2="S" data-source-line="21" data-uid="lnk8" id="link_C_S"><path d="M74.5,56.11 C74.5,83.85 74.5,123.61 74.5,151.51" fill="none" id="C-to-S" style="stroke:#181818;stroke-width:1;"/><polygon fill="#181818" points="74.5,157.51,78.5,148.51,74.5,152.51,70.5,148.51,74.5,157.51" style="stroke:#181818;stroke-width:1;"/><text fill="#000000" font-family="sans-serif" font-size="13" lengthAdjust="spacing" textLength="7.23" x="75.5" y="101.0283">1</text></g><!--link S to CS--><g class="link" data-entity-1="S" data-entity-2="CS" data-source-line="22" data-uid="lnk9" id="link_S_CS"><path d="M74.5,207.28 C74.5,230.27 74.5,258.9 74.5,281.85" fill="none" id="S-to-CS" style="stroke:#181818;stroke-width:1;"/><polygon fill="#181818" points="74.5,287.85,78.5,278.85,74.5,282.85,70.5,278.85,74.5,287.85" style="stroke:#181818;stroke-width:1;"/><text fill="#000000" font-family="sans-serif" font-size="13" lengthAdjust="spacing" textLength="14.46" x="75.5" y="254.0283">10</text></g><!--link CS to Cr--><g class="link" data-entity-1="CS" data-entity-2="Cr" data-source-line="23" data-uid="lnk10" id="link_CS_Cr"><path d="M74.5,337.2 C74.5,359.73 74.5,387.42 74.5,409.91" fill="none" id="CS-to-Cr" style="stroke:#181818;stroke-width:1;"/><polygon fill="#181818" points="74.5,415.91,78.5,406.91,74.5,410.91,70.5,406.91,74.5,415.91" style="stroke:#181818;stroke-width:1;"/><text fill="#000000" font-family="sans-serif" font-size="13" lengthAdjust="spacing" textLength="14.46" x="75.5" y="382.0283">10</text></g><!--link Cr to A--><g class="link" data-entity-1="Cr" data-entity-2="A" data-source-line="24" data-uid="lnk11" id="link_Cr_A"><path d="M74.5,465.2 C74.5,487.73 74.5,515.42 74.5,537.91" fill="none" id="Cr-to-A" style="stroke:#181818;stroke-width:1;"/><polygon fill="#181818" points="74.5,543.91,78.5,534.91,74.5,538.91,70.5,534.91,74.5,543.91" style="stroke:#181818;stroke-width:1;"/><text fill="#000000" font-family="sans-serif" font-size="13" lengthAdjust="spacing" textLength="7.23" x="75.5" y="510.0283">1</text></g><!--SRC=[LOvD2y8m38Rl-HK1pmEzUX1AVqAFug5sSItBFaWxP8Z_tQwhYBSyFE-Rn8UMSA3afpQ2t-0HYB-p2-AO0AvQrfWitz16r7ZWqFaqXx7_AJGpXp6Hx1cJZHg6gP2gZKw8He3PkjvsX5gMw4cgN8bvUk8h5xTLZahLL7ld9V_nBlV8fbrg-REWiMakkNB64vWowm97q1MbeXHK9Va1]--></g></svg>